<?xml version="1.0" encoding="utf-8"?>
<!-- Generator: Adobe Illustrator 21.0.0, SVG Export Plug-In . SVG Version: 6.00 Build 0)  -->
<svg version="1.1" id="Camada_1" xmlns="http://www.w3.org/2000/svg" xmlns:xlink="http://www.w3.org/1999/xlink" x="0px" y="0px"
	 viewBox="0 0 25.9 25.9" style="enable-background:new 0 0 25.9 25.9;" xml:space="preserve">
<style type="text/css">
	.st0{fill:#FFFFFF;}
	.st1{enable-background:new    ;}
	.st2{fill:#009933;}
</style>
<title>instagram</title>
<g id="Camada_2">
	<g id="Camada_1-2">
		<g>
			<circle class="st0" cx="12.9" cy="12.9" r="12.9"/>
		</g>
		<g class="st1">
			<path class="st2" d="M19.8,16c-0.1,1.1-0.3,2.1-1.1,2.9s-1.8,1.1-2.9,1.1c-0.9,0.1-1.9,0-2.8,0s-1.9,0-2.8,0
				C9,19.9,8,19.6,7.2,18.8C6.4,18,6.2,17.1,6.1,16c-0.1-0.9,0-1.9,0-2.8s0-1.9,0-2.8c0.1-1.1,0.3-2.1,1.1-2.9C8,6.6,9,6.4,10.1,6.3
				c0.9-0.1,1.9,0,2.8,0s1.9,0,2.8,0c1.1,0.1,2.1,0.3,2.9,1.1s1.1,1.8,1.1,2.9c0.1,0.9,0,1.9,0,2.8S19.8,15,19.8,16z M8.9,7.8
				C8.6,7.9,8.4,8.1,8.1,8.3C7.9,8.5,7.7,8.8,7.6,9.1c-0.4,0.9-0.3,3-0.3,4s-0.1,3.1,0.3,4c0.1,0.3,0.3,0.5,0.5,0.8
				c0.2,0.2,0.5,0.4,0.8,0.5c0.9,0.4,3,0.3,4,0.3s3.1,0.1,4-0.3c0.3-0.1,0.5-0.3,0.8-0.5c0.2-0.2,0.4-0.5,0.5-0.8
				c0.4-0.9,0.3-3,0.3-4s0.1-3.1-0.3-4c-0.1-0.3-0.3-0.5-0.5-0.8c-0.2-0.2-0.5-0.4-0.8-0.5c-0.9-0.4-3-0.3-4-0.3S9.8,7.4,8.9,7.8z
				 M12.9,16.6c-1.9,0-3.5-1.6-3.5-3.5s1.6-3.5,3.5-3.5c1.9,0,3.5,1.6,3.5,3.5S14.9,16.6,12.9,16.6z M12.9,10.8
				c-1.3,0-2.3,1-2.3,2.3s1,2.3,2.3,2.3s2.3-1,2.3-2.3S14.2,10.8,12.9,10.8z M16.6,10.3c-0.5,0-0.8-0.4-0.8-0.8
				c0-0.5,0.4-0.8,0.8-0.8s0.8,0.4,0.8,0.8C17.4,9.9,17.1,10.3,16.6,10.3z"/>
		</g>
	</g>
</g>
</svg>
