<?xml version="1.0" encoding="utf-8"?>
<!-- Generator: Adobe Illustrator 21.0.0, SVG Export Plug-In . SVG Version: 6.00 Build 0)  -->
<svg version="1.1" id="Camada_1" xmlns="http://www.w3.org/2000/svg" xmlns:xlink="http://www.w3.org/1999/xlink" x="0px" y="0px"
	 viewBox="0 0 25.9 25.9" style="enable-background:new 0 0 25.9 25.9;" xml:space="preserve">
<style type="text/css">
	.st0{fill:#FFFFFF;}
	.st1{enable-background:new    ;}
	.st2{fill:#009933;}
</style>
<title>youtube</title>
<g id="Camada_2">
	<g id="Camada_1-2">
		<g>
			<circle class="st0" cx="12.9" cy="12.9" r="12.9"/>
		</g>
		<g class="st1">
			<path class="st2" d="M18.5,7.7c0.3,0,1,0,1.6,0.7c0,0,0.5,0.5,0.6,1.6c0.2,1.3,0.2,2.6,0.2,2.6v1.2c0,0,0,1.3-0.2,2.6
				c-0.1,1.1-0.6,1.6-0.6,1.6c-0.6,0.6-1.3,0.6-1.6,0.7c0,0-2.2,0.2-5.6,0.2c-4.2,0-5.4-0.2-5.4-0.2c-0.4-0.1-1.2,0-1.8-0.7
				c0,0-0.5-0.5-0.6-1.6C4.9,15,5,13.7,5,13.7v-1.2c0,0,0-1.3,0.2-2.6c0.1-1.1,0.6-1.6,0.6-1.6C6.4,7.7,7,7.7,7.4,7.7
				c0,0,2.2-0.2,5.6-0.2S18.5,7.7,18.5,7.7z M15.6,13l-4.3-2.3v4.5L15.6,13z"/>
		</g>
	</g>
</g>
</svg>
