<svg xmlns="http://www.w3.org/2000/svg" viewBox="0 0 478.82 478.82"><defs><style>.cls-1{fill:#f1bc33;}.cls-2{fill:#212a56;}</style></defs><title>50porcento</title><g id="Camada_2" data-name="Camada 2"><g id="Camada_1-2" data-name="Camada 1"><rect class="cls-1" x="70.12" y="70.12" width="338.57" height="338.57" transform="translate(239.41 577.98) rotate(-135)"/><path class="cls-2" d="M126.84,171.9a5.34,5.34,0,0,0-2.56-.7,5,5,0,0,0-2.66.73,5.17,5.17,0,0,0-1.89,2,6.24,6.24,0,0,0,0,5.7,5.17,5.17,0,0,0,1.89,2,5,5,0,0,0,2.66.73,5.84,5.84,0,0,0,2.48-.61,7.85,7.85,0,0,0,2.31-1.65l2.95,3.17a11.78,11.78,0,0,1-3.73,2.63,10.36,10.36,0,0,1-9.46-.34A9.65,9.65,0,0,1,115.2,182a10,10,0,0,1-1.32-5.12,9.62,9.62,0,0,1,5.05-8.62,11,11,0,0,1,9.51-.4,10.5,10.5,0,0,1,3.55,2.44l-2.92,3.52A7.2,7.2,0,0,0,126.84,171.9Z"/><path class="cls-2" d="M139.94,181.49a3.64,3.64,0,0,0,2.73,1.1,3.41,3.41,0,0,0,2.63-1.09,4.15,4.15,0,0,0,1-2.93V167.23h5v11.34a8.81,8.81,0,0,1-1.06,4.39,7.17,7.17,0,0,1-3,2.9,9.91,9.91,0,0,1-4.61,1,10.07,10.07,0,0,1-4.64-1,7.3,7.3,0,0,1-3.08-2.9,8.63,8.63,0,0,1-1.09-4.39V167.23h5v11.34A4,4,0,0,0,139.94,181.49Z"/><path class="cls-2" d="M166.37,186.53l-2.81-5.34h-3.74v5.34h-5v-19.3h8.67a8.94,8.94,0,0,1,5.93,1.78,6.18,6.18,0,0,1,2.11,5,7.6,7.6,0,0,1-.88,3.76,6.08,6.08,0,0,1-2.56,2.46l4,6.3Zm-6.55-9.36h3.66a3.39,3.39,0,0,0,2.38-.77,2.87,2.87,0,0,0,.84-2.23,2.76,2.76,0,0,0-.84-2.16,3.43,3.43,0,0,0-2.38-.76h-3.66Z"/><path class="cls-2" d="M184.72,171.56a9.7,9.7,0,0,0-2.93-.58,2.71,2.71,0,0,0-1.47.34,1.12,1.12,0,0,0-.54,1,1.37,1.37,0,0,0,.47,1.06,3.57,3.57,0,0,0,1.16.69q.69.26,2,.67a26.48,26.48,0,0,1,3.32,1.16,5.8,5.8,0,0,1,2.24,1.78,4.93,4.93,0,0,1,.94,3.12,5.34,5.34,0,0,1-1,3.29,6.17,6.17,0,0,1-2.79,2.05,10.86,10.86,0,0,1-4,.69,14.29,14.29,0,0,1-4.78-.84,13.07,13.07,0,0,1-4.12-2.3l2-3.94a12.15,12.15,0,0,0,3.45,2.12,9.43,9.43,0,0,0,3.54.83,3.29,3.29,0,0,0,1.78-.41,1.35,1.35,0,0,0,.65-1.21,1.43,1.43,0,0,0-.48-1.1,3.55,3.55,0,0,0-1.21-.7q-.73-.26-2.05-.62a25.33,25.33,0,0,1-3.28-1.12,5.79,5.79,0,0,1-2.22-1.71,4.7,4.7,0,0,1-.92-3,5.31,5.31,0,0,1,.95-3.14,6,6,0,0,1,2.7-2.08,10.48,10.48,0,0,1,4.06-.73,14.73,14.73,0,0,1,4.13.59,13.61,13.61,0,0,1,3.58,1.58l-1.9,4A16.89,16.89,0,0,0,184.72,171.56Z"/><path class="cls-2" d="M207,168.23a9.6,9.6,0,0,1,5.11,8.62,9.77,9.77,0,0,1-5.11,8.73,11.45,11.45,0,0,1-10.65,0,9.68,9.68,0,0,1-3.74-3.61,9.87,9.87,0,0,1-1.36-5.13,9.6,9.6,0,0,1,5.11-8.62,11.61,11.61,0,0,1,10.65,0Zm-7.93,3.72a5.35,5.35,0,0,0-1.94,2.05,6.14,6.14,0,0,0,0,5.78,5.6,5.6,0,0,0,1.94,2.06,4.89,4.89,0,0,0,2.64.76,4.83,4.83,0,0,0,2.63-.76,5.33,5.33,0,0,0,1.89-2.06,6.41,6.41,0,0,0,0-5.78,5.23,5.23,0,0,0-1.89-2.05,4.9,4.9,0,0,0-2.63-.74A5,5,0,0,0,199.09,171.94Z"/><path class="cls-2" d="M224.63,171.56a9.7,9.7,0,0,0-2.93-.58,2.71,2.71,0,0,0-1.47.34,1.12,1.12,0,0,0-.54,1,1.37,1.37,0,0,0,.47,1.06,3.57,3.57,0,0,0,1.16.69q.69.26,2,.67a26.48,26.48,0,0,1,3.32,1.16,5.8,5.8,0,0,1,2.24,1.78,4.93,4.93,0,0,1,.94,3.12,5.34,5.34,0,0,1-1,3.29,6.17,6.17,0,0,1-2.79,2.05,10.86,10.86,0,0,1-4,.69,14.29,14.29,0,0,1-4.78-.84,13.07,13.07,0,0,1-4.12-2.3l2-3.94a12.15,12.15,0,0,0,3.45,2.12,9.43,9.43,0,0,0,3.54.83,3.29,3.29,0,0,0,1.78-.41,1.35,1.35,0,0,0,.65-1.21,1.43,1.43,0,0,0-.48-1.1,3.55,3.55,0,0,0-1.21-.7q-.73-.26-2.05-.62a25.33,25.33,0,0,1-3.28-1.12,5.79,5.79,0,0,1-2.22-1.71,4.7,4.7,0,0,1-.92-3,5.31,5.31,0,0,1,.95-3.14,6,6,0,0,1,2.7-2.08,10.48,10.48,0,0,1,4.06-.73,14.73,14.73,0,0,1,4.13.59,13.61,13.61,0,0,1,3.58,1.58l-1.9,4A16.89,16.89,0,0,0,224.63,171.56Z"/><path class="cls-2" d="M250.25,171.9a5.34,5.34,0,0,0-2.56-.7,5,5,0,0,0-2.66.73,5.17,5.17,0,0,0-1.89,2,6.24,6.24,0,0,0,0,5.7,5.17,5.17,0,0,0,1.89,2,5,5,0,0,0,2.66.73,5.84,5.84,0,0,0,2.48-.61,7.85,7.85,0,0,0,2.31-1.65l2.95,3.17a11.78,11.78,0,0,1-3.73,2.63,10.36,10.36,0,0,1-9.46-.34A9.65,9.65,0,0,1,238.6,182a10,10,0,0,1-1.32-5.12,9.62,9.62,0,0,1,5.05-8.62,11,11,0,0,1,9.51-.4,10.5,10.5,0,0,1,3.55,2.44l-2.92,3.52A7.2,7.2,0,0,0,250.25,171.9Z"/><path class="cls-2" d="M271.76,168.23a9.6,9.6,0,0,1,5.11,8.62,9.77,9.77,0,0,1-5.11,8.73,11.45,11.45,0,0,1-10.65,0,9.68,9.68,0,0,1-3.74-3.61,9.87,9.87,0,0,1-1.36-5.13,9.6,9.6,0,0,1,5.11-8.62,11.61,11.61,0,0,1,10.65,0Zm-7.93,3.72a5.35,5.35,0,0,0-1.94,2.05,6.14,6.14,0,0,0,0,5.78,5.6,5.6,0,0,0,1.94,2.06,4.89,4.89,0,0,0,2.64.76,4.83,4.83,0,0,0,2.63-.76,5.33,5.33,0,0,0,1.89-2.06,6.41,6.41,0,0,0,0-5.78,5.23,5.23,0,0,0-1.89-2.05,4.9,4.9,0,0,0-2.63-.74A5,5,0,0,0,263.83,171.94Z"/><path class="cls-2" d="M279.37,167.23h5.48l5.59,11.29L296,167.23h5.48v19.3H297l0-12.22-4.93,10.29h-3.25l-5-10.29v12.22h-4.49Z"/><path class="cls-2" d="M325.5,186.53l-1.32-3.41h-8.34l-1.35,3.41h-5.17l8.29-19.3h5.18l8.09,19.3Zm-8.15-7.27h5.34l-2.64-6.88Z"/><path class="cls-2" d="M328.86,167.23H345.4v4.16h-5.78v15.14h-5V171.39h-5.73Z"/><path class="cls-2" d="M347.44,167.23h15.22v4H352.48v3.61h9.19v4l-9.19,0v3.63h10.46v4h-15.5Zm8.56-6.08,4,1.54-4,3.17-3.36-.28Z"/><path class="cls-2" d="M167,237.59a22.64,22.64,0,0,1,9.75,7.7,19.26,19.26,0,0,1,3.44,11.29,24,24,0,0,1-3.59,13.14,23.47,23.47,0,0,1-10.27,8.73,36.67,36.67,0,0,1-15.5,3.08A48.28,48.28,0,0,1,136,279.07a53.77,53.77,0,0,1-13.6-6.47l7-13.55q10,8,19.41,8,5.34,0,8.32-2.41a8.06,8.06,0,0,0,3-6.62,7.55,7.55,0,0,0-2.93-6.42q-2.93-2.21-8.78-2.21-13.66,0-19.71.41V208.74H177v15.09H145.88v11h6.47A36.11,36.11,0,0,1,167,237.59Z"/><path class="cls-2" d="M243.47,217.57q8.26,9.45,8.27,27.11t-8.27,27.16q-8.27,9.5-23.56,9.5-15.5,0-23.77-9.5t-8.27-27.16q0-17.66,8.27-27.11t23.77-9.45Q235.21,208.13,243.47,217.57Zm-33.32,9.81q-3,5.29-3,17.3t3,17.4q3,5.29,9.75,5.29,6.57,0,9.6-5.34t3-17.35q0-12-3-17.3t-9.6-5.29Q213.13,222.09,210.15,227.38Z"/><path class="cls-2" d="M293,214.34q5.44,5.91,5.44,15.86t-5.44,16q-5.44,5.91-14.68,5.9t-14.73-5.9q-5.49-5.9-5.49-16t5.49-15.86q5.49-5.9,14.73-5.9T293,214.34Zm-20.95,7.14q-2.26,3.18-2.26,8.73t2.26,8.73a7.75,7.75,0,0,0,12.53,0q2.26-3.18,2.26-8.73t-2.26-8.73a7.75,7.75,0,0,0-12.53,0ZM326,208.74H338.6l-51.13,72H274.73ZM350.2,243.4q5.44,5.91,5.44,15.86t-5.44,16q-5.44,5.9-14.68,5.9t-14.73-5.9q-5.49-5.9-5.49-16t5.49-15.86q5.49-5.9,14.73-5.9T350.2,243.4Zm-20.95,7.14q-2.26,3.18-2.26,8.73t2.26,8.73a7.75,7.75,0,0,0,12.53,0q2.26-3.18,2.26-8.73t-2.26-8.73a7.75,7.75,0,0,0-12.53,0Z"/><path class="cls-2" d="M152.92,307.22a8.87,8.87,0,0,1,3.62,3.4,10.38,10.38,0,0,1,0,10.06,8.86,8.86,0,0,1-3.69,3.41,11.88,11.88,0,0,1-5.46,1.21h-8.12V306h8.31A11.43,11.43,0,0,1,152.92,307.22Zm-2.63,13.32a4.68,4.68,0,0,0,1.76-2,6.37,6.37,0,0,0,.63-2.89,6.12,6.12,0,0,0-.67-2.92,4.93,4.93,0,0,0-1.86-2,5.19,5.19,0,0,0-2.7-.7h-3.17v11.12h3.41A4.87,4.87,0,0,0,150.29,320.55Z"/><path class="cls-2" d="M160.34,306h15.22v4H165.38v3.61h9.19v4l-9.19,0v3.63h10.46v4h-15.5Z"/><path class="cls-2" d="M198.7,307.22a8.87,8.87,0,0,1,3.62,3.4,10.38,10.38,0,0,1,0,10.06,8.86,8.86,0,0,1-3.69,3.41,11.88,11.88,0,0,1-5.46,1.21H185V306h8.31A11.43,11.43,0,0,1,198.7,307.22Zm-2.63,13.32a4.68,4.68,0,0,0,1.76-2,6.37,6.37,0,0,0,.63-2.89,6.12,6.12,0,0,0-.67-2.92,4.93,4.93,0,0,0-1.86-2,5.19,5.19,0,0,0-2.7-.7h-3.17v11.12h3.41A4.87,4.87,0,0,0,196.07,320.55Z"/><path class="cls-2" d="M206.11,306h15.22v4H211.15v3.61h9.19v4l-9.19,0v3.63h10.46v4h-15.5Z"/><path class="cls-2" d="M234.7,310.33a9.7,9.7,0,0,0-2.93-.58,2.71,2.71,0,0,0-1.47.34,1.12,1.12,0,0,0-.54,1,1.37,1.37,0,0,0,.47,1.06,3.57,3.57,0,0,0,1.16.69q.69.26,2,.67a26.48,26.48,0,0,1,3.32,1.16,5.8,5.8,0,0,1,2.24,1.78,4.93,4.93,0,0,1,.94,3.12,5.34,5.34,0,0,1-1,3.29,6.17,6.17,0,0,1-2.79,2.05,10.86,10.86,0,0,1-4,.69,14.29,14.29,0,0,1-4.78-.84,13.07,13.07,0,0,1-4.12-2.3l2-3.94a12.15,12.15,0,0,0,3.45,2.12,9.43,9.43,0,0,0,3.54.83,3.29,3.29,0,0,0,1.78-.41,1.35,1.35,0,0,0,.65-1.21,1.43,1.43,0,0,0-.48-1.1,3.55,3.55,0,0,0-1.21-.7q-.73-.26-2.05-.62a25.33,25.33,0,0,1-3.28-1.12,5.79,5.79,0,0,1-2.22-1.71,4.7,4.7,0,0,1-.92-3,5.31,5.31,0,0,1,.95-3.14,6,6,0,0,1,2.7-2.08,10.48,10.48,0,0,1,4.06-.73,14.73,14.73,0,0,1,4.13.59,13.61,13.61,0,0,1,3.58,1.58l-1.9,4A16.89,16.89,0,0,0,234.7,310.33Z"/><path class="cls-2" d="M254.2,310.68a5.34,5.34,0,0,0-2.56-.7,5,5,0,0,0-2.66.73,5.17,5.17,0,0,0-1.89,2,6.24,6.24,0,0,0,0,5.7,5.17,5.17,0,0,0,1.89,2,5,5,0,0,0,2.66.73,5.84,5.84,0,0,0,2.48-.61,7.85,7.85,0,0,0,2.31-1.65l2.95,3.17a11.78,11.78,0,0,1-3.73,2.63,10.36,10.36,0,0,1-9.46-.34,9.65,9.65,0,0,1-3.63-3.61,10,10,0,0,1-1.32-5.12,9.62,9.62,0,0,1,5.05-8.62,11,11,0,0,1,9.51-.4,10.5,10.5,0,0,1,3.55,2.44l-2.92,3.52A7.2,7.2,0,0,0,254.2,310.68Z"/><path class="cls-2" d="M275.72,307a9.6,9.6,0,0,1,5.11,8.62,9.77,9.77,0,0,1-5.11,8.73,11.45,11.45,0,0,1-10.65,0,9.68,9.68,0,0,1-3.74-3.61,9.87,9.87,0,0,1-1.36-5.13,9.6,9.6,0,0,1,5.11-8.62,11.61,11.61,0,0,1,10.65,0Zm-7.93,3.72a5.35,5.35,0,0,0-1.94,2.05,6.14,6.14,0,0,0,0,5.78,5.6,5.6,0,0,0,1.94,2.06,4.89,4.89,0,0,0,2.64.76,4.83,4.83,0,0,0,2.63-.76,5.33,5.33,0,0,0,1.89-2.06,6.41,6.41,0,0,0,0-5.78,5.23,5.23,0,0,0-1.89-2.05,4.9,4.9,0,0,0-2.63-.74A5,5,0,0,0,267.79,310.72Z"/><path class="cls-2" d="M296.51,306h4.68v19.3h-4.4L288,313.77v11.53h-4.71V306h4.43l8.78,11.62Z"/><path class="cls-2" d="M303.28,306h16.54v4.16H314v15.14h-5V310.17h-5.73Z"/><path class="cls-2" d="M335.42,307a9.6,9.6,0,0,1,5.11,8.62,9.77,9.77,0,0,1-5.11,8.73,11.45,11.45,0,0,1-10.65,0,9.68,9.68,0,0,1-3.74-3.61,9.87,9.87,0,0,1-1.36-5.13,9.6,9.6,0,0,1,5.11-8.62,11.61,11.61,0,0,1,10.65,0Zm-7.93,3.72a5.35,5.35,0,0,0-1.94,2.05,6.14,6.14,0,0,0,0,5.78,5.6,5.6,0,0,0,1.94,2.06,4.89,4.89,0,0,0,2.64.76,4.83,4.83,0,0,0,2.63-.76,5.33,5.33,0,0,0,1.89-2.06,6.41,6.41,0,0,0,0-5.78,5.23,5.23,0,0,0-1.89-2.05,4.9,4.9,0,0,0-2.63-.74A5,5,0,0,0,327.49,310.72Z"/></g></g></svg>