<svg xmlns="http://www.w3.org/2000/svg" viewBox="0 0 628.48 663.96"><defs><style>.cls-1{fill:#f1bc33;}.cls-2{fill:#12a455;}.cls-3{fill:#1496d3;}.cls-4{fill:#3d4392;}.cls-5{fill:#1497d3;}.cls-6{fill:#1597d3;}.cls-7{fill:#13a556;}.cls-8{fill:#a4dcbf;}.cls-9{fill:#d4c591;}.cls-10{fill:#dfad2e;}.cls-11{fill:#dead2e;}.cls-12{fill:#212320;}.cls-13{fill:#736032;}.cls-14{fill:#e2b02d;}.cls-15{fill:#225934;}.cls-16{fill:#1c7340;}.cls-17{fill:#21492e;}.cls-18{fill:#343121;}.cls-19{fill:#4c5732;}.cls-20{fill:#2c472b;}.cls-21{fill:#195534;}.cls-22{fill:#c79b2b;}.cls-23{fill:#0b7d47;}.cls-24{fill:#d9a82d;}.cls-25{fill:#554e24;}.cls-26{fill:#494125;}.cls-27{fill:#28743f;}.cls-28{fill:#274c2f;}.cls-29{fill:#252520;}.cls-30{fill:#0c7242;}.cls-31{fill:#135434;}.cls-32{fill:#474a25;}.cls-33{fill:#0e6b3f;}.cls-34{fill:#3c3e95;}.cls-35{fill:#504528;}.cls-36{fill:#12673d;}.cls-37{fill:#b78d26;}.cls-38{fill:#0f673e;}.cls-39{fill:#0f5d37;}.cls-40{fill:#0e7844;}.cls-41{fill:#079150;}.cls-42{fill:#118b4b;}.cls-43{fill:#6c5723;}.cls-44{fill:#f0f0f2;}.cls-45{fill:#7a7978;}.cls-46{fill:#f2f2f3;}.cls-47{fill:#6e6d6c;}.cls-48{fill:#23241f;}.cls-49{fill:#13181e;}.cls-50{fill:#d0a12b;}.cls-51{fill:#245030;}.cls-52{fill:#b78623;}.cls-53{fill:#0f7241;}.cls-54{fill:#f6f7f8;}.cls-55{fill:#232c24;}.cls-56{fill:#e9e7e8;}.cls-57{fill:#7d7b7b;}.cls-58{fill:#146e3f;}.cls-59{fill:#0b6840;}.cls-60{fill:#d5a52c;}.cls-61{fill:#1c7741;}.cls-62{fill:#1c492f;}.cls-63{fill:#0d7442;}.cls-64{fill:#18432d;}.cls-65{fill:#1e2921;}.cls-66{fill:#cbcaca;}.cls-67{fill:#4f4940;}.cls-68{fill:#0897db;}.cls-69{fill:#453e2f;}.cls-70{fill:#1d6038;}.cls-71{fill:#1d673a;}.cls-72{fill:#145131;}.cls-73{fill:#0c7a45;}.cls-74{fill:#059853;}.cls-75{fill:#0a7f47;}.cls-76{fill:#fdfefe;}.cls-77{fill:#f6c337;}.cls-78{fill:#9293c2;}.cls-79{fill:#a3a3cc;}.cls-80{fill:#b9bad8;}.cls-81{fill:#705d2c;}.cls-82{fill:#2e2b28;}.cls-83{fill:#878787;}.cls-84{fill:#878687;}.cls-85{fill:#18171a;}.cls-86{fill:#392f1b;}.cls-87{fill:#176739;}.cls-88{fill:#1a703e;}.cls-89{fill:#09080d;}.cls-90{fill:#cd9b25;}.cls-91{fill:#b18626;}.cls-92{fill:#c09324;}.cls-93{fill:#1c3527;}.cls-94{fill:#0b683d;}.cls-95{fill:#b7e2f4;}.cls-96{fill:#55b9e8;}.cls-97{fill:#72613a;}.cls-98{fill:#7e93a9;}.cls-99{fill:#7097cf;}.cls-100{fill:#0a274e;}.cls-101{fill:#97a5b6;}.cls-102{fill:#2c3f65;}.cls-103{fill:#c8d1da;}.cls-104{fill:#c4ced8;}.cls-105{fill:#24375f;}.cls-106{fill:#091537;}.cls-107{fill:#506584;}.cls-108{fill:#1d355d;}.cls-109{fill:#304167;}.cls-110{fill:#c2ccd6;}.cls-111{fill:#29385f;}.cls-112{fill:#c3ccd6;}.cls-113{fill:#0a1242;}.cls-114{fill:#4e6484;}.cls-115{fill:#2c517e;}.cls-116{fill:#2e456a;}.cls-117{fill:#3a5074;}.cls-118{fill:#9b8c44;}.cls-119{fill:#515b4f;}.cls-120{fill:#886a22;}.cls-121{fill:#102f54;}.cls-122{fill:#2c4c70;}.cls-123{fill:#5b7ca0;}.cls-124{fill:#82a9e6;}.cls-125{fill:#1b365c;}.cls-126{fill:#0c264a;}.cls-127{fill:#fff;}</style></defs><title>eap-home_1</title><g id="Camada_2" data-name="Camada 2"><g id="Camada_1-2" data-name="Camada 1"><path class="cls-1" d="M415.22,0c14.34,17.25,30.42,32.87,46.39,48.55,5.61,5.51,6.19,8.46.09,14.09-14.92,13.78-29.23,28.22-43.4,42.79-4.54,4.67-7.5,4.57-11.62-.16s-9-9-13.48-13.52C382.39,81.52,372,70.83,361.55,60.29c-1.57-1.57-4.23-2.82-3.18-5.91,15.86-15.5,31.77-31,47.55-46.53,2.28-2.25,5.59-3.94,5.64-7.86Z"/><path class="cls-1" d="M275.92,382.59c-1.28-1.14-2.9-2.45-4.36-3.91Q184.75,291.95,97.85,205.3c-5.32-5.28-3.69-7.92.7-12.29Q166.42,125.39,234,57.44c12.45-12.49,25-24.93,37-37.8,4.5-4.8,7.09-4.29,11.51.13q87.08,87.12,174.56,173.83c4.31,4.27,5.13,6.68.33,11.4Q369.6,291.42,282.2,378.2C280.52,379.87,279.16,382.06,275.92,382.59Z"/><path class="cls-2" d="M521,248.37C536.24,263.62,551.31,279,566.76,294c4,3.84,4.46,6.15.36,10.2Q530.56,340.38,494.47,377c-5,5.14-7.31,1.05-10.19-1.81-21.95-21.81-43.81-43.71-65.81-65.46-2.91-2.88-5.22-6.94-10.16-7-3.25-3-1.11-5.32,1.11-7.54,24.33-24.44,48.66-48.89,73.6-72.72,4.51-4.31,7.84-2.43,11.62,1.11C503.43,231.86,510.81,241.64,521,248.37Z"/><path class="cls-3" d="M491.61,63.78c2.73-.28,4.42,1.31,6.26,3.05,17.27,16.41,34.54,32.81,52,49,4.19,3.9,4.82,6.58.28,11C532.52,144,515.2,161.41,498,178.93c-3.45,3.51-5.8,4.21-9.68.46-18-17.4-36.1-34.71-54.56-51.63-4.87-4.46-3.57-6.76.37-10.56,17-16.41,33.86-33.08,50.73-49.68C486.76,65.61,488.38,63.26,491.61,63.78Z"/><path class="cls-1" d="M174.94,342.9c-1.25,1.43-2.14,2.61-3.19,3.64-10.77,10.66-21.66,21.2-32.31,32-3.59,3.63-6.17,3.52-9.78-.08q-15.76-15.73-32.09-30.88c-3.82-3.56-4.83-6.15-.51-10.26,10.76-10.23,21.15-20.85,31.63-31.37,2.61-2.62,4.88-4.33,8.34-.94,11.48,11.23,23.15,22.26,34.69,33.44A31.58,31.58,0,0,1,174.94,342.9Z"/><path class="cls-4" d="M554,166c10.45,11.7,24.11,19.91,34.51,31.73,3,3.42,3.67,4.9.06,8.33q-17.16,16.32-33.5,33.49c-3.59,3.78-5.36,2.84-8.42-.3-11-11.32-22.1-22.56-33.52-33.46-4.07-3.89-3.7-6.18-.22-10.36,9.34-11.24,23-17.65,31.94-29.19C547.8,161.47,550.88,162.44,554,166Z"/><path class="cls-4" d="M72.07,323c-9.79-9.92-19.42-20-29.46-29.67-3.2-3.08-3.27-4.58,0-7.67q15.82-15.06,31-30.83c4.17-4.36,7-4.24,11.09.08,9,9.46,18.25,18.65,27.71,27.62,4.18,4,4.88,6.72.14,10.94C105.95,299.34,100.11,306,94,312.24c-4.25,3.34-7.51,7.71-11.55,11.26C78.93,326.57,75.29,328.46,72.07,323Z"/><path class="cls-5" d="M71.54,92.44c2.49-.56,2.69,1.49,3.66,2.45,11,10.91,21.75,22,32.93,32.72,4.44,4.25,4,7-.34,11-8.91,8.25-17.51,16.86-25.92,25.62-4,4.16-6.87,4.68-11.14.18-9.6-10.13-19.7-19.79-29.58-29.67-2.4-2.39-5.1-4.65-1.44-8.29,10.24-10.19,20.37-20.47,29.49-31.71A23.44,23.44,0,0,1,71.54,92.44Z"/><path class="cls-6" d="M391.48,307.08c3.77,4.47,6.88,7.4,9.08,10.9,6.7,10.65,16.85,18,25.19,27.09,1.84,2,4.47,3,1.06,6.13-11.25,10.41-23.65,19.58-33.67,31.32-2.43,2.84-4,.7-5.77-1.12C377,370.81,366.68,360.15,356,349.86c-2.94-2.84-3.19-4.36-.22-7.1,11.29-10.44,22.43-21,33.58-31.62C390,310.56,390.2,309.57,391.48,307.08Z"/><path class="cls-7" d="M161.49,76.65c4.16,3.72,4.73,6.74-.17,10.95-7.36,6.31-14,13.44-20.75,20.48-3.06,3.21-5.34,4.35-8.9.57-6.45-6.86-13.26-13.38-20-20-2.75-2.72-3.64-4.82-.26-8.27,7.35-7.5,14.07-15.62,21-23.48,4.37-3.6,6.94,0,9.77,2.47C148.72,65.07,153.68,72.44,161.49,76.65Z"/><path class="cls-8" d="M161.49,76.65c-9.21-.93-12.29-9.74-18.56-14.46-3.2-2.42-5.22-6.91-10.43-5.3,1.54-4,3.47-6.73,7.58-2.35C147.12,62,155.43,68.24,161.49,76.65Z"/><path class="cls-9" d="M358.37,54.39c8.09,10.92,18.87,19.26,28,29.19,2.4,2.61,5.76,4.44,6.84,8.16-13.4-9.44-23.56-22.35-35.42-33.43C356.48,57.09,357.08,55.54,358.37,54.39Z"/><path class="cls-10" d="M340.27,286.32c4.41,7.11-1.39,9.2-6,11-7.9,3.15-16.45,3.82-24.84,4.66-29.21,2.94-58.3,3.78-87.13-3.91-13.7-3.65-23.07-12.73-32.34-22.4-9.81-10.25-13.91-24.92-26.1-33.36-3.58-2.48-2.14-5.86-.52-9,2.27-.84,4.25.15,6.26,1,3.26,1.61,6.59,3.42,10.17,3.76,7.58.72,11.84,2.5,5.71,10.6-2.14,2.82-.41,5,2.61,6.33s6.38,2.2,7.87,5.68a13.65,13.65,0,0,0,8.59,11.81c1.65.73,3.8,1.38,4.57,2.85,7.29,13.92,21.52,12,33.36,13.66A244.59,244.59,0,0,0,329,285.87C332.68,285.06,336.64,283.2,340.27,286.32Z"/><path class="cls-11" d="M156,193.5c-5.37-2.23-2.8-6.21-1.49-9.15,7.26-16.37,10.73-34.15,21.17-49.46a263.39,263.39,0,0,1,23.78-29.46c4.79-5.23,12.1-.51,17.69-3.72,7.44-4.27,14.38-2,21,2.35.44,4.33-4.53,4.13-5.85,7a7.93,7.93,0,0,1-2.09,1.49c-3.61,1.26-6.86.32-9.95-1.61a14.32,14.32,0,0,1-1.94-1.62c-3.5-3.25-6.63-2-9.62.79-4.5,7.8-6.58,17.33-15.59,21.91-2.72,1.51-5.84,2.6-6.54,6.25.92,9.48-4.57,15-11.85,19.49-3.9,7.49.52,14.61,1,21.89-.33,1.49-.86,3.19-2.57,3.16-6.95-.11-10.9,3.24-12.78,9.82C159.81,194.44,157.84,195,156,193.5Z"/><path class="cls-12" d="M380.58,180.41c1.47,2.43-7.63,5.33.34,7.46a5.49,5.49,0,0,1,.8,3.85c-1.85,4.31-2.41,11.06-9.7,5.17a6.1,6.1,0,0,1-1.8-4.71c.25-2,.76-4,1-6.09.19-2.75,2.06-5.58-.5-8.15-4-5.13-10.67-2.92-15.51-5.69-1.78-4.38,1.67-5.22,4.44-6.05,3.11-.93,3.75-2.62,2.67-5.4-2.85-8.9-8.76-14.31-18-15.91-2.25-2.62,3.52-8-3.34-9.19-2.14,3.26.18,7.06-1.25,10.36-.72,3.48-.15,7-.72,10.48-.43,2.61.12,6.31-4.47,5.91-4.12-7.57-1.74-15.77-2.16-23.68-.27-5.2-.4-10.17-5-13.7a9.91,9.91,0,0,1-2-5.64,10.7,10.7,0,0,1,1-5.52c.71-1,2-2.12,2.89-1.47,5.77,4.08,3.13-2.1,4.37-3.49a3.81,3.81,0,0,1,3.17-2.11c1.91-.1,3.67.12,4.71,2,1.52,3.27,1.05,7,2.4,10.31,1.36,4.5,3.11,7.49,7.72,2.57.81-.86,2.29-.43,3.31.43l.33.46a157.91,157.91,0,0,0,11.23,27.48c2.41,4,5.2,7.86,7.67,11.87a14.76,14.76,0,0,1,.94,2.39C375.5,170.22,383.39,173.51,380.58,180.41Z"/><path class="cls-13" d="M340.27,286.32c-20.47,4.11-41,7.53-62,7.47a311.15,311.15,0,0,1-57.69-5.73c-4.5-.86-9.83-1.37-10.22-8.22-.18-3.17-3.9-3.49-6.22-4.62-6.67-3.25-11.94-7.19-10.08-15.79,2.26-1.6,4.09-.39,5.9.9,1.41,6.63,7.48,8.81,12,12.49,3.6,1.6,3.89,6.73,8.2,7.57,40.43,7.9,80.66,8.58,120.6-2.76,3.57-1.79,3.82-8.29,9.69-6.85a4,4,0,0,1,2.73,3C349.22,278.36,347.54,285.23,340.27,286.32Z"/><path class="cls-14" d="M251,111.28c10.39,2.44,21,1.77,31.48,1.94,3.77.06,8.2-.05,10-3,8.33-13.57,19-8.82,29.78-4.57l-.79,1a8.35,8.35,0,0,1-4.93,1.15c-2,.29-4.36-1.55-5.88.6s-.12,3.94,1.81,5.27c.84.5,1.61,1,2.41,1.56,4.62,3.51,4.87,6.47-1.47,7.37-6.92,1-14,.33-20.94.58-15.15.55-30.35-1.19-45.47,1.32-3.69.61-8.17,1-9.81-4.18.33-3.74,3.08-4.79,6.1-5.54C246.41,114.77,248.78,113.19,251,111.28Z"/><path class="cls-15" d="M373.18,162.53a21.24,21.24,0,0,1-7.36-10.9c5-3.91,1.52-11,5.78-15.22,2,2.63,1.46,5.75,1.44,8.68,0,3.34,1.85,6,4.57,5.39,8.41-1.92,8.17,4.31,8.72,9,.89,7.59-.13,15-5.74,21-.07-6.45-8.21-9.28-7.27-16.18.77-1,2.18-1.68,1.94-3.3C374.49,161.38,373.93,162.08,373.18,162.53Z"/><path class="cls-16" d="M371.6,136.41c-.07,3.65-.11,7.29-.21,10.94s-1.26,6-5.57,4.27c-7.81-8.11-9.1-18.57-10.52-29,1.89,0,.76,8.33,5,1.82C363.88,128.62,373.18,127.37,371.6,136.41Z"/><path class="cls-17" d="M373.2,195.37c6.38,6.37,4.51-3.09,7.22-3.76,1.63,1.35,3.22,1.77,4.19-.63,1.24-3.05-2.49-1.64-3-3.18,1.83-3.4,4.22-8.75,7.35-7.81s8.42,3.48,7.47,9.55c-.3,1.93,4.08,3,2.11,6-4.74-1.07-2,3.23-3.31,4.62-1.73,4.31-5.69,5.93-9.43,7.82-4.73-2.92-12-.26-15.11-6.75A7.31,7.31,0,0,1,373.2,195.37Z"/><path class="cls-18" d="M371.37,200.84c1.82,2.07,4.21,4,6.79,2.74,5.24-2.64,5.57,2.16,7.65,4.38l2.26,5.54c-1.61,3.86-6.59,4.72-7.89,8.86-1.86,2.55-3.76,5.05-7.41,4.84-2.61-1-3-3-2.7-5.44,2.66-6.57-.64-11.28-5.08-15.45-1.92-1.8-4.46-3-5.22-5.81a3.21,3.21,0,0,1,1.05-2.34,9.42,9.42,0,0,1,8-.48A4.18,4.18,0,0,1,371.37,200.84Z"/><path class="cls-19" d="M353.16,273.83l-1.79-1.58a5.74,5.74,0,0,1,.86-3.52c2.65-2.82,5.82-5.38,4.88-10,.09-2.7,1.82-4.52,3.37-6.44,3.13-3.14,5.64-6.45,3.19-11.2a10.33,10.33,0,0,1,5.93-4.48,2.53,2.53,0,0,1,2.18,1c-.08,2.18,2,2.78,3,4.14,6,7.9,5.57,9.53-3.21,13.76-3.62,1.75-7.83,1.71-6.65,8.86C365.74,269.45,357.91,271.47,353.16,273.83Z"/><path class="cls-20" d="M371.78,237.65l-2-.47c-3.27-.54,5-2.33-.39-3.09a6.29,6.29,0,0,1-5.7-5.8c2.47-3,3.35-7,6.31-9.62,1.34.41,2.68.82,1.41,2.63.09,1.88-.26,3.91,1.81,5.08,2.57,3.73,4.85,1.73,7.32-.24,3-2.36,4.46-6.38,8.49-7.52l1,.67c3.09,3.87,12.46,7,1.4,12.5a4.64,4.64,0,0,0-2-1.57c.62.61,1.49.89,2.07,1.55C386.32,238.51,378.82,237.32,371.78,237.65Z"/><path class="cls-11" d="M160,228.66c-6-9.35-6.94-22.1-2.13-27.86a2.23,2.23,0,0,1,2.36-.49A7.3,7.3,0,0,1,163,203c1,7.26,5.34,14.25,1.9,21.92C163.58,226.6,162.48,228.56,160,228.66Z"/><path class="cls-21" d="M355,122.19c-.86.2-2,.1-2.53.63-5.86,6.54-6.19,6.48-10.27-2.32,3.13-2.85-.19-6.7,1.51-9.78,2.66-2.75,5.16-3.34,7.35.51C353.44,114.49,355.52,117.87,355,122.19Z"/><path class="cls-22" d="M159.78,200.83l-2,0L156,193.5c6.71-.06.51-6.85,4.77-8.87,4.46-2.12,8.42-5.15,13.73-4.4,2-.22,3.39.82,4.55,2.28,1.37,2.34,2.57,4.71,1.1,7.47a4,4,0,0,1-4.18.53c-9.55-3.83-9.55-3.83-13.35,6a26.41,26.41,0,0,1-1.13,2.43A5.83,5.83,0,0,1,159.78,200.83Z"/><path class="cls-23" d="M381.61,187.8c2.51.46,4.41-4.62,7-1.15,2,2.7-1,4.37-2.63,5.84s-.92,4.87-3.85,5.63c-2.69-1.67-1.16-4.37-1.7-6.51q.25-1.87.5-3.73Z"/><path class="cls-24" d="M251,111.28c.29,4.07-1.44,6.06-5.65,5.5-.79-2.38,1.34-5.08-.84-7.29-4.58-2.42-9,4.08-13.61.15.79-4,5.43-3,7.25-5.6C244.14,103.43,249.78,103.42,251,111.28Z"/><path class="cls-25" d="M160,228.66l3.32-4A11.34,11.34,0,0,1,169,222a2.75,2.75,0,0,1,2.42,2.52c-1.17,2.91-3.06,5.78-.37,8.86,0,1.35-.16,2.56-2,2l-5.63-2C162.1,231.9,159.59,231.32,160,228.66Z"/><path class="cls-14" d="M336.23,107.39,334.54,109c-5.74,6.18-9.6,3.49-12.72-2.7l.47-.66c4.79-5.87,9.42,1,14.14.18Q338.39,106.86,336.23,107.39Z"/><path class="cls-26" d="M336.23,107.39a7.23,7.23,0,0,0,.21-1.6c5,1.46,11.77-1.8,14.61,5.44-2.45-1.68-4.84-1.27-7.2.22-2.12.77-2.61-.92-3.35-2.22Z"/><path class="cls-20" d="M378.77,220.94c1.07-5,5.54-5.79,9.3-7.44,4.85.52,4.44,2.8,2,5.79l-.57-.3C385.51,217.55,383.07,224.37,378.77,220.94Z"/><path class="cls-27" d="M395.23,200.14c.61-3.68-6.74.27-4.43-4.32,1.87-3.73,5.06-2.14,7.75-.3A6.77,6.77,0,0,1,395.23,200.14Z"/><path class="cls-28" d="M169,235.37l1.55-1.66c5.51-1.66,10.31,2.23,15.64,2a17.13,17.13,0,0,1,8.35,6.48c.15,3.24-2.47,7,1.93,9.42,3.92,2.14,5.09-1.86,7.3-3.34s5.07-1.76,7.09-3.62c1.68-1.77,1.54-4.82,4.15-5.94,4.72,3,5.48,7.91,6.23,12.83-.49,2.51-2.18,3.89-4.44,4.73-6.6-1.7-11.46,2.65-16.93,4.91l-5.83-1.75a19.12,19.12,0,0,1-2.63-.61c-12.5-4.77-13.1-7.22-4.08-17.65C181,239.7,173.79,241.22,169,235.37Z"/><path class="cls-29" d="M179.56,189.95l-2.07-7.07c-2.44-7.47,5.29-11.67,5.84-18.18.69-2.58,2.24-4.72,3.51-7,2.68-5.17,7.06-9.46,7.93-15.55.91-3.78,3.89-6.91,4.14-10.77.46-7,4.08-8.51,10.11-7a21.62,21.62,0,0,0,4.68-11.33c0-1.71-.33-3.46.37-5.13,2-1.91,3.88-2.09,5.7.2a2.38,2.38,0,0,0,.13,1.35c.92.75,2.6,1.55,2.42,2.46-1.46,7.25,3.3,2.08,5.14,2.65a11.15,11.15,0,0,1,4.62,4.72,7.42,7.42,0,0,1-.51,6.64c-2.16,2.32-5.77,2-7.89,4.31-3.35,4.81.89,11.53-4,15.92-1.4.39-2.11-.36-2.82-1.46-1.4-2.14,0-6.9-3.24-6.55-4.86.52-1,5.66-2.74,8.25-8.46,2.41-13.68,8.07-16.3,16.31-.85,2.92.52,4.53,3.06,5.73,2.13,1,4.67,1.87,4.37,5.06-.18.24-.34.65-.56.68-11.22,1.93-13.07,10.93-15,19.87-.47,2.56-.88,5.16-2.83,7.13-4.36,1.54-5.32-1.75-6.57-4.62a9,9,0,0,1-.4-2.61C176.66,192,178.05,190.92,179.56,189.95Z"/><path class="cls-15" d="M214.06,109.42c1.71.72,2.12,2.11,2,3.79-4,3.24-5.61,7.53-5.35,12.6-3.21,9.76-5,1.48-7.86-2-1.14,7.48-2.54,13.63-6.62,18.66-2.93-3.16-2.82-7.46-4.2-11.2,7.43-6.13,10.78-15,15.27-23C209.85,106.78,212,107.62,214.06,109.42Z"/><path class="cls-30" d="M192,131.23c7.13,1.58,3,7.41,4.2,11.19,1.38,7.21-5.27,10.72-7.49,16.27-4.08-.42-4.3-3.66-4.27-6.52.06-5-.94-10,.69-14.9C184.81,132.31,187.37,130.59,192,131.23Z"/><path class="cls-31" d="M185.1,164.39c1.1,7.66-7.08,11.5-7.61,18.49l-3-2.65c-2.79-7.55-6.15-15-2.1-23.21,1.94-3.06,4-2.78,6.23-.3,2,1.93-.09,6.6,4.54,6.8A2.08,2.08,0,0,1,185.1,164.39Z"/><path class="cls-32" d="M185.1,164.39a14.74,14.74,0,0,0-1.51-.24c-2.82-1.57-3.06-5.15-5.48-7a4.94,4.94,0,0,0-5.68-.09c.29-1.12.54-3.2.87-3.21,11.08-.48,9.72-9.74,11.81-16.53.21,7.31-.54,14.78,3.58,21.43Z"/><path class="cls-33" d="M230.86,119.08c-2.36-.37-3.67-1.67-3.72-4.12.3-2.08,2.55-2.33,3.55-3.76a9.8,9.8,0,0,0,.21-1.55c5.34.39,9.74-7,15.65-1.89-1.41,6.6-8.19,7.71-12.06,11.8A4.12,4.12,0,0,1,230.86,119.08Z"/><path class="cls-26" d="M230.69,111.2a5.42,5.42,0,0,1-3.54,3.76c-.75.9-1.51,1.8-2.23,2.72-1.44,1.84-2.93,5-5.39,3.62-2.93-1.62-.63-4.17.82-6,1.75-2.17.22-3.92-.44-5.82C223.45,110.41,226.76,112.8,230.69,111.2Z"/><path class="cls-24" d="M214.06,109.42c-2.45.61-4.6-.46-6.8-1.22,4.16-2.17,8.32-6.94,12.52,0C217.57,107.22,215.46,106.73,214.06,109.42Z"/><path class="cls-34" d="M327.59,124.1c5.53-.28,7.37,2.49,7.31,7.82-.1,10,.31,20,.5,30a2.43,2.43,0,0,1-.95,2.86c-8.29.62-16.59,1.1-24.87,1.89-5.24.5-10.93.8-14.4-4.77-2.38-11.45-2-22.93-.35-34.44.69-1.75,1.77-3.85,3.45-4C308,122.51,317.91,119.81,327.59,124.1Z"/><path class="cls-35" d="M334.64,164.38l.76-2.41c3.62-5.52-1.46-12.57,3.16-17.91,1.82-1.24,3.65-1.59,5.46,0,11.32.43,18,6,19.93,16.45-2.84,1.41-5.3-.15-7.49-1.42-3.29-1.91-6.08-.86-9,.54-5.56-2.4-1.34-6-.87-10.17-6.44.91-5.93,5.5-5.32,9.15,2.74,16.59.94,33.29,1.59,49.92.73,18.4-7,32-22.31,41.93-7.13,4.6-14.31,9.12-21.49,13.64-2,1.16-3.6,3.05-6.2,2.83-2.07-1.3-4.16-2.59-3.95-5.52,3-5.28,8.54-7.53,13.26-10.66,5.78-3.85,11.57-7.69,17.32-11.6,8.74-5.93,12.85-14.14,12.9-24.56.06-13-.06-26,.07-39C332.48,171.79,331.69,167.69,334.64,164.38Z"/><path class="cls-26" d="M327.59,124.1c-7.43.09-14.87.21-22.3.24-3.3,0-6.61-.2-9,2.72-12.11,3.48-24.48.91-36.71,1.55-6.89.54-13.76-.25-20.64-.2-3,0-6.09,0-8-3l-.06-6.34,3.52-.52c1.48-.91,2.91-1.16,4.17.38.09,3.24,2.47,2.86,4.56,2.86h74.15c-1.14-4.85-4.95-4.42-6.18-6.74,2.93-2.88,6.16-1,9.3-.6a12.25,12.25,0,0,1,7.12,4.09Z"/><path class="cls-36" d="M349.29,159.15c-.79-2.87-.29-5,3.23-3.75,3.92,1.41,7.62,3.4,11.42,5.13,2.79,3.93,6.06,8.06-2.88,7.42-2.6-.19-4.5,1.09-6.19,2.84a2.23,2.23,0,0,1-1.79,1.92,9.56,9.56,0,0,1-9.73-7.88C342.45,160.84,346.86,160.63,349.29,159.15Z"/><path class="cls-37" d="M353.07,171.56l1.81-.77c5.77,2.86,14.17-1.55,18.07,6.52,3.42,3-5,6.05.1,9,.18,2.1,1,4.37-1.66,5.64-3.65.69-4.71-2.67-6.86-4.34-2.86-3.87-7,0-10.24-1.73C352.34,181.25,353.84,176.31,353.07,171.56Z"/><path class="cls-38" d="M327.5,118.56l-7.09-1.81c-3.55-1.89-6.72-5.3-11.35-2.76-1.76-9.37-1.41-9.74,7.59-8,4.17,1.78,8.79,2.85,11.31,7.21Z"/><path class="cls-39" d="M344,144.08l-5.46,0a21.39,21.39,0,0,0-.2-2.7c-.66-3.34-3.41-7.21,1.44-9.4,3.5-1.58,4.18,2.48,6.16,4C351.6,140.21,344.49,141.34,344,144.08Z"/><path class="cls-40" d="M365.87,186.33l5.52,5.63,1.82,3.41c0,2,.42,4.2-1.83,5.47l-1.89-1.8c-3.26-2.15-6.94-3.8-8.89-7.49-.86-1.63-1.68-3.44-.29-5.06C362,184.55,364,184.89,365.87,186.33Z"/><path class="cls-26" d="M328,113.19,316.65,106l5.18.28c3.75,3.22,7.57,6.06,12.71,2.7l.85,8.78C330.39,119.88,331.93,112.26,328,113.19Z"/><path class="cls-41" d="M340.5,109.24l3.35,2.22c3.32,7,3,8.54-1.67,9A15.22,15.22,0,0,1,340.5,109.24Z"/><path class="cls-42" d="M373.18,162.53c.45-2.25-.41-5.17,2.62-6.12.57-.18,2.23,1.17,2.42,2,.85,3.86-1.25,5.56-4.9,5.8Q373.24,163.38,373.18,162.53Z"/><path class="cls-43" d="M373,186.32c-7.58-2.92-4.85-5.95-.1-9C377.54,180.27,372.56,183.32,373,186.32Z"/><path class="cls-44" d="M343.81,279.28c-19.64,7.11-40.15,8.74-60.78,9.42-22.22.74-44.16-1.85-66-5.87-3.36-2.58-1.51-5,.27-7.35,2.71-1.33,5.17,0,7.66.78,6.1,1.91,12,2.25,17.09-2.5,9.15-1.61,18.36-.63,27.53-.66,2.65,0,5.36.49,7.07,3-4.27,3.87-4.27,3.87-14.31,4.11,15.64-.59,31.52,2.55,46.85-3.17,9-.21,17.88-.61,26.65-3.18C342.39,271.94,343.34,273,343.81,279.28Z"/><path class="cls-45" d="M343.81,279.28c.26-5.48-2.51-4.58-6.29-3.47-9.18,2.7-18.49,5-28.23,3.71a3.58,3.58,0,0,1-.45-4c2.08-2.15,5-2.28,7.6-3.17,5.85-1.21,12.05-.7,18.75-3.95-6.19-1.81-12,2.41-16.83-1.5a2.84,2.84,0,0,1-.1-2.54c5.19-3.77,11.27-2,17-2.63,1.19-.27-.21-2.1.16-.94.16.5,0,.75-.4.8-4.15.44-8.33,1-10.16-4.21a3.53,3.53,0,0,1,1.07-2.46,6.75,6.75,0,0,1,6.52-.39c8.68,2.63,13.52,10.44,20.55,15.29l-1.62,2.45C345.1,270.55,346.66,277.29,343.81,279.28Z"/><path class="cls-46" d="M199.88,261.18c3.66-6.76,8.52-10.48,16.43-6.51a13.34,13.34,0,0,0,1.8,0c4-.42,9.13-.93,10.45,3,1.76,5.24-4.74,4.8-7.42,7.09a9.48,9.48,0,0,0-1.26,1.29c-3.57,2-2,10.21-9.28,7.68C207,269.59,197.05,270.84,199.88,261.18Z"/><path class="cls-47" d="M210.61,273.73c5.74-.48,3.74-7.08,7.32-9.27a5.22,5.22,0,0,1,2.06,3.22c.49,3,1.69,6.1-1.87,8.13-1.79,2.12-2.51,4.4-1.06,7C212.91,281.21,215,275.2,210.61,273.73Z"/><path class="cls-48" d="M238.55,118.94l-4.17-.38c3-4.81,8.59-6.66,12.16-10.8,1.94,3.32,2.72,6.48-1.2,9A10.75,10.75,0,0,0,238.55,118.94Z"/><path class="cls-49" d="M309.06,114c.51-2.11.23-5.58,4-3.32,2.7,1.63,4.93,4,7.37,6.07l-9.33-1.69Z"/><path class="cls-50" d="M353.07,171.56c6.58,4.11.52,9.85,1.89,14.62.33,4.87,3.77,8.43,5.39,12.75a9.7,9.7,0,0,0,.21,1.66c2.49,5.76-3.81,4.9-5.55,7.47-1.68,4.62,2.48,7.64,3.16,11.59.89,5.27-2.28,8-6.29,10.32-2.78,1.39-3.83,4-4.79,6.74-1.64,12.53-11.15,16.11-21.41,18.84l.11-.06c-2.92,2.75-6.69,4.42-9.42,7.42-4.44,3-9.69,2.69-14.64,3.4-2,.29-5.1.52-4.94-3.27,8.6-5.65,17.19-11.33,25.81-16.95,11.93-7.76,17.66-18.84,17.44-33-.3-20-.76-40-1.19-60-.09-4.32-.11-8.47,6.19-6.42,2.24.73,5.65-.34,6.57,2.11,1.19,3.16-2.45,3.2-4.19,4.62-3.43,2.8-1.08,4.51,1.87,5.64C342.11,165.2,342.11,165.2,353.07,171.56Z"/><path class="cls-51" d="M360.35,198.94c-3.56-3.51-9.95-5.81-5.39-12.75,3.7-5.22,7.32-3.7,10.91.14-3.2,0-6.92-.18-3.32,4.6,2.14,2.83,4.61,5.42,6.93,8.11Z"/><path class="cls-52" d="M351.49,206.69c1.47-4.34,8.82.07,9.07-6.09a27.74,27.74,0,0,1,12.63,13.28c1.72,3.67,1.14,5.51-1.83,7.41l-1.73-2.08C363.88,214.61,359.83,207.54,351.49,206.69Z"/><path class="cls-53" d="M378.77,220.94c3.88,1.06,6.14-6.74,10.69-1.95-3.62,3.9-7.12,7.92-10.9,11.65a4.39,4.39,0,0,1-5.77.49c-2-1.49,0-3.17.39-4.76Z"/><path class="cls-54" d="M353,269.79c-1.47.27-3.63,1.31-4.31.7-5.32-4.77-10.36-9.86-15.49-14.85,1.17-2.22,3.3-3,5.5-3.77,11.25-3.95,14.86-6.18,20,7.31C363.66,266.41,355.75,266.71,353,269.79Z"/><path class="cls-55" d="M349.32,228.8c4.44-1.8,8.32-4,6.85-9.88,6.52-.28,8.38,3.5,8,9.21,2,1.61,3.79,3.92,6.09,4.71,7.92,2.72-1.89,2.76-.55,4.35-1.09,2.58-3.26,3.59-5.85,4-5.73-4.54-10.11-2.5-13.83,2.83-1.54.85-3.07,1.82-4.77.34-.77-2.09-.19-4.22-.22-6.33C348.42,235.84,348.58,232.19,349.32,228.8Z"/><path class="cls-56" d="M349.31,242.68c.33-.48.56-1.19,1-1.4,3.8-1.77,3.94-7.91,7.49-8.3,4.58-.51.93,7.55,6.06,8.18,6.43,1.59,7.54,4.25,1.85,8.55a26,26,0,0,0-3.48,3.92C354.32,254.25,352.06,248.18,349.31,242.68Z"/><path class="cls-57" d="M349.31,242.68c4.86,3,7.2,9,12.94,11-1.12,1.89-4,2.64-3.55,5.54-4.66-9.52-12.22-8.08-20.13-5.34.63-4.48,4.14-6.64,7.31-9.08Z"/><path class="cls-58" d="M364.19,228.13c-1.9-3.74-3.52-7.72-8-9.2-2.6-3.69-4.55-7.62-4.69-12.24,10.65-2.49,14.93,4.23,18.14,12.52C369.46,223.18,370.31,227.78,364.19,228.13Z"/><path class="cls-59" d="M391.44,231.77l-6.27,1.36c-.74-3.66,1.51-5.66,3.91-6,3.14-.38,2.12,2.73,2.33,4.61Z"/><path class="cls-60" d="M168.85,222.59c-1.46,1.74-3.47,2-5.57,2.08,3-7.56-2.62-14.38-1.84-21.74a2.2,2.2,0,0,1,2.12-.82c2.71,1.16,4.5,3.44,6.56,5.39,5.69,4.48-.17,8.64-.34,13A3.25,3.25,0,0,1,168.85,222.59Z"/><path class="cls-61" d="M162.93,202.61a7.5,7.5,0,0,0-1.49.32l-1.66-2.1.4-1.86c1.13-2.68,3.13-3.6,5.76-2.47a3.4,3.4,0,0,1,1.84,4.5C166.95,203.59,165.2,204.05,162.93,202.61Z"/><path class="cls-62" d="M162.93,202.61c2.12-.18,4.65-.68,3.54-3.38-1.54-3.76-4.11-1.53-6.29-.26-1.3-4.07,3.6-7.12,1.88-11.26,3.82-1,6.87-9,11.68-1.2,1.26,2,3.1,3.62,5.82,3.44l-1.86,3.7c-1.48.56-2.78-.37-4.17-.42-.26,0-.08,1,.24,1.52,1.19,2.08,2.62,1.81,4.2.54,2.32,1.28,1.34,5.82,5.35,5.45a4.88,4.88,0,0,1,2.48,4.26c-1.5,3.61-4.63,3.47-7.33,2.44-3.28-1.25-3,1.53-4.13,2.81-2.4.67-3.87-1.37-5.83-2Z"/><path class="cls-63" d="M168.85,222.59a6.55,6.55,0,0,1-.35-1.31c2.28-4,2.28-4,10.47-.27,4.16,2.36,7,6.32,10.82,9.1a5.79,5.79,0,0,1,1.46,2.17,4.33,4.33,0,0,1-2.83,4.14c-8.68.19-14.31-4.21-17.78-11.85Z"/><path class="cls-64" d="M170.63,224.56c6.06,3.55,9.47,11.56,18.12,10.75.48,1.58.39,2.66-1.73,2-5.82.35-11.57.32-16.46-3.59C162.66,230.6,164.63,227.56,170.63,224.56Z"/><path class="cls-22" d="M185.31,193.52c-2.3-2.06-.69-3.8.53-5.5.86-1.2,2.62-2.21,2.73-3.42.74-8.09.64-8.05,8.87-9.9a23.83,23.83,0,0,0,4.15-1.78c3.43-3.43,9.91-4.31,9.25-11.14,3.47-2.1,4.53-4.95,2.65-9.08-.05,2.46,1.16,4.84-1.29,6.4-2.07.7-3.74-1.48-5.81-.77-3.32.71-6.54,3.28-10,.5.91-5.55,5.19-8.9,9.34-11.12,9-4.82,14.64-1.15,14.76,9,.21,17.59,0,35.18.08,52.77.08,15.8,4.72,28.87,19.81,37.05,6.75,3.66,13.81,7.67,18.32,14.5-3,6.66-8.56,3.7-13.35,3.68-3.69-1.12-6.22-4.21-9.69-5.72-4.91-3.11-11.13-3.37-15.7-7.21l-5.39-12.71a7.35,7.35,0,0,1-3.06-3.2,10,10,0,0,0-3.06-3.24c-6-2.69-9.93-6.37-6.93-13.6.33-3.07,4.58-5.92.49-9.22-2.4-1.44-5.67-1.71-6.72-5a6.77,6.77,0,0,1,1.47-4.76c.83-1.24,1.84-2.35,2.66-3.6,1.56-2.37,2.81-4.9.23-7.24-2.35-2.13-4.39-.16-6.46,1C190.67,191.56,188.84,194.58,185.31,193.52Z"/><path class="cls-65" d="M212.69,235.35c1.45.82,1.8,2.19,1.86,3.71-.47,2.57.8,5.63-2.12,7.51-1.59.42-3.4.08-4.12-1.07-3.71-5.88-8.24-5.68-13.43-2.3-3.65-.6-5.42-3.7-7.86-5.9l1.73-2,2-3.47c3.43-5.07,4.66-12.3,12.65-12.9-4.28,8.12,2.56,10,7.33,13C210.7,233.5,209.78,235.51,212.69,235.35Z"/><path class="cls-66" d="M194.88,243.2c6.11.25.18-10.49,6.89-8.17,3.31,1.15,5.24,6.18,7.9,9.36a16.56,16.56,0,0,0,2.76,2.18c-3,2.59-8.07,2-10,6.43-.95,2.17-2.52,4.89-5.32,2.69-3-2.37-6.53-5.1-7.76-8.44C188,243.52,193.27,245.06,194.88,243.2Z"/><path class="cls-67" d="M219.94,251.77c6.29-.59,11.09,3.1,16.29,5.66-1.23,5.59-6.86,6.49-10.31,9.73a15.69,15.69,0,0,1-5.74,2,2.52,2.52,0,0,1-2.1-1l-.14-3.77c1.91-4.47,7-2.85,11.48-5.88l-13.1-3.91Z"/><path class="cls-68" d="M230.92,125.42l29.41,1.07c4.65,11.82,2.64,23.89,1.32,35.93-2.37,4.56-6.79,4.46-10.94,4.54-9,.18-18,.18-27,.25a4.3,4.3,0,0,1-2.9-1.68c-2.54-12.48.71-24.93.31-37.4C223.74,124.8,227.76,126.64,230.92,125.42Z"/><path class="cls-69" d="M221.16,128.15l.36,38c3.17,3.09,2.63,7.1,2.73,10.95.34,11.93-.63,23.88.57,35.78.55,15.42,8.65,25.39,22,32.58,8.61,4.65,17.92,8.61,24.63,16.27,0,2.5-1.86,3.7-3.52,5-2.33.85-3.71-.91-5.36-1.94a18.69,18.69,0,0,1-4.42-3.63c-9-6-18.45-11.43-27-18-9.57-7.33-12.67-18.17-12.83-29.78-.27-19.37-.52-38.74-.19-58.11.12-7.1-3.1-8.76-8.7-7a17.41,17.41,0,0,0-11.53,11.08c-.15,3.48-1.66,4.84-5.05,3.2,3.18-11.91,7.9-16.26,18-16.61,2.38-2.2,4.8-1.79,7.23-.11C222.65,140.58,217.54,133.6,221.16,128.15Z"/><path class="cls-70" d="M185.31,193.52c2.36-1.85,4.48-4.34,7.15-5.37s4.77-6.49,8.95-1.73c3.57,4.06,4,7.57-.19,11.26-1.11,1-2.18,2-3.26,3-4,2.19-7.74,5.1-12.76,3.73-1.47-.81-1.76-2.21-1.87-3.71A11.58,11.58,0,0,1,185.31,193.52Z"/><path class="cls-71" d="M192.8,162.58a6.39,6.39,0,0,0,5.06-3.21l9.18-3.66c2.46,1.37.09,4.29,1.91,5.84a2.6,2.6,0,0,1,1.48,1.11c3.53,2.07,5.42,4.33.43,6.84-2.95,1.48-5.71,3.6-9.28,3.43-2.13-1-4.19-2.6-6.42-2.89C188.62,169.15,190.93,165.89,192.8,162.58Z"/><path class="cls-72" d="M218.06,145.87l-7.23.11c-.68-2.22-4-3.46-3-6.1s3.31-5.51,6.23-5.87c3.53-.44,3.94,2.82,4,5.61C218.1,141.7,218.06,143.79,218.06,145.87Z"/><path class="cls-73" d="M178,195.28c-.53,2.15,1,4.9-1.71,6.41-2.56-.46-2.09-2.83-2.89-4.27-1.46-2.65-6.85-5-3.46-8,3.15-2.81,4.8,3.27,7.78,4.25Q177.83,194.47,178,195.28Z"/><path class="cls-74" d="M210.66,125.82c-2.77-6.14-2.9-11.15,5.35-12.6A22.77,22.77,0,0,1,210.66,125.82Z"/><path class="cls-75" d="M178.11,157.11c4.9,0,5.21,3.48,5.47,7-1.06,4.07-3.23,4.4-4.93.78C177.63,162.72,178.24,159.74,178.11,157.11Z"/><path class="cls-76" d="M270.74,262.93c-8.95-5.7-17.54-12.1-26.93-16.93-13.55-7-20.61-17.43-21-32.54-.21-15.61-.25-31.22,0-46.84,3.95-4.32,9-1.73,13.6-2.14,8-.71,16.18.61,24.17-1.24,12-2.73,24-2.21,36-.28,9.18,1.73,18.38,0,27.57.2,3.52.07,7.16-.8,10.45,1.22.17,16.08.27,32.16.53,48.24.21,13.23-4.87,23.26-16.4,30.35-10,6.18-19.54,13.23-29.28,19.9C282,271.64,278.37,271.65,270.74,262.93Z"/><path class="cls-77" d="M296.62,163a144.3,144.3,0,0,1-36,.28q-.12-18.37-.25-36.74c12-.37,24-2.05,35.95.58Q296.45,145,296.62,163Z"/><path class="cls-78" d="M318.47,136.9c-5.17,4-3.24,9.79-3.57,15-.14,2.11.2,4.61-2.7,4.77s-3.07-2.32-3.05-4.46c0-5.1.17-10.19.26-15.28,5.41,3.88,1.4,9.34,2.36,13,0,2.24,1,1.1,1,1.06-2.14-5.67,1.69-12.45-3.37-17.61,4.22-3.6,8.44-2.93,12.68,0A6.65,6.65,0,0,1,318.47,136.9Z"/><path class="cls-79" d="M318.47,136.9c.07-2.35,1.22-3.63,3.63-3.64a11,11,0,0,1,1.89,2.85c.87,3.15.14,6.87-3.08,7C317,143.34,319.55,139,318.47,136.9Z"/><path class="cls-80" d="M309.42,133.3c7.94,5.77,1.2,13.45,3.18,20-3.15-5.15.84-11.41-3.19-16.4Q309.41,135.1,309.42,133.3Z"/><path class="cls-81" d="M296.79,263.06c6.92,2.59,13.29-.29,19.78-2,1.65.93,2,2.47,1.94,4.19a3.47,3.47,0,0,0-.13,1.46c-9.95,6.55-20.83,6.39-32,4.46-.68-4.47.32-5.2,6.49-4.69Z"/><path class="cls-82" d="M292.89,266.49c-2,1.82-5.44,1.1-6.92,3.88-3,7.25-7.51,4.85-12.14,2-2.09-2.06-5.61-2.6-6.5-6,0-2.28,1.24-3.32,3.41-3.47,6.27,4.23,12.52,5.65,18.76-.06C291.71,263.06,293,264.13,292.89,266.49Z"/><path class="cls-46" d="M274.42,270.32c3.84,3.16,7.68,4.24,11.55,0,10.81-1.17,21.76-1.07,32.4-3.65,5.33-.62,10.65-1.29,16-1.85,2.21-.23,4.55.22,5.16,2.57.73,2.81-1.9,3.42-3.82,4-6,1.71-12.1,3.47-18.52,2.6a191.88,191.88,0,0,1-31.86,5.35c-3.18.54-7,4-8.86-1.81-12.16-4.09-24.65-1.07-37-1.69-10.08,2.92-16.44.47-19.72-7.59,1.21-2.57,3.88-1.23,5.72-2.12,3-1.75,6.14-1.91,9.43-1.4C247.92,267.77,261.58,266.15,274.42,270.32Z"/><path class="cls-83" d="M276.46,277.55c2.48,2.08,4.91,1,7.33-.11,8.42-2.09,17.13.28,25.56-1.72l-.06,3.8c-16.62,6-33.9,2.53-50.88,3.46-2.38.13-5.34-.5-5.06-3.68.26-3,3.07-2,5.06-2Z"/><path class="cls-84" d="M219.77,268.27c4.43,8.11,13,5.38,19.72,7.59,1,4.61-1.91,5-5.22,4.65a46.65,46.65,0,0,1-16.14-4.7c1.49-2.54.2-5.05-.05-7.58Z"/><path class="cls-85" d="M318.5,265.25l-1.94-4.19c.88-5.5,5.37-5,9.23-5.56,1.18,6,6.95,4.46,11.07,6.61Z"/><path class="cls-86" d="M345.87,244.75a17,17,0,0,1-7.31,9.08l-5.38,1.8-7.5-.07c2.26-1.37,4.35-3.29,6.8-4,8.26-2.48,10.78-9.28,13.09-16.36a1.41,1.41,0,0,1,.32,2.3Z"/><path class="cls-44" d="M309.35,275.71c-8.39,2.52-17,1.41-25.56,1.72,11-2.86,22.24-2.42,33.39-3.43C315,276.42,312,275.26,309.35,275.71Z"/><path class="cls-87" d="M345.9,237.49l-.32-2.3c.49-2.57,1.16-5,3.74-6.38C350.52,232.62,354.07,237.36,345.9,237.49Z"/><path class="cls-25" d="M179.52,222.79c-4,2.06-6.66-6-11-1.51-2.33-1.93-2.51-4,.18-5.55,4.85-2.73,1.74-5-.16-7.44l5.72,1.66C179.79,212.67,183.16,216.28,179.52,222.79Z"/><path class="cls-48" d="M179.52,222.79c.92-5.38-2.89-8.82-5.29-12.84.26-2.27-2.72-7,3.59-4.65,2.61,1,5.2,1.81,7.39-.86,4-2.19,7.94-4.4,12.76-3.73l-2.07,3.37c-.54,4.07-5.88,4.77-6.25,9-2.95,4.32-4.14,8.55.56,12.55a5.85,5.85,0,0,1-1.35,6.22C185,229.5,182.25,226.18,179.52,222.79Z"/><path class="cls-88" d="M188.84,231.8l-.28-7.31c-2.72-4.48.18-7.84,2.25-11.36,2.64-6.3,7.72-5.92,13.08-4.78,7.18,3.85-.27,7.06-.46,10.59-6.22,2.33-6.28,10.72-12.65,12.9Z"/><path class="cls-89" d="M234.45,266.8l-9-.65c2-4.9,8-4.77,10.74-8.73,4-.27,5.61,3,7.73,5.41a3.41,3.41,0,0,1,.29,2.88C241.27,268.63,237.82,267.32,234.45,266.8Z"/><path class="cls-90" d="M210.43,162.66a5.4,5.4,0,0,1-1.46.1c-1.11-2.33.16-3.34,2.18-3.94,4-4.58-2-4.91-3.57-7.83,3.65-1.58,7.28-3,8.36,2.14C216.8,157.23,217.86,162.77,210.43,162.66Z"/><path class="cls-91" d="M203.89,208.35c-4.16,1-9,.47-11.41,5.25-1.92.93-3.07-.4-4.31-1.47-.71-5.82,5.33-5.19,7.7-8.06C197.74,207,201.46,206.47,203.89,208.35Z"/><path class="cls-92" d="M244,264.64l0-1.81c4.7-.76,9.78,1.74,14.16-1.68,2.25-.51,3.67,1.23,5.44,2C257.56,270.52,250.75,267.34,244,264.64Z"/><path class="cls-93" d="M211.16,158.82,209,162.76c-1.15,1.23-2.73,1.93-4,.83-1.75-1.5.34-2.42,1-3.63a18.42,18.42,0,0,0,1.1-4.26C210,154.6,210.82,156.42,211.16,158.82Z"/><path class="cls-94" d="M212.69,235.35c-.34,2.26-1.09,4.72-3.77,2.45-3.22-2.73-.84-4.52,1.84-5.84A3.7,3.7,0,0,1,212.69,235.35Z"/><path class="cls-95" d="M240.23,135.21c.12,6.43,0,12.88.51,19.28.21,2.43.77,4.26-2.26,4.43-2.61.15-3.7-1.59-3.74-4q-.15-10.82-.26-21.65c1.08-1.48,2.26-3,4.36-2.34C241.15,131.62,241,133.37,240.23,135.21Z"/><path class="cls-22" d="M222.81,166.62c.1,15.63,1.23,31.26,0,46.86q-.64-23.71-1.27-47.38A2,2,0,0,1,222.81,166.62Z"/><path class="cls-96" d="M240.23,135.21c-.69-4.23-3.08-3.51-5.75-2,2.92-6.53,8.31-3.12,12.8-3,.52,0,1.4,1.83,1.39,2.81a2.08,2.08,0,0,1-2.52,1.86C244.15,134.66,242.14,133.82,240.23,135.21Z"/><path class="cls-97" d="M244,264.64c6.49-1,13.28,2.08,19.58-1.47l3.76,3.22,7.09,3.92c-13.42-.11-26.86,0-40-3.52C237.4,265.06,241.27,267.38,244,264.64Z"/><path class="cls-98" d="M296.18,239.49c-.3,0-.67,0-.89-.12-9.51-6.66-19.21-10.48-29.77-2.07-1.83-3-4.51.89-6.51-.78-2.54-1.06-6.2-.52-6.61-4.61-1.62-2.25,6.6.8,1.73-3.21,1.2-2.49,3.84-2.36,5.88-3.27s1.53-3.9,3.74-4.68l.08.12c3.84-3,6.54-.22,9.39,1.81,2.7,2.5,5.55,4.27,9.27,1.92a8,8,0,0,1,4.48-1.37c3.27.52,6-2.3,9.26-1.61a7.8,7.8,0,0,1,4.11,2.41c1,1.39-1.69,3.09.37,4.42a4,4,0,0,1-1.47,3.65c-1.8.93-.05,2.45-.58,3.59C297.45,236.71,297.25,238.38,296.18,239.49Z"/><path class="cls-99" d="M267.49,178.68c7.25-6.39,14.46-5.2,21.64.13-.79,3.09-2.93,5.48-4.24,8.29-.44,2.36,1.74,4.35.95,6.76a6.43,6.43,0,0,1-5.57,2.19c-6.31-4.41-6.09,0-5.94,4.41-.9,3-3.08,4-6,3.78-3.43-.15-6.89-7.79-10.3.05-2-4.84-3.51-9.23,2.6-12.84,3.48-2.06-.68-8.66,4.82-10.44,1.63,1.52,3.69,4.27,5.54,1.36C273.26,178.83,267.61,181,267.49,178.68Z"/><path class="cls-100" d="M258,204.3c.19-.87.37-1.75.58-2.62.51-2.09-1.82-5.37,1.66-6.12,2.86-.61,3.65,2.5,4.92,4.49a18.09,18.09,0,0,0,2.33,2.5c9.7,3.75,11,6.35,10.22,20.48-1.16,2.21-2.82,2.91-5.12,1.72-2.81-1.56-4.76-5.09-8.79-3.88C257.67,216.82,258.65,210.28,258,204.3Z"/><path class="cls-101" d="M296.43,222.67c-3.35-1.33-5.33,6.33-9.23,1.42-.3-5,5.32-6.4,6.39-10.56,1.91-7.43,3-14.78-2.54-21.34a12.68,12.68,0,0,1-.13-4.16,5.65,5.65,0,0,1,2-3.67c10.14,8.22,6,20.55,8.88,30.87C304.6,221,300.6,221.91,296.43,222.67Z"/><path class="cls-102" d="M296.18,239.49c.62-1.19-1.67-3.84,1.8-3.61,5.07-1.51,9.74-4,14.58-6.05,2.78-1.93,6.49-4.2,8.36-.34s-3,4.51-5.42,5.4C309.27,237.15,304.23,244.88,296.18,239.49Z"/><path class="cls-103" d="M252.83,231.74c1.34,3.3,5.71.73,7.21,3.72-2.27,4.57-5.71,3.62-9.29,2-4.33-2.72-8.78-5.28-12.43-9,3.5-2,4.67-4.58,2-8.1C247.93,220.37,251.51,224.82,252.83,231.74Z"/><path class="cls-104" d="M300.36,228.42c-5.21-.74-.06-2.86-.57-4.23.8-3.53,4.92-5.63,4.21-9.81.67-2.76,1.75-5,5.22-4.63.66,2-.37,4.66,2.29,5.89,1.81,4.14-1.44,6.6-3.18,9.57C306.19,227.54,304.26,230.43,300.36,228.42Z"/><path class="cls-105" d="M252.83,231.74c-4.34-3.6-7.2-8.83-12.51-11.37-.7-1.81-2.12-3.84.56-5.1s4.16,1,5.88,2.37c4.43,2.19,6.68,6,7.72,10.61l4.62,3.49Z"/><path class="cls-106" d="M267.49,178.68c3,.42,7.53-3.42,8.55,1,1,4.28-4.59,6.86-7.59,7.59-6.63,1.62-2.61-3.79-3-6.3Z"/><path class="cls-107" d="M250.78,235.73c3.12,1.23,6.24,2.14,9.26-.26,1.24,2.37,5.81-5.19,5.49,1.84-6.14,6-12.35,6.53-18.67.28C247.58,235.73,249.48,236.38,250.78,235.73Z"/><path class="cls-108" d="M249.3,213.3c.82-3.55-6.38-8.14-1-9.71,5.8-1.7,5.32,5.56,6.48,9.61a8.29,8.29,0,0,1,.12,1.79c.74,1.86.89,3.54-1.35,4.51C249.68,219.09,250.51,215.5,249.3,213.3Z"/><path class="cls-109" d="M307.16,223.93l4.36-8.29c2.1-1.23,4.56-3,6.5-.61,2.2,2.77-1.05,4.17-2.53,5.8-1.82,2-3.86,3.81-5.8,5.7C307.58,226.89,306.65,226.11,307.16,223.93Z"/><path class="cls-110" d="M249.3,213.3l3.59,5.64a38.77,38.77,0,0,1,8.88,7.55c-1.92,2.68-4.78,1.5-7.28,1.76-3.52-2.85-5.8-6.61-7.72-10.61C248.67,216.82,248.9,215,249.3,213.3Z"/><path class="cls-111" d="M250.78,235.73c-.78,1.72-2.54,1.4-3.92,1.85-2.81-3.07-12-.19-8.55-9.1C244,228.33,246.87,232.88,250.78,235.73Z"/><path class="cls-112" d="M312.56,229.83c-4.33,3.3-7.43,9.55-14.57,6.05,1.72-1.2-5.17-3.1.33-4,3.59-1.44,6.78-4,10.95-3.82C309.85,229.6,311.2,229.73,312.56,229.83Z"/><path class="cls-113" d="M309.23,209.74c-1.93,1.39-3.7,2.88-3.73,5.55-2,1.07-2.44-.55-3.12-1.78-1.3-2.35,1.53-3.7,1.4-5.73-.25-4.06,2.68-6.07,5.5-5C313.08,204.26,308.85,207.34,309.23,209.74Z"/><path class="cls-114" d="M261.77,226.49c-4.45-.77-7.83-2.79-8.88-7.55l2-3.95c2.56,2.53,3.47,7.61,8.88,5.76Z"/><path class="cls-115" d="M292.93,184.36q0,1.81,0,3.62a22.9,22.9,0,0,0-10.58-1.6c2.48-2.32,2.71-6.67,6.77-7.57C291.36,180,291.91,182.34,292.93,184.36Z"/><path class="cls-116" d="M302.39,213.51l3.12,1.78c.66,4.61-2.81,6.57-5.71,8.89-1.39.1-2.73.09-3.36-1.51,2-2.31,6.27-3,5.37-7.44Z"/><path class="cls-117" d="M309.26,228.07c-3.24,2.45-6.5,4.83-10.95,3.82l2-3.47c3.11-.22,4.74-2.69,6.8-4.49l2.52,2.61A3.9,3.9,0,0,1,309.26,228.07Z"/><path class="cls-118" d="M279.92,148.06c-5.38,0-5.39,5-7.4,8.09-.88,1.36-2.21,2.46-3.76,1.7s-1.38-2.52-.78-4c2.05-5,4.24-10,6.22-15,.82-2.09,0-5.7,3.43-5.41,4.23.36,2.2,4.11,2.53,6.53C281.49,142.71,282.56,145.44,279.92,148.06Z"/><path class="cls-119" d="M279.92,148.06l.24-8.07c4.55,2.72,3.85,8.56,7.16,12.08,1.17,1.24,2.41,3.32.21,4.56-1.89,1.07-3.3-.48-4.22-2.21C282.19,152.28,281.05,150.17,279.92,148.06Z"/><path class="cls-120" d="M188.18,212.14l4.31,1.47c-1.64,3.51-3.61,6.9-3.93,10.89C178.2,220.68,186.28,216.32,188.18,212.14Z"/><path class="cls-121" d="M292.88,191.68c8.6,9.64,6.63,20.87-5.67,32.41l-3.92,2c-3.75,2.09-4.18-.76-4.84-3.25.12-4.34-1.33-8.68-.16-13,1.49-6.23,9-9.32,8.68-16.51C288.6,191.59,290.44,190.53,292.88,191.68Z"/><path class="cls-122" d="M280.2,222.8c.15,1.93.82,3.36,3.09,3.32-4.1,3.77-7.56,2.64-10.66-1.37,1.69-.22,3.28-.62,4.15-2.31A2.34,2.34,0,0,1,280.2,222.8Z"/><path class="cls-123" d="M280.2,222.8l-3.43-.36c-2.28-7-.25-16-9.24-19.88,2.91.3,5.35-.1,5.54-3.78,2.42-.2,3.54,2.85,6.06,2.43,1.5,2.15.83,4.65,1.16,7Z"/><path class="cls-124" d="M280.29,208.2c-2.9-1.85-1.73-4.81-2-7.38-1.06-2.53,0-4.22,2.17-5.44l5.6-2.16.78-.27.61.56C292.47,202,283.54,203.72,280.29,208.2Z"/><path class="cls-125" d="M280.46,195.37l-2.17,5.44c-2.75,1.89-3.81-.51-5.22-2-.09-2.74-4.34-5.93-.44-8C276.35,188.82,278.27,193,280.46,195.37Z"/><path class="cls-126" d="M287.44,193.5a10.77,10.77,0,0,0-1.38-.28c-1.66-2-5.19-3.08-3.71-6.83,3.67-.38,7.73-3.43,10.58,1.6l-.05,3.69Z"/><path class="cls-127" d="M0,489.7H53.32v14.08H17.65V516.4H49.85v14l-32.21.1v12.73H54.29v14.08H0Z"/><path class="cls-127" d="M114.74,557.29l-4.63-12H80.9l-4.72,12H58l29-67.59H105.2l28.35,67.59ZM86.2,531.83h18.71l-9.26-24.11Z"/><path class="cls-127" d="M189.37,495.91q7.13,6.22,7.13,17.5,0,12-7.13,18.56t-20.06,6.61H157.27v18.71H139.62V489.7h29.7Q182.24,489.7,189.37,495.91ZM176.79,521.8q2.94-2.7,2.94-7.81,0-4.92-2.94-7.57t-8.34-2.65H157.27V524.5h11.19Q173.85,524.5,176.79,521.8Z"/><path class="cls-127" d="M267.67,506a18.7,18.7,0,0,0-9-2.46,17.55,17.55,0,0,0-9.3,2.56,18.11,18.11,0,0,0-6.61,7,21.87,21.87,0,0,0,0,20,18.1,18.1,0,0,0,6.61,7,17.53,17.53,0,0,0,9.3,2.56,20.46,20.46,0,0,0,8.68-2.12,27.48,27.48,0,0,0,8.1-5.79l10.32,11.09a41.27,41.27,0,0,1-13.07,9.21,36.27,36.27,0,0,1-33.12-1.21,33.81,33.81,0,0,1-12.73-12.63,35.17,35.17,0,0,1-4.63-17.93,33.69,33.69,0,0,1,17.69-30.18,38.44,38.44,0,0,1,33.32-1.4,36.83,36.83,0,0,1,12.44,8.53l-10.22,12.34A25.22,25.22,0,0,0,267.67,506Z"/><path class="cls-127" d="M313.57,539.64a12.76,12.76,0,0,0,9.55,3.86,12,12,0,0,0,9.21-3.81q3.52-3.81,3.52-10.27V489.7h17.65v39.73a30.87,30.87,0,0,1-3.71,15.38A25.12,25.12,0,0,1,339.16,555,34.69,34.69,0,0,1,323,558.54,35.28,35.28,0,0,1,306.77,555,25.58,25.58,0,0,1,296,544.8a30.22,30.22,0,0,1-3.81-15.38V489.7H309.8v39.73Q309.8,535.79,313.57,539.64Z"/><path class="cls-127" d="M406.13,557.29l-9.84-18.71H383.18v18.71H365.54V489.7h30.37q13.4,0,20.78,6.22t7.38,17.5A26.65,26.65,0,0,1,421,526.58a21.33,21.33,0,0,1-9,8.63l14.08,22.08ZM383.18,524.5H396q5.4,0,8.34-2.7t2.94-7.81q0-4.92-2.94-7.57T396,503.77H383.18Z"/><path class="cls-127" d="M470.4,504.83a33.93,33.93,0,0,0-10.27-2A9.5,9.5,0,0,0,455,504a3.92,3.92,0,0,0-1.88,3.52,4.82,4.82,0,0,0,1.64,3.71,12.53,12.53,0,0,0,4,2.41q2.41.92,7.14,2.36a92.94,92.94,0,0,1,11.62,4,20.33,20.33,0,0,1,7.86,6.22q3.28,4.19,3.28,10.94a18.71,18.71,0,0,1-3.57,11.52,21.63,21.63,0,0,1-9.79,7.18,38,38,0,0,1-13.84,2.41,50,50,0,0,1-16.73-2.94,45.74,45.74,0,0,1-14.41-8.05l6.85-13.79a42.58,42.58,0,0,0,12.1,7.42,33,33,0,0,0,12.39,2.89,11.49,11.49,0,0,0,6.22-1.45,4.72,4.72,0,0,0,2.27-4.24,5,5,0,0,0-1.69-3.86,12.44,12.44,0,0,0-4.24-2.46q-2.55-.92-7.18-2.17a88.59,88.59,0,0,1-11.47-3.91,20.28,20.28,0,0,1-7.76-6q-3.23-4-3.23-10.65a18.6,18.6,0,0,1,3.33-11,21.17,21.17,0,0,1,9.45-7.28,36.73,36.73,0,0,1,14.22-2.56A51.64,51.64,0,0,1,476,490.42,47.68,47.68,0,0,1,488.57,496L481.92,510A59.32,59.32,0,0,0,470.4,504.83Z"/><path class="cls-127" d="M548.5,493.17a33.62,33.62,0,0,1,17.89,30.18,34.21,34.21,0,0,1-17.89,30.57,40.11,40.11,0,0,1-37.32,0,33.91,33.91,0,0,1-13.11-12.63,34.58,34.58,0,0,1-4.77-18,33.62,33.62,0,0,1,17.89-30.18,40.67,40.67,0,0,1,37.32,0Zm-27.77,13a18.76,18.76,0,0,0-6.8,7.18,21.52,21.52,0,0,0,0,20.25,19.62,19.62,0,0,0,6.8,7.23A17.12,17.12,0,0,0,530,543.5a16.89,16.89,0,0,0,9.21-2.65,18.65,18.65,0,0,0,6.6-7.23,22.46,22.46,0,0,0,0-20.25,18.3,18.3,0,0,0-6.6-7.18,17.13,17.13,0,0,0-9.21-2.6A17.61,17.61,0,0,0,520.73,506.18Z"/><path class="cls-127" d="M610.21,504.83a33.93,33.93,0,0,0-10.27-2,9.5,9.5,0,0,0-5.16,1.2,3.92,3.92,0,0,0-1.88,3.52,4.82,4.82,0,0,0,1.64,3.71,12.53,12.53,0,0,0,4,2.41q2.41.92,7.14,2.36a92.94,92.94,0,0,1,11.62,4,20.33,20.33,0,0,1,7.86,6.22q3.28,4.19,3.28,10.94a18.71,18.71,0,0,1-3.57,11.52,21.63,21.63,0,0,1-9.79,7.18,38,38,0,0,1-13.84,2.41,50,50,0,0,1-16.73-2.94,45.74,45.74,0,0,1-14.41-8.05L577,533.57a42.58,42.58,0,0,0,12.1,7.42,33,33,0,0,0,12.39,2.89,11.49,11.49,0,0,0,6.22-1.45A4.72,4.72,0,0,0,610,538.2a5,5,0,0,0-1.69-3.86,12.44,12.44,0,0,0-4.24-2.46q-2.55-.92-7.18-2.17a88.59,88.59,0,0,1-11.47-3.91,20.28,20.28,0,0,1-7.76-6q-3.23-4-3.23-10.65a18.6,18.6,0,0,1,3.33-11,21.17,21.17,0,0,1,9.45-7.28,36.73,36.73,0,0,1,14.22-2.56,51.64,51.64,0,0,1,14.46,2.07A47.68,47.68,0,0,1,628.39,496L621.73,510A59.32,59.32,0,0,0,610.21,504.83Z"/><rect class="cls-127" x="116.96" y="585.5" width="511.52" height="2"/><path class="cls-127" d="M199.46,629.64a7.13,7.13,0,0,1-2.24,1.36,7,7,0,0,1-2.51.49,5.28,5.28,0,0,1-3.06-.95,7.28,7.28,0,0,1-2.29-2.68,9.3,9.3,0,0,1-4.51-1.2,8.58,8.58,0,0,1,.11-15,9.9,9.9,0,0,1,9.18,0,8.59,8.59,0,0,1-1.22,15.62,3.05,3.05,0,0,0,2.23,1.2,3.38,3.38,0,0,0,1.37-.35,8.2,8.2,0,0,0,1.58-1Zm-14.34-7.75a5.38,5.38,0,0,0,1.9,1.94,4.89,4.89,0,0,0,2.58.72,4.83,4.83,0,0,0,2.56-.71A5.14,5.14,0,0,0,194,621.9a5.53,5.53,0,0,0,.68-2.72,5.42,5.42,0,0,0-.68-2.69,5.17,5.17,0,0,0-1.85-1.93,4.83,4.83,0,0,0-2.56-.71,5,5,0,0,0-2.59.71,5.17,5.17,0,0,0-1.9,1.93,5.54,5.54,0,0,0,0,5.4Z"/><path class="cls-127" d="M205.74,623.51a3.63,3.63,0,0,0,2.72,1,3.48,3.48,0,0,0,2.64-1,4,4,0,0,0,1-2.86V610.8h3.79v9.86a7.76,7.76,0,0,1-.9,3.83,6.12,6.12,0,0,1-2.58,2.5,8.46,8.46,0,0,1-4,.88,8.6,8.6,0,0,1-4-.88,6.16,6.16,0,0,1-2.62-2.5,7.67,7.67,0,0,1-.91-3.83V610.8h3.79v9.86A3.89,3.89,0,0,0,205.74,623.51Z"/><path class="cls-127" d="M231.21,627.6l-1.32-3.26h-7.78l-1.32,3.26h-3.91l7.3-16.8h3.91l7.18,16.8Zm-7.85-6.31h5.3L226,614.76Z"/><path class="cls-127" d="M237,610.8h3.79v13.49H248v3.31H237Z"/><path class="cls-127" d="M250.27,610.8h3.79v16.8h-3.79Z"/><path class="cls-127" d="M269.49,611.87a7.75,7.75,0,0,1,3.13,3,8.47,8.47,0,0,1,1.12,4.36,8.33,8.33,0,0,1-1.14,4.36,7.88,7.88,0,0,1-3.18,3,9.89,9.89,0,0,1-4.66,1.07h-7V610.8h7.13A9.64,9.64,0,0,1,269.49,611.87Zm-2,11.88a4.59,4.59,0,0,0,1.74-1.84,5.65,5.65,0,0,0,.62-2.69,5.54,5.54,0,0,0-.66-2.71,4.75,4.75,0,0,0-1.8-1.86,5.06,5.06,0,0,0-2.58-.66h-3.26v10.42H265A4.83,4.83,0,0,0,267.51,623.75Z"/><path class="cls-127" d="M288.19,627.6l-1.32-3.26h-7.78l-1.32,3.26h-3.91l7.3-16.8h3.91l7.18,16.8Zm-7.85-6.31h5.3L283,614.76Z"/><path class="cls-127" d="M305.71,611.87a7.75,7.75,0,0,1,3.13,3A8.47,8.47,0,0,1,310,619.2a8.33,8.33,0,0,1-1.14,4.36,7.88,7.88,0,0,1-3.18,3A9.89,9.89,0,0,1,301,627.6h-7V610.8h7.13A9.64,9.64,0,0,1,305.71,611.87Zm-2,11.88a4.59,4.59,0,0,0,1.74-1.84,5.65,5.65,0,0,0,.62-2.69,5.54,5.54,0,0,0-.66-2.71,4.75,4.75,0,0,0-1.8-1.86,5.06,5.06,0,0,0-2.58-.66h-3.26v10.42h3.43A4.83,4.83,0,0,0,303.73,623.75Z"/><path class="cls-127" d="M312.45,610.8h12.79v3.14h-9v3.65h8.09v3.14h-8.09v3.72h9.26v3.14H312.45Z"/><path class="cls-127" d="M334.1,610.8h12.79v3.14h-9v3.65H346v3.14h-8.09v3.72h9.26v3.14H334.1Z"/><path class="cls-127" d="M365.89,614.44a5.15,5.15,0,0,0-2.34-.59,5,5,0,0,0-4.44,2.59,5.36,5.36,0,0,0-.67,2.66,5.42,5.42,0,0,0,.67,2.68A5.06,5.06,0,0,0,361,623.7a4.93,4.93,0,0,0,2.59.71,5.42,5.42,0,0,0,2.29-.54,7.19,7.19,0,0,0,2.08-1.45l2.23,2.42A10.12,10.12,0,0,1,367,627a8.79,8.79,0,0,1-3.64.82,9,9,0,0,1-4.49-1.14,8.33,8.33,0,0,1-3.17-3.13,8.71,8.71,0,0,1-1.15-4.44,8.38,8.38,0,0,1,4.4-7.49,9.28,9.28,0,0,1,4.55-1.13,9.48,9.48,0,0,1,6.62,2.81l-2.21,2.71A6.37,6.37,0,0,0,365.89,614.44Z"/><path class="cls-127" d="M384.5,611.66a8.58,8.58,0,0,1,0,15.06,9.79,9.79,0,0,1-9.17,0,8.46,8.46,0,0,1-4.44-7.55,8.44,8.44,0,0,1,4.43-7.51,9.9,9.9,0,0,1,9.18,0Zm-7.13,2.89a5.17,5.17,0,0,0-1.9,1.93,5.45,5.45,0,0,0,1.91,7.34,4.89,4.89,0,0,0,2.58.72,4.83,4.83,0,0,0,2.56-.71,5.14,5.14,0,0,0,1.85-1.94,5.53,5.53,0,0,0,.68-2.72,5.42,5.42,0,0,0-.68-2.69,5.17,5.17,0,0,0-1.85-1.93,4.83,4.83,0,0,0-2.56-.71A5,5,0,0,0,377.37,614.56Z"/><path class="cls-127" d="M403.05,610.8h3.6v16.8H403.2l-8.14-10.8v10.8h-3.62V610.8h3.46l8.16,10.85Z"/><path class="cls-127" d="M410.35,610.8h12.07l0,3.14h-8.26v4.13h7.58v3.17h-7.58v6.36h-3.79Z"/><path class="cls-127" d="M424.63,610.8h3.79v16.8h-3.79Z"/><path class="cls-127" d="M444.55,627.6l-1.32-3.26h-7.78l-1.32,3.26h-3.91l7.3-16.8h3.91l7.18,16.8Zm-7.85-6.31H442l-2.64-6.53Z"/><path class="cls-127" d="M462,610.8h3.6v16.8h-3.46L454,616.8v10.8h-3.62V610.8h3.46L462,621.65Z"/><path class="cls-127" d="M480.93,626.84a9.61,9.61,0,0,1-3.19,1l-.41,1.08a2.77,2.77,0,0,1,1.49.73,1.72,1.72,0,0,1,.48,1.21,1.91,1.91,0,0,1-.84,1.68,3.65,3.65,0,0,1-2.11.58,6.93,6.93,0,0,1-2.52-.5l.62-1.8a3.72,3.72,0,0,0,1.3.24,1.43,1.43,0,0,0,.71-.16.44.44,0,0,0,.28-.37.49.49,0,0,0-.34-.44,2.2,2.2,0,0,0-.91-.16h-.65l.7-2.14a8.46,8.46,0,0,1-6.5-4.55,8.73,8.73,0,0,1-1-4.07,8.38,8.38,0,0,1,4.4-7.49,9.28,9.28,0,0,1,4.55-1.13,9.48,9.48,0,0,1,6.62,2.81l-2.21,2.71a6.37,6.37,0,0,0-2-1.62,5.15,5.15,0,0,0-2.34-.59,5,5,0,0,0-4.44,2.59,5.36,5.36,0,0,0-.67,2.66,5.42,5.42,0,0,0,.67,2.68,5.06,5.06,0,0,0,1.85,1.92,4.93,4.93,0,0,0,2.59.71,5.42,5.42,0,0,0,2.29-.54,7.19,7.19,0,0,0,2.08-1.45l2.23,2.42A9.91,9.91,0,0,1,480.93,626.84Z"/><path class="cls-127" d="M498.16,627.6l-1.32-3.26h-7.78l-1.32,3.26h-3.91l7.3-16.8H495l7.18,16.8Zm-7.85-6.31h5.3L493,614.76Z"/><path class="cls-127" d="M521.68,612.32a5.41,5.41,0,0,1,1.75,4.31,5.86,5.86,0,0,1-1.76,4.55,7.06,7.06,0,0,1-5,1.62h-3.34v4.8h-3.79V610.8h7.13A7.34,7.34,0,0,1,521.68,612.32ZM519,618.9a2.68,2.68,0,0,0,.85-2.15,2.58,2.58,0,0,0-.85-2.1,3.76,3.76,0,0,0-2.46-.71h-3.14v5.69h3.14A3.67,3.67,0,0,0,519,618.9Z"/><path class="cls-127" d="M537.07,627.6l-1.32-3.26H528l-1.32,3.26h-3.91l7.3-16.8h3.91l7.18,16.8Zm-7.85-6.31h5.3l-2.64-6.53Z"/><path class="cls-127" d="M553.19,627.6l-2.66-4.8h-3.86v4.8h-3.79V610.8h7.3a7.65,7.65,0,0,1,5.09,1.52,5.34,5.34,0,0,1,1.8,4.31,6.49,6.49,0,0,1-.8,3.32,5.16,5.16,0,0,1-2.34,2.1l3.58,5.54Zm-6.53-8h3.5a3.63,3.63,0,0,0,2.44-.73,2.68,2.68,0,0,0,.85-2.15,2.58,2.58,0,0,0-.85-2.1,3.72,3.72,0,0,0-2.44-.71h-3.5Z"/><path class="cls-127" d="M572.66,627.6l-1.32-3.26h-7.78l-1.32,3.26h-3.91l7.3-16.8h3.91l7.18,16.8Zm-7.85-6.31h5.3l-2.64-6.53Z"/><path class="cls-127" d="M588.61,623.51a3.63,3.63,0,0,0,2.72,1,3.48,3.48,0,0,0,2.64-1,4,4,0,0,0,1-2.86V610.8h3.79v9.86a7.76,7.76,0,0,1-.9,3.83,6.12,6.12,0,0,1-2.58,2.5,8.46,8.46,0,0,1-4,.88,8.6,8.6,0,0,1-4-.88,6.16,6.16,0,0,1-2.62-2.5,7.67,7.67,0,0,1-.91-3.83V610.8h3.79v9.86A3.89,3.89,0,0,0,588.61,623.51Z"/><path class="cls-127" d="M602.15,610.8h4.22l5.23,10.32,5.18-10.32H621v16.8h-3.41V616.25l-4.78,9.65h-2.45l-4.8-9.65V627.6h-3.41Z"/><path class="cls-127" d="M372.31,644H387l0,4.09h-9.52v4.37h8.79v4.09h-8.79v7.08h-5.12Z"/><path class="cls-127" d="M395.19,658.48A3.7,3.7,0,0,0,398,659.6a3.47,3.47,0,0,0,2.67-1.11,4.22,4.22,0,0,0,1-3V644h5.12v11.54A9,9,0,0,1,405.7,660a7.29,7.29,0,0,1-3.08,3,10.07,10.07,0,0,1-4.69,1,10.25,10.25,0,0,1-4.72-1,7.43,7.43,0,0,1-3.14-3,8.78,8.78,0,0,1-1.11-4.47V644h5.12v11.54A4.07,4.07,0,0,0,395.19,658.48Z"/><path class="cls-127" d="M408.57,644H425.4v4.23h-5.88v15.4H414.4V648.2h-5.82Z"/><path class="cls-127" d="M433.35,658.48a3.7,3.7,0,0,0,2.77,1.12,3.47,3.47,0,0,0,2.67-1.11,4.22,4.22,0,0,0,1-3V644h5.12v11.54a9,9,0,0,1-1.08,4.47,7.29,7.29,0,0,1-3.08,3,10.07,10.07,0,0,1-4.69,1,10.25,10.25,0,0,1-4.72-1,7.43,7.43,0,0,1-3.14-3,8.78,8.78,0,0,1-1.11-4.47V644h5.12v11.54A4.07,4.07,0,0,0,433.35,658.48Z"/><path class="cls-127" d="M460.23,663.6l-2.86-5.43h-3.81v5.43h-5.12V644h8.82a9.09,9.09,0,0,1,6,1.81,6.28,6.28,0,0,1,2.14,5.08,7.74,7.74,0,0,1-.9,3.82,6.2,6.2,0,0,1-2.6,2.51L466,663.6Zm-6.66-9.52h3.72a3.45,3.45,0,0,0,2.42-.78,2.92,2.92,0,0,0,.85-2.27,2.81,2.81,0,0,0-.85-2.2,3.49,3.49,0,0,0-2.42-.77h-3.72Z"/><path class="cls-127" d="M483.49,645a9.76,9.76,0,0,1,5.19,8.76,9.93,9.93,0,0,1-5.19,8.88,11.65,11.65,0,0,1-10.84,0,9.86,9.86,0,0,1-3.81-3.67,10,10,0,0,1-1.39-5.22,9.77,9.77,0,0,1,5.19-8.76,11.81,11.81,0,0,1,10.84,0Zm-8.06,3.78a5.45,5.45,0,0,0-2,2.09,6.25,6.25,0,0,0,0,5.88,5.69,5.69,0,0,0,2,2.1,5,5,0,0,0,2.69.77,4.91,4.91,0,0,0,2.67-.77,5.42,5.42,0,0,0,1.92-2.1,6.53,6.53,0,0,0,0-5.88,5.32,5.32,0,0,0-1.92-2.09,5,5,0,0,0-2.67-.76A5.11,5.11,0,0,0,475.42,648.76Z"/><path class="cls-127" d="M497.44,644H503l5.68,11.48L514.36,644h5.57V663.6h-4.54l0-12.43-5,10.47H507l-5-10.47V663.6h-4.56Z"/><path class="cls-127" d="M523.74,644h15.48v4.09H528.86v3.67h9.35v4.06l-9.35,0v3.7H539.5v4.09H523.74Z"/><path class="cls-127" d="M542.63,644h5.12v15.26h8.32v4.37H542.63Z"/><path class="cls-127" d="M558.4,644h5.12v8h7.92v-8h5.12V663.6h-5.12v-7.53h-7.92v7.53H558.4Z"/><path class="cls-127" d="M595.15,645a9.76,9.76,0,0,1,5.19,8.76,9.93,9.93,0,0,1-5.19,8.88,11.65,11.65,0,0,1-10.84,0A9.86,9.86,0,0,1,580.5,659a10,10,0,0,1-1.39-5.22,9.77,9.77,0,0,1,5.19-8.76,11.81,11.81,0,0,1,10.84,0Zm-8.06,3.78a5.45,5.45,0,0,0-2,2.09,6.25,6.25,0,0,0,0,5.88,5.69,5.69,0,0,0,2,2.1,5,5,0,0,0,2.69.77,4.91,4.91,0,0,0,2.67-.77,5.42,5.42,0,0,0,1.92-2.1,6.53,6.53,0,0,0,0-5.88,5.32,5.32,0,0,0-1.92-2.09,5,5,0,0,0-2.67-.76A5.11,5.11,0,0,0,587.08,648.76Z"/><path class="cls-127" d="M614.68,663.6l-2.86-5.43H608v5.43h-5.12V644h8.82a9.09,9.09,0,0,1,6,1.81,6.28,6.28,0,0,1,2.14,5.08,7.74,7.74,0,0,1-.9,3.82,6.2,6.2,0,0,1-2.6,2.51l4.09,6.41ZM608,654.08h3.72a3.45,3.45,0,0,0,2.42-.78A2.92,2.92,0,0,0,615,651a2.81,2.81,0,0,0-.85-2.2,3.49,3.49,0,0,0-2.42-.77H608Z"/><path class="cls-127" d="M626.69,659.65a2.35,2.35,0,0,1,.67,1.74,2.39,2.39,0,0,1-.67,1.75,2.32,2.32,0,0,1-1.74.69,2.29,2.29,0,0,1-1.71-.69,2.62,2.62,0,0,1,0-3.49A2.3,2.3,0,0,1,625,659,2.35,2.35,0,0,1,626.69,659.65Zm-4-15.57h4.73v5l-.87,7.7h-3l-.87-7.7Z"/></g></g></svg>