<svg xmlns="http://www.w3.org/2000/svg" viewBox="0 0 310 310"><defs><style>.cls-1{fill:#212a56;}.cls-2{fill:#201d25;}.cls-3{fill:#f1bc33;opacity:0.92;}.cls-4{fill:#161317;}.cls-5{fill:#fff;opacity:0.2;}</style></defs><title>missao</title><g id="Camada_2" data-name="Camada 2"><g id="Camada_1-2" data-name="Camada 1"><circle class="cls-1" cx="155" cy="155" r="155"/><path class="cls-2" d="M138.89,267.75l-18-54.1s-4.75,18.27-35,18.58l11.45,35.52Z"/><path class="cls-3" d="M89.63,226.58s10.66,2.35,23.43-10.31h0s-2.59-16.36-19.74-26.07a65.47,65.47,0,0,0-13.77-6.12h0s-9-3.54-11.54-11.24a3.33,3.33,0,0,0-1-1.48c-1.51-1.33-5.09-4-8.23-3.19,0,0-4.91.47,0,6.17h0a42.52,42.52,0,0,1,4.84,10.56,5.49,5.49,0,0,0,.5,1.17,24.62,24.62,0,0,0,8,8,12.73,12.73,0,0,1,1.47,1.12c1.31,1.15,3.76,3.42,4.38,4.79h0s-7.19-4.17-8.94-5.58c0,0-5.69-4-8.9-12.86a20,20,0,0,0-3-5.42c-1.67-2.16-3.58-5.37-2.32-7.52,0,0,2.22-4.87,10.25-.91h0s-7.5-17.46-9.41-30a6.2,6.2,0,0,0-2.94-4.43c-2.24-1.31-5.45-1.21-8,6.88h0S42.35,160,45.93,171h0s4.33,17.63,7.39,22.9h0s9.5,13.62,21.53,19.42c0,0,12.56,6.38,14.78,13.27Z"/><path class="cls-4" d="M85.86,232.22l11.45,35.52h22l-13-39.46C101.28,230.52,94.64,232.13,85.86,232.22Z"/><path class="cls-2" d="M171.11,267.75l18-54.1s4.75,18.27,35,18.58l-11.45,35.52Z"/><path class="cls-3" d="M220.37,226.58s-10.66,2.35-23.43-10.31h0s2.59-16.36,19.74-26.07a65.47,65.47,0,0,1,13.77-6.12h0s9-3.54,11.54-11.24a3.33,3.33,0,0,1,1-1.48c1.51-1.33,5.09-4,8.23-3.19,0,0,4.91.47,0,6.17h0a42.52,42.52,0,0,0-4.84,10.56,5.49,5.49,0,0,1-.5,1.17,24.62,24.62,0,0,1-8,8,12.73,12.73,0,0,0-1.47,1.12c-1.31,1.15-3.76,3.42-4.38,4.79h0s7.19-4.17,8.94-5.58c0,0,5.69-4,8.9-12.86a20,20,0,0,1,3-5.42c1.67-2.16,3.58-5.37,2.32-7.52,0,0-2.22-4.87-10.25-.91h0s7.5-17.46,9.41-30a6.2,6.2,0,0,1,2.94-4.43c2.24-1.31,5.45-1.21,8,6.88h0S267.65,160,264.07,171h0s-4.33,17.63-7.39,22.9h0s-9.5,13.62-21.53,19.42c0,0-12.56,6.38-14.78,13.27Z"/><path class="cls-4" d="M224,232.22,212.6,267.75h-22l13-39.46C208.63,230.52,215.26,232.13,224,232.22Z"/><path class="cls-3" d="M202.29,119.36l19.23.67-18.18-8-.28-.5,17.73-4.13-15.35-3.24-.43-.09,34.27-9.86-35,1.55,17.34-8.33-19.76,1.33-.45-.39,13.91-11.72L199.64,81l25.74-24.69L195.27,73.86l11.47-15.4L189.87,68.9l-1.06-.65,6.52-17-11.7,11.19,5.49-17,5.5-17-18.19,30L179,39.4,169.2,56.55l-.66.17-2-18-5.1,15.36-6.1-35.15-2.11,34.89L146.68,35.6l-.77,19.84-.5.4-10.19-15,2.62,16.09L116.16,28.5l14.3,32L116.31,47.34l8.52,18-.33.56-16-8.75,9.72,13.11L85.9,55.14l27.51,21.77L94.72,71.86l15.86,11.85.18.66-18.23-.24,14.56,7.06L71.53,92.75l34.34,6.61-18.78,4.09,19.55,3.32.28.39-16.23,8.32,16.23-.62-30.72,18,33.49-10.18L94.85,135.14l18.86-6.26.56.38L103.79,144,117.86,136l-19,30.3,24.86-24.51-7.25,17.73,8.1-8.32V150l-5.44,5.54,5.46-13.38a.93.93,0,0,0-.34-1.12,1,1,0,0,0-.54-.16.93.93,0,0,0-.64.27l-19.26,19,14.78-23.62a.92.92,0,0,0-.12-1.13.91.91,0,0,0-.68-.28.89.89,0,0,0-.44.12l-10.43,6L115,129.8a.92.92,0,0,0,.15-.7.94.94,0,0,0-.39-.61l-.56-.38a.92.92,0,0,0-.53-.15.88.88,0,0,0-.28,0l-14.28,4.73,11.15-9.35a.91.91,0,0,0,.21-1.14.93.93,0,0,0-.82-.49,1.1,1.1,0,0,0-.26,0l-26,7.9,24-14a1,1,0,0,0,.42-1.08,1,1,0,0,0-.9-.68h0l-12.07.48L107.34,108a.93.93,0,0,0,.32-1.37l-.28-.38a.9.9,0,0,0-.58-.36l-14.86-2.53,14.13-3.08a.92.92,0,0,0,0-1.81L79.42,93.33l27.7-1.22a.92.92,0,0,0,.36-1.75l-10.82-5,14.09.39h0c.28,0,.54-.34.71-.56a1.17,1.17,0,0,0,.16-.91l-.17-.72a1,1,0,0,0-.34-.53l-12-9,14,3.79a1,1,0,0,0,.26,0,.93.93,0,0,0,.56-1.65L92.68,59.34,117.8,71.08a.81.81,0,0,0,.41.09.9.9,0,0,0,.7-.34.93.93,0,0,0,0-1.14L111.72,60l12.34,6.74a.91.91,0,0,0,1.24-.34l.32-.56a.92.92,0,0,0,0-.86L119.2,51.28l10.64,9.89a.93.93,0,0,0,1.47-1.06L120.24,35.37,137.1,57.45a.91.91,0,0,0,.75.36.86.86,0,0,0,.35-.07.93.93,0,0,0,.55-1l-1.95-12,7.84,11.58a1,1,0,0,0,.63.39h.15a.89.89,0,0,0,.56-.2l.5-.39a.92.92,0,0,0,.34-.69l.59-15.12,5,13.74a.92.92,0,0,0,.88.61h.12a.93.93,0,0,0,.79-.86l1.63-27L160.55,54c.07.42.42.52.84.52h.08c.39,0,.74,0,.87-.38l3.76-11.22,1.52,13.89a1,1,0,0,0,.39.69.92.92,0,0,0,.54.18.82.82,0,0,0,.23,0l.66-.17A.92.92,0,0,0,170,57l7.48-13-2,14.41a.93.93,0,0,0,.61,1,1,1,0,0,0,.33.05.91.91,0,0,0,.77-.44L191.3,35.79l-8.55,26.37a.93.93,0,0,0,.9,1.21,1,1,0,0,0,.63-.26L193,54.77l-5,13.14a.93.93,0,0,0,.38,1.12l1.06.65a1,1,0,0,0,.5.14,1,1,0,0,0,.47-.14l12.74-7.89-8.57,11.51a.92.92,0,0,0,.05,1.17,1,1,0,0,0,.7.31.9.9,0,0,0,.45-.13L219.14,61,199,80.33a.92.92,0,0,0,.66,1.59l.23,0,11.61-3.21-10.68,9a.9.9,0,0,0-.33.7.94.94,0,0,0,.32.71l.45.29a.87.87,0,0,0,.61.13h0l15-.92-13,6.31a.75.75,0,0,0-.5.91c.1.42.48.55.91.55h0l27.21-1-26.77,7.79a1,1,0,0,0-.67,1,1,1,0,0,0,.74.89l11.71,2.47-13.68,3.19a.93.93,0,0,0-.59,1.36l.28.5a.92.92,0,0,0,.43.39l13.78,6.07-14.44-.49h0a.91.91,0,0,0-.38,1.74l24.6,11.53-27.29-5.63-.2,0a.92.92,0,0,0-.58,1.63l9.27,7.79-13.44-3.61a1,1,0,0,0-.26,0,.93.93,0,0,0-.87.67l-.16.55a.94.94,0,0,0,.17.83l9.37,11.8-12.65-7.14a1,1,0,0,0-.47-.12.93.93,0,0,0-.72,1.49l16.43,21.45-21.41-17.48a.92.92,0,0,0-.6-.21.94.94,0,0,0-.53.18.92.92,0,0,0-.31,1.09l4.6,11.08-6-5.45-.15,1.11,8.55,7.83-6.2-14.92,27.53,22.49-21.23-27.73,16.76,9.46-12.31-15.51.16-.55,17.47,4.68L199,127l35,7.2Z"/><path class="cls-3" d="M196.44,101.92a43,43,0,1,0-62.3,38.48v9.83a4.15,4.15,0,0,0,4.08,4.22H170a4.15,4.15,0,0,0,4.08-4.22V139.68A43,43,0,0,0,196.44,101.92Z"/><path class="cls-5" d="M155.07,58.73v94.76H138.42a3.72,3.72,0,0,1-3.15-1.14s0,.15,0,.13a3.94,3.94,0,0,1-.84-1.47s-.21,0-.21,0c-.09-.33-.43-.61-.43-1v-9.83c-14.47-7.07-23.41-21.65-23.41-38.48,0-23.76,19.58-43,43.34-43C154.05,58.72,155.07,58.72,155.07,58.73Z"/><rect class="cls-1" x="134.13" y="144.13" width="39.84" height="38.98"/><path class="cls-3" d="M132.11,181.77c1.57,8,10.75,14.23,21.83,14.23s20.26-6.18,21.83-14.23Z"/><path class="cls-3" d="M181.09,147.7c0,2-2.21,3.57-4.93,3.57h-44c-2.72,0-4.93-1.6-4.93-3.57h0c0-2,2.21-3.57,4.93-3.57h44c2.72,0,4.93,1.6,4.93,3.57Z"/><path class="cls-3" d="M180.9,159.67c0,2-2.21,3.57-4.93,3.57h-44c-2.72,0-4.93-1.6-4.93-3.57h0c0-2,2.21-3.57,4.93-3.57h44c2.72,0,4.93,1.6,4.93,3.57Z"/><path class="cls-3" d="M181.36,172.32c0,2-2.21,3.57-4.93,3.57h-44c-2.72,0-4.93-1.6-4.93-3.57h0c0-2,2.21-3.57,4.93-3.57h44c2.72,0,4.93,1.6,4.93,3.57Z"/><path class="cls-1" d="M168.53,100a.7.7,0,0,0,.16-.44.72.72,0,0,0-.71-.72c-1.27,0-1.85,1-2.32,1.84s-.67,1.12-1.06,1.12-.67-.44-1.05-1.14-1-1.87-2.29-1.89h0c-1.27,0-1.85,1-2.32,1.84s-.67,1.12-1.06,1.12-.66-.43-1.05-1.14-1-1.87-2.29-1.89-1.85,1-2.32,1.84-.67,1.12-1.06,1.12-.67-.44-1.05-1.14-1-1.87-2.29-1.89-1.85,1-2.32,1.84-.67,1.12-1.06,1.12-.67-.63-1.05-1.34-1-2.08-2.29-2.08h0c-.39,0-.71.51-.71.9a1,1,0,0,0,.16.55c.68,1.65,5.79,14.33,7.18,27.33,1,9.59-.5,22.15-.52,22.28a.71.71,0,0,0,.14.52.64.64,0,0,0,.45.22l0,0h.05a.65.65,0,0,0,.68-.56c0-.13,1.57-12.76.52-22.54a108.26,108.26,0,0,0-6-24.39,1.94,1.94,0,0,0,1.36.56c1.27,0,1.85-1,2.32-1.84s.67-1.12,1.06-1.12.67.44,1.05,1.14,1,1.87,2.29,1.89,1.85-1,2.32-1.84.67-1.12,1.06-1.12.66.43,1.05,1.14,1,1.87,2.29,1.89,1.85-1,2.32-1.84.67-1.12,1.06-1.12.67.44,1.05,1.14,1,1.87,2.29,1.89a2,2,0,0,0,1.45-.6,110.38,110.38,0,0,0-6.2,24.36,131.52,131.52,0,0,0-.25,22.45.61.61,0,0,0,.68.53h0l0,.1a.63.63,0,0,0,.47-.19.62.62,0,0,0,.16-.47,131.86,131.86,0,0,1,.25-22.26C162.7,114.14,167.85,101.57,168.53,100Zm-1.2.71h0l-.07.18Zm-.09-1.15h0a3.58,3.58,0,0,0-1.12,1.38l-.1.17.1-.17A3.58,3.58,0,0,1,167.23,99.51Zm-.41,1-.07.1Zm-.15.24-.22.38Zm-.46.79-.1.17Zm-1.62.78h0a1,1,0,0,1-.48-.12A1,1,0,0,0,164.59,102.28Zm-5.84-.49a1.16,1.16,0,0,1-.87.43h0A1.16,1.16,0,0,0,158.75,101.79Zm-.88.46h0a1.28,1.28,0,0,1-1-.65A1.28,1.28,0,0,0,157.86,102.24Zm-4-2.92a1.71,1.71,0,0,0-.49.36A1.71,1.71,0,0,1,153.89,99.32ZM151.63,102a1,1,0,0,1-.48.12h0A1,1,0,0,0,151.63,102Zm-1,0a1.69,1.69,0,0,1-.56-.53A1.69,1.69,0,0,0,150.65,102Zm-1.74-2.39a1.47,1.47,0,0,0-1.11-.51h0A1.47,1.47,0,0,1,148.91,99.64Zm-1.13-.52h0a1.43,1.43,0,0,0-.63.14A1.43,1.43,0,0,1,147.78,99.12Zm-4.88,1c.4.72.17,1.45.9,1.45l.61-.54h0a1.44,1.44,0,0,1-1.5-.9m2.67,13.07c-.41-1.52-.82-3-1.24-4.29.41,1.34.83,2.78,1.24,4.29a91.49,91.49,0,0,1,2.64,13.69,78.36,78.36,0,0,1,.34,9.45c0,.62,0,1.24,0,1.85,0-.61,0-1.22,0-1.85a78.37,78.37,0,0,0-.34-9.45A91.49,91.49,0,0,0,145.57,113.23Zm2.26,36.25h0a.16.16,0,0,0,.09,0l-.07,0Zm.18-.14a.16.16,0,0,1-.06.1.16.16,0,0,0,.06-.1s0-.34.1-.91C148.06,149,148,149.32,148,149.33Zm.14-1.29c0-.27.06-.57.09-.91C148.22,147.48,148.19,147.78,148.16,148Zm-6-47.8.06.09-.06-.09Zm2.19,2.23a1.43,1.43,0,0,1-.89-.31,1.43,1.43,0,0,0,.89.31h0Zm2.34-2.33a5.53,5.53,0,0,0-.32.49l-.15.26c-.11.19-.22.39-.34.58.12-.18.23-.38.34-.58l.15-.26a5.53,5.53,0,0,1,.32-.49,2.06,2.06,0,0,1,.36-.38A2.06,2.06,0,0,0,146.74,100.14Zm1-.63h0a1.06,1.06,0,0,0-.25,0A1.06,1.06,0,0,1,147.78,99.51Zm.88.44a1.42,1.42,0,0,0-.39-.32,1.42,1.42,0,0,1,.39.32,5.34,5.34,0,0,1,.63,1A5.35,5.35,0,0,0,148.67,99.95Zm2.46,2.59a1.51,1.51,0,0,1-.34,0,1.51,1.51,0,0,0,.34,0h0Zm.64-.14a1.71,1.71,0,0,0,.49-.36A1.71,1.71,0,0,1,151.77,102.4Zm.69-.6a5.51,5.51,0,0,0,.36-.55A5.51,5.51,0,0,1,152.47,101.8ZM156,101c-.4-.72-.77-1.4-1.5-1.4h0c.73,0,1.1.67,1.5,1.4a7.49,7.49,0,0,0,.52.86A7.47,7.47,0,0,1,156,101Zm1.84,1.6h0Zm3.38-3h0a1.11,1.11,0,0,0-.78.34,1.11,1.11,0,0,1,.78-.34h0c.64,0,1,.53,1.35,1.14C162.25,100.14,161.89,99.61,161.25,99.61Zm3.34,2.63c-.36,0-.65.09-.89-.1a1.52,1.52,0,0,0,.89.41c.07,0,.13-.17.19-.18s-.11-.14-.17-.14Zm.78.2-.15.09Zm-.28.14-.16.06Zm.39-.2.13-.12Zm.23-.2.12-.14Zm.32-.41-.12.17Zm.61.67c-.23.62-.49,1.33-.77,2.11C166.14,103.76,166.41,103.05,166.64,102.43Zm-1.06,2.91c-.29.83-.59,1.73-.9,2.69C165,107.08,165.29,106.18,165.58,105.35Zm-5.49,44.1a.16.16,0,0,0,.06.11A.16.16,0,0,1,160.09,149.44Zm.16.15a.16.16,0,0,1-.07,0,.16.16,0,0,0,.08,0h0Z"/></g></g></svg>