<svg xmlns="http://www.w3.org/2000/svg" viewBox="0 0 310 310"><defs><style>.cls-1{fill:#212a56;}.cls-2{fill:#f1bc33;opacity:0.92;}.cls-3{fill:#161317;}</style></defs><title>valores-home</title><g id="Camada_2" data-name="Camada 2"><g id="Camada_1-2" data-name="Camada 1"><circle class="cls-1" cx="155" cy="155" r="155"/><rect class="cls-2" x="91.76" y="68.51" width="126.48" height="172.98" transform="translate(-36.09 47.6) rotate(-15.66)"/><rect class="cls-3" x="97.23" y="74.06" width="115.07" height="160.16" transform="translate(-35.87 47.5) rotate(-15.66)"/><path class="cls-2" d="M155,65.24,136.21,70.5a6.67,6.67,0,1,0-10.07,2.82l-17.61,4.94,3.7,13.21,46.44-13Zm-25.41-1.35A4.09,4.09,0,1,1,126,68.44,4.09,4.09,0,0,1,129.56,63.88Z"/><path class="cls-2" d="M183.38,102.93c.31,1.08.19,2.07-.28,2.21l-41.83,12.11c-.47.14-1.1-.63-1.42-1.72h0c-.31-1.08-.19-2.07.28-2.21L182,101.21c.47-.14,1.1.63,1.42,1.72Z"/><path class="cls-2" d="M185.12,108.92c.31,1.08.12,2.09-.42,2.25l-48.92,14.16c-.55.16-1.25-.59-1.56-1.67h0c-.31-1.08-.12-2.09.42-2.25l48.92-14.16c.55-.16,1.25.59,1.56,1.67Z"/><path class="cls-2" d="M207.81,187.29c.3,1,.1,2-.45,2.16l-48.92,14.16c-.55.16-1.23-.55-1.53-1.58h0c-.3-1-.1-2,.45-2.16l48.92-14.16c.55-.16,1.23.55,1.53,1.58Z"/><path class="cls-2" d="M209.68,193.77c.3,1,.1,2-.45,2.16l-48.92,14.16c-.55.16-1.23-.55-1.53-1.58h0c-.3-1-.1-2,.45-2.16l48.92-14.16c.55-.16,1.23.55,1.53,1.58Z"/><path class="cls-2" d="M195.9,146.17c.25.87,0,1.7-.54,1.86l-48.92,14.16c-.55.16-1.2-.42-1.45-1.29h0c-.25-.87,0-1.7.54-1.86l48.92-14.16c.55-.16,1.2.42,1.45,1.29Z"/><path class="cls-2" d="M197.59,152c.25.87.07,1.69-.4,1.82l-42.34,12.26c-.47.14-1.06-.46-1.31-1.33h0c-.25-.87-.07-1.68.4-1.82l42.34-12.26c.47-.14,1.06.46,1.31,1.33Z"/><path class="cls-2" d="M194.1,139.93c.25.87.08,1.68-.39,1.82l-41.92,12.14c-.47.14-1.05-.46-1.31-1.33h0c-.25-.87-.08-1.68.39-1.82l41.92-12.14c.47-.14,1.05.46,1.31,1.33Z"/><path class="cls-1" d="M126.5,112.74l-3.67-2.09a.73.73,0,0,0-1,.27l-8.11,14.24-7.5-4.09a.73.73,0,0,0-1,.27l-2.1,3.67a.73.73,0,0,0,.27,1l11.86,6.47a.73.73,0,0,0,1-.27l1.51-2.63h0l.23-.4.36-.63v0l8.42-14.78A.73.73,0,0,0,126.5,112.74Z"/><path class="cls-1" d="M139.12,156.33l-3.67-2.09a.73.73,0,0,0-1,.27l-8.11,14.24-7.5-4.09a.73.73,0,0,0-1,.27l-2.1,3.67a.73.73,0,0,0,.27,1l11.86,6.47a.73.73,0,0,0,1-.27l1.51-2.63h0l.23-.4.36-.63v0l8.42-14.78A.73.73,0,0,0,139.12,156.33Z"/><path class="cls-1" d="M151.21,198.08,147.54,196a.73.73,0,0,0-1,.27l-8.11,14.24-7.5-4.09a.73.73,0,0,0-1,.27l-2.1,3.67a.73.73,0,0,0,.27,1L140,217.82a.73.73,0,0,0,1-.27l1.51-2.63h0l.23-.4.36-.63v0l8.42-14.78A.73.73,0,0,0,151.21,198.08Z"/><path class="cls-2" d="M179.75,202.3c-1.34-21.32-18.28-26.06-18.28-26.06-21.71-6-36.69,11.59-36.69,11.59s-15-17.55-36.72-11.59c0,0-16.92,4.74-18.27,26.06-1.47,23.26,40.39,63.22,55,72.83C139.38,265.53,181.22,225.57,179.75,202.3Z"/></g></g></svg>