<svg xmlns="http://www.w3.org/2000/svg" viewBox="0 0 310 310"><defs><style>.cls-1{fill:#212a56;}.cls-2,.cls-4{fill:#f1bc33;}.cls-2,.cls-3{opacity:0.92;}.cls-5{fill:#31303c;}.cls-6{fill:#161317;}</style></defs><title>visao-home</title><g id="Camada_2" data-name="Camada 2"><g id="Camada_1-2" data-name="Camada 1"><circle class="cls-1" cx="155" cy="155" r="155"/><path class="cls-2" d="M90.77,108.94s34.86-18,64.2,2.2c0,0,21.24,14.28,23.12,41.58a22.19,22.19,0,0,1-1.07,8.37l0,.09a10.17,10.17,0,0,0,1.43,9l10.52,14.77s1.89,2.52,0,4.67c0,0-4.11,3.54-8.79,3.67a1.91,1.91,0,0,0-1.51,1.83v5.25s2.74,3,2.49,3.92a7.85,7.85,0,0,1-3.22.11.91.91,0,0,0-1,.57.62.62,0,0,0,.07.6,5.5,5.5,0,0,0,.48.59,2.77,2.77,0,0,0,2.13,1s1.14.89,0,2.85c0,0-.65,1-3.21.54a81.85,81.85,0,0,1,.36,11.63,10.64,10.64,0,0,1-4.19,7.88,6.91,6.91,0,0,1-5.71,1.45H85.74a7.92,7.92,0,0,1,1.08-4.81c1.33-2.37,2.09-11.17.72-16.77-.26-1.05-1-4.09-1.25-5.15-1.07-4.56-4.31-13.06-9.15-22.31-2.84-5.44-5-10.32-6.05-16a90.76,90.76,0,0,1-1.43-15.58,54.35,54.35,0,0,1,7.28-27.76C80.1,117.69,84.58,112.24,90.77,108.94Z"/><g class="cls-3"><line class="cls-4" x1="211.05" y1="121.21" x2="170.55" y2="135.11"/><rect class="cls-4" x="169.39" y="127.91" width="42.81" height="0.49" transform="translate(-31.26 68.85) rotate(-18.93)"/><line class="cls-4" x1="169.8" y1="136.21" x2="157.21" y2="151.17"/><rect class="cls-4" x="153.72" y="143.45" width="19.56" height="0.49" transform="translate(-51.71 176.3) rotate(-49.93)"/><line class="cls-4" x1="158.24" y1="150.88" x2="180.93" y2="183.72"/><rect class="cls-4" x="169.34" y="147.35" width="0.49" height="39.92" transform="translate(-65.04 126.08) rotate(-34.65)"/><line class="cls-4" x1="181.28" y1="182.45" x2="182.88" y2="152.91"/><rect class="cls-4" x="167.29" y="167.43" width="29.59" height="0.49" transform="translate(4.76 340.38) rotate(-86.89)"/><line class="cls-4" x1="183.11" y1="152.08" x2="211.43" y2="121.32"/><rect class="cls-4" x="176.36" y="136.45" width="41.82" height="0.49" transform="translate(-36.92 189.22) rotate(-47.36)"/><line class="cls-4" x1="212.42" y1="121.58" x2="250.95" y2="156.74"/><rect class="cls-4" x="231.44" y="113.08" width="0.49" height="52.15" transform="translate(-27.28 216.51) rotate(-47.62)"/><line class="cls-4" x1="250.32" y1="157.87" x2="221.51" y2="184.18"/><rect class="cls-4" x="216.41" y="170.78" width="39.01" height="0.49" transform="translate(-53.62 203.76) rotate(-42.39)"/><line class="cls-4" x1="221.08" y1="184.06" x2="182.19" y2="151.83"/><rect class="cls-4" x="201.39" y="142.69" width="0.49" height="50.51" transform="translate(-56.34 216.04) rotate(-50.35)"/><line class="cls-4" x1="184.28" y1="152.39" x2="213.79" y2="147.54"/><rect class="cls-4" x="184.08" y="149.72" width="29.9" height="0.49" transform="translate(-21.71 34.3) rotate(-9.34)"/><line class="cls-4" x1="213.19" y1="147.89" x2="250.49" y2="156.56"/><rect class="cls-4" x="231.59" y="133.07" width="0.49" height="38.3" transform="translate(31.07 343.56) rotate(-76.91)"/><circle class="cls-4" cx="211.3" cy="121.83" r="3.06" transform="translate(38.75 294.22) rotate(-74.94)"/><circle class="cls-4" cx="170.55" cy="135.11" r="3.06" transform="translate(-4.23 264.7) rotate(-74.94)"/><circle class="cls-4" cx="158.24" cy="150.88" r="3.06" transform="translate(-28.58 264.49) rotate(-74.94)"/><circle class="cls-4" cx="183.49" cy="152.69" r="3.06" transform="translate(-11.63 290.21) rotate(-74.94)"/><circle class="cls-4" cx="213.2" cy="147.88" r="3.06" transform="translate(15 315.33) rotate(-74.94)"/><circle class="cls-4" cx="250.42" cy="156.71" r="3.06" transform="translate(34.02 357.81) rotate(-74.94)"/><circle class="cls-4" cx="221.51" cy="184.18" r="3.06" transform="matrix(0.26, -0.97, 0.97, 0.26, -13.89, 350.23)"/><circle class="cls-4" cx="180.67" cy="182.8" r="3.06" transform="translate(-42.8 309.78) rotate(-74.94)"/></g><polygon class="cls-5" points="33.3 109.4 34.1 111.79 108.96 111.62 176.48 64.31 175.64 61.8 33.3 109.4"/><polygon class="cls-5" points="170.27 123.69 79.78 153.96 62.87 103.38 141.51 77.08 170.27 123.69"/><polygon class="cls-6" points="119.1 140.81 68.08 157.87 62.86 103.39 102.18 90.23 119.1 140.81"/><polygon class="cls-6" points="33.32 109.44 107.95 109.27 175.65 61.83 99.33 70.22 33.32 109.44"/><polygon class="cls-5" points="162.17 105.86 163.77 105.32 154.24 76.83 102.73 83.2 102.94 84.88 153.08 78.68 162.17 105.86"/><ellipse class="cls-5" cx="100.36" cy="84.79" rx="7.83" ry="2.38" transform="translate(-21.71 36.21) rotate(-18.49)"/><g class="cls-3"><path class="cls-4" d="M160.89,110.81l-.75-2.24a3.75,3.75,0,0,1,7.11-2.38l.75,2.24Z"/><path class="cls-4" d="M160.57,116.19c.79.56,5.69-1.15,5.69-1.15s5.07-1.65,5.23-2.61-4.36-3.79-4.36-3.79l-4.36-3.79-1.1,5.67S159.77,115.62,160.57,116.19Z"/></g></g></g></svg>