<svg xmlns="http://www.w3.org/2000/svg" viewBox="0 0 46 46"><defs><style>.cls-1{fill:#fff;}.cls-2{fill:#3cf;}</style></defs><title>twitter-top</title><g id="Camada_2" data-name="Camada 2"><g id="Camada_1-2" data-name="Camada 1"><circle class="cls-1" cx="23" cy="23" r="23"/><path class="cls-2" d="M32.71,18.65c0,.21,0,.42,0,.63A13.85,13.85,0,0,1,11.41,30.94a10.1,10.1,0,0,0,1.17.06,9.75,9.75,0,0,0,6-2.08,4.87,4.87,0,0,1-4.55-3.37,6.17,6.17,0,0,0,.92.08,5.17,5.17,0,0,0,1.28-.17,4.86,4.86,0,0,1-3.9-4.77v-.06a4.89,4.89,0,0,0,2.2.62,4.87,4.87,0,0,1-1.51-6.51,13.83,13.83,0,0,0,10,5.09A5.5,5.5,0,0,1,23,18.71a4.87,4.87,0,0,1,8.42-3.33,9.58,9.58,0,0,0,3.09-1.17,4.85,4.85,0,0,1-2.14,2.68,9.74,9.74,0,0,0,2.8-.75A10.44,10.44,0,0,1,32.71,18.65Z"/></g></g></svg>