<svg xmlns="http://www.w3.org/2000/svg" viewBox="0 0 40 40"><defs><style>.cls-1{fill:#fff;}</style></defs><title>after-menu-span</title><g id="Camada_2" data-name="Camada 2"><g id="Camada_1-2" data-name="Camada 1"><path class="cls-1" d="M20,40A20,20,0,1,1,40,20,20,20,0,0,1,20,40ZM20,5.83A14.17,14.17,0,1,0,34.17,20,14.18,14.18,0,0,0,20,5.83ZM29.77,20.6l-8.33,8.33a.87.87,0,0,1-.6.23.86.86,0,0,1-.83-.83v-5H10.83A.86.86,0,0,1,10,22.5v-5a.86.86,0,0,1,.83-.83H20v-5a.82.82,0,0,1,.83-.83,1,1,0,0,1,.63.26l8.31,8.31a.88.88,0,0,1,0,1.2Z"/></g></g></svg>