<svg xmlns="http://www.w3.org/2000/svg" viewBox="0 0 56.48 55.12"><defs><style>.cls-1{fill:gray;}.cls-1,.cls-3{fill-rule:evenodd;}.cls-2,.cls-3{fill:#b3b3b3;}.cls-4{fill:#fff;}</style></defs><title>aica-heart-p</title><g id="Camada_2" data-name="Camada 2"><g id="Camada_1-2" data-name="Camada 1"><path class="cls-1" d="M54.81,14.76C52.36,6.57,46,1,38.53.63,35.76.48,30.11,1,24.81,6.41a18.31,18.31,0,0,0-14.35.8C3.58,10.7-.23,18.45.76,26.94S8,45.86,22.15,51.67a54.57,54.57,0,0,0,7.9,2.54,10.67,10.67,0,0,0,8.82-1.77l1-.78c15.53-12,17.78-27.28,14.91-36.9ZM32.75,46.42C0,38.49,10.32,6.63,28.35,23.31,38.6-1.22,58.6,27.44,32.75,46.42Z"/><path class="cls-2" d="M32.57,55.12a11.31,11.31,0,0,1-2.66-.32,55.48,55.48,0,0,1-8-2.57C9.55,47.15,1.41,37.72.16,27c-1-8.74,2.91-16.73,10-20.34a18.8,18.8,0,0,1,14.45-1A18.3,18.3,0,0,1,38.56,0c7.7.41,14.31,6.13,16.83,14.57h0c2.9,9.71.68,25.37-15.12,37.56l-.16.12-.88.67A11.24,11.24,0,0,1,32.57,55.12ZM18.38,5.93a16.73,16.73,0,0,0-7.64,1.82C4.08,11.13.4,18.63,1.37,26.87c1.2,10.27,9.06,19.33,21,24.25a54.25,54.25,0,0,0,7.81,2.51A10,10,0,0,0,38.51,52l.86-.65.16-.12C54.84,39.37,57,24.27,54.23,14.94h0C51.86,7,45.68,1.61,38.5,1.23c-2.76-.15-8.14.39-13.26,5.6L25,7.1,24.62,7A19.76,19.76,0,0,0,18.38,5.93ZM32.88,47.07,32.61,47C17.82,43.42,11.72,35,10.94,28.33c-.5-4.26,1.18-8,4.26-9.6,3.57-1.81,8.24-.51,12.92,3.56,2.67-6,6.31-9.27,10.07-9.06,3.19.17,5.94,2.84,7.17,7,2,6.7,0,17.71-12.25,26.7ZM18.65,19.15a6.3,6.3,0,0,0-2.89.67c-2.63,1.34-4,4.62-3.61,8.38.73,6.23,6.49,14.09,20.47,17.57C44.16,37.17,46.08,26.83,44.2,20.55c-1.08-3.63-3.41-6-6.07-6.11-3.36-.17-6.73,3.14-9.22,9.1l-.33.8-.64-.59C24.67,20.73,21.42,19.15,18.65,19.15Z"/><path class="cls-3" d="M28.35,23.31C10.32,6.63,0,38.49,32.75,46.42,58.6,27.44,38.6-1.22,28.35,23.31Z"/><path class="cls-4" d="M32.88,47.07,32.61,47C17.82,43.42,11.72,35,10.94,28.33c-.5-4.26,1.18-8,4.26-9.6,3.57-1.81,8.24-.51,12.92,3.56,2.67-6,6.31-9.27,10.07-9.06,3.19.17,5.94,2.84,7.17,7,2,6.7,0,17.71-12.26,26.7ZM18.65,19.15a6.3,6.3,0,0,0-2.89.67c-2.63,1.34-4,4.62-3.61,8.38.73,6.23,6.49,14.09,20.47,17.57C44.16,37.17,46.08,26.83,44.2,20.55c-1.08-3.63-3.41-6-6.07-6.11-3.36-.17-6.73,3.14-9.22,9.1l-.33.8-.64-.59C24.67,20.73,21.42,19.15,18.65,19.15Z"/></g></g></svg>