<svg xmlns="http://www.w3.org/2000/svg" viewBox="0 0 789.37 603.71"><defs><style>.cls-1{fill:#fff;}</style></defs><title>ambiente</title><g id="Camada_2" data-name="Camada 2"><g id="Objects"><path class="cls-1" d="M293.91,344.48a14.15,14.15,0,0,0,2.4-3.62c2.11-4.68,1.11-10.1-1.63-14.31-2.84-4.36-7.41-7.91-12.81-7.72a17,17,0,0,0-5,.92c-.32-9.94-6.88-19.61-18.32-17.86a18.41,18.41,0,0,0-13.74,10.86c-1.12,2.45-2.5,6.51-2.09,9.77-5.24-1.11-11.57,1.35-14.34,5.67A13,13,0,0,0,230,344a3.82,3.82,0,0,1,.79,1.51c-.11.78-2.43,2.18-3,2.75a16.16,16.16,0,0,0-2.9,3.93,15.84,15.84,0,0,0-1.76,9.49,15,15,0,0,0,2.94,7,18,18,0,0,0,4.55,5,16.2,16.2,0,0,0,4.26,2.44c-1.41,4.79,0,10.64,3.9,13.82a6.16,6.16,0,0,0,5.67,2.41l.1,0a10.6,10.6,0,0,0,9.28-3.88c-.1,3.48-.19,7-.34,10.42-.19,4.62-1.5,13.88,5.55,13.92a.46.46,0,0,0,.46-.28c2.67-.43,3.94-3.3,4.09-6.22.32-6.19-.69-12.75-1.68-19,3,4.64,9.83,5.2,14.61,2.45a15.47,15.47,0,0,0,6.42-7.37,21.46,21.46,0,0,0,1.2-5.9c.26-1.93,0-1.5,2.2-1.86a16.84,16.84,0,0,0,11.08-7.28,16.59,16.59,0,0,0,2.66-5.17A16.4,16.4,0,0,0,293.91,344.48Zm-38.77-2.31q-.12,3.22-.13,6.43C255,346.47,255,344.32,255.14,342.17Zm7.68,40.72a1.59,1.59,0,0,0-1,.59l-.73.4a.55.55,0,0,0-.3.67.62.62,0,0,0-.36.66c.65,4.17,1.19,8.36,1.56,12.56.31,3.53,2.22,13-3.07,13.94-7.1-1.14-4-18.73-3.77-23.26.27-6.65.77-13.34.58-20a.33.33,0,0,0-.58-.21c-6.18-4.55-9.57-11.77-10.83-19.18a24.37,24.37,0,0,0,11.28,13.67.59.59,0,0,0,.89-.51,242.56,242.56,0,0,1,.61-33.5c.08-.37.18-.73.26-1.09.11,4,.27,7.93.42,11.89.07,1.76-1,8.66,1.41,9.71s7.15-2.65,8.72-4.12a21.29,21.29,0,0,0,4.26-5.72q.63-.83,1.19-1.7c-.56,4.48-2,8.81-6.06,11.46-2.16,1.43-6.93,2.07-8.36,4.33a.58.58,0,0,0,.2.78l.13.1c.09,5.44.22,10.88.24,16.31a7.62,7.62,0,0,0-.08,1.61,1.75,1.75,0,0,0,.09.45c0,.89,0,1.79,0,2.68a1.71,1.71,0,0,0,0,1.65c0,.61,0,1.21,0,1.82a.62.62,0,0,0,.61.61c6.3-.07,11.73-6.61,15.08-12.33A26.28,26.28,0,0,1,262.82,382.9Zm4.94,6.95a11.88,11.88,0,0,0,8.38-1.52l.17,0A11.69,11.69,0,0,1,267.75,389.84ZM219.43,139a.63.63,0,0,0-1.2-.05.5.5,0,0,0-.39-.14c-3.43.15-6.85.23-10.27.3a.69.69,0,0,0,0-.19A21.23,21.23,0,0,0,202,124a1.51,1.51,0,0,0-.49-.57l-.19-.13a19.54,19.54,0,0,0-13.72-5.69,20.34,20.34,0,0,0-14.27,5.6c-4.35,4.29-4.8,9.85-4,15.61l-8.89-.14-3-.32-.21,0-1.3-.14a1.35,1.35,0,0,0-1.3,1,46.86,46.86,0,0,0-.82,6.16,1.09,1.09,0,0,0,0,.35c-1.46,10.24-2.32,20.61-3.58,30.87q-2.47,20.14-5.35,40.23a.69.69,0,0,0,.45.74.47.47,0,0,0,.42.64c14,.7,28.23,0,42.27,0h.34c6.67.1,13.38.12,20.08-.09q10.92-.05,21.85-.16a.58.58,0,0,0,.47-.23.34.34,0,0,0,.38-.38C229.87,191.1,225.15,164.52,219.43,139ZM202.55,126.9a20,20,0,0,1,3.65,12,.69.69,0,0,0,0,.22c-1.76,0-3.53,0-5.29,0,.53-4.78.23-10.23-3.31-13.59C199.38,125.95,201,126.41,202.55,126.9ZM179.94,125c4.91-1.28,10.54-.91,15.66.1,4.52,3.49,4.21,8.92,4,14-7.87,0-15.73-.07-23.6-.2-.7-5.23.25-9.78,3.87-13.9Zm-9.36,6.13h0a15.29,15.29,0,0,1,6-4.89l.58-.25,1.14-.46a14.89,14.89,0,0,0-3.55,13.4l-4.49-.08A30.9,30.9,0,0,1,170.57,131.12Zm40,59.22c-.08.29-.16.57-.25.85-.64,1.57-1.3,3.14-2.09,4.63-5.19,8.49-16,12.25-26,9.56-7.92-2.14-13.75-7.59-17.37-14.5-.14-.37-.28-.74-.42-1.12a26.27,26.27,0,0,0-1.86-4.31h.2a.53.53,0,0,0,.13-1,4,4,0,0,0-1.38-.33,1.5,1.5,0,0,0-.61-.17c-.32,0-.64,0-.95,0a3.69,3.69,0,0,0-1,0l-.09-.06c0-.15,0-.3,0-.45a32.25,32.25,0,0,0,3-2.41c1.22-1,3.43-3.84,4.92-4.27,2-.58,3.42,2.07,4.56,3.29.75.81,1.53,1.58,2.33,2.34.37.46.74.91,1.14,1.34l-2.69.09a.71.71,0,0,0-.63,1,1.37,1.37,0,0,0,.07,1.35,46,46,0,0,0,3.43,4.54,18.45,18.45,0,0,0,12.84,7.84,14.26,14.26,0,0,0,15.92-11,.67.67,0,0,0-.16-.61c2.32,1,4.62,2.29,7,3.26A.69.69,0,0,0,210.56,190.35Zm-1.47-6.83c-1.47-.4-3.53-2.95-4.73-3.93-1.36-1.11-2.75-2.2-4.13-3.28a25.75,25.75,0,0,1,4.07.33.7.7,0,0,0,.78-.86h0c.72-7.69-6.06-13.35-13.22-13.8a22.15,22.15,0,0,0-19.79,10.12c-.32-.2-.66-.39-1-.57a29.9,29.9,0,0,0-6.18-2.72c5.62-9.3,16-15.44,27.15-13.66,10.36,1.67,18.73,9.85,21.31,19.89a.62.62,0,0,0,.34.43.54.54,0,0,0,.38.21l2.5.24,1.16.11.58.05a.83.83,0,0,0,.16,0,.46.46,0,0,0,0,.09l.05.11a.4.4,0,0,0,.09.12C216.23,178.84,211.88,184.28,209.09,183.52Zm37.08,82.75q-7.62,3.1-15,6.74,7.09,4.21,13.83,9a.41.41,0,0,1-.2.75c-3,0-6,0-9,.22a30.41,30.41,0,0,0-3.83.33c-1.78.36-1.65.11-.6,1.54,3,4.05,6.47,7.72,9.39,11.86a.36.36,0,0,1-.31.55A111.7,111.7,0,0,1,224.56,294q2.91,7.19,6.12,14.26a.37.37,0,0,1-.5.5c-1.59-.85-12.32-7.49-13.23-6.47-.2.23.39,3.45.42,3.79q.2,1.89.38,3.79.36,3.79.65,7.59a.38.38,0,0,1-.64.27,111,111,0,0,1-11.28-12.77h0a.34.34,0,0,1,0,.25c-1.31,5.18-2,11.47-4.77,16.11a.4.4,0,0,1-.73-.09,69.31,69.31,0,0,1-4.17-15.82c-2.2,4.82-6.6,9.27-10.08,13.11a.41.41,0,0,1-.68-.28c-.44-5.08.89-10.47,1.7-15.5a94.51,94.51,0,0,1-12.89,9.11c-.39.23-.75-.22-.58-.58q3.34-7,6.3-14.18l-.06-.05c-5.87,1.44-11.85,2.49-17.79,3.63a.44.44,0,0,1-.42-.72,54.28,54.28,0,0,1,11.91-10.43l0,0c-5.17-.17-10.37-1-15.5-1.55a.42.42,0,0,1-.21-.78,61,61,0,0,1,11.16-6.87.25.25,0,0,1,.06-.13l.64-.68A2,2,0,0,1,171,279a138.48,138.48,0,0,1-15.52-7.59.43.43,0,0,1,0-.74,45.56,45.56,0,0,1,7.63-2.78,42.69,42.69,0,0,1,4.49-.9c.13,0,2.26-.11,3.34,0a.3.3,0,0,1,0-.17l0-.1a.47.47,0,0,1,.24-.26c-2.15-2.17-4.11-4.51-6.37-6.57-2-1.85-4.27-3.32-5.6-5.77a.43.43,0,0,1,.36-.64c5.37.47,10.85,1,16.17,1.94a72.6,72.6,0,0,1-8.46-12.61.42.42,0,0,1,.47-.61,47.82,47.82,0,0,1,7.88,2.74c.8.36,7.1,4.12,7.16,4.07.87-.66-.28-6.6-.34-8-.14-3.47-.1-6.94.05-10.41,0-.31.42-.54.65-.27,1.83,2.12,3.58,4.3,5.23,6.57.56.78,4.71,8,5.14,8,1.09-.12,2.76-6.09,3.26-7.26,1.32-3.13,2.75-6.21,4.21-9.28.15-.31.59-.19.68.09a91.46,91.46,0,0,1,4,15.55,31.76,31.76,0,0,1,2.6-3.24l7.16-10c.2-.28.72-.22.7.19a104.6,104.6,0,0,1-2.12,15.7,6.23,6.23,0,0,1,0,1.17c4.24-4.08,8.68-7.8,12.64-12.2.28-.31.76,0,.67.39-1.38,5.62-2.81,11.79-5.57,17,2.8.31,6.14-1.5,8.77-2.34l9-2.88c.43-.14.64.4.4.69-3.68,4.63-7.19,9.88-11.43,14.06a126.63,126.63,0,0,1,17.64,3.06C246.63,265.53,246.52,266.12,246.17,266.27ZM415.43,57.14C407.8,59.35,405,67.07,402,73.58a33,33,0,0,1-9.83,12.77c-7.51,5.72-20.49,9.58-28.06,1.95a.51.51,0,0,1-.06-.09,40.06,40.06,0,0,0-7.24,23.51,6.38,6.38,0,0,1,1.44,0c4.78.58,7,5,7.81,9.21,6-5.37,20.63-3.1,19.73,6.59-.94,10.07-13.69,12.59-19.52,5.37-.9,5.11-7.67,5.59-10.13,1.35-3.48,10.36-23.5,9.44-25.71-1.15-4.92,4.21-14.3,2-13.6-5.63.76-8.33,12.29-9.3,17.48-4.9a9.28,9.28,0,0,1,6.45-11.22,9.72,9.72,0,0,1,1.8-.31,126.24,126.24,0,0,0-11.39-33.7c-9,1.9-20.58-2-26.12-9.41-6.9-9.29-1.92-23.37-11.52-31.14h0a.38.38,0,0,1-.34-.33c-.15-.25.08-.61.39-.43l.06,0c13.36.53,29.61-1.58,39.7,9.26,7.34,7.9,9.77,21.44,1.74,29.73a.51.51,0,0,1-.22.13,105.59,105.59,0,0,1,14.27,35.94,61.05,61.05,0,0,1,11.58-26.95c-7.39-12.06,3.23-26.23,14.36-31,12.19-5.2,30.07-6.16,40.64,3A.58.58,0,0,1,415.43,57.14ZM327.62,425.48a2.16,2.16,0,0,1-.67-.73c-6.27,0-12.55,0-18.82,0,0-.16,0-.32,0-.48.6-2.82,0-4.59-1.36-5.7h0c-1.07-1.35-3.15-1.7-5.3-1.74-2.26-.22-4.71-.13-6.73-.19-2.73-.08-6.64-.76-9.55.18a4.58,4.58,0,0,0-1.91.76,5,5,0,0,0-1.86,4.66,15.64,15.64,0,0,0,.18,2.56q-4.87,0-9.73.11-4.49,0-9,0a2,2,0,0,0-.91.23.34.34,0,0,0-.17.09.38.38,0,0,0-.54.17,9.84,9.84,0,0,0,.93,10.43c-.09.13-.07.32.13.35l.88.11a4.2,4.2,0,0,0,2.7.68,367.22,367.22,0,0,0-.59,39.34q.13,4.75.36,9.49c.12,2.44-.09,5.24.62,7.61a5.5,5.5,0,0,0,1.13,2.09,4.85,4.85,0,0,0,.76,1c1.15,1.09,2.71,1.19,4.22,1.22.47.05,1,.09,1.43.11,12.6.5,25.3.16,37.92.22,3.68,0,8.3.21,11.06-2.71,2.42-2.56,2.18-6.75,2-10.28.06-1.95,0-3.92-.11-5.89q-.21-20.44-.41-40.88a.44.44,0,0,0-.37-.44q0-.26,0-.51a7.29,7.29,0,0,0,1.45-.12H327a.36.36,0,0,0,.37-.3.35.35,0,0,0,.44-.26C328.65,433.1,329,429,327.62,425.48Zm-18.56,33.19a18.78,18.78,0,0,1,1.39,1.59c-.2-.26-.41-.51-.63-.76-4.73-5.28-11.19-7.57-18-8.51C298.27,451.79,304.37,453.88,309.06,458.67Zm-19.49-37.33c1.58.09,3.16.46,4.74.58a41.73,41.73,0,0,0,5.27.09c1.22-.06,2.23-.59,3,.44a2,2,0,0,1,.33.78l-.07.35c-.07.38-.18.79-.25,1.2q-8.29,0-16.59,0c.08-.22.16-.45.25-.65C287.42,421.29,287.2,421.21,289.57,421.34Zm-3.31-.21a3.18,3.18,0,0,0-.69,2.25C285.45,422,285.5,421.43,286.25,421.13Zm22.22,60.57a18.51,18.51,0,0,1-21-3c-5.87-5.72-7.4-14.54-8.49-22.31a1.46,1.46,0,0,0-.12-.39c-.06-.42-.11-.84-.18-1.25l.06-2.8c5.34,5.86,12.07,10.88,18.07,16q6.91,5.88,13.92,11.65A12.6,12.6,0,0,1,308.47,481.69Zm3.81-2-.24-.2c.16-.22.29-.45.43-.68Q312.36,479.25,312.28,479.69Zm-1-.85c-4.81-4-9.6-7.93-14.34-12-6-5.07-11.68-10.92-18-15.48,9.64-.14,20.21.17,28,6.63C312.87,463,315.65,472.49,311.25,478.84ZM466.18,286a19,19,0,0,0-10.31,1.7c-.28-.52-.57-1-.86-1.54.4-.12.8-.23,1.21-.32,5.16-1.22,13.56-1.93,17.91,1.71,1.52,1.27,3.72-.91,2.19-2.19-5.31-4.45-13.76-4-20.18-2.66a22.3,22.3,0,0,0-2.66.74c-2.47-4.49-4.93-9.27-8.23-13l0,0c.49-1.14,1-2.28,1.5-3.43a17.19,17.19,0,0,0,5.86-.3,1.3,1.3,0,0,0,0-2.49,24.6,24.6,0,0,0-6.06-.4,1.34,1.34,0,0,0-1.43,0l-.62,0c-1.4-.07-2.8-.16-4.19-.33-.35,0-1.13-.3-1.49,0l-.17.12a1.42,1.42,0,0,0,0,2.42,10.1,10.1,0,0,0,4.72.9q-.82,1.65-1.62,3.34c-4.89-.06-9.78.05-14.66.09s-11.25,1.15-16-.28h0a32.51,32.51,0,0,0-.47-10.28,9.44,9.44,0,0,0,2.88,1.66c2.27.8,5.41.82,6.88-1.33.71-1-.46-2.05-1.46-1.9-2.08.31-3.43,1-5.49-.13a17.36,17.36,0,0,1-4.36-3.88,1.27,1.27,0,0,0-2.08.59,1.58,1.58,0,0,0-.53,2c3.28,7.5,1.33,15.62-.3,23.27-.09.4-.18.81-.27,1.21-7.35-1.18-15.36,1-20.05,6.72a1.22,1.22,0,0,0,1.72,1.72c5.14-4,11.06-6.63,17.66-5.42-.16.71-.31,1.41-.47,2.12a19.31,19.31,0,0,0-6-.17c-10.29,1.35-18.73,11.4-17.48,21.86a20,20,0,0,0,7.46,13.08c2.34,1.86,6.87,4.51,10.29,3.84a1.66,1.66,0,0,0,.57.16c12.48,1.16,23.22-9.16,21.7-21.82-.9-7.52-6.44-13.6-13.32-16.08.15-.7.28-1.41.43-2.11,4.34,1.66,7.33,4.84,10.44,8.5,1.09,1.29,2.78-.35,2.18-1.68a18.75,18.75,0,0,0-12-10q.56-2.81,1.11-5.62c.18-.9.33-1.8.47-2.7,3,5,6.73,9.65,10.23,14.26,3,4,6,8.76,9.69,12.33a7.88,7.88,0,0,0,0,3.34c.11,1.29.26,2.56.45,3.83a29.54,29.54,0,0,0-3.08-.06c-1.41.07-1.87,2.27-.35,2.58,1.35.28,2.73.38,4.1.52s2.6.44,3.86-.14a1.29,1.29,0,0,0,0-2.21,3.83,3.83,0,0,0-1.85-.56,1.3,1.3,0,0,0,0-.2c0-1.43-.06-2.86-.17-4.29l.53.1c2.93.56,6.43.06,9.43.21l1,.07a21.36,21.36,0,0,0-.25,2.6c-.32,9.73,9.17,21.24,19.59,19.23,9.63-.11,18.47-6.66,19.87-16.71A19.77,19.77,0,0,0,466.18,286Zm-48,18.57c.61,10.09-7.61,17.57-17.22,17.46a1.37,1.37,0,0,0-1.4-.17c-.09,0-.19.06-.28.1a1.33,1.33,0,0,0-.65.17c-3.35.53-8.11-3.23-10-5.26a16.24,16.24,0,0,1-4.47-11.82c.52-8.53,8.28-15.9,16.83-15.94a16.61,16.61,0,0,1,3,.27c-.88,4-1.73,7.95-2.44,11.94a3.6,3.6,0,0,0-3.77,2.58,3.78,3.78,0,0,0,5.26,4.19,3.56,3.56,0,0,0,1.94-3.61,3.35,3.35,0,0,0-.72-1.6c1.08-4.16,2-8.38,2.95-12.61C413.18,292.56,417.81,298,418.21,304.59ZM460.7,302l-.11.12c-3.91-1.11-8.28-1.35-12.31-1.66A17.69,17.69,0,0,1,454.7,292C456.38,295.27,458.07,299.39,460.7,302Zm-28.59-5c-2.86-4.24-6.66-8.18-9.65-12.14-2.82-3.72-5.45-7.64-8.35-11.31,3.41.37,7.28-.24,10.31-.26,5.28,0,10.57,0,15.84-.11A131.25,131.25,0,0,0,432.12,297.09Zm8.73,3c-.94,0-5.8.58-6.88,0l-.13-.23a1.38,1.38,0,0,0,.39-.58c3.13-8.73,6.19-17.31,9.69-25.82a96.69,96.69,0,0,0,6.45,11.25c-3.82,1.89-7.36,4.91-6.71,8.82a.66.66,0,0,0,1,.39c1.55-1.1,2.31-2.72,3.68-4a14.6,14.6,0,0,1,3.7-2.58q.6,1,1.17,1.93a21,21,0,0,0-8.07,11C443.68,300.2,442.26,300.13,440.84,300.09Zm39.8,6.54c-.5,9.09-8.44,15.67-17.21,15.53-3.79-.44-7.27-.92-10.47-3.54A15.81,15.81,0,0,1,447.25,306a17.57,17.57,0,0,1,.22-2.32c4,.45,8,1.11,12.06,1.3,0,0,0,.09,0,.13a4,4,0,0,0,2.54,3.77c3.37,1.24,6.93-2.81,4.9-5.91a4.28,4.28,0,0,0-3.31-1.86,71.14,71.14,0,0,1-6.32-10.61,16,16,0,0,1,8.21-1.41A16.64,16.64,0,0,1,480.64,306.63ZM279.09,254.31c-49.57-2.86-29.81-69.67-7.59-93a2,2,0,0,1,3.27.54,2.12,2.12,0,0,1,1.79,1.9c3.82,23.34,28.31,36.88,31.11,60.49C309.85,242.73,297.36,255.36,279.09,254.31ZM355.54,356.6c-3.72-11.31-15.23-16.84-26.57-16.55-5.72.15-12.32,1.22-16.43,5.54-3.61,3.79-5.47,9.25-5.89,14.39a26.88,26.88,0,0,0,4.67,17.14c3.67,5.56,8,10.18,9.1,17a1.06,1.06,0,0,0,.44.73,3.89,3.89,0,0,0-.66,6.4,2.81,2.81,0,0,0-.58,2c.2,2.27,2.89,3.94,5.05,3.49,2.48,7.72,14.61,7.44,16.92.05a3.72,3.72,0,0,0,.84-.08,3.24,3.24,0,0,0,2.25-1.81,3,3,0,0,0-.52-3.15,4,4,0,0,0,2.55-3.75,3.83,3.83,0,0,0-3.18-3.64,1.51,1.51,0,0,0,.5-1.52c-1.85-8.56,6.42-14.13,10.1-20.82A19.1,19.1,0,0,0,355.54,356.6Zm-36.73-4.9a4.47,4.47,0,0,0-.6,0,13.87,13.87,0,0,1,1.66-1.5Q319.31,351,318.81,351.71ZM455.45,97.94c4-8.5-4.5-17.26-13.14-19.21-9.08-2.05-19.23,2.6-20.43,11.73a9.82,9.82,0,0,0-8.48-1.24c-3.14,1-5.46,3.71-5.39,6.74-5.49-5.55-14.58,1.64-12.83,9.27,1.11,4.8,5.37,8,10,9,6.6,1.44,14,.93,20.71,1.21,7.51.31,15,.72,22.54.91,5.2.13,11-.32,14.51-4.74C468.33,104.72,462.38,98.26,455.45,97.94Zm-22.3-15.45a8.41,8.41,0,0,0-1.71.67,9.56,9.56,0,0,0-2.25.75,14.3,14.3,0,0,1,4.31-2A5.89,5.89,0,0,0,433.15,82.49ZM375.55,380c6.5-3.08,12.58-7.73,18.5-12a16.86,16.86,0,0,0,8.28,15.44c7,4.33,15.88,3.26,23.24.39a1.58,1.58,0,0,0-.24-3c-4.3-1-6.25-5.18-8.82-8.36a24.85,24.85,0,0,0-6-5.44,19,19,0,0,0-10.57-3.19q3-2.14,6-4.32c3.1-2.28,6.84-4.42,9.22-7.49.21.25.42.5.64.75,6.7,7.43,14.79,4.51,21.86-.72a1.6,1.6,0,0,0,.39-2.17c-.65-1.09-1.31-2.23-2-3.39,1-.54,2-1.29,3-1.9,2.06-1.27,4.18-2.5,6.15-3.91,1.54-1.11,0-3.18-1.63-2.36-2.16,1.12-4.21,2.45-6.28,3.72-1,.59-1.95,1.09-2.83,1.71-1.24-2.13-2.55-4.27-4-6.28,1.42-1,2.83-2.08,4.31-3a49.68,49.68,0,0,0,5.3-3.43,1.26,1.26,0,0,0-1.13-2.21c-3.66,1-7.35,3.75-10.36,6.18a30.22,30.22,0,0,0-3-3.24,1.38,1.38,0,0,0-1.73-.26,1.47,1.47,0,0,0-1.47,0c-3.91,2.33-8.46,6.57-9.89,11a8.86,8.86,0,0,0,1.34,7.79c-3.08,1.29-5.63,3.68-8.32,5.65q-5.23,3.83-10.53,7.56c-6.74,4.74-14.39,8.85-20.69,14.13C373.27,378.47,374.07,380.65,375.55,380Zm31.4-1.52c.25.3.52.59.78.88-.33-.11-.66-.23-1-.37A2.34,2.34,0,0,0,406.94,378.43Zm-55-50.85a38.7,38.7,0,0,1-13.15-.61,1.69,1.69,0,0,0-1-.4l-.94-.08a38.29,38.29,0,0,1-27.44-29.3h1.17c1.83,0,5,.79,6.23-.93a.83.83,0,0,0,.14-.36.94.94,0,0,0,.23-.46c.44-2.27-1.9-4.35-3.08-6.1q-3.08-4.56-6-9.24-5.75-9.37-10.67-19.22a1.19,1.19,0,0,0-2,0q-4.81,8.58-9.88,17c-2.82,4.68-6,9.25-8.72,14a1.94,1.94,0,0,0-.68,1.22c-.28.52-.57,1-.84,1.56a1,1,0,0,0-.06.72,1.08,1.08,0,0,0,.94,1.55c3,.16,6,.22,9,.24,1.74,12.08,11.46,22.53,21.83,28.16,13.78,7.48,30.22,7.69,45.24,4.56C353.54,329.64,353.27,327.41,351.94,327.58Zm-43.3-4.05c-.93-.49-1.83-1-2.71-1.57q1.2.6,2.43,1.14.58.45,1.17.87Zm67.78-40.25a1,1,0,0,0-.77-1.08c-2.09-.7-4.53-.19-6.84.11A52.57,52.57,0,0,0,305.51,248c-1.51.4-.83,2.49.63,2.28,9.62-1.41,19.18,2.71,25.94,9.46,6.24,6.22,9.47,13.85,12.53,21.84a78.51,78.51,0,0,0-7.93.07,1.06,1.06,0,0,0-.77,1.62c.21,2.7,2.2,5.09,3.53,7.4q2.64,4.58,5.38,9.09,2.57,4.25,5.23,8.46c1.78,2.82,3.42,6,5.73,8.44a.83.83,0,0,0,1.21.08,1,1,0,0,0,1.22-.25c4.09-4.23,7.05-10.42,9.94-15.51a128.62,128.62,0,0,0,8.46-16.78A.9.9,0,0,0,376.42,283.27Zm-36.26-17.12c.3.4.61.8.91,1.21l.7,1.41Q341,267.44,340.16,266.15ZM260.95,67.79c-2.37-6-7.75-14.89-15.54-12.61-3.63,1.06-6.05,4.1-8,7.16-2.82,4.41-5.6,8.92-8,13.56a.9.9,0,0,0,.09,1.05.68.68,0,0,0,.33.38c3.27,1.69,6.6,3.26,9.83,5,2.93,1.6,5.68,3.69,8.76,5a.72.72,0,0,0,.73-.08.73.73,0,0,0,.54-.3,111.7,111.7,0,0,0,11.48-17.09,1.1,1.1,0,0,0-.19-1.25A1,1,0,0,0,260.95,67.79Zm-29.53,8.44.3-.46a1.76,1.76,0,0,0,.29.69Zm18.2-18.32a2.16,2.16,0,0,0-.85-.51,6.81,6.81,0,0,1,1.17.34A2.17,2.17,0,0,0,249.62,57.91ZM266.3,81.39a1,1,0,0,0,.24,1.61.83.83,0,0,0,.74.46c6.77.35,13.63-.12,20.39-.45a1.1,1.1,0,0,0,1-.82.7.7,0,0,0,.11-.09,43.42,43.42,0,0,0,5.06-7.4c1.46-2.53,3.17-5.26,3.85-8.11a.81.81,0,0,0,0-.53c.6-.58.2-1.91-.76-1.52a55.75,55.75,0,0,0-5.43,2.58c-1.94-3.41-4-6.78-6.12-10.08-1.35-2.11-2.83-3.77-5.36-4.37-3.15-.74-6.83-.26-10-.17-4.48.13-9,.33-13.44.89a1,1,0,0,0-.61.3.77.77,0,0,0-.39,1.25,100.8,100.8,0,0,1,8.83,11.83c2.42,3.87,4.1,8,6.18,12A21.7,21.7,0,0,0,266.3,81.39Zm28.8-13.51c-.16.29-.3.58-.45.87a1.7,1.7,0,0,0-.26-.42Zm-61.84,45.47a.83.83,0,0,0,1.26.14,32.15,32.15,0,0,0,6.24-9.7c1.2.7,2.41,1.38,3.64,2a.88.88,0,0,0,1.25-1.09.93.93,0,0,0,0-.77c-2.65-5.36-5.2-10.77-7.93-16.09a.63.63,0,0,0-.67-.33.94.94,0,0,0-.15,0A112.87,112.87,0,0,0,220,86.85l-.05,0a1.24,1.24,0,0,0-.94,0l-3.29.08a.69.69,0,0,0-.07,1.38c.52,1.25,2,1.71,3.18,2.37l1.52.88C218,95,215,99.24,214.82,103.28c-.2,3.77,2.82,7.66,5.27,10.25a.76.76,0,0,0,1.18-.08C225,114.14,229.62,114.6,233.26,113.35Zm3.49-6.35c-.62,1.11-1.3,2.19-2,3.26,0-.05,0-.1,0-.16C235.44,109.09,236.1,108,236.75,107Zm-19.88-4,0,.11a23.71,23.71,0,0,0,.38,2.59A6.77,6.77,0,0,1,216.87,103Zm42,14.73c-1.16-1.17-3.86-.5-5.3-.5H243.3l-4.62,0-1-.11a1.4,1.4,0,0,0-.69.09c-5,0-10-.06-15,.27a.74.74,0,0,0-.29.08.41.41,0,0,0-.31.35.67.67,0,0,0,.3.83,91.88,91.88,0,0,0,11.51,19.79,1,1,0,0,0,.22.21.52.52,0,0,0,.48.42c8,1.11,16.35.57,24.4.68a1,1,0,0,0,.52-.13.59.59,0,0,0,.65-.5,80.62,80.62,0,0,0,.88-20.92A.82.82,0,0,0,258.91,117.76Zm-16.76,19.62.13-.13,1.15,0s0,.06,0,.09Zm15.94.42h-.3a1.46,1.46,0,0,0,.17-.42c.05-.24.09-.49.14-.73C258.1,137,258.1,137.42,258.1,137.81ZM306,116.29c-2.66,4.95-5.5,9.8-8.41,14.6-1.8,3-3.66,8.16-7.37,9.12a.47.47,0,0,1-.55-.19,44.48,44.48,0,0,1-6.12,0c-2,0-4.24.35-6-.61l0,0a54.91,54.91,0,0,1-.61,7,.54.54,0,0,1-.17,1,.55.55,0,0,1-.57.4s0,0,0,0a.62.62,0,0,1-1.06.44,5.72,5.72,0,0,1-1.26-2.67.43.43,0,0,1,0-.24,50.21,50.21,0,0,1-2.09-4.61c-1.94-3.89-4.42-7.55-6.22-11.49a.87.87,0,0,1,.58-1.16,11,11,0,0,0,.6-1.18,1.26,1.26,0,0,1,.21-1.1l.67-.91c1-2.4,2.14-5.27,2.39-5.75a42.17,42.17,0,0,1,5.27-8.34.74.74,0,0,1,1.16,0,.85.85,0,0,1,.76.77c.22,1.8.34,3.63.41,5.47l.34.07c1.22-.15,2.8-.19,3-.19,2.69,0,5.39-.06,8.08-.08l8.08-.07c2.59,0,5.34.31,7.53-1.33a.62.62,0,0,1,.48-.12A.84.84,0,0,1,306,116.29Zm4-9.23c-2.63,7.87-11.59,9.11-18.72,6.76a.58.58,0,0,1-.32-.27.65.65,0,0,1-.18-.16c-4.5-5.62-5.69-13.11-10.23-18.76a.66.66,0,0,1,0-.89.71.71,0,0,1,.26-.88c5.34-3.83,11.48-8,17.49-10.62l.18-.05a.87.87,0,0,1,1.25.29q4.29,7.18,8.57,14.36C310.39,100.33,311.35,103,310,107.06Zm82.38,334.15A198.14,198.14,0,0,0,380,411.12c-4.51-9.09-9.16-18.24-16.72-25.21a1.13,1.13,0,0,0-1.81,1.23,1,1,0,0,0-.42,1c.92,12.8-4.79,23.64-11.06,34.28-.43.67-.87,1.32-1.29,2a1.63,1.63,0,0,0-.23.57,145.42,145.42,0,0,0-9.2,17.08,51.82,51.82,0,0,0-3.9,27.35c1,7.71,3.76,17.08,9.9,22.36s16.12,7.3,24.07,7.14c7.63-.16,15.35-2.84,20.7-8.45C401.94,477.91,396.85,455.85,392.38,441.21Zm-10-19.26-.47-.54a18.4,18.4,0,0,0-.74-2.1Q381.76,420.62,382.35,421.94ZM360.6,406.8a1.91,1.91,0,0,0,.08.47l-.52.67C360.31,407.56,360.46,407.18,360.6,406.8Zm-5.74,67.89-.13-1,.2.17c0,.31.08.63.12.94Zm31.62,3.25c-1.94,3.52-6.5,6.64-10.39,4-7.31-4.95,1.92-15.7,4.5-21a29.19,29.19,0,0,0,3.39-13.5c3.24,5.5,4.06,12.88,4.3,18.93C388.43,470.21,388.39,474.48,386.48,477.94Zm4-33.32a1.84,1.84,0,0,0,.18-.23q.52,1.85,1,3.71C391.28,446.91,390.88,445.75,390.52,444.62Zm105-182.3c-1.61,1.51-5.28,1.19-7.29,1.42a1.14,1.14,0,0,1-1.14-1.13A262.14,262.14,0,0,0,482.15,211c-1.52-7.71-3.51-15.23-5.74-22.67q1.13,5.64,2.14,11.27,1.76,9.71,3.1,19.49c.83,6.1,2.05,12.4,2.08,18.55a.86.86,0,0,1-.29.66.87.87,0,0,1-1,1.23c-20-5.78-40.12-25.34-41.54-46.92-1.46-22.14,21.6-44.16,10.17-66a1.29,1.29,0,0,1,2-1.53c9.82,10.11,20.77,18.31,32.36,26.25,16.47,11.28,29.74,28.07,30.42,48.76.29,8.89-1.84,18.16-7,25.49a29.14,29.14,0,0,1-9.22,8.63c-1.5.85-4.06,2.38-6.15,2.37,1.1,6.67,2,13.37,2.52,20.11C496.2,258.35,496.94,261,495.51,262.32Zm-137-36.5a2.78,2.78,0,0,0-1.69-.29c-15.09-1.29-13.61,21.63-3,23a1.29,1.29,0,0,0,.57.2c6.21.65,12.46-4,13.1-10.38A12.14,12.14,0,0,0,358.54,225.82Zm.63,13.14a4.57,4.57,0,0,0-.25.51,3.71,3.71,0,0,1-.82,1,1.26,1.26,0,0,0-.87-.15A3.69,3.69,0,0,1,353,237.6c-.41-1.8,1.06-3.27,2.72-3.64C358.88,233.25,360.14,236.54,359.17,239Zm52.07-13.14a2.78,2.78,0,0,0-1.69-.29c-15.09-1.29-13.61,21.63-3,23a1.29,1.29,0,0,0,.57.2c6.21.65,12.46-4,13.1-10.38A12.14,12.14,0,0,0,411.24,225.82Zm.63,13.14a4.55,4.55,0,0,0-.25.51,3.71,3.71,0,0,1-.82,1,1.26,1.26,0,0,0-.87-.15,3.69,3.69,0,0,1-4.23-2.71c-.41-1.8,1.06-3.27,2.72-3.64C411.59,233.25,412.85,236.54,411.88,239Zm17.53-21.82c-3.77-4.18-10.09-7.25-15.73-5.8-4.5-11.49-15.51-18.17-27.5-20.74a38.07,38.07,0,0,0,6.85-3.74c6.72-4.57,13.44-10.63,22.22-9a1.52,1.52,0,0,0,1.76-1.77,1.34,1.34,0,0,0,.41-1.23c-1.23-6.91-7-13.79-12.18-18.19a41.18,41.18,0,0,0-21.5-9.36c-13.17-1.63-35.13,4.24-33,21.47a1.07,1.07,0,0,0,2,.42,1,1,0,0,0,.89.79c7.16.35,14.32-.36,21.51.19a110.83,110.83,0,0,1,15.07,2.21c-22.27-.9-45-1-66.68,4.71a1.24,1.24,0,0,0-.85,1.49,6.92,6.92,0,0,0,2.19,4,.82.82,0,0,0,1.25-.12c3.86.37,8.19-1.46,12-2.12a117.83,117.83,0,0,1,13.73-1.5c.05,6.33,4.46,10.06,10,12.07C353,193.24,345,198.3,340,206.07c-5.74,9-7.9,21.35-6,31.77a1,1,0,0,0,.92.9,1.43,1.43,0,0,0,1.16.65c1.6.12,3.22.09,4.83.09a1.5,1.5,0,0,0,1.37-2.1c.93-4.22,1.57-8,5.36-10.72a17,17,0,0,1,9.6-3.26c7.93-.15,14.54,6.49,13.27,14.55a1.46,1.46,0,0,0,1,1.62,1.17,1.17,0,0,0,1.21.69c6.66-.73,13.45-.18,20-1a1.35,1.35,0,0,0,.67-.28,1,1,0,0,0,1.26-1.08c-.82-8.51,6-14.15,14.06-14.72,4.49-.32,8.72.82,11.12,4.88,2,3.3,1.9,7,2.62,10.66a1.14,1.14,0,0,0,.47.74,1.24,1.24,0,0,0,1.18,1c3.15.29,6.31.24,9.47.25a1.58,1.58,0,0,0,1.54-1.54C435.81,231.56,434.79,223.09,429.4,217.14ZM373.31,213c-4.3,0-8.6-.06-12.9-.06s-9.34-.66-13.6.36a31.23,31.23,0,0,1,2.64-4.49,15.94,15.94,0,0,0,3.84-4.18,23.06,23.06,0,0,1,2.75-2c5.16-3.21,11.29-4.57,17.32-4.94A102.57,102.57,0,0,0,373.31,213Zm3.08,0a100.79,100.79,0,0,0-.87-15.43h.16c13.37-.29,23.37,5.28,30.92,15.62C396.54,212.91,386.46,213,376.39,213ZM776.84,576.76c-82.54-5.53-282.45-4.07-365.17-2.66q-15.92.27-31.84.71c-3.75.1-8.05-.35-11.88.1-.06-.52-.1-.93-.11-1.06-.63-10.24-1.33-20.49-1.79-30.75-.07-1.46.21-3.23,0-4.68,0-.12,0-.26,0-.44l.12-.21.81-.45c-1.07.61,2.23-.59,2.94-.74.44-.1,2-.33,2.27-.38,1.34-.14,2.68-.25,4-.35,4.16-.33,8.29-.69,12.42-1.27,7.68-1.09,14.69-3.63,20.77-8.56,12.34-10,15-26.6,15.93-41.53,1-16,1.5-31.16,8-46.22,6.91-16.09,18.6-28.91,30.87-41.09,12.06-12,24.24-23.67,34.73-37.09a253.54,253.54,0,0,0,27.56-43.22c30.39-61.14,35-132.88,4.68-195C500.5,59.13,438.77,15.19,370.26,3.47c-70-12-143.68,7.24-196.83,55-52.07,46.78-77.75,120.32-62.94,189.08,8.53,39.61,20.5,60.6,44.56,94.28,10.6,14.83,22.09,29,34,42.82q8.5,9.84,17.24,19.46c5.61,6.21,11.38,12.28,15.57,19.58,8.84,15.39,5,34.41,5.47,51.32.42,16,4.64,31.84,14.89,44.37a41.15,41.15,0,0,0,19.61,13.15c7.14,2.19,14.77,1.76,22.14,1.87,1.63,0,3.28,0,4.91.21.74.16,1.46.38,2.2.54a12.78,12.78,0,0,0,.23,1.32c-.23,2.78.54,8.44.64,12.17q.19,7.6-.12,15.2a88.05,88.05,0,0,1-.47,10.12c-1.55-.11-2.62.69-4.22.82-10.1.83-20.23,1.35-30.35,1.94-20.81,1.21-80.4-2.15-101.23-1.41q-30.7,1.09-61.42,1.5-7.68.1-15.36.16c-1.13,0-2.34-.07-3.53-.09-.25-4.1-1-10-1-10.91l-.93-16.5Q72,527,70.28,504.67C83.09,501,92.76,490.31,96.4,476.86a55.71,55.71,0,0,0,25.19-33.19c2.87-10.73,3.36-22.68,2.75-33.74-.84-15.31-12.51-21.31-26.21-20.55.19-5.17-.08-10.39-.16-15.14-.16-10.43,1-21.2.13-31.58-.52-6.43-4.54-12-11.27-12.76-5.81-.69-13.23,2.84-14.26,9.31-1.77,11.12-1.2,22.72-.74,33.95a161.72,161.72,0,0,0,1.3,18.13c-5.86-.08-11.71-.48-17.56-.86-3.8-.25-7.6-.43-11.39-.51,0-6.63-.53-13.39-.42-19.44q.15-8.57.55-17.14c.14-2.84.5-5.72.51-8.56,0-4.78-1.69-7.93-4.71-11.51-4.28-5.08-12.16-3.89-16.61,0-5.88,5.14-5.34,12.88-5.69,20.07q-.44,9.1-.36,18.21c.06,6.43-.1,13.55.64,20.44-1.37.29-2.74.6-4.1,1a12,12,0,0,0-7.47,5.24c-6,4.79-6,13.1-6.36,20.16a103.51,103.51,0,0,0,.55,18.41c1.49,11.83,5.42,22.84,13,32.13A45,45,0,0,0,26.2,479.36a22.4,22.4,0,0,0,3.59,10.87,34.51,34.51,0,0,0,14.85,12.44q.87,24.5,2.25,49c.58,10.28.71,20.72,1.89,31,1.44,12.47,10,19.86,22.34,20.78,10.11.75,20.56-.06,30.69-.22q15.91-.26,31.81-.7c20.84-.58,42.67-1.39,63.49-2.44,10.23-.51,58.22,3.25,68.44,2.62s20.76-.44,30.66-2.59,17.84-9,20.39-19,2-21.29,1.84-31.39c-.2-9.57.15-20.79-5.25-29.12-5.05-7.8-13.32-11.19-22.21-12.24a85.3,85.3,0,0,0-9.93-.45c-1.72,0-3.44,0-5.15,0-1.32,0-4.6-.24-4.65-.25a16.53,16.53,0,0,1-9.91-6.57c-4-5.69-5.56-10.62-6.9-17.92a69.61,69.61,0,0,1-.67-9.13c-.09-4.6,0-9.2.15-13.79.46-20.08-1.2-39.44-13.34-56.23-10.7-14.79-24-27.73-35.86-41.6a477.33,477.33,0,0,1-31.62-40.77c-19.17-28.09-35-59.58-39.36-93.71-4-31.85,1.88-65.12,15.78-94,28.76-59.73,89.62-99.4,155.08-106.47C373.44,20,443.82,46,487.1,101a181.52,181.52,0,0,1,37.11,86c4.47,31.22,0,63.56-10.58,93.38A224.72,224.72,0,0,1,462.32,362c-12.84,13.14-26.51,25.36-37.73,40a118.12,118.12,0,0,0-22.89,50.9c-2.67,15-.94,31.63-4.59,44.82-.25.89-.52,1.78-.82,2.65l-.36.9-.45.89c-.35.62-.71,1.26-1.1,1.86.1-.27-1.58,1.77-2,2.14-1.15,1-.19.12,0,0-.19.13-1.7.93-2.19,1.22-.69.19-2.7.82-3.21.94-1.15.27-2.31.49-3.48.66.09,0-2.64.24-3.15.28-1.83.16-3.65.29-5.48.45-7.46.67-15,1.54-21.61,5.29-8,4.49-12.39,12.72-13.25,21.62-1,10,.81,20.62,1.42,30.63s-.05,21.2,8.1,28.59c7.86,7.12,19.47,5.37,29.19,5.13q15.92-.4,31.84-.63,31.3-.46,62.6-.29c41.64.23,200.68-4.27,242.26-1.8,20.47,1.22,40.95,2.31,61.41,3.58,6.76.42,12.53-6.06,12.53-12.53C789.37,582.13,783.62,577.22,776.84,576.76Zm-705.39.07s.07.15.2.3C67.14,577.74,71.45,576.82,71.45,576.83Z"/></g></g></svg>