<svg xmlns="http://www.w3.org/2000/svg" viewBox="0 0 2000 4000"><defs><style>.cls-1{opacity:0.3;}.cls-2{fill:#e91e63;}.cls-3{fill:#006df0;}.cls-4{fill:#ff9800;}</style></defs><title>background</title><g id="Camada_2" data-name="Camada 2"><g id="Camada_1-2" data-name="Camada 1"><g class="cls-1"><polygon class="cls-2" points="2000 1107.62 2000 2917.14 1314.03 2628.05 835.28 1670.57 2000 1107.62"/><polygon class="cls-3" points="2000 2917.14 2000 4000 1573.92 3147.83 2000 2917.14"/><polygon class="cls-3" points="2000 0 2000 1107.62 0 0 2000 0"/><polygon class="cls-4" points="1573.92 3147.83 2000 4000 0 4000 1573.92 3147.83"/><polygon class="cls-2" points="2000 1107.62 835.28 1670.57 0 0 2000 1107.62"/><polygon class="cls-2" points="2000 2917.14 1573.92 3147.83 1314.03 2628.05 2000 2917.14"/><polygon class="cls-3" points="1573.92 3147.83 0 4000 0 2074.29 1314.03 2628.05 1573.92 3147.83"/><polygon class="cls-4" points="1314.03 2628.05 0 2074.29 835.28 1670.57 1314.03 2628.05"/><polygon class="cls-4" points="0 0 835.28 1670.57 0 2074.29 0 0"/></g></g></g></svg>