<svg xmlns="http://www.w3.org/2000/svg" xmlns:xlink="http://www.w3.org/1999/xlink" viewBox="0 0 1920 861"><defs><style>.cls-1{fill:#fff;}.cls-2{clip-path:url(#clip-path);}.cls-3{opacity:0.1;}.cls-4{opacity:0.8;}</style><clipPath id="clip-path"><rect class="cls-1" width="1920" height="599"/></clipPath></defs><title>bg</title><g id="Camada_2" data-name="Camada 2"><g id="Camada_1-2" data-name="Camada 1"><rect class="cls-1" width="1920" height="599"/><g class="cls-2"><g class="cls-3"><g class="cls-4"><path d="M864.11,310.94A158.94,158.94,0,0,0,714.25,205H447.8A181.37,181.37,0,0,0,283,310.52a.27.27,0,0,0,.22.42H708.88c28.32,0,54.26,23.05,55.1,51.36A53,53,0,0,1,711,416.88H449.69a.29.29,0,0,0-.29.29v16.57a89.09,89.09,0,0,0,73.84,87.76V693A186,186,0,0,0,629.18,861V523.1a.29.29,0,0,1,.29-.29h84.78A159,159,0,0,0,864.11,310.94Z"/></g><g class="cls-4"><path d="M443.47,394.19a60.25,60.25,0,0,1-60.25-60.25h141.9a60.25,60.25,0,0,1,60.25,60.25h0"/></g></g></g></g></g></svg>