<svg xmlns="http://www.w3.org/2000/svg" viewBox="0 0 733.21 252.95"><defs><style>.cls-1{isolation:isolate;}.cls-2{fill:#fff;}.cls-3{fill:#006df0;}.cls-4{fill:#424242;opacity:0.2;mix-blend-mode:multiply;}.cls-11,.cls-5{fill:#673ab7;}.cls-6{fill:#f44336;}.cls-7{fill:#e53935;}.cls-8,.cls-9{fill:#4caf50;}.cls-14,.cls-9{font-size:24px;}.cls-11,.cls-13,.cls-14,.cls-9{font-family:Montserrat-SemiBold, Montserrat;font-weight:700;}.cls-10,.cls-14{fill:#e91e63;}.cls-11{font-size:13.85px;}.cls-12,.cls-13{fill:#ffeb3b;}.cls-13{font-size:15.31px;}</style></defs><title>celular_1</title><g class="cls-1"><g id="Camada_2" data-name="Camada 2"><g id="OBJECTS"><path class="cls-2" d="M733.18,241.77V220.67H718.74l-67.31-89.2c-3.81-5.05-18.28-9.05-32.4-9.05H114.18c-14.12,0-28.59,4-32.4,9.05l-67.31,89.2H0v22.08H0C.5,248.66,9.91,253,24.74,253H708.47C724.1,253,733.71,248.18,733.18,241.77Z"/><path class="cls-2" d="M81.78,109.26,1.94,215.06c-6.45,8.54,3.66,15.69,22.79,15.69H708.47c19.13,0,29.24-7.15,22.79-15.69L651.43,109.26c-3.81-5.05-18.28-9.05-32.4-9.05H114.18C100.06,100.21,85.59,104.21,81.78,109.26Z"/><polygon class="cls-3" points="658.41 224.23 74.8 224.23 146.13 103.85 587.07 103.85 658.41 224.23"/><path class="cls-3" d="M221.83,137.51l-8.64,24.2h94.08L311.38,132h-73C236.12,134.75,229.5,137,221.83,137.51Z"/><path class="cls-3" d="M315.26,103.85H233.85l-7.23,20.25c7.07.5,12.1,2.62,12.6,5.33h72.52Z"/><path class="cls-3" d="M232.39,130.69c.79-2.36-3.67-4.25-9.94-4.25s-12.12,1.9-13.05,4.25,3.5,4.35,9.91,4.35S231.59,133.08,232.39,130.69Z"/><path class="cls-3" d="M261,120.1c.43-1.59-2.76-2.87-7.1-2.87s-8.28,1.28-8.78,2.87,2.68,2.91,7.09,2.91S260.59,121.7,261,120.1Z"/><polygon class="cls-3" points="204.82 164.66 110.1 164.66 101.44 179.28 199.36 179.28 204.82 164.66"/><polygon class="cls-3" points="424.49 164.66 212.15 164.66 196.65 208.1 430.29 208.1 424.49 164.66"/><path class="cls-3" d="M129.48,132l-17.63,29.75h94.08l9-24.2c-7.27-.53-12.27-2.76-12.52-5.55Z"/><path class="cls-3" d="M227.55,103.85H146.14L131,129.43h72.52c2.48-2.72,9.06-4.83,16.5-5.33Z"/><polygon class="cls-3" points="420.11 131.96 318.15 131.96 314.55 161.71 424.09 161.71 420.11 131.96"/><polygon class="cls-3" points="431.81 164.66 440.78 224.23 516.07 224.23 497.99 164.66 431.81 164.66"/><polygon class="cls-3" points="99.54 182.47 74.8 224.23 182.56 224.23 198.17 182.47 99.54 182.47"/><polygon class="cls-3" points="505.31 164.66 524.4 224.23 611 224.23 581.44 164.66 505.31 164.66"/><polygon class="cls-3" points="619.33 224.23 658.41 224.23 645.26 202.04 607.95 202.04 619.33 224.23"/><polygon class="cls-3" points="606.16 198.56 643.2 198.56 623.11 164.66 588.76 164.66 606.16 198.56"/><polygon class="cls-3" points="487.3 129.44 479.53 103.85 422.64 103.85 426.5 129.44 487.3 129.44"/><polygon class="cls-3" points="488.06 131.96 426.88 131.96 431.36 161.71 497.1 161.71 488.06 131.96"/><polygon class="cls-3" points="585.49 172.83 507.93 172.83 505.31 164.66 581.44 164.66 585.49 172.83"/><path class="cls-3" d="M131.68,145c-1.88,0-3.74.59-4.16,1.32s.76,1.33,2.65,1.33,3.75-.6,4.16-1.33S133.55,145,131.68,145Z"/><path class="cls-3" d="M145.79,145c-1.88,0-3.72.59-4.11,1.32s.81,1.33,2.7,1.33,3.73-.6,4.12-1.33S147.67,145,145.79,145Z"/><path class="cls-3" d="M159.91,145c-1.88,0-3.7.59-4.07,1.32s.85,1.33,2.74,1.33,3.71-.6,4.07-1.33S161.79,145,159.91,145Z"/><path class="cls-3" d="M174,145c-1.88,0-3.68.59-4,1.32s.9,1.33,2.79,1.33,3.69-.6,4-1.33S175.9,145,174,145Z"/><path class="cls-3" d="M188.15,145c-1.88,0-3.66.59-4,1.32s.95,1.33,2.83,1.33,3.67-.6,4-1.33S190,145,188.15,145Z"/><polygon class="cls-3" points="587.24 161.71 621.36 161.71 605.56 135.04 573.55 135.04 587.24 161.71"/><polygon class="cls-3" points="110.2 176.33 115.32 167.45 196.91 167.45 193.45 176.33 110.2 176.33"/><polygon class="cls-3" points="371.18 127.11 370.94 105.91 410.72 105.91 413.22 127.11 371.18 127.11"/><polygon class="cls-3" points="321.62 158.99 324.22 134.34 353.49 134.34 352.69 158.99 321.62 158.99"/><polygon class="cls-3" points="270.09 158.99 275.65 134.34 304.7 134.34 300.91 158.99 270.09 158.99"/><polygon class="cls-3" points="447.96 220.67 442.47 187.69 497.78 187.69 507.27 220.67 447.96 220.67"/><polygon class="cls-3" points="441.07 179.28 439.47 169.68 492.6 169.68 495.36 179.28 441.07 179.28"/><polygon class="cls-3" points="84.62 220.67 104.91 185.5 189.88 185.5 176.18 220.67 84.62 220.67"/><polygon class="cls-3" points="625.22 220.67 617.11 205.34 639.74 205.34 648.59 220.67 625.22 220.67"/><polygon class="cls-3" points="611.83 195.36 597.07 167.45 617.89 167.45 633.99 195.36 611.83 195.36"/><polygon class="cls-3" points="576.25 128.1 564.51 105.91 582.39 105.91 595.19 128.1 576.25 128.1"/><polygon class="cls-3" points="432.39 127.11 430.57 116.22 477.22 116.22 480.35 127.11 432.39 127.11"/><polygon class="cls-3" points="437.69 158.99 434.56 140.16 484.11 140.16 489.53 158.99 437.69 158.99"/><polygon class="cls-3" points="120.2 158.99 200.2 158.99 203.51 150.48 125.11 150.48 120.2 158.99"/><polygon class="cls-3" points="190.64 134.34 134.42 134.34 129.89 142.2 187.2 142.2 190.64 134.34"/><polygon class="cls-3" points="248.12 134.34 226.64 142.2 224.79 147.63 261.4 147.63 264.76 134.34 248.12 134.34"/><polygon class="cls-3" points="171.53 105.91 150.82 105.91 138.59 127.11 160.47 127.11 171.53 105.91"/><polygon class="cls-3" points="239.02 105.91 236.52 113.23 273.98 113.23 270.6 127.11 305.81 127.11 309.07 105.91 239.02 105.91"/><polygon class="cls-3" points="220.91 158.99 223.81 150.48 260.68 150.48 258.53 158.99 220.91 158.99"/><path class="cls-3" d="M646.7,147.63c11.16,0,22.77,3.56,26,8s-3.37,8.35-15,8.35-23.36-3.78-26.22-8.35S635.54,147.63,646.7,147.63Z"/><path class="cls-3" d="M82.26,143,64.18,169.14c-1.23,1.78,1.3,3.24,5.66,3.24s8.86-1.46,10-3.24L97,143c1-1.56-1.43-2.82-5.47-2.82S83.35,141.42,82.26,143Z"/><ellipse class="cls-4" cx="512.34" cy="145.46" rx="48.06" ry="12.67"/><path class="cls-5" d="M539.59,114.46a27.47,27.47,0,1,1-31.08-31.52V71.18a39.13,39.13,0,1,0,42.84,43.28Z"/><ellipse class="cls-4" cx="171.53" cy="161.82" rx="30.3" ry="7.99"/><path class="cls-6" d="M652.22,70.48A34.26,34.26,0,0,0,618,104.74c0,18.92,34.26,51.5,34.26,51.5s34.26-32.58,34.26-51.5A34.26,34.26,0,0,0,652.22,70.48Zm0,53.48a19.22,19.22,0,1,1,19.22-19.22A19.22,19.22,0,0,1,652.22,124Z"/><path class="cls-7" d="M652.22,81.78a23,23,0,1,0,23,23A23,23,0,0,0,652.22,81.78Zm0,38.43a15.47,15.47,0,1,1,15.47-15.47A15.47,15.47,0,0,1,652.22,120.21Z"/><ellipse class="cls-4" cx="354.8" cy="124.12" rx="61.53" ry="16.22"/><ellipse class="cls-4" cx="287.39" cy="189.89" rx="48.06" ry="12.67"/><path class="cls-8" d="M395.46,67.84a43.06,43.06,0,1,1-48.72-49.42V0A61.34,61.34,0,1,0,413.9,67.84Z"/><text class="cls-9" transform="translate(329.62 73.18)">OK!</text><path class="cls-10" d="M323.61,148.31a36.52,36.52,0,1,1-41.32-41.91V90.77a52,52,0,1,0,57,57.54Z"/><text class="cls-11" transform="translate(498.09 116.64)">36%</text><path class="cls-12" d="M198.77,124.46a27.47,27.47,0,1,1-31.08-31.52V81.18a39.13,39.13,0,1,0,42.84,43.28Z"/><text class="cls-13" transform="translate(156.77 127.87)">43%</text><text class="cls-14" transform="translate(264.76 153.84)">68%</text></g></g></g></svg>