<svg xmlns="http://www.w3.org/2000/svg" viewBox="0 0 972.67 1347.46"><defs><style>.cls-1{fill:#006df0;}.cls-2{isolation:isolate;}.cls-3{fill:#fff;}.cls-4{fill:#673ab7;}.cls-5{fill:#ff9800;}.cls-6{fill:#ffeb3b;}.cls-7{fill:#f44336;}.cls-8{fill:#e91e63;}.cls-9{fill:#4caf50;}</style></defs><title>celular-teste</title><g id="Camada_2" data-name="Camada 2"><g id="Camada_1-2" data-name="Camada 1"><g id="_Grupo_" data-name="&lt;Grupo&gt;"><g id="_Grupo_2" data-name="&lt;Grupo&gt;"><path id="_Caminho_" data-name="&lt;Caminho&gt;" class="cls-1" d="M912.09,78.62l-257.5,972c-12.85,48.52-62.81,98.47-111.53,111.53L79.24,1286.46c-24.52,6.57-44.06,2.55-55.8-9.25L81,1335.06c11.73,11.8,31.28,15.82,55.8,9.25L600.6,1220c48.72-13.05,98.67-63,111.53-111.53l257.5-972c6.39-24.12,2.42-43.34-9.16-55L902.94,23.63C914.52,35.28,918.48,54.5,912.09,78.62Z"/><g id="_Grupo_3" data-name="&lt;Grupo&gt;"><g id="_Grupo_4" data-name="&lt;Grupo&gt;" class="cls-2"><path id="_Caminho_2" data-name="&lt;Caminho&gt;" class="cls-1" d="M900.86,67.38l-257.5,972c-12.85,48.52-62.81,98.47-111.53,111.53L68,1275.22c-24.52,6.57-44.06,2.55-55.8-9.25l57.53,57.86c11.73,11.8,31.28,15.82,55.8,9.25L589.36,1208.8c48.72-13.05,98.67-63,111.53-111.53l257.5-972c6.39-24.12,2.42-43.34-9.16-55L891.7,12.39C903.28,24,907.24,43.27,900.86,67.38Z"/><g id="_Grupo_5" data-name="&lt;Grupo&gt;"><path id="_Caminho_3" data-name="&lt;Caminho&gt;" class="cls-1" d="M835.89,3.15c48.72-13.05,77.83,15.68,65,64.24l-257.5,972c-12.85,48.52-62.81,98.47-111.53,111.53L68,1275.22C19.28,1288.28-9.81,1259.5,3,1211l257.5-972c12.86-48.56,62.81-98.47,111.53-111.53Z"/></g></g></g><g id="_Grupo_6" data-name="&lt;Grupo&gt;"><path id="_Caminho_4" data-name="&lt;Caminho&gt;" class="cls-3" d="M820.91,22.59c46.49-12.46,74.27,15,62,61.3l-249.6,942c-12.27,46.3-59.93,94-106.42,106.42L84.28,1250.94c-46.49,12.46-74.26-15-62-61.3l249.6-942c12.27-46.33,59.93-94,106.42-106.42Z"/></g><path id="_Caminho_5" data-name="&lt;Caminho&gt;" class="cls-3" d="M900.86,67.38l-257.5,972c-12.85,48.52-62.81,98.47-111.53,111.53L68,1275.22c-24.52,6.57-44.06,2.55-55.8-9.25l57.53,57.86c11.73,11.8,31.28,15.82,55.8,9.25L589.36,1208.8c48.72-13.05,98.67-63,111.53-111.53l257.5-972c6.39-24.12,2.42-43.34-9.16-55L891.7,12.39C903.28,24,907.24,43.27,900.86,67.38Z"/><g id="_Grupo_7" data-name="&lt;Grupo&gt;"><polygon id="_Caminho_6" data-name="&lt;Caminho&gt;" class="cls-1" points="864.89 105.94 636.78 964.17 52.58 1120.71 280.69 262.47 864.89 105.94"/><g id="_Grupo_8" data-name="&lt;Grupo&gt;"><polygon id="_Caminho_7" data-name="&lt;Caminho&gt;" class="cls-1" points="864.89 105.94 851.41 156.68 267.14 313.45 280.69 262.47 864.89 105.94"/></g></g><g id="_Grupo_9" data-name="&lt;Grupo&gt;"><g id="_Grupo_10" data-name="&lt;Grupo&gt;"><path id="_Caminho_8" data-name="&lt;Caminho&gt;" class="cls-1" d="M911,180.94c7,6.94,10.65,20.42,8,30L878.53,362.1c-1.91,7.08-6.58,10.12-11.75,8.49a14.28,14.28,0,0,1-5.63-3.65c-7-7-10.69-20.53-8.07-30.15l40.45-151.15a14.69,14.69,0,0,1,2.87-5.77C900,175.56,905.71,175.67,911,180.94Z"/></g><g id="_Grupo_11" data-name="&lt;Grupo&gt;"><path id="_Caminho_9" data-name="&lt;Caminho&gt;" class="cls-1" d="M902.13,183.56c7,7,10.65,20.42,8.07,30.08L869.72,364.75a14.38,14.38,0,0,1-2.94,5.84,14.28,14.28,0,0,1-5.63-3.65c-7-7-10.69-20.53-8.07-30.15l40.45-151.15a14.69,14.69,0,0,1,2.87-5.77A14.55,14.55,0,0,1,902.13,183.56Z"/></g></g><g id="_Grupo_12" data-name="&lt;Grupo&gt;"><g id="_Grupo_13" data-name="&lt;Grupo&gt;"><path id="_Caminho_10" data-name="&lt;Caminho&gt;" class="cls-1" d="M646.37,116.08a7.62,7.62,0,0,1-.19,3.68c-1.36,5.2-6.71,10.54-11.94,11.94l-103.5,27.75a8.17,8.17,0,0,1-3.71.19c-2.85-.6-4.25-3.3-3.25-7.09,1.4-5.2,6.74-10.54,12-12l103.52-27.73C643.06,111.85,645.75,113.21,646.37,116.08Z"/></g><g id="_Grupo_14" data-name="&lt;Grupo&gt;"><path id="_Caminho_11" data-name="&lt;Caminho&gt;" class="cls-1" d="M646.37,116.08a7.62,7.62,0,0,1-.19,3.68c-1.36,5.2-6.71,10.54-11.94,11.94l-103.5,27.75a8.17,8.17,0,0,1-3.71.19,7.38,7.38,0,0,1,.16-3.68c1.38-5.22,6.72-10.56,12-12l103.5-27.75A8,8,0,0,1,646.37,116.08Z"/></g></g><g id="_Grupo_15" data-name="&lt;Grupo&gt;"><g id="_Grupo_16" data-name="&lt;Grupo&gt;"><path id="_Caminho_12" data-name="&lt;Caminho&gt;" class="cls-1" d="M353.68,1071c10.94-2.93,17.48,3.49,14.6,14.39l-11,41.42c-2.89,10.9-14.09,22.08-25,25l-41.59,11.14c-10.91,2.92-17.45-3.5-14.56-14.4l11-41.42c2.89-10.9,14.09-22.08,25-25Z"/></g><g id="_Grupo_17" data-name="&lt;Grupo&gt;"><path id="_Caminho_13" data-name="&lt;Caminho&gt;" class="cls-1" d="M529.81,1051.28c6.05-1.62,9.68,1.94,8.08,8s-7.81,12.23-13.86,13.85L462,1089.72c-6.05,1.62-9.68-1.94-8.08-8s7.81-12.23,13.86-13.85Z"/></g><g id="_Grupo_18" data-name="&lt;Grupo&gt;"><path id="_Caminho_14" data-name="&lt;Caminho&gt;" class="cls-1" d="M181.35,1144.65c6.05-1.62,9.68,1.94,8.08,8s-7.81,12.23-13.86,13.85l-62.05,16.63c-6.05,1.62-9.68-1.94-8.08-8s7.81-12.23,13.86-13.85Z"/></g></g><g id="_Grupo_19" data-name="&lt;Grupo&gt;"><g id="_Grupo_20" data-name="&lt;Grupo&gt;"><path id="_Caminho_15" data-name="&lt;Caminho&gt;" class="cls-1" d="M278.2,1256.27c3.85,3.89,11.33,5.91,16.67,4.46l83.83-22.46c3.93-1.06,5.61-3.65,4.71-6.52a7.92,7.92,0,0,0-2-3.12c-3.91-3.91-11.39-5.93-16.73-4.48l-83.85,22.44a8.14,8.14,0,0,0-3.2,1.59C275.21,1250.19,275.27,1253.35,278.2,1256.27Z"/></g><g id="_Grupo_21" data-name="&lt;Grupo&gt;"><path id="_Caminho_16" data-name="&lt;Caminho&gt;" class="cls-1" d="M279.65,1251.36c3.89,3.89,11.33,5.91,16.69,4.48l83.83-22.46a2.47,2.47,0,1,0,1.22-4.75c-3.91-3.91-11.39-5.93-16.73-4.48l-83.85,22.44a2.47,2.47,0,1,0-1.16,4.77Z"/></g></g><g id="_Grupo_22" data-name="&lt;Grupo&gt;"><g id="_Grupo_23" data-name="&lt;Grupo&gt;"><path id="_Caminho_17" data-name="&lt;Caminho&gt;" class="cls-1" d="M416,1218.69a8.47,8.47,0,0,1,2.46,4.17c.63,3-1.28,5.63-5.45,6.75-6,1.62-14.48-.65-18.87-5.07-2.95-2.95-3.31-6.14-1.4-8.4a8.65,8.65,0,0,1,4.38-2.51C403.15,1212,411.6,1214.28,416,1218.69Z"/></g><g id="_Grupo_24" data-name="&lt;Grupo&gt;"><path id="_Caminho_18" data-name="&lt;Caminho&gt;" class="cls-1" d="M416,1218.69a8.47,8.47,0,0,1,2.46,4.17,8.36,8.36,0,0,1-4.39,2.52c-6,1.62-14.49-.63-18.88-5.06a8.29,8.29,0,0,1-2.44-4.19,8.65,8.65,0,0,1,4.38-2.51C403.15,1212,411.6,1214.28,416,1218.69Z"/></g></g><polygon id="_Caminho_19" data-name="&lt;Caminho&gt;" class="cls-4" points="391.12 896.92 362.65 1004.37 211.15 1044.66 240.53 937.22 391.12 896.92"/><polygon id="_Caminho_20" data-name="&lt;Caminho&gt;" class="cls-5" points="497.94 276.72 461.6 413.54 249.23 470.14 286.47 333.33 497.94 276.72"/><polygon id="_Caminho_21" data-name="&lt;Caminho&gt;" class="cls-6" points="223.66 941.79 195.19 1049.24 86.32 1078.1 115.69 970.67 223.66 941.79"/><polygon id="_Caminho_22" data-name="&lt;Caminho&gt;" class="cls-6" points="646.96 828.37 618.49 935.82 509.62 964.68 538.99 857.25 646.96 828.37"/><polygon id="_Caminho_23" data-name="&lt;Caminho&gt;" class="cls-7" points="818.03 193.12 782.08 328.8 644.62 365.24 681.7 229.58 818.03 193.12"/><polygon id="_Caminho_24" data-name="&lt;Caminho&gt;" class="cls-5" points="660.19 235.41 624.24 371.09 486.78 407.53 523.86 271.88 660.19 235.41"/><polygon id="_Caminho_25" data-name="&lt;Caminho&gt;" class="cls-7" points="492.65 445.85 473.8 518.06 218.24 586.06 238.49 513.87 492.65 445.85"/><polygon id="_Caminho_26" data-name="&lt;Caminho&gt;" class="cls-8" points="742.06 478.78 662.05 779.24 128.28 921.78 209.69 621.35 742.06 478.78"/><polygon id="_Caminho_27" data-name="&lt;Caminho&gt;" class="cls-9" points="770.86 371.3 752 443.52 677.64 462.96 697.89 390.77 770.86 371.3"/><polygon id="_Caminho_28" data-name="&lt;Caminho&gt;" class="cls-9" points="676.72 396.52 657.87 468.74 583.51 488.19 603.76 415.99 676.72 396.52"/><polygon id="_Caminho_29" data-name="&lt;Caminho&gt;" class="cls-9" points="585.83 420.88 566.98 493.1 492.62 512.54 512.87 440.35 585.83 420.88"/><polygon id="_Caminho_30" data-name="&lt;Caminho&gt;" class="cls-4" points="519.96 861.13 491.76 967.88 382.17 996.86 411.5 890.13 519.96 861.13"/></g></g></g></g></svg>