<?xml version="1.0" encoding="utf-8"?>
<!-- Generator: Adobe Illustrator 21.0.0, SVG Export Plug-In . SVG Version: 6.00 Build 0)  -->
<svg version="1.1" id="Camada_1" xmlns="http://www.w3.org/2000/svg" xmlns:xlink="http://www.w3.org/1999/xlink" x="0px" y="0px"
	 viewBox="0 0 153.6 123.9" style="enable-background:new 0 0 153.6 123.9;" xml:space="preserve">
<style type="text/css">
	.st0{fill:#FF3300;}
	.st1{fill:#FFFFFF;}
</style>
<title>testimg</title>
<g id="Camada_2">
	<g id="Camada_1-2">
		<circle class="st0" cx="82.5" cy="62" r="62"/>
	</g>
</g>
<path class="st1" d="M113.4,78.9c2.1-1.5,3.5-4,3.5-6.9c0-4.7-3.8-8.4-8.4-8.4c-4.7,0-8.4,3.8-8.4,8.4c0,2.8,1.4,5.3,3.5,6.9
	c-4.2,1.9-7.1,6.1-7.1,11c0,0.7,0.6,1.3,1.3,1.3c0.7,0,1.3-0.6,1.3-1.3c0-5.2,4.2-9.4,9.4-9.4s9.4,4.2,9.4,9.4
	c0,0.7,0.6,1.3,1.3,1.3s1.3-0.6,1.3-1.3C120.5,85,117.6,80.8,113.4,78.9z M108.5,66.2c3.2,0,5.8,2.6,5.8,5.8s-2.6,5.8-5.8,5.8
	s-5.8-2.6-5.8-5.8C102.6,68.8,105.3,66.2,108.5,66.2z"/>
<path class="st1" d="M91.3,22c-2.3-2.3-5.3-3.5-8.5-3.4c-6.6,0.1-11.8,5.5-11.7,12.1c0,3,1.2,5.9,3.4,8.1c1.4,1.5,2.2,3.4,2.2,5.4
	v1.5c0,3.1,2.5,5.6,5.6,5.6h1.5c3.1,0,5.6-2.5,5.6-5.6v-1.5c0-2,0.8-3.9,2.2-5.4c2.2-2.2,3.4-5.2,3.4-8.3
	C94.9,27.3,93.6,24.3,91.3,22z M83.7,48.6h-1.5c-1.6,0-2.9-1.3-2.9-2.9v-0.2h7.4v0.2C86.6,47.3,85.3,48.6,83.7,48.6z M89.6,37
	c-1.6,1.6-2.6,3.7-2.9,5.9h-2.5v-7.5l3.9-3.9c0.5-0.5,0.5-1.3,0-1.9c-0.5-0.5-1.3-0.5-1.9,0L83,32.9l-3.3-3.3
	c-0.5-0.5-1.3-0.5-1.9,0c-0.5,0.5-0.5,1.3,0,1.9l3.9,3.9v7.5h-2.5c-0.3-2.2-1.3-4.3-2.9-5.9c-1.7-1.7-2.6-4-2.6-6.3
	c-0.1-5.1,4-9.3,9.1-9.4c0,0,0.1,0,0.1,0c2.5,0,4.8,0.9,6.5,2.7c1.8,1.8,2.8,4.1,2.8,6.6C92.2,32.9,91.3,35.2,89.6,37z"/>
<path class="st1" d="M61.7,61.7c-0.3,0-0.7-0.1-0.9-0.4c-0.5-0.5-0.5-1.3,0-1.9l7.9-7.9c0.5-0.5,1.3-0.5,1.9,0
	c0.5,0.5,0.5,1.3,0,1.9l-7.9,7.9C62.4,61.6,62.1,61.7,61.7,61.7z"/>
<path class="st1" d="M104.2,61.7c-0.3,0-0.7-0.1-0.9-0.4l-7.9-7.9c-0.5-0.5-0.5-1.3,0-1.9c0.5-0.5,1.3-0.5,1.9,0l7.9,7.9
	c0.5,0.5,0.5,1.3,0,1.9C104.9,61.6,104.5,61.7,104.2,61.7z"/>
<path class="st1" d="M83,62c-0.7,0-1.3-0.6-1.3-1.3v-5c0-0.7,0.6-1.3,1.3-1.3s1.3,0.6,1.3,1.3v5C84.3,61.4,83.7,62,83,62z"/>
<circle class="st1" cx="105.5" cy="69.1" r="1.3"/>
<circle class="st1" cx="110.3" cy="69.1" r="1.3"/>
<path class="st1" d="M87.9,78.9c2.1-1.5,3.5-4,3.5-6.9c0-4.7-3.8-8.4-8.4-8.4s-8.4,3.8-8.4,8.4c0,2.8,1.4,5.3,3.5,6.9
	c-4.2,1.9-7.1,6.1-7.1,11c0,0.7,0.6,1.3,1.3,1.3s1.3-0.6,1.3-1.3c0-5.2,4.2-9.4,9.4-9.4s9.4,4.2,9.4,9.4c0,0.7,0.6,1.3,1.3,1.3
	s1.3-0.6,1.3-1.3C95,85,92.1,80.8,87.9,78.9z M83,66.2c3.2,0,5.8,2.6,5.8,5.8s-2.6,5.8-5.8,5.8s-5.8-2.6-5.8-5.8
	C77.1,68.8,79.7,66.2,83,66.2z"/>
<circle class="st1" cx="80.6" cy="69.1" r="1.3"/>
<circle class="st1" cx="85.4" cy="69.1" r="1.3"/>
<path class="st1" d="M45.4,89.9c0,0.7,0.6,1.3,1.3,1.3c0.7,0,1.3-0.6,1.3-1.3c0-5.2,4.2-9.4,9.4-9.4s9.4,4.2,9.4,9.4
	c0,0.7,0.6,1.3,1.3,1.3c0.7,0,1.3-0.6,1.3-1.3c0-4.9-2.9-9.1-7.1-11c2.1-1.5,3.5-4,3.5-6.9c0-4.7-3.8-8.4-8.4-8.4S49,67.4,49,72
	c0,2.8,1.4,5.3,3.5,6.9C48.4,80.8,45.4,85,45.4,89.9z M63.3,72c0,3.2-2.6,5.8-5.8,5.8c-3.2,0-5.8-2.6-5.8-5.8c0-3.2,2.6-5.8,5.8-5.8
	C60.7,66.2,63.3,68.8,63.3,72z"/>
<circle class="st1" cx="60.4" cy="69.1" r="1.3"/>
<circle class="st1" cx="55.6" cy="69.1" r="1.3"/>
</svg>
