<?xml version="1.0" encoding="utf-8"?>
<!-- Generator: Adobe Illustrator 21.0.0, SVG Export Plug-In . SVG Version: 6.00 Build 0)  -->
<svg version="1.1" id="Camada_1" xmlns="http://www.w3.org/2000/svg" xmlns:xlink="http://www.w3.org/1999/xlink" x="0px" y="0px"
	 viewBox="0 0 153.6 123.9" style="enable-background:new 0 0 153.6 123.9;" xml:space="preserve">
<style type="text/css">
	.st0{fill:#FF3300;}
	.st1{fill:#FFFFFF;}
</style>
<title>testimg</title>
<g id="Camada_2">
	<g id="Camada_1-2">
		<circle class="st0" cx="77" cy="62" r="62"/>
	</g>
</g>
<g>
	<path class="st1" d="M87.5,43.7c0-5.8-4.7-10.6-10.5-10.6s-10.5,4.8-10.5,10.6S71.2,54.2,77,54.2S87.5,49.5,87.5,43.7z"/>
	<path class="st1" d="M80.5,54.2H77h-3.5c-2.5,0-4.9,0.6-7,1.7c3.7,1,7.2,2.4,10.6,4.4c3.4-1.9,6.9-3.4,10.6-4.4
		C85.4,54.9,83,54.2,80.5,54.2z"/>
	<path class="st1" d="M103.4,64.8c-1.9,0-3.5,1.6-3.5,3.5v7c0,1.9,1.6,3.5,3.5,3.5s3.5-1.6,3.5-3.5v-7
		C107,66.3,105.4,64.8,103.4,64.8z"/>
	<path class="st1" d="M54.1,75.3v-7c0-1.9-1.6-3.5-3.5-3.5s-3.5,1.6-3.5,3.5v7c0,1.9,1.6,3.5,3.5,3.5S54.1,77.2,54.1,75.3z"/>
	<path class="st1" d="M50.6,59.5v1.8c3.9,0,7,3.1,7,7v7c0,3.9-3.1,7-7,7v1.8c0,1,0.8,1.8,1.8,1.8c9,0,16.2,2.8,22.9,7.1V63.4
		c-6.8-3.9-14-5.7-22.9-5.7C51.3,57.7,50.6,58.5,50.6,59.5z"/>
	<path class="st1" d="M96.4,75.3v-7c0-3.9,3.1-7,7-7v-1.8c0-1-0.8-1.8-1.8-1.8c-8.9,0-16.2,1.8-22.9,5.7v29.5
		c6.7-4.3,13.9-7.1,22.9-7.1c1,0,1.8-0.8,1.8-1.8v-1.8C99.6,82.3,96.4,79.2,96.4,75.3z"/>
</g>
</svg>
