<?xml version="1.0" encoding="utf-8"?>
<!-- Generator: Adobe Illustrator 21.0.0, SVG Export Plug-In . SVG Version: 6.00 Build 0)  -->
<svg version="1.1" id="Camada_1" xmlns="http://www.w3.org/2000/svg" xmlns:xlink="http://www.w3.org/1999/xlink" x="0px" y="0px"
	 viewBox="0 0 153.6 123.9" style="enable-background:new 0 0 153.6 123.9;" xml:space="preserve">
<style type="text/css">
	.st0{fill:#FF3300;}
	.st1{fill:#FFFFFF;}
</style>
<title>testimg</title>
<g id="Camada_2">
	<g id="Camada_1-2">
		<circle class="st0" cx="81.6" cy="62" r="62"/>
	</g>
</g>
<g>
	<path class="st1" d="M91.3,27.6c-0.2,0-0.3-0.1-0.3-0.2c0-0.1,0-0.4,0-0.5c0,0,0.2-1.6,1-2.7c0.8-0.9,1.2-1.6,1.2-2.4
		c0-0.9-0.6-1.5-1.6-1.5c-0.6,0-1.3,0.2-1.8,0.5l-0.3-0.8c-0.1-0.2,0-0.4,0.2-0.4c0,0,1.3-0.6,2.2-0.6c2,0,2.9,1.2,2.9,2.6
		c0,1.2-0.7,2-1.5,3c-0.8,0.9-1,1.7-1,2.6l0,0.1c0,0.2-0.1,0.3-0.3,0.3H91.3z M91.3,27.6"/>
	<path class="st1" d="M92.1,28h-0.7c-0.3,0-0.6-0.2-0.7-0.5c0-0.1,0-0.4,0-0.6c0-0.1,0.2-1.8,1.1-2.9c0.7-0.9,1.1-1.5,1.1-2.2
		c0-1-0.7-1.2-1.3-1.2c-0.6,0-1.2,0.2-1.6,0.5l-0.3,0.3l-0.5-1.2c-0.1-0.3,0-0.7,0.3-0.8c0.1,0,1.3-0.6,2.3-0.6
		c2.2,0,3.2,1.4,3.2,2.9c0,1.3-0.7,2.2-1.6,3.2c-0.7,0.8-1,1.5-0.9,2.3l0,0.1c0,0.2-0.1,0.3-0.2,0.5C92.4,27.9,92.2,28,92.1,28
		L92.1,28z M91.3,27.3l0.7,0l0-0.1c-0.1-1,0.3-1.8,1.1-2.8c0.8-1,1.4-1.8,1.4-2.8c0-1.1-0.7-2.2-2.6-2.2c-0.8,0-2.1,0.5-2.1,0.5
		l0.2,0.5c0.5-0.2,1-0.4,1.6-0.4c1.2,0,2,0.7,2,1.8c0,0.9-0.5,1.6-1.3,2.6c-0.8,1-1,2.5-1,2.5C91.3,27,91.3,27.2,91.3,27.3
		L91.3,27.3z M91.3,27.3"/>
	<path class="st1" d="M90.6,30.1c0-0.6,0.4-1.1,1-1.1c0.6,0,1,0.5,1,1.1c0,0.6-0.4,1.1-1,1.1C91.1,31.2,90.6,30.7,90.6,30.1
		L90.6,30.1z M90.6,30.1"/>
	<g>
		<path class="st1" d="M91.7,31.5c-0.8,0-1.3-0.6-1.3-1.4c0-0.8,0.6-1.4,1.4-1.4c0.8,0,1.3,0.6,1.3,1.4C93,30.9,92.5,31.5,91.7,31.5
			L91.7,31.5z M91.7,29.3c-0.4,0-0.7,0.3-0.7,0.8c0,0.4,0.3,0.8,0.7,0.8c0.4,0,0.7-0.3,0.7-0.8C92.4,29.6,92.1,29.3,91.7,29.3
			L91.7,29.3z M91.7,29.3"/>
		<path class="st1" d="M65.3,55.5l11.7-3c1.1-0.3,2.2-1.4,2.6-2.5l2.9-10.5c0.2-0.6,0.1-1.3-0.3-1.8c-0.4-0.5-0.9-0.8-1.6-0.8
			l-1.3-0.1c-1.2,0-2.4,0.9-2.7,2l-1.9,6.3c-0.2,0.6-0.9,1.2-1.4,1.4l-8.7,1.7c-1.2,0.3-2.2,1.5-2.2,2.7c0,0-0.1,3.8,0.3,4.2
			C62.9,55.4,63.4,55.8,65.3,55.5L65.3,55.5z M65.3,55.5"/>
	</g>
	<path class="st1" d="M73,43.4c0.4,0,0.7,0,1-0.1l1.5-4.8c0.5-1.6,2.1-2.7,3.7-2.7l1.3,0.1c0.4,0,0.7,0.1,1,0.2
		c0.1-0.4,0.1-0.9,0.1-1.4c0-4.8-3.9-8.7-8.7-8.7c-4.8,0-8.7,3.9-8.7,8.7C64.4,39.5,68.3,43.4,73,43.4L73,43.4z M73,43.4"/>
	<path class="st1" d="M92.2,15.5c-4.8,0-8.7,4.3-8.7,9.6c0,2.4,0.8,4.5,2.1,6.2c-0.1,0.1-0.1,0.1-0.2,0.2l-1.8,2.8
		c-0.2,0.4-0.1,0.9,0.2,1.1c0.1,0.1,0.3,0.1,0.4,0.1c0.3,0,0.5-0.1,0.7-0.4l1.7-2.7c1.5,1.4,3.4,2.2,5.5,2.2c4.8,0,8.7-4.3,8.7-9.6
		C100.8,19.8,96.9,15.5,92.2,15.5L92.2,15.5z M92.2,33.1c-3.9,0-7.1-3.6-7.1-8c0-4.4,3.2-8,7.1-8c3.9,0,7.1,3.6,7.1,8
		C99.2,29.5,96.1,33.1,92.2,33.1L92.2,33.1z M92.2,33.1"/>
	<path class="st1" d="M84,47c-0.5-0.7-1.3-1.2-2.2-1.5l-1.3,4.7c-0.4,1.5-1.8,2.8-3.3,3.2l-11.7,3c-0.6,0.1-1,0.1-1.3,0.1
		c-0.1,0-0.2,0-0.3,0v39c0,2.2,1.8,4,4,4h0.3c2.2,0,4-1.8,4-4V74.7h1.7v20.9c0,2.2,1.8,4,4,4h0.3c2.2,0,4-1.8,4-4V71.8h0.3
		c1.2,0,2.5-0.8,3.1-1.8l5.6-9.9c0.6-1,0.5-2.6-0.2-3.6L84,47z M84.9,60l-2.7,4.4v-9.9l2.6,3.8C85.1,58.6,85.2,59.5,84.9,60L84.9,60
		z M84.9,60"/>
</g>
</svg>
