<?xml version="1.0" encoding="utf-8"?>
<!-- Generator: Adobe Illustrator 21.0.0, SVG Export Plug-In . SVG Version: 6.00 Build 0)  -->
<svg version="1.1" id="Camada_1" xmlns="http://www.w3.org/2000/svg" xmlns:xlink="http://www.w3.org/1999/xlink" x="0px" y="0px"
	 viewBox="0 0 153.6 123.9" style="enable-background:new 0 0 153.6 123.9;" xml:space="preserve">
<style type="text/css">
	.st0{fill:#FF3300;}
	.st1{fill:#FFFFFF;}
</style>
<title>testimg</title>
<g id="Camada_2">
	<g id="Camada_1-2">
		<circle class="st0" cx="82.5" cy="62" r="62"/>
	</g>
</g>
<g>
	<g>
		<path class="st1" d="M93,45.9c-0.5-1.6-2.1-2.4-3.7-2.1c-1.4-2.5-2.9-5.6-4.3-8.3c-0.1-0.2-0.3-0.4-0.4-0.6
			c-0.3-0.4-0.7-0.7-1.1-0.9c-1.5-0.8-3.4-0.1-4.1,1.4c-1.4,2.8-2.9,5.8-4.3,8.3c-1.6-0.4-3.2,0.5-3.7,2.1c-1.3,4.2-2.4,7.7,0.8,9
			c0.4,0.2,0.9,0.3,1.3,0.3c2,0,3.4-2.2,4.3-3.7c0.8-1.3,1.8-3.1,3.1-5.4c0.4-0.8,0.9-1.7,1.3-2.4c0.4,0.8,0.9,1.7,1.4,2.6
			c1.2,2.3,2.3,4.1,3.1,5.4c0.9,1.5,2.3,3.7,4.3,3.7c0.4,0,0.8-0.1,1.3-0.3C95.4,53.6,94.3,50,93,45.9L93,45.9z M93,45.9"/>
	</g>
	<path class="st1" d="M78.7,35c0.7-1.4,2-2.2,3.5-2.2c0.6,0,1.2,0.1,1.7,0.4c0.6,0.3,1,0.7,1.4,1.2c0.2,0.2,0.3,0.5,0.5,0.7
		c0.6,1.1,1.2,2.3,1.8,3.5c1.6-1.4,2.6-3.5,2.6-5.8c0-4.4-3.6-7.9-7.9-7.9c-4.4,0-7.9,3.5-7.9,7.9c0,2.3,1,4.4,2.6,5.8
		C77.5,37.5,78.1,36.2,78.7,35L78.7,35z M78.7,35"/>
	<path class="st1" d="M86,52c-0.8-1.3-1.9-3.2-3.1-5.5c-0.1-0.1-0.1-0.2-0.2-0.4l-0.8,0c0,0.1-0.1,0.2-0.1,0.3
		c-1.2,2.3-2.3,4.2-3.1,5.5c-0.9,1.5-2.3,3.7-4.5,4v9.8c0,0.8,0.2,1.6,0.4,2.3c0,0.2,0,0.3,0,0.5l0,29.5c0,2,1.6,3.6,3.6,3.6h0
		c2,0,3.6-1.6,3.6-3.6l0-25.3c0.1,0,0.3,0,0.4,0c0,0,0.1,0,0.1,0l0,25.3c0,2,1.6,3.6,3.6,3.6h0c2,0,3.6-1.6,3.6-3.6l0-29.3
		c0.5-0.9,0.8-1.9,0.8-3V56C88.2,55.6,86.9,53.5,86,52L86,52z M86,52"/>
</g>
</svg>
