<svg xmlns="http://www.w3.org/2000/svg" viewBox="0 0 308.36 209.66"><defs><style>.cls-1{fill:#fff;}</style></defs><title>graficos</title><g id="Camada_2" data-name="Camada 2"><g id="OBJECTS"><g id="graph-1"><rect class="cls-1" x="15.26" y="64.66" width="9.94" height="143.32"/><rect class="cls-1" x="30.1" y="9.41" width="9.91" height="198.57"/><rect class="cls-1" x="44.9" y="83.52" width="9.94" height="124.46"/><rect class="cls-1" x="59.71" y="42.49" width="9.93" height="165.49"/><rect class="cls-1" x="89.51" y="167.24" width="9.92" height="40.74"/><rect class="cls-1" x="104.33" y="115.31" width="9.92" height="92.67"/><rect class="cls-1" x="119.12" y="132.52" width="9.94" height="75.47"/><rect class="cls-1" x="133.94" y="71.28" width="9.93" height="136.7"/><rect class="cls-1" x="163.73" y="159.22" width="9.92" height="48.77"/><rect class="cls-1" x="178.55" y="167.96" width="9.91" height="40.03"/><rect class="cls-1" x="193.35" y="94.22" width="9.94" height="113.76"/><rect class="cls-1" x="208.18" y="128.91" width="9.9" height="79.08"/><rect class="cls-1" x="237.95" y="25.45" width="9.94" height="182.53"/><rect class="cls-1" x="252.77" y="82.8" width="9.94" height="125.19"/><rect class="cls-1" x="267.59" y="138.14" width="9.91" height="69.85"/><rect class="cls-1" x="282.41" y="53.77" width="9.91" height="154.22"/><polygon class="cls-1" points="0 0 0 1.71 4.06 1.71 4.06 29.7 0 29.7 0 31.44 4.06 31.44 4.06 59.43 0 59.43 0 61.13 4.06 61.13 4.06 89.13 0 89.13 0 90.87 4.06 90.87 4.06 118.85 0 118.85 0 120.56 4.06 120.56 4.06 148.56 0 148.56 0 150.29 4.06 150.29 4.06 178.28 0 178.28 0 180 4.06 180 4.06 209.66 308.36 209.66 308.36 207.99 5.77 207.99 5.77 0 0 0"/></g></g></g></svg>