<svg xmlns="http://www.w3.org/2000/svg" viewBox="0 0 457 416.35"><defs><style>.cls-1{stroke:#fff;stroke-miterlimit:10;stroke-width:3px;}</style></defs><title>img-responsivo-sec_1</title><g id="Camada_2" data-name="Camada 2"><g id="Camada_1-2" data-name="Camada 1"><rect class="cls-1" x="223.08" y="252.59" width="127.26" height="6"/><path class="cls-1" d="M59.83,17.06a9.67,9.67,0,0,1,.09-1.34,10.33,10.33,0,0,1,.24-1.18l.05-.18c.05-.19.11-.38.18-.56l0-.1.18-.44.07-.15c.06-.13.12-.26.19-.39l.08-.16c.08-.16.18-.33.25-.44.18-.28.36-.56.57-.84s.25-.32.35-.44l.08-.09.4-.42.07-.08.65-.54,0-.06a7.61,7.61,0,0,1,.84-.61l.17-.11.25-.16c.13-.08.28-.16.46-.25l.51-.25.36-.15a9,9,0,0,1,1.37-.42l.41-.08.45-.07h.12l.4,0H420.9a9.57,9.57,0,0,1,9.56,9.56V202.92h6V17.06A15.58,15.58,0,0,0,420.9,1.5H69.38l-.86,0H68.1l-.09,0-.5.05c-.32,0-.64.08-.88.13s-.54.1-.73.15a14.54,14.54,0,0,0-2.14.66l-.61.25-.09,0-.73.35c-.3.15-.6.31-.94.52L61,4a14,14,0,0,0-1.51,1.1l-.29.26-.44.39-.59.53,0,.09L58,6.48l-.4.44c-.24.28-.47.57-.68.85s-.55.78-.82,1.22c-.16.26-.32.54-.46.82L55.5,10c-.12.23-.23.46-.33.69l-.07.16c-.1.24-.2.48-.29.71l-.24.54v.17l-.09.3c0,.1-.07.2-.09.3a16.59,16.59,0,0,0-.4,2,15.87,15.87,0,0,0-.15,2.17v112.3h6Z"/><path class="cls-1" d="M217.08,398.67a9.69,9.69,0,0,1-9.68,9.68H17.18a9.69,9.69,0,0,1-9.68-9.68V145a9.69,9.69,0,0,1,9.68-9.68H53.83v-6H17.18A15.7,15.7,0,0,0,1.5,145V398.67a15.7,15.7,0,0,0,15.68,15.68H207.4a15.7,15.7,0,0,0,15.68-15.68V258.59h-6Z"/><path class="cls-1" d="M207.4,129.36H59.83v6H207.4a9.69,9.69,0,0,1,9.68,9.68V252.59h6V145A15.7,15.7,0,0,0,207.4,129.36Z"/><path class="cls-1" d="M361,208.92h69.49v-6H361a10.64,10.64,0,0,0-10.63,10.63v39h6v-39A4.63,4.63,0,0,1,361,208.92Z"/><path class="cls-1" d="M444.87,202.92h-8.41v6h8.41a4.63,4.63,0,0,1,4.63,4.63V404.22a4.63,4.63,0,0,1-4.63,4.63H361a4.63,4.63,0,0,1-4.63-4.63V258.59h-6V404.22A10.64,10.64,0,0,0,361,414.85h83.9a10.64,10.64,0,0,0,10.63-10.63V213.54A10.64,10.64,0,0,0,444.87,202.92Z"/><circle class="cls-1" cx="402.93" cy="386.59" r="7.36"/><path class="cls-1" d="M411.13,223.12h-16.4a1.86,1.86,0,0,0,0,3.73h16.4a1.86,1.86,0,0,0,0-3.73Z"/><circle class="cls-1" cx="402.93" cy="217.36" r="2.24"/><circle class="cls-1" cx="110.93" cy="376.59" r="7.36"/><circle class="cls-1" cx="110.93" cy="156.36" r="3.16"/><circle class="cls-1" cx="248.93" cy="225.59" r="7.36"/><rect class="cls-1" x="62.5" y="174.85" width="97" height="5" rx="2.5" ry="2.5"/></g></g></svg>