<svg xmlns="http://www.w3.org/2000/svg" viewBox="0 0 454 413.35"><defs><style>.cls-1{fill:#ff0053;}</style></defs><title>img-responsivo-sec_1</title><g id="Camada_2" data-name="Camada 2"><g id="Camada_1-2" data-name="Camada 1"><rect class="cls-1" x="221.58" y="251.09" width="127.26" height="6"/><path class="cls-1" d="M58.33,15.56a9.67,9.67,0,0,1,.09-1.34A10.33,10.33,0,0,1,58.66,13l.05-.18c.05-.19.11-.38.18-.56l0-.1.18-.44.07-.15c.06-.13.12-.26.19-.39l.08-.16c.08-.16.18-.33.25-.44.18-.28.36-.56.57-.84s.25-.32.35-.44l.08-.09.4-.42.07-.08.65-.54,0-.06a7.61,7.61,0,0,1,.84-.61l.17-.11.25-.16c.13-.08.28-.16.46-.25l.51-.25.36-.15a9,9,0,0,1,1.37-.42l.41-.08.45-.07h.12l.4,0H419.4A9.57,9.57,0,0,1,429,15.56V201.42h6V15.56A15.58,15.58,0,0,0,419.4,0H67.88L67,0H66.6l-.09,0L66,.11c-.32,0-.64.08-.88.13s-.54.1-.73.15a14.54,14.54,0,0,0-2.14.66l-.61.25-.09,0-.73.35c-.3.15-.6.31-.94.52l-.41.26A14,14,0,0,0,58,3.57l-.29.26-.44.39-.59.53,0,.09L56.48,5l-.4.44c-.24.28-.47.57-.68.85s-.55.78-.82,1.22c-.16.26-.32.54-.46.82L54,8.55c-.12.23-.23.46-.33.69l-.07.16c-.1.24-.2.48-.29.71l-.24.54v.17l-.09.3c0,.1-.07.2-.09.3a16.59,16.59,0,0,0-.4,2,15.87,15.87,0,0,0-.15,2.17v112.3h6Z"/><path class="cls-1" d="M215.58,397.17a9.69,9.69,0,0,1-9.68,9.68H15.68A9.69,9.69,0,0,1,6,397.17V143.54a9.69,9.69,0,0,1,9.68-9.68H52.33v-6H15.68A15.7,15.7,0,0,0,0,143.54V397.17a15.7,15.7,0,0,0,15.68,15.68H205.9a15.7,15.7,0,0,0,15.68-15.68V257.09h-6Z"/><path class="cls-1" d="M205.9,127.86H58.33v6H205.9a9.69,9.69,0,0,1,9.68,9.68V251.09h6V143.54A15.7,15.7,0,0,0,205.9,127.86Z"/><path class="cls-1" d="M359.47,207.42H429v-6H359.47A10.64,10.64,0,0,0,348.85,212v39h6V212A4.63,4.63,0,0,1,359.47,207.42Z"/><path class="cls-1" d="M443.37,201.42H435v6h8.41A4.63,4.63,0,0,1,448,212V402.72a4.63,4.63,0,0,1-4.63,4.63h-83.9a4.63,4.63,0,0,1-4.63-4.63V257.09h-6V402.72a10.64,10.64,0,0,0,10.63,10.63h83.9A10.64,10.64,0,0,0,454,402.72V212A10.64,10.64,0,0,0,443.37,201.42Z"/><circle class="cls-1" cx="401.43" cy="385.09" r="7.36"/><path class="cls-1" d="M409.63,221.62h-16.4a1.86,1.86,0,0,0,0,3.73h16.4a1.86,1.86,0,0,0,0-3.73Z"/><circle class="cls-1" cx="401.43" cy="215.86" r="2.24"/><circle class="cls-1" cx="109.43" cy="375.09" r="7.36"/><circle class="cls-1" cx="109.43" cy="154.86" r="3.16"/><circle class="cls-1" cx="247.43" cy="224.09" r="7.36"/><rect class="cls-1" x="55" y="169.35" width="107" height="5" rx="2.5" ry="2.5"/></g></g></svg>