<svg xmlns="http://www.w3.org/2000/svg" viewBox="0 0 180.05 212.83"><defs><style>.cls-1{fill:#e1ecff;}.cls-2{fill:#f30;}.cls-3{fill:#ececec;}.cls-4{fill:#fff;}.cls-5{fill:#f1f1f1;}.cls-6{fill:#e3ecf9;}</style></defs><title>info-icon</title><g id="Camada_2" data-name="Camada 2"><g id="Camada_1-2" data-name="Camada 1"><path class="cls-1" d="M35.89,142.64,64.69,126l4.62,8,38.51,66.7a4.62,4.62,0,0,1-1.69,6.31l-9,5.18a4.62,4.62,0,0,1-5.85-1L40.51,150.65Z"/><path class="cls-2" d="M52,133.36,27.89,147.26l4.62,8,2.31,4A4.62,4.62,0,0,0,41.13,161l20.09-11.6-4.62-8Z"/><path class="cls-3" d="M4.62,125a9.24,9.24,0,0,1,12.63,3.38l4.67,8.08a9.24,9.24,0,0,1-16,9.24l-4.67-8.08A9.24,9.24,0,0,1,4.62,125"/><path class="cls-1" d="M56.6,141.36,30.36,95.93,50.89,84.08a124.2,124.2,0,0,0,59-79.45l65.55,113.53a124.2,124.2,0,0,0-98.3,11.36Z"/><path class="cls-4" d="M109.88,4.62a124.2,124.2,0,0,1-59,79.45,124.2,124.2,0,0,0,59-79.45L135.7,49.34h0Z"/><polygon class="cls-5" points="135.7 49.34 135.7 49.34 142.65 61.39 135.7 49.34"/><path class="cls-6" d="M109.88,4.62a124.2,124.2,0,0,1-59,79.45L64,106.79l78.64-45.41-7-12Z"/><path class="cls-2" d="M179.43,115.84,113.88,2.31a4.62,4.62,0,0,0-8,4.62l65.55,113.53a4.62,4.62,0,0,0,8-4.62"/><path class="cls-2" d="M77.12,129.51,32.7,155.16a9.24,9.24,0,0,1-12.63-3.38l-17-29.42a9.24,9.24,0,0,1,3.38-12.63L50.89,84.08Z"/><path class="cls-5" d="M50.89,84.08,64,106.79Z"/><path class="cls-2" d="M50.89,84.08,6.47,109.72a9.24,9.24,0,0,0-3.38,12.63l8.49,14.71L64,106.79Z"/></g></g></svg>