<svg xmlns="http://www.w3.org/2000/svg" viewBox="0 0 338.1 223.22"><defs><style>.cls-1{fill:#006df0;}.cls-2{isolation:isolate;}.cls-10,.cls-3{opacity:0.2;}.cls-4{fill:#fff;}.cls-5{fill:#151519;}.cls-6{fill:#c7cbd4;}.cls-7{fill:#e0e4e7;}.cls-10,.cls-8{fill:#020202;}.cls-9{fill:#c1eaf4;}</style></defs><title>inicio</title><g id="Camada_2" data-name="Camada 2"><g id="Camada_1-2" data-name="Camada 1"><path class="cls-1" d="M67.52,170a3,3,0,0,1,1,2.42c0,1-.45,1.57-1,1.25l-2.75-1.59c0,1-.3,1.73-.65,1.53l-12.17-7a3.2,3.2,0,0,1-.64-2.27l-2.75-1.59a3,3,0,0,1-1-2.41,1.86,1.86,0,0,1,.3-1.13.5.5,0,0,1,.71-.13Z" transform="translate(-0.22 -0.22)"/><g class="cls-2"><g class="cls-3"><path class="cls-4" d="M335.36,72.9a6.18,6.18,0,0,1-.18.77A5.83,5.83,0,0,0,335.36,72.9Z" transform="translate(-0.22 -0.22)"/><path class="cls-4" d="M333.55,76.73a10,10,0,0,0,1.06-1.65A9.68,9.68,0,0,1,333.55,76.73Z" transform="translate(-0.22 -0.22)"/><path class="cls-4" d="M335.46,83.1c0,3.12-2.06,6.22-6.14,8.59l0-11.48a16.19,16.19,0,0,0,3.23-2.42,10.72,10.72,0,0,0,1-1.06h0a9.68,9.68,0,0,0,1.06-1.65c.12-.24.23-.48.33-.71s.11-.3.16-.44a1.42,1.42,0,0,0,.08-.26,6.18,6.18,0,0,0,.18-.77,7,7,0,0,0,.12-1.28Z" transform="translate(-0.22 -0.22)"/><path class="cls-4" d="M332.58,77.8a11.82,11.82,0,0,0,1-1.06A10.72,10.72,0,0,1,332.58,77.8Z" transform="translate(-0.22 -0.22)"/><path class="cls-5" d="M329.18,71.16c0,.1,0,.19,0,.28a4.74,4.74,0,0,1-.05.7,3.49,3.49,0,0,1-.06.42.3.3,0,0,1,0,.11.09.09,0,0,1,0,.06c0-1,0-2,0-2.68l0,.14a.8.8,0,0,1,0,.2.11.11,0,0,1,0,.05c0,.11,0,.22,0,.33h0A2.48,2.48,0,0,1,329.18,71.16Z" transform="translate(-0.22 -0.22)"/><path class="cls-5" d="M329.18,70.88c0,.09,0,.18,0,.28a2.48,2.48,0,0,0,0-.36A.24.24,0,0,1,329.18,70.88Z" transform="translate(-0.22 -0.22)"/><path class="cls-6" d="M329.17,70.79a.27.27,0,0,1,0,.09.24.24,0,0,0,0-.08Z" transform="translate(-0.22 -0.22)"/><path class="cls-4" d="M329.18,80.32c0,.84,0,1.68,0,2.52a6.73,6.73,0,0,0-.19-1.62v-.78Z" transform="translate(-0.22 -0.22)"/><path class="cls-6" d="M329,78.16c0-1.36,0-3.51.05-5.39a.16.16,0,0,0,0-.09.3.3,0,0,0,0-.11,2.33,2.33,0,0,0,.06-.42,4.74,4.74,0,0,0,.05-.7q0,4.45,0,8.88l-.2.11v-.37c0-.13,0-.27,0-.41,0-.4,0-.79,0-1.19h0Z" transform="translate(-0.22 -0.22)"/><path class="cls-6" d="M329.13,70.46a2.16,2.16,0,0,1,0,.33C329.16,70.68,329.15,70.57,329.13,70.46Z" transform="translate(-0.22 -0.22)"/><path class="cls-6" d="M329.08,72.57a3.49,3.49,0,0,0,.06-.42A2.33,2.33,0,0,1,329.08,72.57Z" transform="translate(-0.22 -0.22)"/><path class="cls-6" d="M329.12,70.36a.36.36,0,0,1,0,.1.11.11,0,0,0,0-.05Z" transform="translate(-0.22 -0.22)"/><path class="cls-6" d="M329.12,70.4a.8.8,0,0,0,0-.2l0,.16Z" transform="translate(-0.22 -0.22)"/><path class="cls-6" d="M329.07,70a.5.5,0,0,1,0,.16l0-.14Z" transform="translate(-0.22 -0.22)"/><path class="cls-5" d="M329,69.83a1.8,1.8,0,0,1,0,.21C329.05,70,329,69.9,329,69.83Z" transform="translate(-0.22 -0.22)"/><path class="cls-6" d="M329.05,72.68a.13.13,0,0,1,0,.08s0,0,0,0A.09.09,0,0,0,329.05,72.68Z" transform="translate(-0.22 -0.22)"/><path class="cls-5" d="M329,72.76a.13.13,0,0,0,0-.08.16.16,0,0,1,0,.09S329,72.76,329,72.76Z" transform="translate(-0.22 -0.22)"/><path class="cls-5" d="M329,73.12a2.27,2.27,0,0,0,.08-.35A2.53,2.53,0,0,1,329,73.12Z" transform="translate(-0.22 -0.22)"/><path class="cls-6" d="M329,69.62a.13.13,0,0,1,0,.06A.22.22,0,0,0,329,69.62Z" transform="translate(-0.22 -0.22)"/><path class="cls-7" d="M328.78,80.55a9.12,9.12,0,0,0-2.19-3.42,7.36,7.36,0,0,0,.66-.74l0,0c.05-.07.11-.14.16-.21l.22-.29,0,0c.11-.14.19-.29.28-.43a.49.49,0,0,0,0-.07,3.68,3.68,0,0,0,.25-.44,1,1,0,0,0,.08-.13,7.31,7.31,0,0,0,.48-1.13,2.67,2.67,0,0,0,.11-.35.74.74,0,0,0,0-.15,2.53,2.53,0,0,0,.08-.35c0,1.87,0,4-.05,5.39v.3h0c0,.4,0,.79,0,1.19,0,.14,0,.28,0,.41v.37Z" transform="translate(-0.22 -0.22)"/><path class="cls-4" d="M329,80.44v.78a5.82,5.82,0,0,0-.19-.67Z" transform="translate(-0.22 -0.22)"/><path class="cls-6" d="M329,69.62c0-.13-.07-.27-.11-.41C328.9,69.35,328.94,69.48,329,69.62Z" transform="translate(-0.22 -0.22)"/><path class="cls-5" d="M328.86,69.21c0,.14.08.28.11.41,0-.16-.09-.33-.14-.48Z" transform="translate(-0.22 -0.22)"/><path class="cls-5" d="M328.81,73.62a2.33,2.33,0,0,0,.11-.35A2.67,2.67,0,0,1,328.81,73.62Z" transform="translate(-0.22 -0.22)"/><path class="cls-6" d="M328.86,69.21l0-.07c0-.11-.08-.23-.12-.34C328.76,68.93,328.82,69.07,328.86,69.21Z" transform="translate(-0.22 -0.22)"/><path class="cls-6" d="M328.65,68.63c0,.05,0,.11.06.17a.31.31,0,0,0,0-.08Z" transform="translate(-0.22 -0.22)"/><path class="cls-6" d="M328.65,68.63l0,.09a1.71,1.71,0,0,0-.11-.26l.07.14Z" transform="translate(-0.22 -0.22)"/><path class="cls-6" d="M328.53,68.38a2.25,2.25,0,0,1,.1.21l-.07-.14A.12.12,0,0,0,328.53,68.38Z" transform="translate(-0.22 -0.22)"/><path class="cls-5" d="M328.38,68.06c.05.11.11.21.15.32C328.49,68.27,328.44,68.17,328.38,68.06Z" transform="translate(-0.22 -0.22)"/><path class="cls-5" d="M328.3,67.9l.08.16Z" transform="translate(-0.22 -0.22)"/><path class="cls-5" d="M328.33,74.75a1,1,0,0,1-.08.13A1,1,0,0,0,328.33,74.75Z" transform="translate(-0.22 -0.22)"/><path class="cls-6" d="M328.3,67.9l-.13-.24A1.6,1.6,0,0,1,328.3,67.9Z" transform="translate(-0.22 -0.22)"/><path class="cls-5" d="M328,75.32a4.32,4.32,0,0,0,.25-.44A3.68,3.68,0,0,1,328,75.32Z" transform="translate(-0.22 -0.22)"/><path class="cls-7" d="M323.15,79.78a15.49,15.49,0,0,0,3.44-2.65,9.12,9.12,0,0,1,2.19,3.42l-5.64,3.28Z" transform="translate(-0.22 -0.22)"/><path class="cls-5" d="M327.74,67c.1.14.19.27.27.41C327.94,67.27,327.84,67.14,327.74,67Z" transform="translate(-0.22 -0.22)"/><path class="cls-5" d="M328,75.39c-.09.14-.18.29-.28.43a4.44,4.44,0,0,0,.27-.43Z" transform="translate(-0.22 -0.22)"/><path class="cls-5" d="M328,75.39l.05-.07a.49.49,0,0,1,0,.07Z" transform="translate(-0.22 -0.22)"/><path class="cls-5" d="M328,75.39a4.44,4.44,0,0,1-.27.43h0A4,4,0,0,0,328,75.39Z" transform="translate(-0.22 -0.22)"/><path class="cls-5" d="M327.68,75.82l0,0,0,0Z" transform="translate(-0.22 -0.22)"/><path class="cls-5" d="M327.67,75.82l0,0-.22.29Z" transform="translate(-0.22 -0.22)"/><path class="cls-6" d="M327.43,76.15c0,.07-.11.14-.16.21Z" transform="translate(-0.22 -0.22)"/><path class="cls-5" d="M326.59,77.13a8.63,8.63,0,0,0,.66-.74A7.36,7.36,0,0,1,326.59,77.13Z" transform="translate(-0.22 -0.22)"/><path class="cls-6" d="M326.91,66l-.44-.45Z" transform="translate(-0.22 -0.22)"/><path class="cls-6" d="M326,65l.48.45Z" transform="translate(-0.22 -0.22)"/><path class="cls-5" d="M325.47,64.61l-.11-.09Z" transform="translate(-0.22 -0.22)"/><path class="cls-5" d="M325.28,64.45l-.3-.22Z" transform="translate(-0.22 -0.22)"/><path class="cls-4" d="M323.11,91.25l0-7.42,5.64-3.28a5.82,5.82,0,0,1,.19.67,6.73,6.73,0,0,1,.19,1.62C329.16,85.86,327.13,88.91,323.11,91.25Z" transform="translate(-0.22 -0.22)"/><path class="cls-5" d="M323.35,74.67l0-11.48a17.18,17.18,0,0,1,1.59,1l.3.22.09.07.11.09.48.4h0l.48.45,0,0,.44.45,0,.05a9.93,9.93,0,0,1,.78,1c.1.14.19.27.27.41l.15.25.13.24.08.16h0c.05.11.11.21.15.32a.12.12,0,0,1,0,.07,1.71,1.71,0,0,1,.11.26.31.31,0,0,1,0,.08c0,.11.09.23.12.34s.1.33.14.48a.22.22,0,0,1,0,.06.92.92,0,0,1,0,.15c0,.07,0,.14,0,.21v0c0,.68,0,1.64,0,2.68,0,0,0,0,0,0s0,0,0,0a2.27,2.27,0,0,1-.08.35.74.74,0,0,1,0,.15,2.33,2.33,0,0,1-.11.35,7.31,7.31,0,0,1-.48,1.13,1,1,0,0,1-.08.13,4.32,4.32,0,0,1-.25.44l-.05.07a4,4,0,0,1-.28.43l-.24.33-.16.21,0,0a8.63,8.63,0,0,1-.66.74A14.66,14.66,0,0,0,323.35,74.67Z" transform="translate(-0.22 -0.22)"/><path class="cls-5" d="M229.57,20.52l-3.19-1.84,0-11.48,97,56,0,11.48-7.77-4.49h0a2.1,2.1,0,0,0-.22-.29,2.54,2.54,0,0,0-.22-.21,1.54,1.54,0,0,0-.26-.21l-.3-.19-1.87-1.07a5.43,5.43,0,0,0-1.55-.58l-10.77-6.21a2.78,2.78,0,0,0-1-.9L231.12,21.11A5.24,5.24,0,0,0,229.57,20.52Z" transform="translate(-0.22 -0.22)"/><path class="cls-5" d="M315.86,71.27v-.05a1.49,1.49,0,0,0-.08-.62c0-.08-.06-.16-.1-.24h0l-.1-.17,7.77,4.49a14.66,14.66,0,0,1,3.24,2.46,15.49,15.49,0,0,1-3.44,2.65l-8.42,4.89-.18-.3a2.2,2.2,0,0,0,1.28-1.8Z" transform="translate(-0.22 -0.22)"/><path class="cls-8" d="M315.86,71.27h0a1.18,1.18,0,0,0,0-.18v.17Z" transform="translate(-0.22 -0.22)"/><path class="cls-5" d="M315.86,71.27l0,11.31a2.2,2.2,0,0,0-1.3-1.81l0-7.86,0,0a2.53,2.53,0,0,0,1.2-1.3,1.21,1.21,0,0,0,.07-.31Z" transform="translate(-0.22 -0.22)"/><path class="cls-8" d="M315.85,71.27a1.21,1.21,0,0,1-.07.31A1.94,1.94,0,0,0,315.85,71.27Z" transform="translate(-0.22 -0.22)"/><path class="cls-8" d="M315.78,70.6a1.49,1.49,0,0,1,.08.62v-.13Z" transform="translate(-0.22 -0.22)"/><path class="cls-8" d="M315.35,69.89a2.1,2.1,0,0,1,.22.29l-1-.58v-.32A3.6,3.6,0,0,1,315.35,69.89Z" transform="translate(-0.22 -0.22)"/><path class="cls-8" d="M315.86,71.1a1.18,1.18,0,0,1,0,.18,1.94,1.94,0,0,1-.07.31,2.53,2.53,0,0,1-1.2,1.3l0,0c0-1.1,0-2.2,0-3.3l1,.58h0l.1.17h0c0,.08.07.16.1.24l.08.48Z" transform="translate(-0.22 -0.22)"/><path class="cls-8" d="M315.13,69.68a2.54,2.54,0,0,1,.22.21,3.6,3.6,0,0,0-.78-.61h0l.3.19Z" transform="translate(-0.22 -0.22)"/><path class="cls-5" d="M314.87,69.47a1.54,1.54,0,0,1,.26.21Z" transform="translate(-0.22 -0.22)"/><path class="cls-8" d="M314.57,69.29v.32l-1.87-1.08V68.2Z" transform="translate(-0.22 -0.22)"/><polygon class="cls-8" points="312.47 67.98 314.35 69.06 314.35 69.06 312.47 67.98"/><path class="cls-8" d="M312.68,73.54l0-5,1.87,1.08c0,1.1,0,2.2,0,3.3A5.67,5.67,0,0,1,312.68,73.54Z" transform="translate(-0.22 -0.22)"/><path class="cls-5" d="M314.56,72.9l0,7.86-1.87-1.08,0-6.13A5.67,5.67,0,0,0,314.56,72.9Z" transform="translate(-0.22 -0.22)"/><path class="cls-8" d="M312.69,68.2v.32l-1.55-.9A5.43,5.43,0,0,1,312.69,68.2Z" transform="translate(-0.22 -0.22)"/><path class="cls-8" d="M306.47,68.2a6.91,6.91,0,0,1,4.67-.58l1.55.9,0,5a6.86,6.86,0,0,1-4.32-.66l-1.87-1.07,0,0C306.46,70.6,306.46,69.4,306.47,68.2Z" transform="translate(-0.22 -0.22)"/><path class="cls-5" d="M314.55,84.37a6.86,6.86,0,0,1-6.22,0V79a6.86,6.86,0,0,1,4.32.65l1.87,1.08a1.9,1.9,0,0,1,0,3.61Z" transform="translate(-0.22 -0.22)"/><path class="cls-5" d="M312.66,79.68a6.86,6.86,0,0,0-4.32-.65l0-6.14a6.86,6.86,0,0,0,4.32.66Z" transform="translate(-0.22 -0.22)"/><path class="cls-4" d="M307.56,96.17l-.1,0Z" transform="translate(-0.22 -0.22)"/><path class="cls-5" d="M308.33,84.37l-1.87-1.08V79.66a5.75,5.75,0,0,1,1.87-.63Z" transform="translate(-0.22 -0.22)"/><path class="cls-4" d="M307.47,96.14l-.23,0Z" transform="translate(-0.22 -0.22)"/><path class="cls-4" d="M305,95.72a1.6,1.6,0,0,1,1.63-.16l1.14.67a.57.57,0,0,0-.18-.06l-.1,0-.23,0a2.08,2.08,0,0,0-1,.31Z" transform="translate(-0.22 -0.22)"/><path class="cls-5" d="M308.36,72.88l0,6.14a5.75,5.75,0,0,0-1.87.63l0-7.85Z" transform="translate(-0.22 -0.22)"/><path class="cls-8" d="M306.47,68.2c0,1.2,0,2.39,0,3.59h0c0-1.2,0-2.39,0-3.59Z" transform="translate(-0.22 -0.22)"/><path class="cls-8" d="M306.46,68.2c0,1.2,0,2.39,0,3.59a2.2,2.2,0,0,1-1.27-1.8,1.55,1.55,0,0,1,.08-.48,1.91,1.91,0,0,1,.42-.69,1.73,1.73,0,0,1,.22-.22A3.44,3.44,0,0,1,306.46,68.2Z" transform="translate(-0.22 -0.22)"/><path class="cls-5" d="M305.15,81.46a2.2,2.2,0,0,1,1.28-1.79l0,0v3.63A2.21,2.21,0,0,1,305.15,81.46Z" transform="translate(-0.22 -0.22)"/><path class="cls-5" d="M304.43,90.65l0-9.19h.69a2.21,2.21,0,0,0,1.3,1.82l1.87,1.08a6.86,6.86,0,0,0,6.22,0l.18.3Z" transform="translate(-0.22 -0.22)"/><path class="cls-5" d="M306.46,71.79c0,2.62,0,5.25,0,7.88,0-2.62,0-5.25,0-7.88Z" transform="translate(-0.22 -0.22)"/><polygon class="cls-4" points="305.99 96.21 258.13 123.85 256.89 123.13 304.75 95.5 305.99 96.21"/><path class="cls-8" d="M305.91,68.6a1.73,1.73,0,0,0-.22.22A1.3,1.3,0,0,1,305.91,68.6Z" transform="translate(-0.22 -0.22)"/><path class="cls-4" d="M323.11,91.25l-15.39,8.94a4.76,4.76,0,0,0,.79-2.45,1.56,1.56,0,0,0-.77-1.51l-1.14-.67a1.6,1.6,0,0,0-1.63.16l-47.86,27.63-.5-.86,66.53-38.66Z" transform="translate(-0.22 -0.22)"/><path class="cls-8" d="M305.69,68.82a1.91,1.91,0,0,0-.42.69A1.84,1.84,0,0,1,305.69,68.82Z" transform="translate(-0.22 -0.22)"/><path class="cls-5" d="M305.15,81.46q0-5.73,0-11.48a2.2,2.2,0,0,0,1.27,1.8c0,2.62,0,5.25,0,7.88,0-2.62,0-5.25,0-7.88l0,0,0,7.85,0,0A2.2,2.2,0,0,0,305.15,81.46Z" transform="translate(-0.22 -0.22)"/><polygon class="cls-4" points="304.21 91.47 138.14 187.98 138.14 186.93 304.21 90.43 304.21 91.47"/><path class="cls-5" d="M304.47,80.22l-6.91-4a5.76,5.76,0,0,0,1.8-.63,2.17,2.17,0,0,0,1.28-1.8v0q0-5.73,0-11.46a1.62,1.62,0,0,0-.3-.92l10.77,6.21a6.91,6.91,0,0,0-4.67.58h0a3.44,3.44,0,0,0-.55.4,1.3,1.3,0,0,0-.22.22,1.84,1.84,0,0,0-.42.69,1.55,1.55,0,0,0-.08.48q0,5.74,0,11.48h-.69Z" transform="translate(-0.22 -0.22)"/><path class="cls-5" d="M299.34,72l0-7.85,0,0a3.1,3.1,0,0,0,.77-.62,1.5,1.5,0,0,0,.18-.23,1.64,1.64,0,0,0,.32-1q0,5.73,0,11.46A2.19,2.19,0,0,0,299.34,72Z" transform="translate(-0.22 -0.22)"/><path class="cls-6" d="M299.37,64.14c0-1.1,0-2.21,0-3.31l1,.58a1.62,1.62,0,0,1,.3.92,1.64,1.64,0,0,1-.32,1,2.33,2.33,0,0,1-.18.23,3.1,3.1,0,0,1-.77.62Z" transform="translate(-0.22 -0.22)"/><path class="cls-5" d="M293.15,73.68l0-5.26L299.34,72a2.19,2.19,0,0,1,1.29,1.8v0a2.17,2.17,0,0,1-1.28,1.8,5.76,5.76,0,0,1-1.8.63Z" transform="translate(-0.22 -0.22)"/><path class="cls-6" d="M300.17,63.5a2.33,2.33,0,0,0,.18-.23A1.5,1.5,0,0,1,300.17,63.5Z" transform="translate(-0.22 -0.22)"/><path class="cls-6" d="M299.38,60.83v-.32a2.78,2.78,0,0,1,1,.9Z" transform="translate(-0.22 -0.22)"/><path class="cls-6" d="M299.38,60.83,231.12,21.42v-.32l68.26,39.41Z" transform="translate(-0.22 -0.22)"/><path class="cls-1" d="M293.15,73.68l4.41,2.55a6.8,6.8,0,0,1-4.42-.63Z" transform="translate(-0.22 -0.22)"/><path class="cls-5" d="M293.18,64.12a6.89,6.89,0,0,0,6.2,0l0,7.85-6.18-3.57Z" transform="translate(-0.22 -0.22)"/><path class="cls-4" d="M258.37,129.33a1.9,1.9,0,0,1-1.28.29l50.64-29.43a4.51,4.51,0,0,1-1.49,1.5Z" transform="translate(-0.22 -0.22)"/><path class="cls-4" d="M256.07,128a5,5,0,0,1,2.28-3.94l47.86-27.64a2.08,2.08,0,0,1,1-.31l.23,0,.1,0a.57.57,0,0,1,.18.06,1.56,1.56,0,0,1,.77,1.51,4.76,4.76,0,0,1-.79,2.45l-50.64,29.43a1.12,1.12,0,0,1-.4-.17,1.41,1.41,0,0,1-.27-.25,1.32,1.32,0,0,1-.13-.22,1.22,1.22,0,0,1-.11-.25s0,0,0,0a2.83,2.83,0,0,1-.07-.32A2.52,2.52,0,0,1,256.07,128Z" transform="translate(-0.22 -0.22)"/><path class="cls-4" d="M254.83,127.3a5,5,0,0,1,2.28-3.94l1.24.72a5,5,0,0,0-2.28,3.94,2.43,2.43,0,0,0,0,.37,1.67,1.67,0,0,0,.07.32s0,0,0,0a1,1,0,0,0,.11.25,1.32,1.32,0,0,0,.13.22,1.41,1.41,0,0,0,.27.25l-1.19-.69A1.59,1.59,0,0,1,254.83,127.3Z" transform="translate(-0.22 -0.22)"/><path class="cls-4" d="M256.29,129a1.32,1.32,0,0,0,.13.22A1.32,1.32,0,0,1,256.29,129Z" transform="translate(-0.22 -0.22)"/><path class="cls-4" d="M256.18,128.74a1.22,1.22,0,0,0,.11.25A1,1,0,0,1,256.18,128.74Z" transform="translate(-0.22 -0.22)"/><path class="cls-4" d="M256.1,128.39a2.83,2.83,0,0,0,.07.32A1.67,1.67,0,0,1,256.1,128.39Z" transform="translate(-0.22 -0.22)"/><path class="cls-4" d="M256.07,128a2.52,2.52,0,0,0,0,.37A2.43,2.43,0,0,1,256.07,128Z" transform="translate(-0.22 -0.22)"/><polygon class="cls-5" points="292.94 68.19 230.87 32.36 230.88 28.07 292.95 63.9 292.94 68.19"/><path class="cls-6" d="M229.57,20.52a5.24,5.24,0,0,1,1.55.58v.32Z" transform="translate(-0.22 -0.22)"/><path class="cls-6" d="M293.18,64.12,231.1,28.29l0-6.86,68.26,39.41c0,1.1,0,2.21,0,3.31A6.89,6.89,0,0,1,293.18,64.12Z" transform="translate(-0.22 -0.22)"/><path class="cls-5" d="M225.45,6.69c.33.17.65.33,1,.52C226.1,7,225.78,6.85,225.45,6.69Z" transform="translate(-0.22 -0.22)"/><path class="cls-6" d="M231.1,28.29l-6.19-3.57,0,0c0-.58,0-1.16,0-1.74V21.11a6.91,6.91,0,0,1,4.67-.58l1.55.9Z" transform="translate(-0.22 -0.22)"/><path class="cls-5" d="M231.09,32.58a6.85,6.85,0,0,0-6.2,0l0-7.86,6.19,3.57Z" transform="translate(-0.22 -0.22)"/><path class="cls-5" d="M293.15,73.68,224.89,34.27v-1.7a6.85,6.85,0,0,1,6.2,0l62.08,35.83Z" transform="translate(-0.22 -0.22)"/><path class="cls-5" d="M225.09,6.52l.32.16A1.77,1.77,0,0,0,225.09,6.52Z" transform="translate(-0.22 -0.22)"/><path class="cls-5" d="M225.09,6.52l-.18-.09Z" transform="translate(-0.22 -0.22)"/><polygon class="cls-1" points="224.66 35.97 224.66 34.05 292.93 73.46 292.92 75.37 224.66 35.97"/><path class="cls-5" d="M224.23,6.12c.23.1.46.19.69.31Z" transform="translate(-0.22 -0.22)"/><path class="cls-5" d="M224.91,24.71l0,7.86h0q0-2.88,0-5.74V24.7Z" transform="translate(-0.22 -0.22)"/><path class="cls-6" d="M223.62,22.9a1.62,1.62,0,0,1,.18-.72,2.64,2.64,0,0,1,1.1-1.07V23c0,.58,0,1.16,0,1.74a3.24,3.24,0,0,1-.54-.39,2.7,2.7,0,0,1-.23-.22A1.78,1.78,0,0,1,223.62,22.9Z" transform="translate(-0.22 -0.22)"/><path class="cls-1" d="M223.58,34.36a1.5,1.5,0,0,1,.2-.73l1.1.64v1.92a2.2,2.2,0,0,1-1.29-1.81Z" transform="translate(-0.22 -0.22)"/><path class="cls-5" d="M224.89,32.57v1.7l-1.1-.64a2.76,2.76,0,0,1,1.08-1Z" transform="translate(-0.22 -0.22)"/><path class="cls-5" d="M224.87,32.58a2.76,2.76,0,0,0-1.08,1l-.2-.11,0-10.51a1.78,1.78,0,0,0,.5,1.07,1.84,1.84,0,0,0,.23.22,3.24,3.24,0,0,0,.54.39v2.15Q224.87,29.71,224.87,32.58Z" transform="translate(-0.22 -0.22)"/><path class="cls-6" d="M224.12,24.09a2.7,2.7,0,0,0,.23.22A1.84,1.84,0,0,1,224.12,24.09Z" transform="translate(-0.22 -0.22)"/><path class="cls-5" d="M224,6l.15.06Z" transform="translate(-0.22 -0.22)"/><path class="cls-5" d="M223.32,5.74,224,6,223.83,6Z" transform="translate(-0.22 -0.22)"/><path class="cls-5" d="M223.83,6c-.32-.14-.64-.26-1-.39l.47.17Z" transform="translate(-0.22 -0.22)"/><path class="cls-1" d="M223.58,33.52l.2.11a1.5,1.5,0,0,0-.2.73Z" transform="translate(-0.22 -0.22)"/><path class="cls-6" d="M223.62,22.9a1.78,1.78,0,0,0,.5,1.19,1.78,1.78,0,0,1-.5-1.07Z" transform="translate(-0.22 -0.22)"/><path class="cls-6" d="M223.8,22.18a1.62,1.62,0,0,0-.18.72V23A1.5,1.5,0,0,1,223.8,22.18Z" transform="translate(-0.22 -0.22)"/><path class="cls-5" d="M223.58,33.52,198,18.75c4.66-2.63,10.89-3.74,16.83-3.32a27.38,27.38,0,0,1,11.55,3.26l3.19,1.84a6.91,6.91,0,0,0-4.67.58,2.64,2.64,0,0,0-1.1,1.07,1.5,1.5,0,0,0-.18.84Z" transform="translate(-0.22 -0.22)"/><path class="cls-5" d="M222.48,5.44l.36.13h0Z" transform="translate(-0.22 -0.22)"/><path class="cls-5" d="M222.48,5.44l.35.13c-.4-.14-.8-.28-1.21-.4Z" transform="translate(-0.22 -0.22)"/><path class="cls-5" d="M221.55,5.15c-.44-.13-.88-.26-1.34-.36C220.66,4.9,221.11,5,221.55,5.15Z" transform="translate(-0.22 -0.22)"/><path class="cls-5" d="M220.21,4.79c-.4-.1-.79-.19-1.2-.27C219.42,4.6,219.82,4.68,220.21,4.79Z" transform="translate(-0.22 -0.22)"/><path class="cls-5" d="M218.66,4.45c-.4-.08-.8-.14-1.21-.2C217.86,4.3,218.26,4.37,218.66,4.45Z" transform="translate(-0.22 -0.22)"/><path class="cls-5" d="M215.85,13.54c.15-1.41.16-3.93.18-9.48l.16,0c.42,0,.84.11,1.27.17s.8.12,1.21.2l.36.07c.4.08.8.18,1.2.27s.9.23,1.34.36l.07,0c.41.12.82.26,1.21.4h0c.33.12.66.25,1,.39L224,6l.15.06.11,0,.69.31.18.09a1.77,1.77,0,0,1,.32.16l0,0c.33.16.65.33,1,.52l0,11.48a27.38,27.38,0,0,0-11.55-3.26,3.12,3.12,0,0,0,.3-.18,1,1,0,0,0,.16-.12l.09-.08a.8.8,0,0,0,.11-.14v0a2.15,2.15,0,0,0,.25-.69c0-.05,0-.12,0-.19S215.83,13.72,215.85,13.54Z" transform="translate(-0.22 -0.22)"/><path class="cls-5" d="M217.45,4.24c-.42-.06-.84-.12-1.27-.17C216.61,4.12,217,4.17,217.45,4.24Z" transform="translate(-0.22 -0.22)"/><path class="cls-5" d="M215.75,14.21a1.49,1.49,0,0,0,0-.19C215.78,14.08,215.76,14.15,215.75,14.21Z" transform="translate(-0.22 -0.22)"/><path class="cls-5" d="M215.38,15.05a.89.89,0,0,0,.11-.14A.8.8,0,0,1,215.38,15.05Z" transform="translate(-0.22 -0.22)"/><path class="cls-5" d="M215.14,15.25l.16-.12A1,1,0,0,1,215.14,15.25Z" transform="translate(-0.22 -0.22)"/><path class="cls-5" d="M214.29,3.92l-.62,0Z" transform="translate(-0.22 -0.22)"/><path class="cls-6" d="M211.06,3.89l-.84,0Z" transform="translate(-0.22 -0.22)"/><path class="cls-6" d="M209.43,4h0Z" transform="translate(-0.22 -0.22)"/><path class="cls-6" d="M207.74,4.17c.54-.07,1.08-.13,1.63-.18C208.83,4.05,208.28,4.1,207.74,4.17Z" transform="translate(-0.22 -0.22)"/><path class="cls-6" d="M206,4.46c.54-.11,1.08-.19,1.64-.27C207.12,4.26,206.57,4.35,206,4.46Z" transform="translate(-0.22 -0.22)"/><path class="cls-6" d="M206,4.46l-.82.17C205.49,4.56,205.76,4.5,206,4.46Z" transform="translate(-0.22 -0.22)"/><path class="cls-6" d="M205.22,4.62l-.81.18C204.67,4.74,204.95,4.68,205.22,4.62Z" transform="translate(-0.22 -0.22)"/><path class="cls-5" d="M201.74,5.6c-.22.07-.44.15-.65.24Z" transform="translate(-0.22 -0.22)"/><path class="cls-6" d="M199,6.76l-.51.26Z" transform="translate(-0.22 -0.22)"/><path class="cls-5" d="M214.84,15.43c-5.94-.42-12.18.69-16.83,3.32l-.24-.13h0l0-11.21.67-.37.51-.26c.68-.33,1.38-.64,2.12-.92.21-.09.43-.17.65-.24a26,26,0,0,1,2.67-.79l.81-.18.82-.17c.54-.11,1.08-.19,1.64-.27h.07c.54-.07,1.08-.12,1.63-.18h.06l.78-.05.84,0c.87,0,1.74,0,2.6,0l.62,0c.58,0,1.15.08,1.73.14,0,5.54,0,8.07-.18,9.48,0,.18,0,.34-.06.48a1.49,1.49,0,0,1,0,.19,2.15,2.15,0,0,1-.25.69v0a.89.89,0,0,1-.11.14l-.09.08-.16.12A3.12,3.12,0,0,1,214.84,15.43Z" transform="translate(-0.22 -0.22)"/><path class="cls-1" d="M198,18.75l-.24.13v-.26Z" transform="translate(-0.22 -0.22)"/><polygon class="cls-5" points="196.87 18 29.2 115.44 29.2 116.49 12.75 126.05 12.77 120.3 12.79 114.56 197.57 7.17 197.54 18.39 196.87 18"/><polygon class="cls-1" points="197.54 18.39 197.54 18.39 196.87 18 197.54 18.39"/><path class="cls-1" d="M304.47,80.22,136.8,177.65,39.31,121.37,197.05,29.7l0-11.48.68.4v.26l.24-.13,25.58,14.78v.85a2.2,2.2,0,0,0,1.29,1.81L293.14,75.6a6.8,6.8,0,0,0,4.42.63Z" transform="translate(-0.22 -0.22)"/><polygon class="cls-1" points="39.09 121.15 29.2 115.44 196.87 18 196.83 29.48 39.09 121.15"/><path class="cls-4" d="M329.32,91.69,138.7,202.46v-4l118.38-68.8a1.9,1.9,0,0,0,1.28-.29l47.86-27.63a4.51,4.51,0,0,0,1.49-1.5l15.39-8.94c4-2.34,6-5.39,6.05-8.41,0-.84,0-1.67,0-2.52l.18-.11Z" transform="translate(-0.22 -0.22)"/><path class="cls-4" d="M138.71,198.42l0-7.43,117.88-68.5.5.86a5,5,0,0,0-2.28,3.94,1.59,1.59,0,0,0,.67,1.47l1.19.69a1.12,1.12,0,0,0,.4.17Z" transform="translate(-0.22 -0.22)"/><path class="cls-4" d="M138.36,191.2l.38-.21,0,7.43-.38.22Z" transform="translate(-0.22 -0.22)"/><path class="cls-4" d="M138.36,191.2v-3L304.43,91.69v-1l10.3-6,8.42-4.89v4.06l-66.53,38.66L138.74,191Z" transform="translate(-0.22 -0.22)"/><path class="cls-7" d="M138.37,187.15v1l-1.6.93V188l.24-.11.35-.17C137.71,187.52,138,187.35,138.37,187.15Z" transform="translate(-0.22 -0.22)"/><path class="cls-9" d="M138.37,187.15c-.33.19-.66.37-1,.55C137.7,187.53,138,187.35,138.37,187.15Z" transform="translate(-0.22 -0.22)"/><path class="cls-5" d="M138.37,187.15c-.33.19-.67.38-1,.55l-.35.17-.24.11,0-10.33L304.47,80.22v1.25l0,9.19Z" transform="translate(-0.22 -0.22)"/><path class="cls-9" d="M136.76,188l.24-.11-.24.11Z" transform="translate(-0.22 -0.22)"/><path class="cls-7" d="M136.76,188v1.14l-1.13-.65.33-.13c.15-.06.29-.12.44-.2A3.21,3.21,0,0,0,136.76,188Z" transform="translate(-0.22 -0.22)"/><path class="cls-5" d="M136,188.35a4,4,0,0,0,.44-.2C136.25,188.23,136.11,188.29,136,188.35Z" transform="translate(-0.22 -0.22)"/><path class="cls-5" d="M134.27,189c.27-.09.55-.19.81-.3C134.82,188.82,134.55,188.91,134.27,189Z" transform="translate(-0.22 -0.22)"/><path class="cls-5" d="M133.36,189.3a4.62,4.62,0,0,0,.46-.15A4.62,4.62,0,0,1,133.36,189.3Z" transform="translate(-0.22 -0.22)"/><path class="cls-5" d="M133.36,189.3l-.62.18Z" transform="translate(-0.22 -0.22)"/><path class="cls-5" d="M131.86,189.71l.49-.12Z" transform="translate(-0.22 -0.22)"/><path class="cls-5" d="M128.2,190.4l-.33,0-.18,0Z" transform="translate(-0.22 -0.22)"/><path class="cls-5" d="M127.69,190.46c-.33,0-.64.07-1,.1Z" transform="translate(-0.22 -0.22)"/><path class="cls-5" d="M126.71,190.56l-.22,0Z" transform="translate(-0.22 -0.22)"/><path class="cls-4" d="M109.73,191.46c8.18,4.24,20.67,4.15,28.63-.26l0,7.44c-8,4.63-20.79,4.72-28.63.19Z" transform="translate(-0.22 -0.22)"/><path class="cls-4" d="M138.33,198.64l.38-.22v4c-8.22,4.78-21.6,4.78-29.87,0v-4.13l.86.49C117.54,203.35,130.37,203.27,138.33,198.64Z" transform="translate(-0.22 -0.22)"/><path class="cls-5" d="M114.53,189.38c.86.26,1.75.48,2.67.67a28.46,28.46,0,0,1-3.2-.84Z" transform="translate(-0.22 -0.22)"/><path class="cls-5" d="M114,189.2l.55.18-.54-.17Z" transform="translate(-0.22 -0.22)"/><path class="cls-5" d="M114,189.2l-.29-.1Z" transform="translate(-0.22 -0.22)"/><path class="cls-7" d="M138.37,188.2v3c-8,4.41-20.44,4.5-28.63.26v-4.11a22,22,0,0,0,3.94,1.76l.29.1h0a28.46,28.46,0,0,0,3.2.84,33.45,33.45,0,0,0,7.82.61c.26,0,.54,0,.81,0l.67,0,.22,0h0c.33,0,.64-.05,1-.1h0l.18,0,.33,0h0c.32,0,.62-.08.92-.13l.2,0c.4-.06.81-.14,1.21-.23l.27-.06c.34-.06.68-.14,1-.23l.49-.12.38-.11.62-.18a4.62,4.62,0,0,0,.46-.15l.46-.15c.27-.09.55-.18.81-.3a4.84,4.84,0,0,0,.55-.22l1.13.65Z" transform="translate(-0.22 -0.22)"/><path class="cls-4" d="M108.87,191c.28.16.56.32.86.47l0,7.37-.86-.49Z" transform="translate(-0.22 -0.22)"/><path class="cls-5" d="M133.82,189.15a4.62,4.62,0,0,1-.46.15l-.62.18-.38.11-.49.12c-.33.09-.67.17-1,.23l-.27.06c-.4.09-.81.16-1.21.23l-.2,0-.92.13h0l-.5.06h0l-1,.1h0l-.22,0-.67,0-.81,0a33.45,33.45,0,0,1-7.82-.61c-.92-.18-1.8-.4-2.67-.67l-.55-.18-.29-.1a22,22,0,0,1-3.94-1.76l-22.58-13a9.13,9.13,0,0,0,1.81-.8c1.7-1,2.55-2.29,2.55-3.58v0q0-3.45,0-6.89l44.1,25.46a4.84,4.84,0,0,1-.55.22c-.26.11-.54.21-.81.3Z" transform="translate(-0.22 -0.22)"/><path class="cls-7" d="M87.16,174.31l22.58,13v4.11c-.3-.15-.58-.31-.86-.47L81,174.89A14.23,14.23,0,0,0,87.16,174.31Z" transform="translate(-0.22 -0.22)"/><path class="cls-5" d="M91.56,158.4a1.62,1.62,0,0,0,0-.29A1.62,1.62,0,0,1,91.56,158.4Z" transform="translate(-0.22 -0.22)"/><path class="cls-5" d="M91.56,158.46c0,1.52,0,3,0,4.57C91.55,161.41,91.55,159.85,91.56,158.46Z" transform="translate(-0.22 -0.22)"/><path class="cls-5" d="M91.51,159a2.69,2.69,0,0,0,.05-.53c0,1.39,0,3,0,4.57l-2.14-1.24c.17-.11.32-.22.47-.33a4.45,4.45,0,0,0,.48-.41s0,0,0,0l.21-.21a4.08,4.08,0,0,0,.7-1l.06-.12h0a2.35,2.35,0,0,0,.08-.23A2.49,2.49,0,0,0,91.51,159Z" transform="translate(-0.22 -0.22)"/><path class="cls-4" d="M91.39,159.42a2.7,2.7,0,0,0,.11-.44A2.49,2.49,0,0,1,91.39,159.42Z" transform="translate(-0.22 -0.22)"/><path class="cls-5" d="M91.47,157.71v0Z" transform="translate(-0.22 -0.22)"/><path class="cls-5" d="M91.47,157.71h0a2.12,2.12,0,0,0-.07-.22.86.86,0,0,0,0-.14A3,3,0,0,1,91.47,157.71Z" transform="translate(-0.22 -0.22)"/><path class="cls-4" d="M91.35,157.34a.86.86,0,0,1,0,.14,1.1,1.1,0,0,0-.08-.22A.31.31,0,0,1,91.35,157.34Z" transform="translate(-0.22 -0.22)"/><path class="cls-4" d="M91.31,159.65h0Z" transform="translate(-0.22 -0.22)"/><path class="cls-4" d="M91.31,159.66l-.06.12.05-.12Z" transform="translate(-0.22 -0.22)"/><path class="cls-5" d="M91.2,157l.11.24,0,0Z" transform="translate(-0.22 -0.22)"/><path class="cls-4" d="M91.2,157l.08.19a3.23,3.23,0,0,0-.22-.42c.05.07.09.15.13.22Z" transform="translate(-0.22 -0.22)"/><path class="cls-5" d="M91.19,157c0-.07-.08-.15-.13-.22a.53.53,0,0,0-.08-.13A3.72,3.72,0,0,1,91.19,157Z" transform="translate(-0.22 -0.22)"/><path class="cls-4" d="M90.74,156.29l.09.12a1.18,1.18,0,0,0-.1-.12Z" transform="translate(-0.22 -0.22)"/><polygon class="cls-5" points="90.51 156.06 90.52 156.07 90.51 156.07 90.51 156.06"/><path class="cls-5" d="M90.66,156.2l-.23-.26A3,3,0,0,1,90.66,156.2Z" transform="translate(-0.22 -0.22)"/><path class="cls-5" d="M91.54,163q0,3.45,0,6.89c0-1.3-.87-2.61-2.6-3.61v-4.24a.13.13,0,0,0,.06,0,4.54,4.54,0,0,0,.4-.26Z" transform="translate(-0.22 -0.22)"/><path class="cls-4" d="M90.56,160.81l-.21.21Z" transform="translate(-0.22 -0.22)"/><path class="cls-5" d="M90.43,155.95l-.11-.11Z" transform="translate(-0.22 -0.22)"/><path class="cls-4" d="M90.34,161s0,0,0,0l-.23.2Z" transform="translate(-0.22 -0.22)"/><path class="cls-4" d="M90.12,161.24l.23-.2a4.45,4.45,0,0,1-.48.41Z" transform="translate(-0.22 -0.22)"/><path class="cls-4" d="M90.09,155.62l-.25-.2-.13-.11C89.84,155.42,90,155.52,90.09,155.62Z" transform="translate(-0.22 -0.22)"/><path class="cls-4" d="M91.56,158.43v0a3.19,3.19,0,0,1-.17,1,2.35,2.35,0,0,1-.08.23h0l-.05.12a4.08,4.08,0,0,1-.7,1l-.21.21-.23.21-.25.21c-.15.11-.3.23-.47.33h0l-.45-.26,0-6.69a6.56,6.56,0,0,1,.61.39l.27.2.25.2.24.22.11.11.23.26.07.08h0a1.18,1.18,0,0,1,.1.12l.15.21a.53.53,0,0,1,.08.13,3.23,3.23,0,0,1,.22.42l0,0v0a1.1,1.1,0,0,1,.08.22,2.12,2.12,0,0,1,.07.22v0a3.2,3.2,0,0,1,.06.39,1.62,1.62,0,0,1,0,.29Z" transform="translate(-0.22 -0.22)"/><path class="cls-4" d="M89.84,155.42l-.27-.2.14.1Z" transform="translate(-0.22 -0.22)"/><path class="cls-5" d="M89.71,155.31l-.14-.1-.29-.2Z" transform="translate(-0.22 -0.22)"/><path class="cls-4" d="M89.28,155l.29.2a6.56,6.56,0,0,0-.61-.39Z" transform="translate(-0.22 -0.22)"/><path class="cls-4" d="M89.39,161.78h0a4.54,4.54,0,0,1-.4.26A4.37,4.37,0,0,0,89.39,161.78Z" transform="translate(-0.22 -0.22)"/><path class="cls-5" d="M89.28,155l-.32-.18h0Z" transform="translate(-0.22 -0.22)"/><path class="cls-4" d="M88.94,161.52l.45.26a4.37,4.37,0,0,1-.4.26.13.13,0,0,1-.06,0Z" transform="translate(-0.22 -0.22)"/><polygon class="cls-5" points="88.74 154.61 68.76 143.07 88.74 154.6 88.74 154.61"/><polygon class="cls-4" points="88.74 154.61 88.72 161.3 68.75 149.77 68.76 143.07 88.74 154.61"/><path class="cls-5" d="M88.94,162.06v4.24L84,163.46A11.7,11.7,0,0,0,88.94,162.06Z" transform="translate(-0.22 -0.22)"/><path class="cls-4" d="M69,154.77,69,150l20,11.53v.55a11.7,11.7,0,0,1-4.93,1.4Z" transform="translate(-0.22 -0.22)"/><path class="cls-7" d="M81,174.89l-4.45-2.58v-4.14l10.62,6.13A14.23,14.23,0,0,1,81,174.89Z" transform="translate(-0.22 -0.22)"/><path class="cls-4" d="M76.53,173.51v-1.2L81,174.89A11.65,11.65,0,0,1,76.53,173.51Z" transform="translate(-0.22 -0.22)"/><path class="cls-5" d="M76.55,162A13.11,13.11,0,0,0,84,163.46l4.92,2.84c1.72,1,2.6,2.31,2.6,3.61v0c0,1.29-.85,2.6-2.55,3.58a9.13,9.13,0,0,1-1.81.8l-10.62-6.13Z" transform="translate(-0.22 -0.22)"/><path class="cls-4" d="M76.55,162,61.5,153.34A13.12,13.12,0,0,1,69,154.77L84,163.46A13.11,13.11,0,0,1,76.55,162Z" transform="translate(-0.22 -0.22)"/><path class="cls-4" d="M61.07,141.9a14.72,14.72,0,0,1,4.17.11.08.08,0,0,1,.06,0,7.36,7.36,0,0,1,.77.15c.27.06.53.13.78.21s.43.14.64.22a4.28,4.28,0,0,1,.47.18,4.81,4.81,0,0,1,.53.24,5.45,5.45,0,0,1,.5.26l0,6.7-12-6.93a2.09,2.09,0,0,1,.45-.21,3.29,3.29,0,0,1,.45-.19l.11,0c.22-.09.45-.16.68-.23s.48-.14.73-.19l.08,0A13.66,13.66,0,0,1,61.07,141.9Z" transform="translate(-0.22 -0.22)"/><path class="cls-4" d="M69,150l0,4.78a13.12,13.12,0,0,0-7.45-1.43l-4.91-2.84h0l-.31-.19-.18-.11-.11-.08-.07-.05a3,3,0,0,1-.32-.25.94.94,0,0,1-.14-.12h0l-.22-.2-.09-.09-.17-.18a4,4,0,0,1-.61-.86h0c0-.08-.08-.16-.11-.24s-.06-.17-.09-.25a2.29,2.29,0,0,1-.12-.47,3.11,3.11,0,0,1,0-.49,2.8,2.8,0,0,1,.05-.55,3.92,3.92,0,0,1,.19-.68,3.87,3.87,0,0,1,.65-1,3.61,3.61,0,0,1,.31-.34l.23-.21.25-.2h0l.26-.2c.18-.13.39-.26.6-.39l.44-.23Z" transform="translate(-0.22 -0.22)"/><path class="cls-5" d="M68.48,143a4.81,4.81,0,0,0-.53-.24A4.81,4.81,0,0,1,68.48,143Z" transform="translate(-0.22 -0.22)"/><path class="cls-5" d="M68,142.79a4.28,4.28,0,0,0-.47-.18A4.28,4.28,0,0,1,68,142.79Z" transform="translate(-0.22 -0.22)"/><path class="cls-4" d="M66.85,142.39c-.26-.08-.51-.15-.78-.21C66.33,142.24,66.59,142.31,66.85,142.39Z" transform="translate(-0.22 -0.22)"/><path class="cls-5" d="M76.54,168.18l-20-11.54v-1.91a11.74,11.74,0,0,1,4.92-1.39L76.55,162Z" transform="translate(-0.22 -0.22)"/><path class="cls-4" d="M66.06,142.18a7.36,7.36,0,0,0-.77-.15C65.55,142.06,65.81,142.11,66.06,142.18Z" transform="translate(-0.22 -0.22)"/><path class="cls-4" d="M64.44,141.89c.27,0,.54.07.8.12a14.72,14.72,0,0,0-4.17-.11c.27,0,.55-.06.84-.08l.84,0A15.54,15.54,0,0,1,64.44,141.89Z" transform="translate(-0.22 -0.22)"/><polygon class="cls-7" points="76.31 172.09 56.33 160.57 56.35 156.42 76.31 167.96 76.31 172.09"/><polygon class="cls-4" points="76.31 173.29 56.33 161.75 56.33 160.57 76.31 172.09 76.31 173.29"/><polygon class="cls-4" points="56.36 150.28 61.27 153.12 56.36 150.29 56.36 150.28"/><path class="cls-5" d="M56.59,150.51l4.91,2.83a11.74,11.74,0,0,0-4.92,1.39Z" transform="translate(-0.22 -0.22)"/><path class="cls-4" d="M61.07,141.9a13.66,13.66,0,0,0-1.59.26A11.57,11.57,0,0,1,61.07,141.9Z" transform="translate(-0.22 -0.22)"/><path class="cls-4" d="M59.39,142.19c-.25.05-.49.12-.73.19A6.86,6.86,0,0,1,59.39,142.19Z" transform="translate(-0.22 -0.22)"/><path class="cls-4" d="M58.66,142.39c-.23.07-.46.14-.68.23A6.13,6.13,0,0,1,58.66,142.39Z" transform="translate(-0.22 -0.22)"/><path class="cls-4" d="M57.87,142.66a3.29,3.29,0,0,0-.45.19A3.29,3.29,0,0,1,57.87,142.66Z" transform="translate(-0.22 -0.22)"/><path class="cls-7" d="M56.57,156.64l0,4.14-2.41-1.4a2.9,2.9,0,0,1-.19-1,3.63,3.63,0,0,1,1.18-2.53Z" transform="translate(-0.22 -0.22)"/><path class="cls-4" d="M56.55,160.79V162a5.07,5.07,0,0,1-2.41-2.59Z" transform="translate(-0.22 -0.22)"/><path class="cls-4" d="M56.27,150.31l-.18-.11Z" transform="translate(-0.22 -0.22)"/><path class="cls-5" d="M55.91,150.06l.07.05Z" transform="translate(-0.22 -0.22)"/><path class="cls-5" d="M56.57,156.64l-1.44-.83a6.25,6.25,0,0,1,1.38-1l.07,0Z" transform="translate(-0.22 -0.22)"/><path class="cls-4" d="M55.94,143.68l-.26.2h0Z" transform="translate(-0.22 -0.22)"/><path class="cls-4" d="M55.45,149.69a.94.94,0,0,0,.14.12A.62.62,0,0,1,55.45,149.69Z" transform="translate(-0.22 -0.22)"/><path class="cls-4" d="M55.66,143.88l-.25.2Z" transform="translate(-0.22 -0.22)"/><path class="cls-5" d="M56.51,154.77a6.25,6.25,0,0,0-1.38,1L54,155.14c0-2.75,0-5.49,0-8.25a3.11,3.11,0,0,0,0,.49,2.29,2.29,0,0,0,.12.47,1.38,1.38,0,0,0,.09.25c0,.08.07.16.11.24h0a4,4,0,0,0,.61.86,1.59,1.59,0,0,0,.17.18l.09.09a2.5,2.5,0,0,0,.22.2h0a.62.62,0,0,0,.14.12,3,3,0,0,0,.32.25l.07.05.11.08.18.11.31.19h0v4.22Z" transform="translate(-0.22 -0.22)"/><path class="cls-4" d="M55.21,149.48l.22.2A2.5,2.5,0,0,1,55.21,149.48Z" transform="translate(-0.22 -0.22)"/><path class="cls-5" d="M55,149.21l.17.18A1.59,1.59,0,0,1,55,149.21Z" transform="translate(-0.22 -0.22)"/><path class="cls-6" d="M54,155.14l1.17.68a3.63,3.63,0,0,0-1.18,2.53C54,157.28,54,156.21,54,155.14Z" transform="translate(-0.22 -0.22)"/><path class="cls-4" d="M55.19,144.3a3.61,3.61,0,0,0-.31.34A3.61,3.61,0,0,1,55.19,144.3Z" transform="translate(-0.22 -0.22)"/><path class="cls-4" d="M54.24,148.1c0,.08.07.16.11.24C54.31,148.26,54.27,148.18,54.24,148.1Z" transform="translate(-0.22 -0.22)"/><path class="cls-4" d="M54.15,147.85c0,.08.05.17.09.25A1.38,1.38,0,0,1,54.15,147.85Z" transform="translate(-0.22 -0.22)"/><path class="cls-4" d="M54.23,145.67a3.92,3.92,0,0,0-.19.68A3.12,3.12,0,0,1,54.23,145.67Z" transform="translate(-0.22 -0.22)"/><path class="cls-5" d="M39.31,121.37l97.49,56.28,0,10.33h0a3.21,3.21,0,0,1-.36.16,4,4,0,0,1-.44.2l-.33.13L91.54,163c0-1.52,0-3,0-4.57v-.05a1.62,1.62,0,0,0,0-.29,3.2,3.2,0,0,0-.06-.39v0a3,3,0,0,0-.12-.37.31.31,0,0,0,0-.08v0L91.2,157h0a3.72,3.72,0,0,0-.21-.35l-.15-.21-.09-.12h0l-.07-.08a3,3,0,0,0-.23-.26l-.11-.11-.24-.22c-.11-.11-.25-.2-.38-.31l-.43-.3-.32-.19L69,143.29a5.45,5.45,0,0,0-.5-.26,4.81,4.81,0,0,0-.53-.24,4.28,4.28,0,0,0-.47-.18c-.21-.08-.42-.16-.64-.22s-.52-.15-.78-.21-.51-.11-.77-.15a.08.08,0,0,0-.06,0c-.26-.05-.53-.09-.8-.12a15.54,15.54,0,0,0-1.69-.1l-.84,0c-.28,0-.56,0-.84.08a11.57,11.57,0,0,0-1.59.26l-.08,0a6.86,6.86,0,0,0-.73.19,6.13,6.13,0,0,0-.68.23l-.11,0a3.29,3.29,0,0,0-.45.19,2.09,2.09,0,0,0-.45.21L29.39,127.14Z" transform="translate(-0.22 -0.22)"/><polygon class="cls-5" points="29.2 116.49 29.2 115.44 39.09 121.15 29.16 126.92 29.2 116.49"/><path class="cls-5" d="M55.66,143.88l-.25.2-.23.21a3.61,3.61,0,0,0-.31.34,3.87,3.87,0,0,0-.65,1,3.12,3.12,0,0,0-.19.68,2.8,2.8,0,0,0-.05.55c0,2.75,0,5.5,0,8.25L12.77,131.36a16.31,16.31,0,0,1-1.8-1.2c-.18-.12-.33-.26-.49-.39s-.31-.26-.45-.4a5,5,0,0,1-.49-.48A15.15,15.15,0,0,1,13,126.27l16.45-9.56,0,10.43L57,143.06l-.44.23c-.21.12-.41.26-.6.39l-.26.19Z" transform="translate(-0.22 -0.22)"/><path class="cls-4" d="M56.55,162l20,11.54A11.65,11.65,0,0,0,81,174.89L108.87,191l0,7.35-96.1-55.49,0-7.35,41.38,23.89A5.07,5.07,0,0,0,56.55,162Z" transform="translate(-0.22 -0.22)"/><path class="cls-7" d="M54.14,159.39,12.76,135.5v-4.14L54,155.14c0,1.07,0,2.14,0,3.2A2.9,2.9,0,0,0,54.14,159.39Z" transform="translate(-0.22 -0.22)"/><path class="cls-5" d="M13,114.78l0,5.74C13,118.51,13,116.51,13,114.78Z" transform="translate(-0.22 -0.22)"/><path class="cls-5" d="M13,114.78c0,1.72,0,3.73,0,5.74l0,5.75a15.15,15.15,0,0,0-3.43,2.64h0l-.1-.11-.29-.32c-.13-.15-.26-.3-.38-.45a6.71,6.71,0,0,1-.43-.59c-.1-.13-.18-.27-.26-.4a6.8,6.8,0,0,1-.33-.61L7.55,126l-.07-.18a1.07,1.07,0,0,1-.06-.15s0-.07,0-.1-.09-.26-.12-.38h0c0-.11-.07-.23-.1-.33s0-.21-.06-.31,0-.22-.06-.33,0,0,0-.06a6.31,6.31,0,0,1-.07-.92v-.14a4.5,4.5,0,0,1,0-.49c0-.18,0-.36.07-.55v0c0-.11,0-.2.06-.31l.05-.25,0-.07c0-.1.05-.19.09-.3l.06-.19,0-.07a3.92,3.92,0,0,1,.19-.5l0-.06c.07-.17.15-.33.23-.49l0,0a1.42,1.42,0,0,1,.09-.16,6.81,6.81,0,0,1,.49-.78.53.53,0,0,1,.05-.1l0,0A7.42,7.42,0,0,1,9,118l.3-.34,0,0c.18-.19.37-.39.57-.57a9.63,9.63,0,0,1,.77-.69l.06,0,.2-.17,0,0,.63-.48.17-.11.62-.41Z" transform="translate(-0.22 -0.22)"/><path class="cls-7" d="M11,130.16a16.31,16.31,0,0,0,1.8,1.2v4.14l-5.44-3.13a9.62,9.62,0,0,1,2.21-3.46h0a5,5,0,0,0,.49.48,4.81,4.81,0,0,0,.45.4Z" transform="translate(-0.22 -0.22)"/><path class="cls-5" d="M11.78,115.56c.2-.14.4-.28.62-.41Z" transform="translate(-0.22 -0.22)"/><path class="cls-5" d="M11,116.15l0,0h0Z" transform="translate(-0.22 -0.22)"/><path class="cls-6" d="M11,116.16h0l-.2.17Z" transform="translate(-0.22 -0.22)"/><path class="cls-5" d="M10.39,116.64l.31-.26a9.63,9.63,0,0,0-.77.69Z" transform="translate(-0.22 -0.22)"/><path class="cls-6" d="M9.15,128.48l.29.32-.21-.22Z" transform="translate(-0.22 -0.22)"/><path class="cls-5" d="M9.34,117.67,9,118l.28-.33Z" transform="translate(-0.22 -0.22)"/><path class="cls-6" d="M9.15,128.48l.08.1-.43-.5Z" transform="translate(-0.22 -0.22)"/><path class="cls-6" d="M8.77,128c.11.15.25.3.38.45l-.35-.4Z" transform="translate(-0.22 -0.22)"/><path class="cls-5" d="M8.15,119.23c.09-.13.17-.26.27-.4a6.81,6.81,0,0,0-.49.78Z" transform="translate(-0.22 -0.22)"/><path class="cls-5" d="M8.07,127c.08.13.17.27.26.4C8.24,127.31,8.15,127.17,8.07,127Z" transform="translate(-0.22 -0.22)"/><path class="cls-4" d="M12.74,142.84c-3.88-2.24-5.82-5.2-5.81-8.18h0a7,7,0,0,1,.4-2.3l5.44,3.13Z" transform="translate(-0.22 -0.22)"/><path class="cls-6" d="M7.84,119.77l0,0Z" transform="translate(-0.22 -0.22)"/><path class="cls-5" d="M7.55,126l.19.41A4.36,4.36,0,0,1,7.55,126Z" transform="translate(-0.22 -0.22)"/><path class="cls-5" d="M7.59,120.31l0,.06A.1.1,0,0,1,7.59,120.31Z" transform="translate(-0.22 -0.22)"/><path class="cls-7" d="M6.94,132.14l0-8.88a6.41,6.41,0,0,0,.07.92s0,0,0,.06,0,.22.06.33,0,.2.06.31.06.22.1.33h0c0,.12.08.26.12.38s0,.06,0,.1,0,.1.06.15l.07.18a4.36,4.36,0,0,0,.19.41,6.8,6.8,0,0,0,.33.61c.08.13.17.27.26.4a6.71,6.71,0,0,0,.43.59l0,0,.43.5.21.22.1.11a9.62,9.62,0,0,0-2.21,3.46Z" transform="translate(-0.22 -0.22)"/><path class="cls-5" d="M7.48,125.84c0-.05,0-.11-.06-.15A1.07,1.07,0,0,0,7.48,125.84Z" transform="translate(-0.22 -0.22)"/><path class="cls-6" d="M7.39,125.6c0-.12-.09-.26-.12-.38C7.3,125.34,7.34,125.47,7.39,125.6Z" transform="translate(-0.22 -0.22)"/><path class="cls-6" d="M7.37,120.87l0,.07Z" transform="translate(-0.22 -0.22)"/><path class="cls-4" d="M6.94,132.14l.39.23a7,7,0,0,0-.4,2.3C6.93,133.82,6.93,133,6.94,132.14Z" transform="translate(-0.22 -0.22)"/><path class="cls-5" d="M7.28,121.14c0,.11-.06.2-.09.3C7.22,121.34,7.25,121.23,7.28,121.14Z" transform="translate(-0.22 -0.22)"/><path class="cls-6" d="M7.17,124.88c0,.11.06.22.1.33C7.23,125.1,7.19,125,7.17,124.88Z" transform="translate(-0.22 -0.22)"/><path class="cls-6" d="M7.18,121.5l-.05.25A2.46,2.46,0,0,1,7.18,121.5Z" transform="translate(-0.22 -0.22)"/><path class="cls-5" d="M7.12,121.75c0,.11,0,.2-.06.31s0,0,0-.07Z" transform="translate(-0.22 -0.22)"/><path class="cls-6" d="M7,124.23c0,.11,0,.22.06.33C7.08,124.45,7.06,124.35,7,124.23Z" transform="translate(-0.22 -0.22)"/><path class="cls-5" d="M7.06,122.08c0,.18-.05.36-.07.55A3.7,3.7,0,0,1,7.06,122.08Z" transform="translate(-0.22 -0.22)"/><path class="cls-5" d="M7,123.26a6.31,6.31,0,0,0,.07.92A6.41,6.41,0,0,1,7,123.26Z" transform="translate(-0.22 -0.22)"/><path class="cls-7" d="M6.49,131.88a16.18,16.18,0,0,1-3.28-2.45,11.63,11.63,0,0,1-1.39-1.62,8.3,8.3,0,0,1-1.46-3.45c-.58-3.49,1.43-7.11,6-9.79L197,3.8C205.23-1,218.6-1,226.88,3.8L329.26,62.91c4.16,2.4,6.24,5.56,6.23,8.71a7,7,0,0,1-.12,1.28,5.83,5.83,0,0,1-.18.77,1.42,1.42,0,0,1-.08.26,3.73,3.73,0,0,1-.16.44c-.1.24-.2.48-.33.71a10,10,0,0,1-1.06,1.65h0a11.82,11.82,0,0,1-1,1.06,16.19,16.19,0,0,1-3.23,2.42l-.18.11q0-4.44,0-8.88c0-.09,0-.18,0-.28s0-.19,0-.28a.27.27,0,0,0,0-.09,2.16,2.16,0,0,0,0-.33.36.36,0,0,0,0-.1l0-.16a.5.5,0,0,0,0-.16,1.8,1.8,0,0,0,0-.21.92.92,0,0,0,0-.15.13.13,0,0,0,0-.06c0-.14-.07-.27-.11-.41s-.1-.27-.15-.41,0-.11-.06-.17l0,0a2.25,2.25,0,0,0-.1-.21c0-.11-.1-.21-.15-.32h0l-.08-.16a1.6,1.6,0,0,0-.13-.24l-.15-.25c-.08-.14-.18-.27-.27-.41a9.93,9.93,0,0,0-.78-1l0-.05-.44-.45,0,0L326,65h0l-.48-.4-.11-.09-.09-.07-.3-.22a17.18,17.18,0,0,0-1.59-1l-97-56c-.32-.18-.63-.35-1-.52l0,0-.32-.16-.18-.09c-.23-.11-.46-.21-.69-.31l-.11,0L224,6l-.65-.27-.47-.17h0l-.36-.13-.86-.27-.07,0c-.44-.13-.89-.26-1.34-.36s-.79-.19-1.2-.27l-.36-.07c-.4-.08-.8-.15-1.21-.2s-.84-.12-1.27-.17l-.16,0c-.58-.06-1.15-.11-1.73-.14l-.62,0c-.86,0-1.73,0-2.6,0l-.84,0-.78.05h-.06c-.55,0-1.09.11-1.63.18h-.07c-.55.08-1.1.17-1.64.27-.27,0-.55.11-.82.17s-.55.11-.81.18a26,26,0,0,0-2.67.79l-.65.24c-.74.28-1.44.59-2.12.92l-.51.26-.67.37L13,114.78l-.61.37c-.22.13-.42.27-.62.41l-.17.11-.63.48h0l-.2.18-.06,0-.31.26-.46.43c-.2.18-.39.38-.57.57l0,0L9,118a7.42,7.42,0,0,0-.53.68l0,0-.33.49-.22.39a1.42,1.42,0,0,0-.09.16l0,0c-.08.17-.16.33-.23.49a.1.1,0,0,0,0,.06,3.92,3.92,0,0,0-.19.5l0,.07-.06.19c0,.1-.06.2-.09.3l0,.07a2.46,2.46,0,0,0-.05.25l-.05.24s0,0,0,.07v0a3.7,3.7,0,0,0-.07.55,4.5,4.5,0,0,0,0,.49v.14l0,8.88Z" transform="translate(-0.22 -0.22)"/><path class="cls-4" d="M108.83,202.46,6.45,143.36l0-11.48.45.26c0,.84,0,1.68,0,2.53h0c0,3,1.93,5.93,5.81,8.18l96.1,55.49Z" transform="translate(-0.22 -0.22)"/><path class="cls-4" d="M6.49,131.88l0,11.48C2.29,141,.21,137.8.22,134.65l0-11.48a6.87,6.87,0,0,0,.11,1.2,8.3,8.3,0,0,0,1.46,3.45,11.15,11.15,0,0,0,1.39,1.62A16.18,16.18,0,0,0,6.49,131.88Z" transform="translate(-0.22 -0.22)"/></g></g><path class="cls-1" d="M66,169a3,3,0,0,1,1,2.42c0,1-.45,1.57-1,1.25l-2.75-1.59c0,1-.3,1.73-.65,1.53l-12.17-7a3.2,3.2,0,0,1-.64-2.27l-2.75-1.59a3,3,0,0,1-1-2.41,1.86,1.86,0,0,1,.3-1.13.5.5,0,0,1,.71-.13Z" transform="translate(-0.22 -0.22)"/><path class="cls-10" d="M332.1,91.78,229.71,32.67c-8.27-4.78-21.65-4.78-29.87,0L9.23,143.45c-8.22,4.78-8.17,12.52.1,17.3l102.38,59.11c8.27,4.78,21.65,4.78,29.87,0L332.19,109.08C340.41,104.3,340.37,96.56,332.1,91.78Z" transform="translate(-0.22 -0.22)"/><path class="cls-10" d="M264.56,80.26c3.17,1.83,3.25,4.76.17,6.55l-110.06,64a12.46,12.46,0,0,1-11.3-.08L63.46,104.55c-3.17-1.83-3.25-4.76-.18-6.55L173.34,34a12.46,12.46,0,0,1,11.31.08Z" transform="translate(-0.22 -0.22)"/><path class="cls-4" d="M207.86,66.67a2.34,2.34,0,0,1-1.47.77h-.21A2.2,2.2,0,0,1,204.7,67L156.17,26.48,107.64,67a2.4,2.4,0,0,1-1.68.49,2.34,2.34,0,0,1-1.47-.77l-4.35-5.19a2.3,2.3,0,0,1,.28-3.16l50.43-42a8.64,8.64,0,0,1,10.66,0l17.11,14.31V16.95a2.22,2.22,0,0,1,2.24-2.24h13.47a2.22,2.22,0,0,1,2.24,2.24V45.56l15.36,12.76a2.3,2.3,0,0,1,.28,3.16ZM196.57,100a4.52,4.52,0,0,1-4.49,4.49H165.15V77.54h-18v26.93H120.26a4.52,4.52,0,0,1-4.49-4.49V66.32c0-.14.07-.28.07-.42l40.33-33.24L196.5,65.9a.89.89,0,0,1,.07.42Z" transform="translate(-0.22 -0.22)"/></g></g></svg>