<svg xmlns="http://www.w3.org/2000/svg" viewBox="0 0 721.12 464.65"><defs><style>.cls-1{fill:#006df0;}.cls-2{isolation:isolate;}.cls-3{fill:#fff;}.cls-4{fill:#673ab7;}.cls-5{fill:#ff9800;}.cls-6{fill:#ffeb3b;}.cls-7{fill:#f44336;}.cls-8{fill:#e91e63;}.cls-9{fill:#4caf50;}</style></defs><title>intro_phone</title><g id="Camada_2" data-name="Camada 2"><g id="OBJECTS"><g id="_Grupo_" data-name="&lt;Grupo&gt;"><g id="_Grupo_2" data-name="&lt;Grupo&gt;"><path id="_Caminho_" data-name="&lt;Caminho&gt;" class="cls-1" d="M705.63,175.08,290,416.6c-20.75,12.06-54.51,12.06-75.4,0L15.84,301.83c-10.51-6.07-15.76-14-15.73-22l-.11,39c0,8,5.23,15.92,15.73,22L214.52,455.61c20.88,12.06,54.65,12.06,75.4,0l415.6-241.52c10.31-6,15.47-13.83,15.49-21.68l.11-39C721.1,161.25,715.94,169.09,705.63,175.08Z"/><g id="_Grupo_3" data-name="&lt;Grupo&gt;"><g id="_Grupo_4" data-name="&lt;Grupo&gt;" class="cls-2"><path id="_Caminho_2" data-name="&lt;Caminho&gt;" class="cls-1" d="M705.63,167.49,290,409c-20.75,12.06-54.51,12.06-75.4,0L15.84,294.24c-10.51-6.07-15.76-14-15.73-22l-.11,39c0,8,5.23,15.92,15.73,22L214.52,448c20.88,12.06,54.65,12.06,75.4,0l415.6-241.52c10.31-6,15.47-13.83,15.49-21.68l.11-39C721.1,153.66,715.94,161.49,705.63,167.49Z"/><g id="_Grupo_5" data-name="&lt;Grupo&gt;"><path id="_Caminho_3" data-name="&lt;Caminho&gt;" class="cls-1" d="M705.38,123.82c20.88,12.06,21,31.61.25,43.67L290,409c-20.75,12.06-54.51,12.06-75.4,0L15.84,294.24c-20.88-12.06-21-31.62-.25-43.67L431.2,9C452-3,485.71-3,506.59,9Z"/></g></g></g><g id="_Grupo_6" data-name="&lt;Grupo&gt;"><path id="_Caminho_4" data-name="&lt;Caminho&gt;" class="cls-3" d="M693.75,125.32c19.93,11.5,20,30.16.23,41.67L291.19,401.05c-19.8,11.5-52,11.5-71.94,0L29.55,291.53c-19.93-11.5-20-30.17-.23-41.67L432.11,15.81c19.81-11.51,52-11.5,71.94,0Z"/></g><path id="_Caminho_5" data-name="&lt;Caminho&gt;" class="cls-3" d="M705.63,167.49,290,409c-20.75,12.06-54.51,12.06-75.4,0L15.84,294.24c-10.51-6.07-15.76-14-15.73-22l-.11,39c0,8,5.23,15.92,15.73,22L214.52,448c20.88,12.06,54.65,12.06,75.4,0l415.6-241.52c10.31-6,15.47-13.83,15.49-21.68l.11-39C721.1,153.66,715.94,161.49,705.63,167.49Z"/><g id="_Grupo_7" data-name="&lt;Grupo&gt;"><polygon id="_Caminho_6" data-name="&lt;Caminho&gt;" class="cls-1" points="680.44 168.36 313.24 381.35 62.86 236.79 430.06 23.8 680.44 168.36"/><g id="_Grupo_8" data-name="&lt;Grupo&gt;"><polygon id="_Caminho_7" data-name="&lt;Caminho&gt;" class="cls-1" points="680.44 168.36 658.73 180.96 408.25 36.45 430.06 23.8 680.44 168.36"/></g></g><g id="_Grupo_9" data-name="&lt;Grupo&gt;"><g id="_Grupo_10" data-name="&lt;Grupo&gt;"><path id="_Caminho_8" data-name="&lt;Caminho&gt;" class="cls-1" d="M670.67,209.29a16.32,16.32,0,0,1-7.44,12.87l-64.76,37.39c-3,1.75-5.65,1.2-6.84-1.1a6.82,6.82,0,0,1-.67-3.13,16.42,16.42,0,0,1,7.46-12.92L663.18,205a7,7,0,0,1,2.92-1C668.78,203.77,670.67,205.73,670.67,209.29Z"/></g><g id="_Grupo_11" data-name="&lt;Grupo&gt;"><path id="_Caminho_9" data-name="&lt;Caminho&gt;" class="cls-1" d="M666.79,207.19a16.42,16.42,0,0,1-7.44,12.9l-64.76,37.39a6.87,6.87,0,0,1-3,1,6.82,6.82,0,0,1-.67-3.13,16.42,16.42,0,0,1,7.46-12.92L663.18,205a7,7,0,0,1,2.92-1A7,7,0,0,1,666.79,207.19Z"/></g></g><g id="_Grupo_12" data-name="&lt;Grupo&gt;"><g id="_Grupo_13" data-name="&lt;Grupo&gt;"><path id="_Caminho_10" data-name="&lt;Caminho&gt;" class="cls-1" d="M603.15,97.93a3.64,3.64,0,0,1-1.31,1.18,8.86,8.86,0,0,1-8.07,0L549.4,73.5a3.9,3.9,0,0,1-1.32-1.19c-.76-1.17-.32-2.55,1.3-3.49a9,9,0,0,1,8.08,0l44.37,25.62C603.46,95.38,603.91,96.75,603.15,97.93Z"/></g><g id="_Grupo_14" data-name="&lt;Grupo&gt;"><path id="_Caminho_11" data-name="&lt;Caminho&gt;" class="cls-1" d="M603.15,97.93a3.64,3.64,0,0,1-1.31,1.18,8.86,8.86,0,0,1-8.07,0L549.4,73.5a3.9,3.9,0,0,1-1.32-1.19,3.53,3.53,0,0,1,1.3-1.19,8.88,8.88,0,0,1,8.08,0l44.37,25.61A3.82,3.82,0,0,1,603.15,97.93Z"/></g></g><g id="_Grupo_15" data-name="&lt;Grupo&gt;"><g id="_Grupo_16" data-name="&lt;Grupo&gt;"><path id="_Caminho_12" data-name="&lt;Caminho&gt;" class="cls-1" d="M181.45,321.76c4.69,2.71,4.73,7.09.07,9.8l-17.71,10.29c-4.66,2.71-12.23,2.7-16.92,0l-17.83-10.29c-4.67-2.7-4.71-7.08-.06-9.79l17.71-10.29c4.66-2.71,12.23-2.7,16.9,0Z"/></g><g id="_Grupo_17" data-name="&lt;Grupo&gt;"><path id="_Caminho_13" data-name="&lt;Caminho&gt;" class="cls-1" d="M247.64,374.64c2.59,1.5,2.61,3.93,0,5.42a10.32,10.32,0,0,1-9.37,0l-26.59-15.35c-2.59-1.5-2.61-3.93,0-5.42a10.32,10.32,0,0,1,9.37,0Z"/></g><g id="_Grupo_18" data-name="&lt;Grupo&gt;"><path id="_Caminho_14" data-name="&lt;Caminho&gt;" class="cls-1" d="M98.29,288.41c2.59,1.5,2.61,3.93,0,5.42a10.32,10.32,0,0,1-9.37,0L62.37,278.48c-2.59-1.5-2.61-3.93,0-5.42a10.32,10.32,0,0,1,9.37,0Z"/></g></g><g id="_Grupo_19" data-name="&lt;Grupo&gt;"><g id="_Grupo_20" data-name="&lt;Grupo&gt;"><path id="_Caminho_15" data-name="&lt;Caminho&gt;" class="cls-1" d="M93.3,358.88A9.05,9.05,0,0,0,97.42,366l35.93,20.74c1.69,1,3.13.66,3.8-.61a3.79,3.79,0,0,0,.37-1.74,9.11,9.11,0,0,0-4.14-7.17L97.45,356.49a3.89,3.89,0,0,0-1.62-.54C94.35,355.81,93.3,356.9,93.3,358.88Z"/></g><g id="_Grupo_21" data-name="&lt;Grupo&gt;"><path id="_Caminho_16" data-name="&lt;Caminho&gt;" class="cls-1" d="M95.45,357.71a9.11,9.11,0,0,0,4.13,7.15l35.93,20.74a3.81,3.81,0,0,0,1.65.54,3.79,3.79,0,0,0,.37-1.74,9.11,9.11,0,0,0-4.14-7.17L97.45,356.49a3.89,3.89,0,0,0-1.62-.54A3.86,3.86,0,0,0,95.45,357.71Z"/></g></g><g id="_Grupo_22" data-name="&lt;Grupo&gt;"><g id="_Grupo_23" data-name="&lt;Grupo&gt;"><path id="_Caminho_17" data-name="&lt;Caminho&gt;" class="cls-1" d="M152.57,392.75A4,4,0,0,1,152,395c-.79,1.22-2.34,1.47-4.13.44a10.28,10.28,0,0,1-4.66-8.09c0-2,1-3.19,2.37-3.31a4.13,4.13,0,0,1,2.33.63A10.3,10.3,0,0,1,152.57,392.75Z"/></g><g id="_Grupo_24" data-name="&lt;Grupo&gt;"><path id="_Caminho_18" data-name="&lt;Caminho&gt;" class="cls-1" d="M152.57,392.75A4,4,0,0,1,152,395a4,4,0,0,1-2.34-.63,10.29,10.29,0,0,1-4.67-8.09,4,4,0,0,1,.59-2.24,4.13,4.13,0,0,1,2.33.63A10.3,10.3,0,0,1,152.57,392.75Z"/></g></g><polygon id="_Caminho_19" data-name="&lt;Caminho&gt;" class="cls-4" points="252.93 275.58 206.99 302.28 142.16 264.69 188.41 238.3 252.93 275.58"/><polygon id="_Caminho_20" data-name="&lt;Caminho&gt;" class="cls-5" points="498.68 102.05 440.15 136.02 349.23 83.36 408.06 49.71 498.68 102.05"/><polygon id="_Caminho_21" data-name="&lt;Caminho&gt;" class="cls-6" points="181.16 234.15 135.22 260.85 88.67 233.8 134.91 207.41 181.16 234.15"/><polygon id="_Caminho_22" data-name="&lt;Caminho&gt;" class="cls-6" points="362.58 338.89 316.64 365.59 270.08 338.54 316.33 312.16 362.58 338.89"/><polygon id="_Caminho_23" data-name="&lt;Caminho&gt;" class="cls-7" points="635.13 181.99 577.12 215.7 518.34 181.55 576.72 148.24 635.13 181.99"/><polygon id="_Caminho_24" data-name="&lt;Caminho&gt;" class="cls-5" points="567.48 142.94 509.47 176.65 450.69 142.5 509.08 109.18 567.48 142.94"/><polygon id="_Caminho_25" data-name="&lt;Caminho&gt;" class="cls-7" points="439.72 157.43 408.94 175.47 299.57 112.07 330.82 94.51 439.72 157.43"/><polygon id="_Caminho_26" data-name="&lt;Caminho&gt;" class="cls-8" points="512.89 252.87 384.29 327.38 155.69 195.14 284.75 121.11 512.89 252.87"/><polygon id="_Caminho_27" data-name="&lt;Caminho&gt;" class="cls-9" points="558.96 226.27 528.17 244.31 496.47 225.75 527.71 208.19 558.96 226.27"/><polygon id="_Caminho_28" data-name="&lt;Caminho&gt;" class="cls-9" points="518.61 202.98 487.83 221.02 456.12 202.46 487.37 184.9 518.61 202.98"/><polygon id="_Caminho_29" data-name="&lt;Caminho&gt;" class="cls-9" points="479.66 180.49 448.88 198.53 417.17 179.97 448.41 162.41 479.66 180.49"/><polygon id="_Caminho_30" data-name="&lt;Caminho&gt;" class="cls-4" points="308.58 307.04 262.97 333.59 216.13 306.34 262.12 280.18 308.58 307.04"/></g></g></g></g></svg>