<svg xmlns="http://www.w3.org/2000/svg" xmlns:xlink="http://www.w3.org/1999/xlink" viewBox="0 0 86.81 85.26"><defs><style>.cls-1{fill:#fff;}.cls-2{clip-path:url(#clip-path);}.cls-3{clip-path:url(#clip-path-2);}.cls-4{clip-path:url(#clip-path-3);}.cls-5{clip-path:url(#clip-path-4);}.cls-6{clip-path:url(#clip-path-5);}.cls-7{clip-path:url(#clip-path-6);}.cls-8{clip-path:url(#clip-path-7);}.cls-9{opacity:0.8;}</style><clipPath id="clip-path"><path class="cls-1" d="M8.56,64.77a3.78,3.78,0,0,1,1.23,3A4.14,4.14,0,0,1,8.56,71a4.89,4.89,0,0,1-3.45,1.14H3v3.22H0V63.7H5.11A5.09,5.09,0,0,1,8.56,64.77ZM6.4,69.22a1.73,1.73,0,0,0,.51-1.34,1.66,1.66,0,0,0-.51-1.3A2.07,2.07,0,0,0,5,66.12H3v3.57H5A2,2,0,0,0,6.4,69.22Z"/></clipPath><clipPath id="clip-path-2"><path class="cls-1" d="M19.93,75.33l-1.69-3.22H16v3.22h-3V63.7h5.23a5.39,5.39,0,0,1,3.58,1.07,3.72,3.72,0,0,1,1.27,3A4.59,4.59,0,0,1,22.49,70a3.67,3.67,0,0,1-1.54,1.49l2.42,3.8Zm-4-5.64h2.21a2,2,0,0,0,1.44-.47,1.73,1.73,0,0,0,.51-1.34,1.66,1.66,0,0,0-.51-1.3,2.07,2.07,0,0,0-1.44-.46H16Z"/></clipPath><clipPath id="clip-path-3"><path class="cls-1" d="M35.38,64.29a5.79,5.79,0,0,1,3.08,5.2,5.89,5.89,0,0,1-3.08,5.26,6.91,6.91,0,0,1-6.42,0,5.85,5.85,0,0,1-2.26-2.17,6,6,0,0,1-.82-3.1A5.79,5.79,0,0,1,29,64.29a7,7,0,0,1,6.42,0ZM30.6,66.53a3.22,3.22,0,0,0-1.17,1.24,3.71,3.71,0,0,0,0,3.49,3.38,3.38,0,0,0,1.17,1.24A3,3,0,0,0,32.2,73a2.9,2.9,0,0,0,1.59-.46,3.21,3.21,0,0,0,1.14-1.24,3.87,3.87,0,0,0,0-3.49,3.14,3.14,0,0,0-1.14-1.24,2.94,2.94,0,0,0-1.59-.45A3,3,0,0,0,30.6,66.53Z"/></clipPath><clipPath id="clip-path-4"><path class="cls-1" d="M47,74.43a4.13,4.13,0,0,1-3,1,5.11,5.11,0,0,1-4-1.88l1.39-2.07a5.07,5.07,0,0,0,1.26,1,2.57,2.57,0,0,0,1.18.34,1.15,1.15,0,0,0,.89-.35,1.41,1.41,0,0,0,.32-1V66.2h-4V63.7h7v7.85A3.78,3.78,0,0,1,47,74.43Z"/></clipPath><clipPath id="clip-path-5"><path class="cls-1" d="M51.84,63.7H61v2.42H54.87v2.17h5.54V70.7l-5.54,0v2.19h6.31v2.42H51.84Z"/></clipPath><clipPath id="clip-path-6"><path class="cls-1" d="M71.77,66.51a3.21,3.21,0,0,0-1.54-.42,3,3,0,0,0-1.6.44,3.11,3.11,0,0,0-1.14,1.21,3.76,3.76,0,0,0,0,3.44,3.11,3.11,0,0,0,1.14,1.21,3,3,0,0,0,1.6.44,3.53,3.53,0,0,0,1.49-.37,4.72,4.72,0,0,0,1.39-1l1.78,1.91A7.1,7.1,0,0,1,72.64,75a6.24,6.24,0,0,1-5.7-.21,5.82,5.82,0,0,1-2.19-2.17,6.05,6.05,0,0,1-.8-3.09,5.8,5.8,0,0,1,3-5.2,6.62,6.62,0,0,1,5.73-.24,6.35,6.35,0,0,1,2.14,1.47l-1.76,2.12A4.34,4.34,0,0,0,71.77,66.51Z"/></clipPath><clipPath id="clip-path-7"><path class="cls-1" d="M76.83,63.7h10V66.2H83.32v9.13h-3V66.2H76.83Z"/></clipPath></defs><title>logo-menu</title><g id="Camada_2" data-name="Camada 2"><g id="Camada_1-2" data-name="Camada 1"><path class="cls-1" d="M8.56,64.77a3.78,3.78,0,0,1,1.23,3A4.14,4.14,0,0,1,8.56,71a4.89,4.89,0,0,1-3.45,1.14H3v3.22H0V63.7H5.11A5.09,5.09,0,0,1,8.56,64.77ZM6.4,69.22a1.73,1.73,0,0,0,.51-1.34,1.66,1.66,0,0,0-.51-1.3A2.07,2.07,0,0,0,5,66.12H3v3.57H5A2,2,0,0,0,6.4,69.22Z"/><g class="cls-2"><rect class="cls-1" x="3.04" y="66.12" width="0.23" height="3.57"/><rect class="cls-1" x="3.26" y="66.12" width="0.41" height="3.57"/><rect class="cls-1" x="3.67" y="66.12" width="0.41" height="3.57"/><rect class="cls-1" x="4.08" y="66.12" width="0.41" height="3.57"/><rect class="cls-1" x="4.49" y="66.12" width="0.41" height="3.57"/><rect class="cls-1" x="4.9" y="66.12" width="0.41" height="3.57"/><rect class="cls-1" x="5.3" y="66.12" width="0.41" height="3.57"/><rect class="cls-1" x="5.71" y="66.12" width="0.41" height="3.57"/><rect class="cls-1" x="6.12" y="66.12" width="0.41" height="3.57"/><rect class="cls-1" x="6.53" y="66.12" width="0.38" height="3.57"/><path class="cls-1" d="M0,63.7v0Z"/><rect class="cls-1" y="63.7" width="0.41" height="11.64"/><rect class="cls-1" x="0.41" y="63.7" width="0.41" height="11.64"/><rect class="cls-1" x="0.82" y="63.7" width="0.41" height="11.64"/><rect class="cls-1" x="1.22" y="63.7" width="0.41" height="11.64"/><rect class="cls-1" x="1.63" y="63.7" width="0.41" height="11.64"/><rect class="cls-1" x="2.04" y="63.7" width="0.41" height="11.64"/><rect class="cls-1" x="2.45" y="63.7" width="0.41" height="11.64"/><rect class="cls-1" x="2.86" y="63.7" width="0.41" height="11.64"/><rect class="cls-1" x="3.26" y="63.7" width="0.41" height="11.64"/><rect class="cls-1" x="3.67" y="63.7" width="0.41" height="11.64"/><rect class="cls-1" x="4.08" y="63.7" width="0.41" height="11.64"/><rect class="cls-1" x="4.49" y="63.7" width="0.41" height="11.64"/><rect class="cls-1" x="4.9" y="63.7" width="0.41" height="11.64"/><rect class="cls-1" x="5.3" y="63.7" width="0.41" height="11.64"/><rect class="cls-1" x="5.71" y="63.7" width="0.41" height="11.64"/><rect class="cls-1" x="6.12" y="63.7" width="0.41" height="11.64"/><rect class="cls-1" x="6.53" y="63.7" width="0.41" height="11.64"/><rect class="cls-1" x="6.94" y="63.7" width="0.41" height="11.64"/><rect class="cls-1" x="7.34" y="63.7" width="0.41" height="11.64"/><rect class="cls-1" x="7.75" y="63.7" width="0.41" height="11.64"/><rect class="cls-1" x="8.16" y="63.7" width="0.41" height="11.64"/><rect class="cls-1" x="8.57" y="63.7" width="0.41" height="11.64"/><rect class="cls-1" x="8.98" y="63.7" width="0.41" height="11.64"/><rect class="cls-1" x="9.38" y="63.7" width="0.41" height="11.64"/><path class="cls-1" d="M9.79,75.33v0Z"/></g><path class="cls-1" d="M19.93,75.33l-1.69-3.22H16v3.22h-3V63.7h5.23a5.39,5.39,0,0,1,3.58,1.07,3.72,3.72,0,0,1,1.27,3A4.59,4.59,0,0,1,22.49,70a3.67,3.67,0,0,1-1.54,1.49l2.42,3.8Zm-4-5.64h2.21a2,2,0,0,0,1.44-.47,1.73,1.73,0,0,0,.51-1.34,1.66,1.66,0,0,0-.51-1.3,2.07,2.07,0,0,0-1.44-.46H16Z"/><g class="cls-3"><rect class="cls-1" x="15.98" y="66.12" height="3.57"/><rect class="cls-1" x="15.99" y="66.12" width="0.43" height="3.57"/><rect class="cls-1" x="16.42" y="66.12" width="0.43" height="3.57"/><rect class="cls-1" x="16.86" y="66.12" width="0.43" height="3.57"/><rect class="cls-1" x="17.29" y="66.12" width="0.43" height="3.57"/><rect class="cls-1" x="17.72" y="66.12" width="0.43" height="3.57"/><rect class="cls-1" x="18.16" y="66.12" width="0.43" height="3.57"/><rect class="cls-1" x="18.59" y="66.12" width="0.43" height="3.57"/><rect class="cls-1" x="19.03" y="66.12" width="0.43" height="3.57"/><rect class="cls-1" x="19.46" y="66.12" width="0.43" height="3.57"/><rect class="cls-1" x="19.9" y="66.12" width="0.24" height="3.57"/><path class="cls-1" d="M12.95,63.7v0Z"/><rect class="cls-1" x="12.95" y="63.7" width="0.43" height="11.64"/><rect class="cls-1" x="13.38" y="63.7" width="0.43" height="11.64"/><rect class="cls-1" x="13.82" y="63.7" width="0.43" height="11.64"/><rect class="cls-1" x="14.25" y="63.7" width="0.43" height="11.64"/><rect class="cls-1" x="14.68" y="63.7" width="0.43" height="11.64"/><rect class="cls-1" x="15.12" y="63.7" width="0.43" height="11.64"/><rect class="cls-1" x="15.55" y="63.7" width="0.43" height="11.64"/><rect class="cls-1" x="15.99" y="63.7" width="0.43" height="11.64"/><rect class="cls-1" x="16.42" y="63.7" width="0.43" height="11.64"/><rect class="cls-1" x="16.86" y="63.7" width="0.43" height="11.64"/><rect class="cls-1" x="17.29" y="63.7" width="0.43" height="11.64"/><rect class="cls-1" x="17.72" y="63.7" width="0.43" height="11.64"/><rect class="cls-1" x="18.16" y="63.7" width="0.43" height="11.64"/><rect class="cls-1" x="18.59" y="63.7" width="0.43" height="11.64"/><rect class="cls-1" x="19.03" y="63.7" width="0.43" height="11.64"/><rect class="cls-1" x="19.46" y="63.7" width="0.43" height="11.64"/><rect class="cls-1" x="19.9" y="63.7" width="0.43" height="11.64"/><rect class="cls-1" x="20.33" y="63.7" width="0.43" height="11.64"/><rect class="cls-1" x="20.76" y="63.7" width="0.43" height="11.64"/><rect class="cls-1" x="21.2" y="63.7" width="0.43" height="11.64"/><rect class="cls-1" x="21.63" y="63.7" width="0.43" height="11.64"/><rect class="cls-1" x="22.07" y="63.7" width="0.43" height="11.64"/><rect class="cls-1" x="22.5" y="63.7" width="0.43" height="11.64"/><rect class="cls-1" x="22.94" y="63.7" width="0.43" height="11.64"/><path class="cls-1" d="M23.37,75.33v0Z"/></g><path class="cls-1" d="M35.38,64.29a5.79,5.79,0,0,1,3.08,5.2,5.89,5.89,0,0,1-3.08,5.26,6.91,6.91,0,0,1-6.42,0,5.85,5.85,0,0,1-2.26-2.17,6,6,0,0,1-.82-3.1A5.79,5.79,0,0,1,29,64.29a7,7,0,0,1,6.42,0ZM30.6,66.53a3.22,3.22,0,0,0-1.17,1.24,3.71,3.71,0,0,0,0,3.49,3.38,3.38,0,0,0,1.17,1.24A3,3,0,0,0,32.2,73a2.9,2.9,0,0,0,1.59-.46,3.21,3.21,0,0,0,1.14-1.24,3.87,3.87,0,0,0,0-3.49,3.14,3.14,0,0,0-1.14-1.24,2.94,2.94,0,0,0-1.59-.45A3,3,0,0,0,30.6,66.53Z"/><g class="cls-4"><rect class="cls-1" x="29" y="66.09" width="0.03" height="6.87"/><rect class="cls-1" x="29.02" y="66.09" width="0.52" height="6.87"/><rect class="cls-1" x="29.55" y="66.09" width="0.52" height="6.87"/><rect class="cls-1" x="30.07" y="66.09" width="0.52" height="6.87"/><rect class="cls-1" x="30.6" y="66.09" width="0.52" height="6.87"/><rect class="cls-1" x="31.12" y="66.09" width="0.52" height="6.87"/><rect class="cls-1" x="31.64" y="66.09" width="0.52" height="6.87"/><rect class="cls-1" x="32.17" y="66.09" width="0.52" height="6.87"/><rect class="cls-1" x="32.69" y="66.09" width="0.52" height="6.87"/><rect class="cls-1" x="33.22" y="66.09" width="0.52" height="6.87"/><rect class="cls-1" x="33.74" y="66.09" width="0.52" height="6.87"/><rect class="cls-1" x="34.26" y="66.09" width="0.52" height="6.87"/><rect class="cls-1" x="34.79" y="66.09" width="0.52" height="6.87"/><rect class="cls-1" x="35.31" y="66.09" width="0.02" height="6.87"/><path class="cls-1" d="M25.88,63.51v0Z"/><rect class="cls-1" x="25.88" y="63.51" width="0.52" height="12.03"/><rect class="cls-1" x="26.4" y="63.51" width="0.52" height="12.03"/><rect class="cls-1" x="26.93" y="63.51" width="0.52" height="12.03"/><rect class="cls-1" x="27.45" y="63.51" width="0.52" height="12.03"/><rect class="cls-1" x="27.97" y="63.51" width="0.52" height="12.03"/><rect class="cls-1" x="28.5" y="63.51" width="0.52" height="12.03"/><rect class="cls-1" x="29.02" y="63.51" width="0.52" height="12.03"/><rect class="cls-1" x="29.55" y="63.51" width="0.52" height="12.03"/><rect class="cls-1" x="30.07" y="63.51" width="0.52" height="12.03"/><rect class="cls-1" x="30.6" y="63.51" width="0.52" height="12.03"/><rect class="cls-1" x="31.12" y="63.51" width="0.52" height="12.03"/><rect class="cls-1" x="31.64" y="63.51" width="0.52" height="12.03"/><rect class="cls-1" x="32.17" y="63.51" width="0.52" height="12.03"/><rect class="cls-1" x="32.69" y="63.51" width="0.52" height="12.03"/><rect class="cls-1" x="33.22" y="63.51" width="0.52" height="12.03"/><rect class="cls-1" x="33.74" y="63.51" width="0.52" height="12.03"/><rect class="cls-1" x="34.26" y="63.51" width="0.52" height="12.03"/><rect class="cls-1" x="34.79" y="63.51" width="0.52" height="12.03"/><rect class="cls-1" x="35.31" y="63.51" width="0.52" height="12.03"/><rect class="cls-1" x="35.84" y="63.51" width="0.52" height="12.03"/><rect class="cls-1" x="36.36" y="63.51" width="0.52" height="12.03"/><rect class="cls-1" x="36.89" y="63.51" width="0.52" height="12.03"/><rect class="cls-1" x="37.41" y="63.51" width="0.52" height="12.03"/><rect class="cls-1" x="37.93" y="63.51" width="0.52" height="12.03"/><path class="cls-1" d="M38.46,75.55v0Z"/></g><path class="cls-1" d="M47,74.43a4.13,4.13,0,0,1-3,1,5.11,5.11,0,0,1-4-1.88l1.39-2.07a5.07,5.07,0,0,0,1.26,1,2.57,2.57,0,0,0,1.18.34,1.15,1.15,0,0,0,.89-.35,1.41,1.41,0,0,0,.32-1V66.2h-4V63.7h7v7.85A3.78,3.78,0,0,1,47,74.43Z"/><g class="cls-5"><path class="cls-1" d="M40,63.7v0Z"/><rect class="cls-1" x="40.02" y="63.7" width="0.34" height="11.77"/><rect class="cls-1" x="40.36" y="63.7" width="0.34" height="11.77"/><rect class="cls-1" x="40.69" y="63.7" width="0.34" height="11.77"/><rect class="cls-1" x="41.03" y="63.7" width="0.34" height="11.77"/><rect class="cls-1" x="41.37" y="63.7" width="0.34" height="11.77"/><rect class="cls-1" x="41.71" y="63.7" width="0.34" height="11.77"/><rect class="cls-1" x="42.04" y="63.7" width="0.34" height="11.77"/><rect class="cls-1" x="42.38" y="63.7" width="0.34" height="11.77"/><rect class="cls-1" x="42.72" y="63.7" width="0.34" height="11.77"/><rect class="cls-1" x="43.06" y="63.7" width="0.34" height="11.77"/><rect class="cls-1" x="43.39" y="63.7" width="0.34" height="11.77"/><rect class="cls-1" x="43.73" y="63.7" width="0.34" height="11.77"/><rect class="cls-1" x="44.07" y="63.7" width="0.34" height="11.77"/><rect class="cls-1" x="44.41" y="63.7" width="0.34" height="11.77"/><rect class="cls-1" x="44.74" y="63.7" width="0.34" height="11.77"/><rect class="cls-1" x="45.08" y="63.7" width="0.34" height="11.77"/><rect class="cls-1" x="45.42" y="63.7" width="0.34" height="11.77"/><rect class="cls-1" x="45.76" y="63.7" width="0.34" height="11.77"/><rect class="cls-1" x="46.09" y="63.7" width="0.34" height="11.77"/><rect class="cls-1" x="46.43" y="63.7" width="0.34" height="11.77"/><rect class="cls-1" x="46.77" y="63.7" width="0.34" height="11.77"/><rect class="cls-1" x="47.11" y="63.7" width="0.34" height="11.77"/><rect class="cls-1" x="47.44" y="63.7" width="0.34" height="11.77"/><rect class="cls-1" x="47.78" y="63.7" width="0.34" height="11.77"/><path class="cls-1" d="M48.12,75.46v0Z"/></g><path class="cls-1" d="M51.84,63.7H61v2.42H54.87v2.17h5.54V70.7l-5.54,0v2.19h6.31v2.42H51.84Z"/><g class="cls-6"><path class="cls-1" d="M51.84,63.7v0Z"/><rect class="cls-1" x="51.84" y="63.7" width="0.39" height="11.64"/><rect class="cls-1" x="52.23" y="63.7" width="0.39" height="11.64"/><rect class="cls-1" x="52.61" y="63.7" width="0.39" height="11.64"/><rect class="cls-1" x="53" y="63.7" width="0.39" height="11.64"/><rect class="cls-1" x="53.39" y="63.7" width="0.39" height="11.64"/><rect class="cls-1" x="53.78" y="63.7" width="0.39" height="11.64"/><rect class="cls-1" x="54.17" y="63.7" width="0.39" height="11.64"/><rect class="cls-1" x="54.56" y="63.7" width="0.39" height="11.64"/><rect class="cls-1" x="54.95" y="63.7" width="0.39" height="11.64"/><rect class="cls-1" x="55.34" y="63.7" width="0.39" height="11.64"/><rect class="cls-1" x="55.73" y="63.7" width="0.39" height="11.64"/><rect class="cls-1" x="56.12" y="63.7" width="0.39" height="11.64"/><rect class="cls-1" x="56.51" y="63.7" width="0.39" height="11.64"/><rect class="cls-1" x="56.9" y="63.7" width="0.39" height="11.64"/><rect class="cls-1" x="57.29" y="63.7" width="0.39" height="11.64"/><rect class="cls-1" x="57.68" y="63.7" width="0.39" height="11.64"/><rect class="cls-1" x="58.07" y="63.7" width="0.39" height="11.64"/><rect class="cls-1" x="58.46" y="63.7" width="0.39" height="11.64"/><rect class="cls-1" x="58.84" y="63.7" width="0.39" height="11.64"/><rect class="cls-1" x="59.23" y="63.7" width="0.39" height="11.64"/><rect class="cls-1" x="59.62" y="63.7" width="0.39" height="11.64"/><rect class="cls-1" x="60.01" y="63.7" width="0.39" height="11.64"/><rect class="cls-1" x="60.4" y="63.7" width="0.39" height="11.64"/><rect class="cls-1" x="60.79" y="63.7" width="0.39" height="11.64"/><path class="cls-1" d="M61.18,75.33v0Z"/></g><path class="cls-1" d="M71.77,66.51a3.21,3.21,0,0,0-1.54-.42,3,3,0,0,0-1.6.44,3.11,3.11,0,0,0-1.14,1.21,3.76,3.76,0,0,0,0,3.44,3.11,3.11,0,0,0,1.14,1.21,3,3,0,0,0,1.6.44,3.53,3.53,0,0,0,1.49-.37,4.72,4.72,0,0,0,1.39-1l1.78,1.91A7.1,7.1,0,0,1,72.64,75a6.24,6.24,0,0,1-5.7-.21,5.82,5.82,0,0,1-2.19-2.17,6.05,6.05,0,0,1-.8-3.09,5.8,5.8,0,0,1,3-5.2,6.62,6.62,0,0,1,5.73-.24,6.35,6.35,0,0,1,2.14,1.47l-1.76,2.12A4.34,4.34,0,0,0,71.77,66.51Z"/><g class="cls-7"><path class="cls-1" d="M64,63.51v0Z"/><rect class="cls-1" x="63.95" y="63.51" width="0.46" height="12.03"/><rect class="cls-1" x="64.41" y="63.51" width="0.46" height="12.03"/><rect class="cls-1" x="64.86" y="63.51" width="0.46" height="12.03"/><rect class="cls-1" x="65.32" y="63.51" width="0.46" height="12.03"/><rect class="cls-1" x="65.78" y="63.51" width="0.46" height="12.03"/><rect class="cls-1" x="66.23" y="63.51" width="0.46" height="12.03"/><rect class="cls-1" x="66.69" y="63.51" width="0.46" height="12.03"/><rect class="cls-1" x="67.14" y="63.51" width="0.46" height="12.03"/><rect class="cls-1" x="67.6" y="63.51" width="0.46" height="12.03"/><rect class="cls-1" x="68.06" y="63.51" width="0.46" height="12.03"/><rect class="cls-1" x="68.51" y="63.51" width="0.46" height="12.03"/><rect class="cls-1" x="68.97" y="63.51" width="0.46" height="12.03"/><rect class="cls-1" x="69.42" y="63.51" width="0.46" height="12.03"/><rect class="cls-1" x="69.88" y="63.51" width="0.46" height="12.03"/><rect class="cls-1" x="70.33" y="63.51" width="0.46" height="12.03"/><rect class="cls-1" x="70.79" y="63.51" width="0.46" height="12.03"/><rect class="cls-1" x="71.25" y="63.51" width="0.46" height="12.03"/><rect class="cls-1" x="71.7" y="63.51" width="0.46" height="12.03"/><rect class="cls-1" x="72.16" y="63.51" width="0.46" height="12.03"/><rect class="cls-1" x="72.61" y="63.51" width="0.46" height="12.03"/><rect class="cls-1" x="73.07" y="63.51" width="0.46" height="12.03"/><rect class="cls-1" x="73.52" y="63.51" width="0.46" height="12.03"/><rect class="cls-1" x="73.98" y="63.51" width="0.46" height="12.03"/><rect class="cls-1" x="74.44" y="63.51" width="0.46" height="12.03"/><path class="cls-1" d="M74.89,75.55v0Z"/></g><path class="cls-1" d="M76.83,63.7h10V66.2H83.32v9.13h-3V66.2H76.83Z"/><g class="cls-8"><path class="cls-1" d="M76.83,63.7v0Z"/><rect class="cls-1" x="76.83" y="63.7" width="0.42" height="11.64"/><rect class="cls-1" x="77.25" y="63.7" width="0.42" height="11.64"/><rect class="cls-1" x="77.66" y="63.7" width="0.42" height="11.64"/><rect class="cls-1" x="78.08" y="63.7" width="0.42" height="11.64"/><rect class="cls-1" x="78.5" y="63.7" width="0.42" height="11.64"/><rect class="cls-1" x="78.91" y="63.7" width="0.42" height="11.64"/><rect class="cls-1" x="79.33" y="63.7" width="0.42" height="11.64"/><rect class="cls-1" x="79.74" y="63.7" width="0.42" height="11.64"/><rect class="cls-1" x="80.16" y="63.7" width="0.42" height="11.64"/><rect class="cls-1" x="80.57" y="63.7" width="0.42" height="11.64"/><rect class="cls-1" x="80.99" y="63.7" width="0.42" height="11.64"/><rect class="cls-1" x="81.41" y="63.7" width="0.42" height="11.64"/><rect class="cls-1" x="81.82" y="63.7" width="0.42" height="11.64"/><rect class="cls-1" x="82.24" y="63.7" width="0.42" height="11.64"/><rect class="cls-1" x="82.65" y="63.7" width="0.42" height="11.64"/><rect class="cls-1" x="83.07" y="63.7" width="0.42" height="11.64"/><rect class="cls-1" x="83.48" y="63.7" width="0.42" height="11.64"/><rect class="cls-1" x="83.9" y="63.7" width="0.42" height="11.64"/><rect class="cls-1" x="84.31" y="63.7" width="0.42" height="11.64"/><rect class="cls-1" x="84.73" y="63.7" width="0.42" height="11.64"/><rect class="cls-1" x="85.15" y="63.7" width="0.42" height="11.64"/><rect class="cls-1" x="85.56" y="63.7" width="0.42" height="11.64"/><rect class="cls-1" x="85.98" y="63.7" width="0.42" height="11.64"/><rect class="cls-1" x="86.39" y="63.7" width="0.42" height="11.64"/><path class="cls-1" d="M86.81,75.33v0Z"/></g><path class="cls-1" d="M67.53,8.94A13.41,13.41,0,0,0,54.89,0H32.42a15.3,15.3,0,0,0-13.9,8.9,0,0,0,0,0,0,0H54.44a4.67,4.67,0,0,1,4.65,4.33,4.47,4.47,0,0,1-4.47,4.6h-22a0,0,0,0,0,0,0v1.4a7.52,7.52,0,0,0,6.23,7.4V41.16a15.69,15.69,0,0,0,8.94,14.18V26.83a0,0,0,0,1,0,0h7.15A13.41,13.41,0,0,0,67.53,8.94Z"/><path class="cls-1" d="M32.05,16A5.08,5.08,0,0,1,27,10.88h12A5.08,5.08,0,0,1,44,16h0"/><g class="cls-9"><path class="cls-1" d="M19.69,81.23a2.12,2.12,0,0,1,0,3.72,2.29,2.29,0,0,1-1.13.28H16.85V80.95h1.72A2.26,2.26,0,0,1,19.69,81.23Zm-.22,3.39a1.76,1.76,0,0,0,0-3.06,1.78,1.78,0,0,0-.9-.23H17.27v3.52h1.31A1.75,1.75,0,0,0,19.47,84.61Z"/><path class="cls-1" d="M27.83,80.95H30.7v.38H28.25v1.53h2.19v.38H28.25v1.61h2.52v.38H27.83Z"/><path class="cls-1" d="M39.74,81.39a2.15,2.15,0,0,0-.59-.09,1.27,1.27,0,0,0-.71.17.54.54,0,0,0-.27.48.62.62,0,0,0,.15.43,1,1,0,0,0,.36.26,5.74,5.74,0,0,0,.59.21,5.06,5.06,0,0,1,.7.25,1.24,1.24,0,0,1,.45.36,1.1,1.1,0,0,1,0,1.24,1.23,1.23,0,0,1-.54.41,2.09,2.09,0,0,1-.8.14,2.25,2.25,0,0,1-.87-.18,2.36,2.36,0,0,1-.73-.47l.2-.35a2.12,2.12,0,0,0,.67.44,1.92,1.92,0,0,0,.75.16,1.35,1.35,0,0,0,.78-.2.62.62,0,0,0,.29-.54.65.65,0,0,0-.15-.44,1,1,0,0,0-.36-.26q-.21-.09-.6-.21a6.18,6.18,0,0,1-.7-.25,1.18,1.18,0,0,1-.45-.35,1,1,0,0,1-.18-.62.92.92,0,0,1,.18-.57,1.16,1.16,0,0,1,.51-.38,2.06,2.06,0,0,1,.77-.13,2.59,2.59,0,0,1,1.32.38l-.18.36A2.2,2.2,0,0,0,39.74,81.39Z"/><path class="cls-1" d="M47.79,80.95h.42v4.28h-.42Z"/><path class="cls-1" d="M58.69,83.13h.37V84.7a2.37,2.37,0,0,1-.73.41,2.44,2.44,0,0,1-.84.15,2.23,2.23,0,0,1-1.93-1.09,2.1,2.1,0,0,1-.3-1.1,2.07,2.07,0,0,1,.3-1.09,2.19,2.19,0,0,1,.82-.79,2.27,2.27,0,0,1,1.13-.29,2.38,2.38,0,0,1,.84.15,2.3,2.3,0,0,1,.72.43l-.24.3a1.86,1.86,0,0,0-.61-.38,2,2,0,0,0-.71-.13,1.78,1.78,0,0,0-.91.24,1.82,1.82,0,0,0-.66.65,1.72,1.72,0,0,0-.24.9,1.75,1.75,0,0,0,.24.91,1.83,1.83,0,0,0,1.58.9,1.92,1.92,0,0,0,.61-.1,2.1,2.1,0,0,0,.56-.29Z"/><path class="cls-1" d="M69.54,80.95H70v4.28h-.45L66.86,81.6v3.63h-.42V80.95h.45l2.66,3.63Z"/></g></g></g></svg>