<svg xmlns="http://www.w3.org/2000/svg" xmlns:xlink="http://www.w3.org/1999/xlink" viewBox="0 0 289.76 121.34"><defs><style>.cls-1{fill:#fff;}.cls-2{clip-path:url(#clip-path);}.cls-3{clip-path:url(#clip-path-2);}.cls-4{clip-path:url(#clip-path-3);}.cls-5{clip-path:url(#clip-path-4);}.cls-6{clip-path:url(#clip-path-5);}.cls-7{clip-path:url(#clip-path-6);}.cls-8{clip-path:url(#clip-path-7);}.cls-9{opacity:0.8;}</style><clipPath id="clip-path"><path class="cls-1" d="M118.19,76a8.3,8.3,0,0,1,2.69,6.61,9.07,9.07,0,0,1-2.69,7q-2.69,2.49-7.57,2.49h-4.55v7.06H99.41V73.67h11.21Q115.5,73.67,118.19,76Zm-4.75,9.77a3.8,3.8,0,0,0,1.11-2.95A3.65,3.65,0,0,0,113.44,80a4.54,4.54,0,0,0-3.15-1h-4.22v7.83h4.22A4.48,4.48,0,0,0,113.44,85.79Z"/></clipPath><clipPath id="clip-path-2"><path class="cls-1" d="M143.12,99.19l-3.71-7.06h-5v7.06H127.8V73.67h11.46q5.06,0,7.84,2.35a8.16,8.16,0,0,1,2.78,6.61,10.06,10.06,0,0,1-1.16,5,8,8,0,0,1-3.38,3.26l5.32,8.34Zm-8.66-12.37h4.84a4.48,4.48,0,0,0,3.15-1,3.8,3.8,0,0,0,1.11-2.95A3.65,3.65,0,0,0,142.45,80a4.54,4.54,0,0,0-3.15-1h-4.84Z"/></clipPath><clipPath id="clip-path-3"><path class="cls-1" d="M177,75a12.69,12.69,0,0,1,6.75,11.39A12.92,12.92,0,0,1,177,97.91a15.14,15.14,0,0,1-14.09,0,12.83,12.83,0,0,1-5-4.77,13.07,13.07,0,0,1-1.8-6.79A12.69,12.69,0,0,1,162.9,75,15.36,15.36,0,0,1,177,75ZM166.51,79.9a7.06,7.06,0,0,0-2.57,2.71,8.13,8.13,0,0,0,0,7.64A7.41,7.41,0,0,0,166.52,93,6.46,6.46,0,0,0,170,94a6.37,6.37,0,0,0,3.48-1A7,7,0,0,0,176,90.25a8.49,8.49,0,0,0,0-7.64,6.9,6.9,0,0,0-2.49-2.71,6.46,6.46,0,0,0-3.48-1A6.64,6.64,0,0,0,166.51,79.9Z"/></clipPath><clipPath id="clip-path-4"><path class="cls-1" d="M202.54,97.22a9.06,9.06,0,0,1-6.5,2.26,11.21,11.21,0,0,1-8.88-4.11l3.06-4.55A11.12,11.12,0,0,0,193,92.95a5.65,5.65,0,0,0,2.59.75,2.52,2.52,0,0,0,1.95-.77,3.09,3.09,0,0,0,.71-2.18V79.17h-8.73v-5.5h15.43V90.89A8.3,8.3,0,0,1,202.54,97.22Z"/></clipPath><clipPath id="clip-path-5"><path class="cls-1" d="M213.08,73.67H233.2V79H219.74v4.77h12.16V89l-12.16,0v4.81h13.83v5.31H213.08Z"/></clipPath><clipPath id="clip-path-6"><path class="cls-1" d="M256.79,79.84a7,7,0,0,0-3.39-.93,6.62,6.62,0,0,0-3.51,1,6.82,6.82,0,0,0-2.49,2.66,8.25,8.25,0,0,0,0,7.53,6.82,6.82,0,0,0,2.49,2.66,6.62,6.62,0,0,0,3.51,1,7.74,7.74,0,0,0,3.28-.8,10.34,10.34,0,0,0,3.06-2.18l3.89,4.19a15.56,15.56,0,0,1-4.93,3.48,13.69,13.69,0,0,1-12.5-.46,12.76,12.76,0,0,1-4.8-4.77,13.27,13.27,0,0,1-1.75-6.77A12.71,12.71,0,0,1,246.32,75a14.51,14.51,0,0,1,12.58-.53,13.93,13.93,0,0,1,4.69,3.22l-3.86,4.66A9.51,9.51,0,0,0,256.79,79.84Z"/></clipPath><clipPath id="clip-path-7"><path class="cls-1" d="M267.89,73.67h21.87v5.5h-7.64v20h-6.66v-20h-7.57Z"/></clipPath></defs><title>logo-footer</title><g id="Camada_2" data-name="Camada 2"><g id="Camada_1-2" data-name="Camada 1"><path class="cls-1" d="M118.19,76a8.3,8.3,0,0,1,2.69,6.61,9.07,9.07,0,0,1-2.69,7q-2.69,2.49-7.57,2.49h-4.55v7.06H99.41V73.67h11.21Q115.5,73.67,118.19,76Zm-4.75,9.77a3.8,3.8,0,0,0,1.11-2.95A3.65,3.65,0,0,0,113.44,80a4.54,4.54,0,0,0-3.15-1h-4.22v7.83h4.22A4.48,4.48,0,0,0,113.44,85.79Z"/><g class="cls-2"><rect class="cls-1" x="106.07" y="78.99" width="0.5" height="7.83"/><rect class="cls-1" x="106.57" y="78.99" width="0.89" height="7.83"/><rect class="cls-1" x="107.46" y="78.99" width="0.89" height="7.83"/><rect class="cls-1" x="108.36" y="78.99" width="0.89" height="7.83"/><rect class="cls-1" x="109.25" y="78.99" width="0.89" height="7.83"/><rect class="cls-1" x="110.15" y="78.99" width="0.89" height="7.83"/><rect class="cls-1" x="111.04" y="78.99" width="0.89" height="7.83"/><rect class="cls-1" x="111.93" y="78.99" width="0.89" height="7.83"/><rect class="cls-1" x="112.83" y="78.99" width="0.89" height="7.83"/><rect class="cls-1" x="113.72" y="78.99" width="0.83" height="7.83"/><path class="cls-1" d="M99.41,73.67v0Z"/><rect class="cls-1" x="99.41" y="73.67" width="0.89" height="25.52"/><rect class="cls-1" x="100.3" y="73.67" width="0.89" height="25.52"/><rect class="cls-1" x="101.2" y="73.67" width="0.89" height="25.52"/><rect class="cls-1" x="102.09" y="73.67" width="0.89" height="25.52"/><rect class="cls-1" x="102.99" y="73.67" width="0.89" height="25.52"/><rect class="cls-1" x="103.88" y="73.67" width="0.89" height="25.52"/><rect class="cls-1" x="104.78" y="73.67" width="0.89" height="25.52"/><rect class="cls-1" x="105.67" y="73.67" width="0.89" height="25.52"/><rect class="cls-1" x="106.57" y="73.67" width="0.89" height="25.52"/><rect class="cls-1" x="107.46" y="73.67" width="0.89" height="25.52"/><rect class="cls-1" x="108.36" y="73.67" width="0.89" height="25.52"/><rect class="cls-1" x="109.25" y="73.67" width="0.89" height="25.52"/><rect class="cls-1" x="110.15" y="73.67" width="0.89" height="25.52"/><rect class="cls-1" x="111.04" y="73.67" width="0.89" height="25.52"/><rect class="cls-1" x="111.93" y="73.67" width="0.89" height="25.52"/><rect class="cls-1" x="112.83" y="73.67" width="0.89" height="25.52"/><rect class="cls-1" x="113.72" y="73.67" width="0.89" height="25.52"/><rect class="cls-1" x="114.62" y="73.67" width="0.89" height="25.52"/><rect class="cls-1" x="115.51" y="73.67" width="0.89" height="25.52"/><rect class="cls-1" x="116.41" y="73.67" width="0.89" height="25.52"/><rect class="cls-1" x="117.3" y="73.67" width="0.89" height="25.52"/><rect class="cls-1" x="118.2" y="73.67" width="0.89" height="25.52"/><rect class="cls-1" x="119.09" y="73.67" width="0.89" height="25.52"/><rect class="cls-1" x="119.99" y="73.67" width="0.89" height="25.52"/><path class="cls-1" d="M120.88,99.19v0Z"/></g><path class="cls-1" d="M143.12,99.19l-3.71-7.06h-5v7.06H127.8V73.67h11.46q5.06,0,7.84,2.35a8.16,8.16,0,0,1,2.78,6.61,10.06,10.06,0,0,1-1.16,5,8,8,0,0,1-3.38,3.26l5.32,8.34Zm-8.66-12.37h4.84a4.48,4.48,0,0,0,3.15-1,3.8,3.8,0,0,0,1.11-2.95A3.65,3.65,0,0,0,142.45,80a4.54,4.54,0,0,0-3.15-1h-4.84Z"/><g class="cls-3"><rect class="cls-1" x="134.46" y="78.99" width="0.01" height="7.83"/><rect class="cls-1" x="134.47" y="78.99" width="0.95" height="7.83"/><rect class="cls-1" x="135.42" y="78.99" width="0.95" height="7.83"/><rect class="cls-1" x="136.37" y="78.99" width="0.95" height="7.83"/><rect class="cls-1" x="137.32" y="78.99" width="0.95" height="7.83"/><rect class="cls-1" x="138.27" y="78.99" width="0.95" height="7.83"/><rect class="cls-1" x="139.23" y="78.99" width="0.95" height="7.83"/><rect class="cls-1" x="140.18" y="78.99" width="0.95" height="7.83"/><rect class="cls-1" x="141.13" y="78.99" width="0.95" height="7.83"/><rect class="cls-1" x="142.08" y="78.99" width="0.95" height="7.83"/><rect class="cls-1" x="143.04" y="78.99" width="0.52" height="7.83"/><path class="cls-1" d="M127.8,73.67v0Z"/><rect class="cls-1" x="127.8" y="73.67" width="0.95" height="25.52"/><rect class="cls-1" x="128.75" y="73.67" width="0.95" height="25.52"/><rect class="cls-1" x="129.7" y="73.67" width="0.95" height="25.52"/><rect class="cls-1" x="130.66" y="73.67" width="0.95" height="25.52"/><rect class="cls-1" x="131.61" y="73.67" width="0.95" height="25.52"/><rect class="cls-1" x="132.56" y="73.67" width="0.95" height="25.52"/><rect class="cls-1" x="133.51" y="73.67" width="0.95" height="25.52"/><rect class="cls-1" x="134.47" y="73.67" width="0.95" height="25.52"/><rect class="cls-1" x="135.42" y="73.67" width="0.95" height="25.52"/><rect class="cls-1" x="136.37" y="73.67" width="0.95" height="25.52"/><rect class="cls-1" x="137.32" y="73.67" width="0.95" height="25.52"/><rect class="cls-1" x="138.27" y="73.67" width="0.95" height="25.52"/><rect class="cls-1" x="139.23" y="73.67" width="0.95" height="25.52"/><rect class="cls-1" x="140.18" y="73.67" width="0.95" height="25.52"/><rect class="cls-1" x="141.13" y="73.67" width="0.95" height="25.52"/><rect class="cls-1" x="142.08" y="73.67" width="0.95" height="25.52"/><rect class="cls-1" x="143.04" y="73.67" width="0.95" height="25.52"/><rect class="cls-1" x="143.99" y="73.67" width="0.95" height="25.52"/><rect class="cls-1" x="144.94" y="73.67" width="0.95" height="25.52"/><rect class="cls-1" x="145.89" y="73.67" width="0.95" height="25.52"/><rect class="cls-1" x="146.85" y="73.67" width="0.95" height="25.52"/><rect class="cls-1" x="147.8" y="73.67" width="0.95" height="25.52"/><rect class="cls-1" x="148.75" y="73.67" width="0.95" height="25.52"/><rect class="cls-1" x="149.7" y="73.67" width="0.95" height="25.52"/><path class="cls-1" d="M150.66,99.19v0Z"/></g><path class="cls-1" d="M177,75a12.69,12.69,0,0,1,6.75,11.39A12.92,12.92,0,0,1,177,97.91a15.14,15.14,0,0,1-14.09,0,12.83,12.83,0,0,1-5-4.77,13.07,13.07,0,0,1-1.8-6.79A12.69,12.69,0,0,1,162.9,75,15.36,15.36,0,0,1,177,75ZM166.51,79.9a7.06,7.06,0,0,0-2.57,2.71,8.13,8.13,0,0,0,0,7.64A7.41,7.41,0,0,0,166.52,93,6.46,6.46,0,0,0,170,94a6.37,6.37,0,0,0,3.48-1A7,7,0,0,0,176,90.25a8.49,8.49,0,0,0,0-7.64,6.9,6.9,0,0,0-2.49-2.71,6.46,6.46,0,0,0-3.48-1A6.64,6.64,0,0,0,166.51,79.9Z"/><g class="cls-4"><rect class="cls-1" x="162.99" y="78.91" width="0.06" height="15.07"/><rect class="cls-1" x="163.05" y="78.91" width="1.15" height="15.07"/><rect class="cls-1" x="164.2" y="78.91" width="1.15" height="15.07"/><rect class="cls-1" x="165.35" y="78.91" width="1.15" height="15.07"/><rect class="cls-1" x="166.5" y="78.91" width="1.15" height="15.07"/><rect class="cls-1" x="167.65" y="78.91" width="1.15" height="15.07"/><rect class="cls-1" x="168.8" y="78.91" width="1.15" height="15.07"/><rect class="cls-1" x="169.95" y="78.91" width="1.15" height="15.07"/><rect class="cls-1" x="171.1" y="78.91" width="1.15" height="15.07"/><rect class="cls-1" x="172.25" y="78.91" width="1.15" height="15.07"/><rect class="cls-1" x="173.4" y="78.91" width="1.15" height="15.07"/><rect class="cls-1" x="174.54" y="78.91" width="1.15" height="15.07"/><rect class="cls-1" x="175.69" y="78.91" width="1.15" height="15.07"/><rect class="cls-1" x="176.84" y="78.91" width="0.05" height="15.07"/><path class="cls-1" d="M156.15,73.27v0Z"/><rect class="cls-1" x="156.15" y="73.27" width="1.15" height="26.39"/><rect class="cls-1" x="157.3" y="73.27" width="1.15" height="26.39"/><rect class="cls-1" x="158.45" y="73.27" width="1.15" height="26.39"/><rect class="cls-1" x="159.6" y="73.27" width="1.15" height="26.39"/><rect class="cls-1" x="160.75" y="73.27" width="1.15" height="26.39"/><rect class="cls-1" x="161.9" y="73.27" width="1.15" height="26.39"/><rect class="cls-1" x="163.05" y="73.27" width="1.15" height="26.39"/><rect class="cls-1" x="164.2" y="73.27" width="1.15" height="26.39"/><rect class="cls-1" x="165.35" y="73.27" width="1.15" height="26.39"/><rect class="cls-1" x="166.5" y="73.27" width="1.15" height="26.39"/><rect class="cls-1" x="167.65" y="73.27" width="1.15" height="26.39"/><rect class="cls-1" x="168.8" y="73.27" width="1.15" height="26.39"/><rect class="cls-1" x="169.95" y="73.27" width="1.15" height="26.39"/><rect class="cls-1" x="171.1" y="73.27" width="1.15" height="26.39"/><rect class="cls-1" x="172.25" y="73.27" width="1.15" height="26.39"/><rect class="cls-1" x="173.4" y="73.27" width="1.15" height="26.39"/><rect class="cls-1" x="174.54" y="73.27" width="1.15" height="26.39"/><rect class="cls-1" x="175.69" y="73.27" width="1.15" height="26.39"/><rect class="cls-1" x="176.84" y="73.27" width="1.15" height="26.39"/><rect class="cls-1" x="177.99" y="73.27" width="1.15" height="26.39"/><rect class="cls-1" x="179.14" y="73.27" width="1.15" height="26.39"/><rect class="cls-1" x="180.29" y="73.27" width="1.15" height="26.39"/><rect class="cls-1" x="181.44" y="73.27" width="1.15" height="26.39"/><rect class="cls-1" x="182.59" y="73.27" width="1.15" height="26.39"/><path class="cls-1" d="M183.74,99.66v0Z"/></g><path class="cls-1" d="M202.54,97.22a9.06,9.06,0,0,1-6.5,2.26,11.21,11.21,0,0,1-8.88-4.11l3.06-4.55A11.12,11.12,0,0,0,193,92.95a5.65,5.65,0,0,0,2.59.75,2.52,2.52,0,0,0,1.95-.77,3.09,3.09,0,0,0,.71-2.18V79.17h-8.73v-5.5h15.43V90.89A8.3,8.3,0,0,1,202.54,97.22Z"/><g class="cls-5"><path class="cls-1" d="M187.16,73.67v0Z"/><rect class="cls-1" x="187.16" y="73.67" width="0.74" height="25.81"/><rect class="cls-1" x="187.9" y="73.67" width="0.74" height="25.81"/><rect class="cls-1" x="188.64" y="73.67" width="0.74" height="25.81"/><rect class="cls-1" x="189.38" y="73.67" width="0.74" height="25.81"/><rect class="cls-1" x="190.12" y="73.67" width="0.74" height="25.81"/><rect class="cls-1" x="190.86" y="73.67" width="0.74" height="25.81"/><rect class="cls-1" x="191.6" y="73.67" width="0.74" height="25.81"/><rect class="cls-1" x="192.34" y="73.67" width="0.74" height="25.81"/><rect class="cls-1" x="193.08" y="73.67" width="0.74" height="25.81"/><rect class="cls-1" x="193.82" y="73.67" width="0.74" height="25.81"/><rect class="cls-1" x="194.56" y="73.67" width="0.74" height="25.81"/><rect class="cls-1" x="195.3" y="73.67" width="0.74" height="25.81"/><rect class="cls-1" x="196.04" y="73.67" width="0.74" height="25.81"/><rect class="cls-1" x="196.78" y="73.67" width="0.74" height="25.81"/><rect class="cls-1" x="197.52" y="73.67" width="0.74" height="25.81"/><rect class="cls-1" x="198.26" y="73.67" width="0.74" height="25.81"/><rect class="cls-1" x="199" y="73.67" width="0.74" height="25.81"/><rect class="cls-1" x="199.74" y="73.67" width="0.74" height="25.81"/><rect class="cls-1" x="200.48" y="73.67" width="0.74" height="25.81"/><rect class="cls-1" x="201.22" y="73.67" width="0.74" height="25.81"/><rect class="cls-1" x="201.96" y="73.67" width="0.74" height="25.81"/><rect class="cls-1" x="202.7" y="73.67" width="0.74" height="25.81"/><rect class="cls-1" x="203.44" y="73.67" width="0.74" height="25.81"/><rect class="cls-1" x="204.18" y="73.67" width="0.74" height="25.81"/><path class="cls-1" d="M204.92,99.48v0Z"/></g><path class="cls-1" d="M213.08,73.67H233.2V79H219.74v4.77h12.16V89l-12.16,0v4.81h13.83v5.31H213.08Z"/><g class="cls-6"><path class="cls-1" d="M213.08,73.67v0Z"/><rect class="cls-1" x="213.08" y="73.67" width="0.85" height="25.52"/><rect class="cls-1" x="213.93" y="73.67" width="0.85" height="25.52"/><rect class="cls-1" x="214.78" y="73.67" width="0.85" height="25.52"/><rect class="cls-1" x="215.64" y="73.67" width="0.85" height="25.52"/><rect class="cls-1" x="216.49" y="73.67" width="0.85" height="25.52"/><rect class="cls-1" x="217.34" y="73.67" width="0.85" height="25.52"/><rect class="cls-1" x="218.2" y="73.67" width="0.85" height="25.52"/><rect class="cls-1" x="219.05" y="73.67" width="0.85" height="25.52"/><rect class="cls-1" x="219.91" y="73.67" width="0.85" height="25.52"/><rect class="cls-1" x="220.76" y="73.67" width="0.85" height="25.52"/><rect class="cls-1" x="221.61" y="73.67" width="0.85" height="25.52"/><rect class="cls-1" x="222.47" y="73.67" width="0.85" height="25.52"/><rect class="cls-1" x="223.32" y="73.67" width="0.85" height="25.52"/><rect class="cls-1" x="224.18" y="73.67" width="0.85" height="25.52"/><rect class="cls-1" x="225.03" y="73.67" width="0.85" height="25.52"/><rect class="cls-1" x="225.88" y="73.67" width="0.85" height="25.52"/><rect class="cls-1" x="226.74" y="73.67" width="0.85" height="25.52"/><rect class="cls-1" x="227.59" y="73.67" width="0.85" height="25.52"/><rect class="cls-1" x="228.44" y="73.67" width="0.85" height="25.52"/><rect class="cls-1" x="229.3" y="73.67" width="0.85" height="25.52"/><rect class="cls-1" x="230.15" y="73.67" width="0.85" height="25.52"/><rect class="cls-1" x="231.01" y="73.67" width="0.85" height="25.52"/><rect class="cls-1" x="231.86" y="73.67" width="0.85" height="25.52"/><rect class="cls-1" x="232.71" y="73.67" width="0.85" height="25.52"/><path class="cls-1" d="M233.57,99.19v0Z"/></g><path class="cls-1" d="M256.79,79.84a7,7,0,0,0-3.39-.93,6.62,6.62,0,0,0-3.51,1,6.82,6.82,0,0,0-2.49,2.66,8.25,8.25,0,0,0,0,7.53,6.82,6.82,0,0,0,2.49,2.66,6.62,6.62,0,0,0,3.51,1,7.74,7.74,0,0,0,3.28-.8,10.34,10.34,0,0,0,3.06-2.18l3.89,4.19a15.56,15.56,0,0,1-4.93,3.48,13.69,13.69,0,0,1-12.5-.46,12.76,12.76,0,0,1-4.8-4.77,13.27,13.27,0,0,1-1.75-6.77A12.71,12.71,0,0,1,246.32,75a14.51,14.51,0,0,1,12.58-.53,13.93,13.93,0,0,1,4.69,3.22l-3.86,4.66A9.51,9.51,0,0,0,256.79,79.84Z"/><g class="cls-7"><path class="cls-1" d="M239.65,73.27v0Z"/><rect class="cls-1" x="239.65" y="73.27" width="1" height="26.39"/><rect class="cls-1" x="240.65" y="73.27" width="1" height="26.39"/><rect class="cls-1" x="241.65" y="73.27" width="1" height="26.39"/><rect class="cls-1" x="242.64" y="73.27" width="1" height="26.39"/><rect class="cls-1" x="243.64" y="73.27" width="1" height="26.39"/><rect class="cls-1" x="244.64" y="73.27" width="1" height="26.39"/><rect class="cls-1" x="245.64" y="73.27" width="1" height="26.39"/><rect class="cls-1" x="246.64" y="73.27" width="1" height="26.39"/><rect class="cls-1" x="247.64" y="73.27" width="1" height="26.39"/><rect class="cls-1" x="248.64" y="73.27" width="1" height="26.39"/><rect class="cls-1" x="249.64" y="73.27" width="1" height="26.39"/><rect class="cls-1" x="250.64" y="73.27" width="1" height="26.39"/><rect class="cls-1" x="251.64" y="73.27" width="1" height="26.39"/><rect class="cls-1" x="252.64" y="73.27" width="1" height="26.39"/><rect class="cls-1" x="253.64" y="73.27" width="1" height="26.39"/><rect class="cls-1" x="254.64" y="73.27" width="1" height="26.39"/><rect class="cls-1" x="255.64" y="73.27" width="1" height="26.39"/><rect class="cls-1" x="256.64" y="73.27" width="1" height="26.39"/><rect class="cls-1" x="257.64" y="73.27" width="1" height="26.39"/><rect class="cls-1" x="258.63" y="73.27" width="1" height="26.39"/><rect class="cls-1" x="259.63" y="73.27" width="1" height="26.39"/><rect class="cls-1" x="260.63" y="73.27" width="1" height="26.39"/><rect class="cls-1" x="261.63" y="73.27" width="1" height="26.39"/><rect class="cls-1" x="262.63" y="73.27" width="1" height="26.39"/><path class="cls-1" d="M263.63,99.66v0Z"/></g><path class="cls-1" d="M267.89,73.67h21.87v5.5h-7.64v20h-6.66v-20h-7.57Z"/><g class="cls-8"><path class="cls-1" d="M267.89,73.67v0Z"/><rect class="cls-1" x="267.89" y="73.67" width="0.91" height="25.52"/><rect class="cls-1" x="268.8" y="73.67" width="0.91" height="25.52"/><rect class="cls-1" x="269.71" y="73.67" width="0.91" height="25.52"/><rect class="cls-1" x="270.62" y="73.67" width="0.91" height="25.52"/><rect class="cls-1" x="271.53" y="73.67" width="0.91" height="25.52"/><rect class="cls-1" x="272.45" y="73.67" width="0.91" height="25.52"/><rect class="cls-1" x="273.36" y="73.67" width="0.91" height="25.52"/><rect class="cls-1" x="274.27" y="73.67" width="0.91" height="25.52"/><rect class="cls-1" x="275.18" y="73.67" width="0.91" height="25.52"/><rect class="cls-1" x="276.09" y="73.67" width="0.91" height="25.52"/><rect class="cls-1" x="277" y="73.67" width="0.91" height="25.52"/><rect class="cls-1" x="277.91" y="73.67" width="0.91" height="25.52"/><rect class="cls-1" x="278.83" y="73.67" width="0.91" height="25.52"/><rect class="cls-1" x="279.74" y="73.67" width="0.91" height="25.52"/><rect class="cls-1" x="280.65" y="73.67" width="0.91" height="25.52"/><rect class="cls-1" x="281.56" y="73.67" width="0.91" height="25.52"/><rect class="cls-1" x="282.47" y="73.67" width="0.91" height="25.52"/><rect class="cls-1" x="283.38" y="73.67" width="0.91" height="25.52"/><rect class="cls-1" x="284.29" y="73.67" width="0.91" height="25.52"/><rect class="cls-1" x="285.21" y="73.67" width="0.91" height="25.52"/><rect class="cls-1" x="286.12" y="73.67" width="0.91" height="25.52"/><rect class="cls-1" x="287.03" y="73.67" width="0.91" height="25.52"/><rect class="cls-1" x="287.94" y="73.67" width="0.91" height="25.52"/><rect class="cls-1" x="288.85" y="73.67" width="0.91" height="25.52"/><path class="cls-1" d="M289.76,99.19v0Z"/></g><path class="cls-1" d="M107.5,19.6A29.4,29.4,0,0,0,79.78,0H30.49A33.55,33.55,0,0,0,0,19.52a.05.05,0,0,0,0,.08H78.78c5.24,0,10,4.26,10.19,9.5a9.8,9.8,0,0,1-9.79,10.1H30.84a.05.05,0,0,0-.05.05v3.06A16.48,16.48,0,0,0,44.45,58.54V90.26A34.41,34.41,0,0,0,64,121.34V58.84a.05.05,0,0,1,.05-.05H79.78A29.41,29.41,0,0,0,107.5,19.6Z"/><path class="cls-1" d="M29.69,35A11.14,11.14,0,0,1,18.55,23.85H44.79A11.14,11.14,0,0,1,55.94,35h0"/><g class="cls-9"><path class="cls-1" d="M142.58,112.12a4.66,4.66,0,0,1,0,8.15,5,5,0,0,1-2.47.62h-3.75V111.5h3.77A5,5,0,0,1,142.58,112.12Zm-.48,7.43a3.86,3.86,0,0,0,0-6.7,3.9,3.9,0,0,0-2-.51h-2.83v7.72h2.87A3.83,3.83,0,0,0,142.1,119.54Z"/><path class="cls-1" d="M160.44,111.5h6.29v.83h-5.36v3.36h4.8v.83h-4.8v3.53h5.54v.83h-6.46Z"/><path class="cls-1" d="M186.55,112.47a4.71,4.71,0,0,0-1.29-.2,2.79,2.79,0,0,0-1.55.38,1.19,1.19,0,0,0-.59,1,1.36,1.36,0,0,0,.32.94,2.29,2.29,0,0,0,.79.57,12.58,12.58,0,0,0,1.29.46,11.1,11.1,0,0,1,1.54.56,2.72,2.72,0,0,1,1,.8,2.42,2.42,0,0,1,0,2.71,2.7,2.7,0,0,1-1.19.89,4.58,4.58,0,0,1-1.76.32,4.92,4.92,0,0,1-1.91-.39,5.17,5.17,0,0,1-1.61-1l.43-.77a4.64,4.64,0,0,0,1.46,1,4.22,4.22,0,0,0,1.64.35,3,3,0,0,0,1.71-.44,1.36,1.36,0,0,0,.63-1.18,1.44,1.44,0,0,0-.32-1,2.13,2.13,0,0,0-.79-.58q-.47-.2-1.32-.47a13.55,13.55,0,0,1-1.53-.56,2.58,2.58,0,0,1-1-.78,2.14,2.14,0,0,1-.4-1.35,2,2,0,0,1,.4-1.25,2.55,2.55,0,0,1,1.13-.83,4.52,4.52,0,0,1,1.68-.29,5.68,5.68,0,0,1,2.9.83l-.4.79A4.83,4.83,0,0,0,186.55,112.47Z"/><path class="cls-1" d="M204.2,111.5h.93v9.39h-.93Z"/><path class="cls-1" d="M228.11,116.29h.82v3.44a5.19,5.19,0,0,1-1.59.91,5.36,5.36,0,0,1-1.85.33,4.9,4.9,0,0,1-4.23-2.39,4.6,4.6,0,0,1-.66-2.4,4.53,4.53,0,0,1,.66-2.39,4.81,4.81,0,0,1,1.79-1.73,5,5,0,0,1,2.48-.64,5.21,5.21,0,0,1,1.85.34,5,5,0,0,1,1.58.94l-.54.66a4.08,4.08,0,0,0-1.33-.83,4.32,4.32,0,0,0-1.56-.29,3.91,3.91,0,0,0-2,.53,4,4,0,0,0-1.45,1.43,3.78,3.78,0,0,0-.54,2,3.84,3.84,0,0,0,.54,2,4,4,0,0,0,3.47,2,4.2,4.2,0,0,0,1.34-.22,4.6,4.6,0,0,0,1.23-.63Z"/><path class="cls-1" d="M251.9,111.5h.91v9.39h-1l-5.82-8v8h-.93V111.5h1l5.83,8Z"/></g></g></g></svg>