<svg xmlns="http://www.w3.org/2000/svg" viewBox="0 0 594.98 370.01"><defs><style>.cls-1{fill:#fff;}.cls-2{opacity:0.8;}</style></defs><title>logo-loading_1</title><g id="Camada_2" data-name="Camada 2"><g id="Camada_1-2" data-name="Camada 1"><path class="cls-1" d="M63.16,222q8.9,7.77,8.9,22,0,14.94-8.9,23.18T38,275.39l-13.14.12V298H0V214.21H38Q54.25,214.21,63.16,222ZM45.47,253.29q3-3,3-8.6t-3-8.43q-3-2.93-8.66-2.93h-12v22.94h12Q42.42,256.27,45.47,253.29Z"/><path class="cls-1" d="M136.71,298l-11.11-22.59H112.45V298H87.59V214.21h39.08q16.85,0,26.11,7.77T162,244a33.1,33.1,0,0,1-3.64,16,27,27,0,0,1-10.46,10.7l17,27.37Zm-24.26-41.71h14.22q5.62,0,8.66-3t3-8.6q0-5.5-3-8.43t-8.66-2.93H112.45Z"/><path class="cls-1" d="M244.44,218.27a41.7,41.7,0,0,1,16.37,15.47,42.24,42.24,0,0,1,5.92,22.17,43.08,43.08,0,0,1-5.92,22.41A41.83,41.83,0,0,1,244.44,294a51,51,0,0,1-46.79,0,41.94,41.94,0,0,1-16.31-15.65,43.09,43.09,0,0,1-5.91-22.41,42.25,42.25,0,0,1,5.91-22.17,41.8,41.8,0,0,1,16.31-15.47,51.52,51.52,0,0,1,46.79,0Zm-33.22,18a21.63,21.63,0,0,0-7.53,8.19A23.86,23.86,0,0,0,200.88,256a24.19,24.19,0,0,0,2.81,11.59,22,22,0,0,0,7.53,8.31,18.48,18.48,0,0,0,10.22,3,17.71,17.71,0,0,0,10-3,21.1,21.1,0,0,0,7.23-8.25A25.46,25.46,0,0,0,241.27,256a25.2,25.2,0,0,0-2.63-11.53,20.82,20.82,0,0,0-7.17-8.19,17.89,17.89,0,0,0-10-3A18.76,18.76,0,0,0,211.21,236.32Z"/><path class="cls-1" d="M324.86,291.47q-8.19,7.59-22.29,7.59-18.28,0-30.95-14L283,268.7a35.46,35.46,0,0,0,9.26,7.05,18.87,18.87,0,0,0,8.31,2.39A7,7,0,0,0,306,276q2-2.15,2-6.33V234H279.51V214.21H333v56Q333,283.88,324.86,291.47Z"/><path class="cls-1" d="M351.68,214.21h68.47v19.12H376.54v13.14h39.55v19.12H376.54v13.26h44.81V298H351.68Z"/><path class="cls-1" d="M490.48,236.38a21.6,21.6,0,0,0-10.58-3,18.62,18.62,0,0,0-10.16,2.87,20.08,20.08,0,0,0-7.17,7.95,26.08,26.08,0,0,0,0,22.82,20.51,20.51,0,0,0,7.17,8,18.33,18.33,0,0,0,10.16,2.93,23.56,23.56,0,0,0,10.22-2.63,33.28,33.28,0,0,0,9.74-7.17l14.34,15.3a50.88,50.88,0,0,1-16.43,11.83A45.75,45.75,0,0,1,456.07,294a41.09,41.09,0,0,1-15.83-15.71,44.46,44.46,0,0,1-5.74-22.47,42.35,42.35,0,0,1,5.86-22,41.56,41.56,0,0,1,16.13-15.47,48.16,48.16,0,0,1,41.94-1.55,46.07,46.07,0,0,1,15.77,10.87l-14.34,17.09A30,30,0,0,0,490.48,236.38Z"/><path class="cls-1" d="M521.37,214.21H595V234H570.61V298h-25V234H521.37Z"/><path class="cls-1" d="M176.82,332.53a19.71,19.71,0,0,1,0,34.53,21.23,21.23,0,0,1-10.47,2.62H150.46V329.91h16A21,21,0,0,1,176.82,332.53Zm-2,31.45a16.36,16.36,0,0,0-.08-28.38,16.51,16.51,0,0,0-8.33-2.16h-12v32.71h12.17A16.23,16.23,0,0,0,174.81,364Z"/><path class="cls-1" d="M212.63,329.91h26.62v3.53H216.55v14.22h20.31v3.53H216.55v15H240v3.53H212.63Z"/><path class="cls-1" d="M283.39,334a20,20,0,0,0-5.46-.82,11.83,11.83,0,0,0-6.57,1.62,5,5,0,0,0-2.47,4.41,5.77,5.77,0,0,0,1.36,4,9.62,9.62,0,0,0,3.36,2.42,52.61,52.61,0,0,0,5.46,2,47.1,47.1,0,0,1,6.51,2.36,11.53,11.53,0,0,1,4.21,3.39,10.23,10.23,0,0,1-.06,11.49,11.47,11.47,0,0,1-5,3.78,19.42,19.42,0,0,1-7.45,1.34,20.84,20.84,0,0,1-8.1-1.65,21.82,21.82,0,0,1-6.8-4.38l1.82-3.24a19.6,19.6,0,0,0,6.2,4.1,17.83,17.83,0,0,0,6.94,1.48,12.51,12.51,0,0,0,7.22-1.85,5.76,5.76,0,0,0,2.67-5,6.07,6.07,0,0,0-1.36-4.1,9.07,9.07,0,0,0-3.36-2.45q-2-.85-5.57-2a57.2,57.2,0,0,1-6.48-2.36,10.94,10.94,0,0,1-4.15-3.3,9,9,0,0,1-1.71-5.72,8.57,8.57,0,0,1,1.71-5.29,10.79,10.79,0,0,1,4.78-3.5,19.13,19.13,0,0,1,7.11-1.22A24,24,0,0,1,290.44,333l-1.71,3.36A20.59,20.59,0,0,0,283.39,334Z"/><path class="cls-1" d="M318.31,329.91h3.92v39.76h-3.92Z"/><path class="cls-1" d="M379.74,350.22h3.47v14.56a22,22,0,0,1-6.74,3.84,22.75,22.75,0,0,1-7.82,1.39,20.76,20.76,0,0,1-17.92-10.12,19.49,19.49,0,0,1-2.79-10.18,19.19,19.19,0,0,1,2.79-10.12,20.36,20.36,0,0,1,7.59-7.31,21.06,21.06,0,0,1,10.49-2.7,22.07,22.07,0,0,1,7.82,1.42,21.37,21.37,0,0,1,6.68,4L381,337.76a17.3,17.3,0,0,0-5.63-3.5,18.27,18.27,0,0,0-6.6-1.22,16.57,16.57,0,0,0-8.47,2.25,17,17,0,0,0-6.14,6.06,16,16,0,0,0-2.27,8.36,16.26,16.26,0,0,0,2.27,8.45,17,17,0,0,0,14.67,8.33,17.8,17.8,0,0,0,5.66-.94,19.55,19.55,0,0,0,5.2-2.64Z"/><path class="cls-1" d="M440.66,329.91h3.87v39.76h-4.15L415.74,336v33.67h-3.92V329.91H416l24.69,33.67Z"/><g class="cls-2"><path class="cls-1" d="M417,44.25A66.38,66.38,0,0,0,354.37,0H243.09a75.75,75.75,0,0,0-68.83,44.07.11.11,0,0,0,.09.17H352.13c11.83,0,22.66,9.63,23,21.45A22.12,22.12,0,0,1,353,88.49H243.88a.12.12,0,0,0-.12.12v6.92a37.21,37.21,0,0,0,30.84,36.65V203.8A77.7,77.7,0,0,0,318.84,274V132.86a.12.12,0,0,1,.12-.12h35.41A66.4,66.4,0,0,0,417,44.25Z"/><path class="cls-1" d="M241.28,79a25.16,25.16,0,0,1-25.16-25.16h59.27A25.16,25.16,0,0,1,300.55,79h0"/></g></g></g></svg>