<svg xmlns="http://www.w3.org/2000/svg" viewBox="0 0 599.27 161.06"><defs><style>.cls-1{opacity:0.9;}.cls-2{opacity:0.4;}.cls-3{opacity:0.8;}.cls-4{fill:#fff;}</style></defs><title>logo-top</title><g id="Camada_2" data-name="Camada 2"><g id="Camada_1-2" data-name="Camada 1"><g class="cls-1"><g class="cls-2"><g class="cls-3"><path class="cls-4" d="M369.87,26A39,39,0,0,0,333.07,0H267.65a44.53,44.53,0,0,0-40.46,25.91.07.07,0,0,0,.05.1H331.76c7,0,13.32,5.66,13.53,12.61a13,13,0,0,1-13,13.4H268.12a.07.07,0,0,0-.07.07v4.07A21.87,21.87,0,0,0,286.18,77.7v42.1a45.68,45.68,0,0,0,26,41.26v-83a.07.07,0,0,1,.07-.07h20.82a39,39,0,0,0,36.79-52Z"/></g><path class="cls-4" d="M266.59,46.45A14.79,14.79,0,0,1,251.8,31.66h34.84a14.79,14.79,0,0,1,14.79,14.79h0"/></g><path class="cls-4" d="M31.71,63.37q4.47,3.9,4.47,11,0,7.5-4.47,11.64T19.08,90.19l-6.6.06v11.28H0V59.47H19.08Q27.24,59.47,31.71,63.37ZM22.83,79.09a5.78,5.78,0,0,0,1.53-4.32,5.6,5.6,0,0,0-1.53-4.23,6,6,0,0,0-4.35-1.47h-6V80.59h6A6,6,0,0,0,22.83,79.09Z"/><path class="cls-4" d="M71.64,101.53,66.06,90.19h-6.6v11.34H47V59.47H66.6q8.46,0,13.11,3.9t4.65,11a16.62,16.62,0,0,1-1.83,8,13.55,13.55,0,0,1-5.25,5.37l8.52,13.74ZM59.46,80.59H66.6a6,6,0,0,0,4.35-1.5,5.78,5.78,0,0,0,1.53-4.32,5.6,5.6,0,0,0-1.53-4.23,6,6,0,0,0-4.35-1.47H59.46Z"/><path class="cls-4" d="M128.73,61.51a20.94,20.94,0,0,1,8.22,7.77,21.21,21.21,0,0,1,3,11.13,21.63,21.63,0,0,1-3,11.25,21,21,0,0,1-8.22,7.86,25.63,25.63,0,0,1-23.49,0A21.06,21.06,0,0,1,97,91.66a21.64,21.64,0,0,1-3-11.25,21.21,21.21,0,0,1,3-11.13,21,21,0,0,1,8.19-7.77,25.87,25.87,0,0,1,23.49,0ZM112,70.57a10.87,10.87,0,0,0-3.78,4.11,12,12,0,0,0-1.41,5.79,12.15,12.15,0,0,0,1.41,5.82A11,11,0,0,0,112,90.46,9.28,9.28,0,0,0,117.18,92a8.9,8.9,0,0,0,5-1.53,10.6,10.6,0,0,0,3.63-4.14,12.79,12.79,0,0,0,1.32-5.85,12.65,12.65,0,0,0-1.32-5.79,10.45,10.45,0,0,0-3.6-4.11,9,9,0,0,0-5-1.5A9.42,9.42,0,0,0,112,70.57Z"/><path class="cls-4" d="M172.11,98.26q-4.11,3.81-11.19,3.81a20.18,20.18,0,0,1-15.54-7l5.7-8.22a17.81,17.81,0,0,0,4.65,3.54,9.47,9.47,0,0,0,4.17,1.2,3.52,3.52,0,0,0,2.73-1.08,4.55,4.55,0,0,0,1-3.18V69.43H149.34v-10h26.88V87.61Q176.22,94.45,172.11,98.26Z"/><path class="cls-4" d="M188.58,59.47H223v9.6h-21.9v6.6h19.86v9.6H201.06v6.66h22.5v9.6h-35Z"/><path class="cls-4" d="M261.27,70.6A10.84,10.84,0,0,0,256,69.07a9.35,9.35,0,0,0-5.1,1.44,10.08,10.08,0,0,0-3.6,4,13.09,13.09,0,0,0,0,11.46,10.3,10.3,0,0,0,3.6,4,9.21,9.21,0,0,0,5.1,1.47,11.83,11.83,0,0,0,5.13-1.32,16.71,16.71,0,0,0,4.89-3.6l7.2,7.68a25.56,25.56,0,0,1-8.25,5.94A23,23,0,0,1,244,99.52a20.63,20.63,0,0,1-8-7.89,22.33,22.33,0,0,1-2.88-11.28,21.26,21.26,0,0,1,2.94-11.07,20.87,20.87,0,0,1,8.1-7.77,24.18,24.18,0,0,1,21.06-.78,23.14,23.14,0,0,1,7.92,5.46L266,74.77A15.06,15.06,0,0,0,261.27,70.6Z"/><path class="cls-4" d="M279.78,59.47h37v10H304.5v32.1H292V69.43H279.78Z"/><path class="cls-4" d="M375.93,62.26a20.1,20.1,0,0,1,7.77,7.53,21.76,21.76,0,0,1,0,21.48,20.25,20.25,0,0,1-7.83,7.53,22.83,22.83,0,0,1-11.16,2.73H347.76v-42h17.1A22.54,22.54,0,0,1,375.93,62.26Zm-3,32a15,15,0,0,0,5.64-5.64,16.66,16.66,0,0,0,0-16.14,15.29,15.29,0,0,0-5.73-5.67,16,16,0,0,0-8.07-2.07H353.52V96.31H365A15.74,15.74,0,0,0,372.93,94.27Z"/><path class="cls-4" d="M400.74,59.53H429.9v5.22H406.5v13h20.94v5.22H406.5V96.31h24.12v5.22H400.74Z"/><path class="cls-4" d="M464.37,65.5a20.57,20.57,0,0,0-5.79-.93A10.69,10.69,0,0,0,452.73,66a4.38,4.38,0,0,0-2.19,3.87,5.1,5.1,0,0,0,1.32,3.63,9.34,9.34,0,0,0,3.24,2.22q1.92.81,5.34,1.89a60.44,60.44,0,0,1,6.9,2.52,12,12,0,0,1,4.5,3.57A9.88,9.88,0,0,1,473.7,90a10.48,10.48,0,0,1-1.95,6.3,12.48,12.48,0,0,1-5.46,4.17,20.74,20.74,0,0,1-8.07,1.47,23.46,23.46,0,0,1-9-1.8,24.37,24.37,0,0,1-7.56-4.8l2.58-5A21.64,21.64,0,0,0,451,94.84a18.6,18.6,0,0,0,7.29,1.59,11.65,11.65,0,0,0,6.63-1.65,5.14,5.14,0,0,0,2.43-4.47A5.21,5.21,0,0,0,466,86.65a9.32,9.32,0,0,0-3.33-2.28,57,57,0,0,0-5.43-1.86,55.32,55.32,0,0,1-6.84-2.46,11.8,11.8,0,0,1-4.47-3.54,9.75,9.75,0,0,1-1.83-6.18A9.9,9.9,0,0,1,446,64.39a11.75,11.75,0,0,1,5.22-4,20.43,20.43,0,0,1,7.8-1.38,25.22,25.22,0,0,1,7.41,1.11,24.88,24.88,0,0,1,6.45,3l-2.4,5.16A24.22,24.22,0,0,0,464.37,65.5Z"/><path class="cls-4" d="M488.88,59.53h5.76v42h-5.76Z"/><path class="cls-4" d="M541.67,81h5.1V96.43a26.75,26.75,0,0,1-15.9,5.52,22.16,22.16,0,0,1-11.1-2.85,21.24,21.24,0,0,1-10.86-18.63,20.51,20.51,0,0,1,2.94-10.77,21.13,21.13,0,0,1,8-7.71,22.92,22.92,0,0,1,11.28-2.82,24.22,24.22,0,0,1,8.55,1.56A23,23,0,0,1,547,65l-3.3,4.2a18.3,18.3,0,0,0-5.79-3.63,18.1,18.1,0,0,0-6.69-1.29,16.4,16.4,0,0,0-8.28,2.16,16,16,0,0,0-6,5.88,16.25,16.25,0,0,0,0,16.35,16.41,16.41,0,0,0,6,5.94,16.21,16.21,0,0,0,8.28,2.19,17.62,17.62,0,0,0,5.37-.87,20,20,0,0,0,5.07-2.43Z"/><path class="cls-4" d="M593.57,59.53h5.7v42h-5.82L569.45,69v32.52h-5.76v-42h5.82l24.06,32.58Z"/></g></g></g></svg>