<svg xmlns="http://www.w3.org/2000/svg" viewBox="0 0 659.25 174.35"><defs><style>.cls-1{opacity:0.9;}.cls-2{fill:#fff;}</style></defs><title>logo-loading</title><g id="Camada_2" data-name="Camada 2"><g id="Camada_1-2" data-name="Camada 1"><g class="cls-1"><path class="cls-2" d="M70,10.33q9.86,8.61,9.86,24.36,0,16.55-9.86,25.69T42.1,69.51l-14.56.13V94.54H0V1.72H42.1Q60.11,1.72,70,10.33ZM50.38,45q3.38-3.31,3.38-9.53t-3.38-9.34q-3.38-3.24-9.6-3.24H27.54V48.33H40.78Q47,48.33,50.38,45Z"/><path class="cls-2" d="M151.47,94.54l-12.31-25H124.6v25H97.06V1.72h43.3q18.67,0,28.93,8.61t10.26,24.36a36.67,36.67,0,0,1-4,17.68,29.92,29.92,0,0,1-11.59,11.85l18.8,30.32ZM124.6,48.33h15.76q6.22,0,9.6-3.31t3.38-9.53q0-6.09-3.38-9.34t-9.6-3.24H124.6Z"/><path class="cls-2" d="M270.84,6.22A46.2,46.2,0,0,1,289,23.37a46.8,46.8,0,0,1,6.56,24.56A47.73,47.73,0,0,1,289,72.76,46.35,46.35,0,0,1,270.84,90.1a56.55,56.55,0,0,1-51.84,0,46.47,46.47,0,0,1-18.07-17.35,47.75,47.75,0,0,1-6.55-24.83,46.82,46.82,0,0,1,6.55-24.56A46.32,46.32,0,0,1,219,6.22a57.08,57.08,0,0,1,51.84,0ZM234,26.22a24,24,0,0,0-8.34,9.07,26.43,26.43,0,0,0-3.11,12.78,26.8,26.8,0,0,0,3.11,12.84,24.35,24.35,0,0,0,8.34,9.2,20.48,20.48,0,0,0,11.32,3.38,19.63,19.63,0,0,0,11.06-3.38,23.38,23.38,0,0,0,8-9.14,28.21,28.21,0,0,0,2.91-12.91,27.92,27.92,0,0,0-2.91-12.78,23.06,23.06,0,0,0-7.95-9.07,19.83,19.83,0,0,0-11.12-3.31A20.79,20.79,0,0,0,234,26.22Z"/><path class="cls-2" d="M359.95,87.32q-9.07,8.41-24.7,8.41Q315,95.73,301,80.24L313.54,62.1a39.29,39.29,0,0,0,10.26,7.81,20.91,20.91,0,0,0,9.2,2.65,7.77,7.77,0,0,0,6-2.38q2.18-2.38,2.18-7V23.7H309.7v-22H369v62.1Q369,78.92,359.95,87.32Z"/><path class="cls-2" d="M389.67,1.72h75.87V22.91H417.21V37.47H461V58.66H417.21v14.7h49.65V94.54H389.67Z"/><path class="cls-2" d="M543.46,26.28a23.93,23.93,0,0,0-11.72-3.38,20.63,20.63,0,0,0-11.25,3.18,22.25,22.25,0,0,0-7.95,8.81,27.09,27.09,0,0,0-2.91,12.64,27.07,27.07,0,0,0,2.91,12.64,22.72,22.72,0,0,0,7.95,8.87,20.31,20.31,0,0,0,11.25,3.24,26.11,26.11,0,0,0,11.32-2.91,36.87,36.87,0,0,0,10.79-7.94l15.89,16.95a56.37,56.37,0,0,1-18.2,13.11,50.69,50.69,0,0,1-46.21-1.39,45.53,45.53,0,0,1-17.54-17.41,49.26,49.26,0,0,1-6.36-24.89,46.92,46.92,0,0,1,6.49-24.43A46,46,0,0,1,505.79,6.22,53.36,53.36,0,0,1,552.27,4.5a51,51,0,0,1,17.48,12L553.86,35.49A33.25,33.25,0,0,0,543.46,26.28Z"/><path class="cls-2" d="M577.69,1.72h81.56v22h-27V94.54H604.57V23.7H577.69Z"/><path class="cls-2" d="M195.92,132.82a21.84,21.84,0,0,1,0,38.25,23.52,23.52,0,0,1-11.6,2.9H166.71V129.92h17.71A23.22,23.22,0,0,1,195.92,132.82Zm-2.24,34.85a18.13,18.13,0,0,0-.09-31.45,18.29,18.29,0,0,0-9.23-2.39h-13.3v36.24h13.49A18,18,0,0,0,193.69,167.67Z"/><path class="cls-2" d="M235.6,129.92h29.49v3.91H239.95v15.76h22.5v3.91h-22.5v16.57h26V174H235.6Z"/><path class="cls-2" d="M314,134.49a22.18,22.18,0,0,0-6-.91,13.1,13.1,0,0,0-7.28,1.8,5.57,5.57,0,0,0-2.74,4.88,6.39,6.39,0,0,0,1.51,4.41,10.66,10.66,0,0,0,3.72,2.68,58.29,58.29,0,0,0,6,2.17,52.19,52.19,0,0,1,7.22,2.61,12.78,12.78,0,0,1,4.66,3.75,11.34,11.34,0,0,1-.06,12.73,12.71,12.71,0,0,1-5.58,4.19,21.52,21.52,0,0,1-8.26,1.48,23.09,23.09,0,0,1-9-1.83,24.18,24.18,0,0,1-7.53-4.85l2-3.59a21.72,21.72,0,0,0,6.87,4.54,19.76,19.76,0,0,0,7.69,1.64,13.86,13.86,0,0,0,8-2,6.38,6.38,0,0,0,3-5.51,6.73,6.73,0,0,0-1.51-4.54,10.05,10.05,0,0,0-3.72-2.71q-2.21-.94-6.18-2.2a63.38,63.38,0,0,1-7.18-2.62,12.12,12.12,0,0,1-4.6-3.66,10,10,0,0,1-1.89-6.33,9.5,9.5,0,0,1,1.89-5.86,12,12,0,0,1,5.29-3.88,21.2,21.2,0,0,1,7.88-1.35,26.56,26.56,0,0,1,13.61,3.91l-1.89,3.72A22.82,22.82,0,0,0,314,134.49Z"/><path class="cls-2" d="M352.69,129.92H357V174h-4.35Z"/><path class="cls-2" d="M420.76,152.42h3.84v16.13a24.35,24.35,0,0,1-7.47,4.25,25.21,25.21,0,0,1-8.67,1.54,23,23,0,0,1-19.85-11.22,21.59,21.59,0,0,1-3.09-11.28,21.26,21.26,0,0,1,3.09-11.22,22.56,22.56,0,0,1,8.41-8.1,23.33,23.33,0,0,1,11.63-3,24.46,24.46,0,0,1,8.67,1.58,23.68,23.68,0,0,1,7.41,4.41l-2.52,3.09a19.17,19.17,0,0,0-6.24-3.88,20.24,20.24,0,0,0-7.31-1.35,18.36,18.36,0,0,0-9.39,2.49,18.79,18.79,0,0,0-6.81,6.71,17.74,17.74,0,0,0-2.52,9.26,18,18,0,0,0,2.52,9.36,18.81,18.81,0,0,0,16.26,9.23,19.72,19.72,0,0,0,6.27-1,21.66,21.66,0,0,0,5.77-2.93Z"/><path class="cls-2" d="M488.25,129.92h4.29V174h-4.6l-27.29-37.31V174H456.3V129.92h4.6l27.35,37.31Z"/></g></g></g></svg>