<svg xmlns="http://www.w3.org/2000/svg" xmlns:xlink="http://www.w3.org/1999/xlink" viewBox="0 0 111.01 109.03"><defs><style>.cls-1{clip-path:url(#clip-path);}.cls-2{clip-path:url(#clip-path-2);}.cls-3{clip-path:url(#clip-path-3);}.cls-4{clip-path:url(#clip-path-4);}.cls-5{clip-path:url(#clip-path-5);}.cls-6{clip-path:url(#clip-path-6);}.cls-7{clip-path:url(#clip-path-7);}.cls-8{opacity:0.8;}</style><clipPath id="clip-path"><path d="M11,82.82a4.84,4.84,0,0,1,1.57,3.85A5.29,5.29,0,0,1,11,90.76a6.26,6.26,0,0,1-4.42,1.45H3.88v4.12H0V81.45H6.54A6.51,6.51,0,0,1,11,82.82Zm-2.77,5.7a2.22,2.22,0,0,0,.65-1.72,2.13,2.13,0,0,0-.65-1.67,2.65,2.65,0,0,0-1.84-.58H3.88v4.56H6.35A2.61,2.61,0,0,0,8.18,88.52Z"/></clipPath><clipPath id="clip-path-2"><path d="M25.49,96.33l-2.16-4.12H20.44v4.12H16.56V81.45h6.69a6.9,6.9,0,0,1,4.57,1.37,4.76,4.76,0,0,1,1.62,3.85,5.87,5.87,0,0,1-.68,2.9,4.69,4.69,0,0,1-2,1.9l3.1,4.86Zm-5.05-7.22h2.82a2.61,2.61,0,0,0,1.84-.59,2.22,2.22,0,0,0,.65-1.72,2.13,2.13,0,0,0-.65-1.67,2.65,2.65,0,0,0-1.84-.58H20.44Z"/></clipPath><clipPath id="clip-path-3"><path d="M45.24,82.22a7.4,7.4,0,0,1,3.94,6.64,7.53,7.53,0,0,1-3.94,6.73,8.83,8.83,0,0,1-8.21,0,7.48,7.48,0,0,1-2.89-2.78,7.62,7.62,0,0,1-1-4A7.4,7.4,0,0,1,37,82.22a9,9,0,0,1,8.21,0Zm-6.11,2.87a4.12,4.12,0,0,0-1.5,1.58,4.74,4.74,0,0,0,0,4.46,4.32,4.32,0,0,0,1.5,1.59,3.77,3.77,0,0,0,2,.58,3.71,3.71,0,0,0,2-.58,4.11,4.11,0,0,0,1.45-1.59,4.95,4.95,0,0,0,0-4.46,4,4,0,0,0-1.45-1.58,3.77,3.77,0,0,0-2-.57A3.87,3.87,0,0,0,39.13,85.08Z"/></clipPath><clipPath id="clip-path-4"><path d="M60.14,95.18a5.28,5.28,0,0,1-3.79,1.32,6.54,6.54,0,0,1-5.18-2.4L53,91.45a6.48,6.48,0,0,0,1.61,1.24,3.29,3.29,0,0,0,1.51.44,1.47,1.47,0,0,0,1.14-.45,1.8,1.8,0,0,0,.41-1.27V84.66H52.53V81.45h9v10A4.84,4.84,0,0,1,60.14,95.18Z"/></clipPath><clipPath id="clip-path-5"><path d="M66.29,81.45H78v3.1H70.17v2.78h7.09v3.08l-7.09,0v2.8h8.07v3.1H66.29Z"/></clipPath><clipPath id="clip-path-6"><path d="M91.78,85a4.11,4.11,0,0,0-2-.54,3.86,3.86,0,0,0-2,.56,4,4,0,0,0-1.45,1.55,4.81,4.81,0,0,0,0,4.39,4,4,0,0,0,1.45,1.55,3.86,3.86,0,0,0,2,.56,4.52,4.52,0,0,0,1.91-.47,6,6,0,0,0,1.78-1.27l2.27,2.44a9.08,9.08,0,0,1-2.88,2,8,8,0,0,1-7.29-.27,7.44,7.44,0,0,1-2.8-2.78,7.74,7.74,0,0,1-1-3.95,7.41,7.41,0,0,1,3.89-6.64A8.46,8.46,0,0,1,93,81.91a8.12,8.12,0,0,1,2.74,1.88L93.5,86.5A5.55,5.55,0,0,0,91.78,85Z"/></clipPath><clipPath id="clip-path-7"><path d="M98.25,81.45H111v3.21h-4.46V96.33h-3.88V84.66H98.25Z"/></clipPath></defs><title>logo-top2</title><g id="Camada_2" data-name="Camada 2"><g id="Camada_1-2" data-name="Camada 1"><path d="M11,82.82a4.84,4.84,0,0,1,1.57,3.85A5.29,5.29,0,0,1,11,90.76a6.26,6.26,0,0,1-4.42,1.45H3.88v4.12H0V81.45H6.54A6.51,6.51,0,0,1,11,82.82Zm-2.77,5.7a2.22,2.22,0,0,0,.65-1.72,2.13,2.13,0,0,0-.65-1.67,2.65,2.65,0,0,0-1.84-.58H3.88v4.56H6.35A2.61,2.61,0,0,0,8.18,88.52Z"/><g class="cls-1"><rect x="3.88" y="84.55" width="0.29" height="4.56"/><rect x="4.17" y="84.55" width="0.52" height="4.56"/><rect x="4.7" y="84.55" width="0.52" height="4.56"/><rect x="5.22" y="84.55" width="0.52" height="4.56"/><rect x="5.74" y="84.55" width="0.52" height="4.56"/><rect x="6.26" y="84.55" width="0.52" height="4.56"/><rect x="6.78" y="84.55" width="0.52" height="4.56"/><rect x="7.3" y="84.55" width="0.52" height="4.56"/><rect x="7.83" y="84.55" width="0.52" height="4.56"/><rect x="8.35" y="84.55" width="0.48" height="4.56"/><path d="M0,81.45v0Z"/><rect y="81.45" width="0.52" height="14.88"/><rect x="0.52" y="81.45" width="0.52" height="14.88"/><rect x="1.04" y="81.45" width="0.52" height="14.88"/><rect x="1.57" y="81.45" width="0.52" height="14.88"/><rect x="2.09" y="81.45" width="0.52" height="14.88"/><rect x="2.61" y="81.45" width="0.52" height="14.88"/><rect x="3.13" y="81.45" width="0.52" height="14.88"/><rect x="3.65" y="81.45" width="0.52" height="14.88"/><rect x="4.17" y="81.45" width="0.52" height="14.88"/><rect x="4.7" y="81.45" width="0.52" height="14.88"/><rect x="5.22" y="81.45" width="0.52" height="14.88"/><rect x="5.74" y="81.45" width="0.52" height="14.88"/><rect x="6.26" y="81.45" width="0.52" height="14.88"/><rect x="6.78" y="81.45" width="0.52" height="14.88"/><rect x="7.3" y="81.45" width="0.52" height="14.88"/><rect x="7.83" y="81.45" width="0.52" height="14.88"/><rect x="8.35" y="81.45" width="0.52" height="14.88"/><rect x="8.87" y="81.45" width="0.52" height="14.88"/><rect x="9.39" y="81.45" width="0.52" height="14.88"/><rect x="9.91" y="81.45" width="0.52" height="14.88"/><rect x="10.44" y="81.45" width="0.52" height="14.88"/><rect x="10.96" y="81.45" width="0.52" height="14.88"/><rect x="11.48" y="81.45" width="0.52" height="14.88"/><rect x="12" y="81.45" width="0.52" height="14.88"/><path d="M12.52,96.33v0Z"/></g><path d="M25.49,96.33l-2.16-4.12H20.44v4.12H16.56V81.45h6.69a6.9,6.9,0,0,1,4.57,1.37,4.76,4.76,0,0,1,1.62,3.85,5.87,5.87,0,0,1-.68,2.9,4.69,4.69,0,0,1-2,1.9l3.1,4.86Zm-5.05-7.22h2.82a2.61,2.61,0,0,0,1.84-.59,2.22,2.22,0,0,0,.65-1.72,2.13,2.13,0,0,0-.65-1.67,2.65,2.65,0,0,0-1.84-.58H20.44Z"/><g class="cls-2"><rect x="20.44" y="84.55" height="4.56"/><rect x="20.44" y="84.55" width="0.56" height="4.56"/><rect x="21" y="84.55" width="0.56" height="4.56"/><rect x="21.55" y="84.55" width="0.56" height="4.56"/><rect x="22.11" y="84.55" width="0.56" height="4.56"/><rect x="22.67" y="84.55" width="0.56" height="4.56"/><rect x="23.22" y="84.55" width="0.56" height="4.56"/><rect x="23.78" y="84.55" width="0.56" height="4.56"/><rect x="24.33" y="84.55" width="0.56" height="4.56"/><rect x="24.89" y="84.55" width="0.56" height="4.56"/><rect x="25.44" y="84.55" width="0.3" height="4.56"/><path d="M16.56,81.45v0Z"/><rect x="16.56" y="81.45" width="0.56" height="14.88"/><rect x="17.11" y="81.45" width="0.56" height="14.88"/><rect x="17.67" y="81.45" width="0.56" height="14.88"/><rect x="18.22" y="81.45" width="0.56" height="14.88"/><rect x="18.78" y="81.45" width="0.56" height="14.88"/><rect x="19.33" y="81.45" width="0.56" height="14.88"/><rect x="19.89" y="81.45" width="0.56" height="14.88"/><rect x="20.44" y="81.45" width="0.56" height="14.88"/><rect x="21" y="81.45" width="0.56" height="14.88"/><rect x="21.55" y="81.45" width="0.56" height="14.88"/><rect x="22.11" y="81.45" width="0.56" height="14.88"/><rect x="22.67" y="81.45" width="0.56" height="14.88"/><rect x="23.22" y="81.45" width="0.56" height="14.88"/><rect x="23.78" y="81.45" width="0.56" height="14.88"/><rect x="24.33" y="81.45" width="0.56" height="14.88"/><rect x="24.89" y="81.45" width="0.56" height="14.88"/><rect x="25.44" y="81.45" width="0.56" height="14.88"/><rect x="26" y="81.45" width="0.56" height="14.88"/><rect x="26.55" y="81.45" width="0.56" height="14.88"/><rect x="27.11" y="81.45" width="0.56" height="14.88"/><rect x="27.66" y="81.45" width="0.56" height="14.88"/><rect x="28.22" y="81.45" width="0.56" height="14.88"/><rect x="28.77" y="81.45" width="0.56" height="14.88"/><rect x="29.33" y="81.45" width="0.56" height="14.88"/><path d="M29.89,96.33v0Z"/></g><path d="M45.24,82.22a7.4,7.4,0,0,1,3.94,6.64,7.53,7.53,0,0,1-3.94,6.73,8.83,8.83,0,0,1-8.21,0,7.48,7.48,0,0,1-2.89-2.78,7.62,7.62,0,0,1-1-4A7.4,7.4,0,0,1,37,82.22a9,9,0,0,1,8.21,0Zm-6.11,2.87a4.12,4.12,0,0,0-1.5,1.58,4.74,4.74,0,0,0,0,4.46,4.32,4.32,0,0,0,1.5,1.59,3.77,3.77,0,0,0,2,.58,3.71,3.71,0,0,0,2-.58,4.11,4.11,0,0,0,1.45-1.59,4.95,4.95,0,0,0,0-4.46,4,4,0,0,0-1.45-1.58,3.77,3.77,0,0,0-2-.57A3.87,3.87,0,0,0,39.13,85.08Z"/><g class="cls-3"><rect x="37.08" y="84.51" width="0.03" height="8.79"/><rect x="37.11" y="84.51" width="0.67" height="8.79"/><rect x="37.78" y="84.51" width="0.67" height="8.79"/><rect x="38.45" y="84.51" width="0.67" height="8.79"/><rect x="39.12" y="84.51" width="0.67" height="8.79"/><rect x="39.79" y="84.51" width="0.67" height="8.79"/><rect x="40.46" y="84.51" width="0.67" height="8.79"/><rect x="41.13" y="84.51" width="0.67" height="8.79"/><rect x="41.81" y="84.51" width="0.67" height="8.79"/><rect x="42.48" y="84.51" width="0.67" height="8.79"/><rect x="43.15" y="84.51" width="0.67" height="8.79"/><rect x="43.82" y="84.51" width="0.67" height="8.79"/><rect x="44.49" y="84.51" width="0.67" height="8.79"/><rect x="45.16" y="84.51" width="0.03" height="8.79"/><path d="M33.09,81.22v0Z"/><rect x="33.09" y="81.22" width="0.67" height="15.39"/><rect x="33.76" y="81.22" width="0.67" height="15.39"/><rect x="34.43" y="81.22" width="0.67" height="15.39"/><rect x="35.1" y="81.22" width="0.67" height="15.39"/><rect x="35.77" y="81.22" width="0.67" height="15.39"/><rect x="36.44" y="81.22" width="0.67" height="15.39"/><rect x="37.11" y="81.22" width="0.67" height="15.39"/><rect x="37.78" y="81.22" width="0.67" height="15.39"/><rect x="38.45" y="81.22" width="0.67" height="15.39"/><rect x="39.12" y="81.22" width="0.67" height="15.39"/><rect x="39.79" y="81.22" width="0.67" height="15.39"/><rect x="40.46" y="81.22" width="0.67" height="15.39"/><rect x="41.13" y="81.22" width="0.67" height="15.39"/><rect x="41.81" y="81.22" width="0.67" height="15.39"/><rect x="42.48" y="81.22" width="0.67" height="15.39"/><rect x="43.15" y="81.22" width="0.67" height="15.39"/><rect x="43.82" y="81.22" width="0.67" height="15.39"/><rect x="44.49" y="81.22" width="0.67" height="15.39"/><rect x="45.16" y="81.22" width="0.67" height="15.39"/><rect x="45.83" y="81.22" width="0.67" height="15.39"/><rect x="46.5" y="81.22" width="0.67" height="15.39"/><rect x="47.17" y="81.22" width="0.67" height="15.39"/><rect x="47.84" y="81.22" width="0.67" height="15.39"/><rect x="48.51" y="81.22" width="0.67" height="15.39"/><path d="M49.18,96.61v0Z"/></g><path d="M60.14,95.18a5.28,5.28,0,0,1-3.79,1.32,6.54,6.54,0,0,1-5.18-2.4L53,91.45a6.48,6.48,0,0,0,1.61,1.24,3.29,3.29,0,0,0,1.51.44,1.47,1.47,0,0,0,1.14-.45,1.8,1.8,0,0,0,.41-1.27V84.66H52.53V81.45h9v10A4.84,4.84,0,0,1,60.14,95.18Z"/><g class="cls-4"><path d="M51.17,81.45v0Z"/><rect x="51.17" y="81.45" width="0.43" height="15.05"/><rect x="51.61" y="81.45" width="0.43" height="15.05"/><rect x="52.04" y="81.45" width="0.43" height="15.05"/><rect x="52.47" y="81.45" width="0.43" height="15.05"/><rect x="52.9" y="81.45" width="0.43" height="15.05"/><rect x="53.33" y="81.45" width="0.43" height="15.05"/><rect x="53.76" y="81.45" width="0.43" height="15.05"/><rect x="54.2" y="81.45" width="0.43" height="15.05"/><rect x="54.63" y="81.45" width="0.43" height="15.05"/><rect x="55.06" y="81.45" width="0.43" height="15.05"/><rect x="55.49" y="81.45" width="0.43" height="15.05"/><rect x="55.92" y="81.45" width="0.43" height="15.05"/><rect x="56.35" y="81.45" width="0.43" height="15.05"/><rect x="56.79" y="81.45" width="0.43" height="15.05"/><rect x="57.22" y="81.45" width="0.43" height="15.05"/><rect x="57.65" y="81.45" width="0.43" height="15.05"/><rect x="58.08" y="81.45" width="0.43" height="15.05"/><rect x="58.51" y="81.45" width="0.43" height="15.05"/><rect x="58.94" y="81.45" width="0.43" height="15.05"/><rect x="59.37" y="81.45" width="0.43" height="15.05"/><rect x="59.81" y="81.45" width="0.43" height="15.05"/><rect x="60.24" y="81.45" width="0.43" height="15.05"/><rect x="60.67" y="81.45" width="0.43" height="15.05"/><rect x="61.1" y="81.45" width="0.43" height="15.05"/><path d="M61.53,96.5v0Z"/></g><path d="M66.29,81.45H78v3.1H70.17v2.78h7.09v3.08l-7.09,0v2.8h8.07v3.1H66.29Z"/><g class="cls-5"><path d="M66.29,81.45v0Z"/><rect x="66.29" y="81.45" width="0.5" height="14.88"/><rect x="66.78" y="81.45" width="0.5" height="14.88"/><rect x="67.28" y="81.45" width="0.5" height="14.88"/><rect x="67.78" y="81.45" width="0.5" height="14.88"/><rect x="68.28" y="81.45" width="0.5" height="14.88"/><rect x="68.78" y="81.45" width="0.5" height="14.88"/><rect x="69.27" y="81.45" width="0.5" height="14.88"/><rect x="69.77" y="81.45" width="0.5" height="14.88"/><rect x="70.27" y="81.45" width="0.5" height="14.88"/><rect x="70.77" y="81.45" width="0.5" height="14.88"/><rect x="71.27" y="81.45" width="0.5" height="14.88"/><rect x="71.76" y="81.45" width="0.5" height="14.88"/><rect x="72.26" y="81.45" width="0.5" height="14.88"/><rect x="72.76" y="81.45" width="0.5" height="14.88"/><rect x="73.26" y="81.45" width="0.5" height="14.88"/><rect x="73.75" y="81.45" width="0.5" height="14.88"/><rect x="74.25" y="81.45" width="0.5" height="14.88"/><rect x="74.75" y="81.45" width="0.5" height="14.88"/><rect x="75.25" y="81.45" width="0.5" height="14.88"/><rect x="75.75" y="81.45" width="0.5" height="14.88"/><rect x="76.24" y="81.45" width="0.5" height="14.88"/><rect x="76.74" y="81.45" width="0.5" height="14.88"/><rect x="77.24" y="81.45" width="0.5" height="14.88"/><rect x="77.74" y="81.45" width="0.5" height="14.88"/><path d="M78.24,96.33v0Z"/></g><path d="M91.78,85a4.11,4.11,0,0,0-2-.54,3.86,3.86,0,0,0-2,.56,4,4,0,0,0-1.45,1.55,4.81,4.81,0,0,0,0,4.39,4,4,0,0,0,1.45,1.55,3.86,3.86,0,0,0,2,.56,4.52,4.52,0,0,0,1.91-.47,6,6,0,0,0,1.78-1.27l2.27,2.44a9.08,9.08,0,0,1-2.88,2,8,8,0,0,1-7.29-.27,7.44,7.44,0,0,1-2.8-2.78,7.74,7.74,0,0,1-1-3.95,7.41,7.41,0,0,1,3.89-6.64A8.46,8.46,0,0,1,93,81.91a8.12,8.12,0,0,1,2.74,1.88L93.5,86.5A5.55,5.55,0,0,0,91.78,85Z"/><g class="cls-6"><path d="M81.78,81.22v0Z"/><rect x="81.78" y="81.22" width="0.58" height="15.39"/><rect x="82.36" y="81.22" width="0.58" height="15.39"/><rect x="82.95" y="81.22" width="0.58" height="15.39"/><rect x="83.53" y="81.22" width="0.58" height="15.39"/><rect x="84.11" y="81.22" width="0.58" height="15.39"/><rect x="84.7" y="81.22" width="0.58" height="15.39"/><rect x="85.28" y="81.22" width="0.58" height="15.39"/><rect x="85.86" y="81.22" width="0.58" height="15.39"/><rect x="86.44" y="81.22" width="0.58" height="15.39"/><rect x="87.03" y="81.22" width="0.58" height="15.39"/><rect x="87.61" y="81.22" width="0.58" height="15.39"/><rect x="88.19" y="81.22" width="0.58" height="15.39"/><rect x="88.77" y="81.22" width="0.58" height="15.39"/><rect x="89.36" y="81.22" width="0.58" height="15.39"/><rect x="89.94" y="81.22" width="0.58" height="15.39"/><rect x="90.52" y="81.22" width="0.58" height="15.39"/><rect x="91.11" y="81.22" width="0.58" height="15.39"/><rect x="91.69" y="81.22" width="0.58" height="15.39"/><rect x="92.27" y="81.22" width="0.58" height="15.39"/><rect x="92.85" y="81.22" width="0.58" height="15.39"/><rect x="93.44" y="81.22" width="0.58" height="15.39"/><rect x="94.02" y="81.22" width="0.58" height="15.39"/><rect x="94.6" y="81.22" width="0.58" height="15.39"/><rect x="95.19" y="81.22" width="0.58" height="15.39"/><path d="M95.77,96.61v0Z"/></g><path d="M98.25,81.45H111v3.21h-4.46V96.33h-3.88V84.66H98.25Z"/><g class="cls-7"><path d="M98.25,81.45v0Z"/><rect x="98.25" y="81.45" width="0.53" height="14.88"/><rect x="98.78" y="81.45" width="0.53" height="14.88"/><rect x="99.31" y="81.45" width="0.53" height="14.88"/><rect x="99.85" y="81.45" width="0.53" height="14.88"/><rect x="100.38" y="81.45" width="0.53" height="14.88"/><rect x="100.91" y="81.45" width="0.53" height="14.88"/><rect x="101.44" y="81.45" width="0.53" height="14.88"/><rect x="101.97" y="81.45" width="0.53" height="14.88"/><rect x="102.5" y="81.45" width="0.53" height="14.88"/><rect x="103.03" y="81.45" width="0.53" height="14.88"/><rect x="103.57" y="81.45" width="0.53" height="14.88"/><rect x="104.1" y="81.45" width="0.53" height="14.88"/><rect x="104.63" y="81.45" width="0.53" height="14.88"/><rect x="105.16" y="81.45" width="0.53" height="14.88"/><rect x="105.69" y="81.45" width="0.53" height="14.88"/><rect x="106.22" y="81.45" width="0.53" height="14.88"/><rect x="106.76" y="81.45" width="0.53" height="14.88"/><rect x="107.29" y="81.45" width="0.53" height="14.88"/><rect x="107.82" y="81.45" width="0.53" height="14.88"/><rect x="108.35" y="81.45" width="0.53" height="14.88"/><rect x="108.88" y="81.45" width="0.53" height="14.88"/><rect x="109.41" y="81.45" width="0.53" height="14.88"/><rect x="109.94" y="81.45" width="0.53" height="14.88"/><rect x="110.48" y="81.45" width="0.53" height="14.88"/><path d="M111,96.33v0Z"/></g><path d="M86.36,11.43A17.14,17.14,0,0,0,70.19,0H41.45A19.57,19.57,0,0,0,23.67,11.38a0,0,0,0,0,0,0H69.62A6,6,0,0,1,75.56,17a5.71,5.71,0,0,1-5.71,5.89H41.66a0,0,0,0,0,0,0v1.79a9.61,9.61,0,0,0,8,9.47v18.5A20.07,20.07,0,0,0,61,70.76V34.31a0,0,0,0,1,0,0h9.15A17.15,17.15,0,0,0,86.36,11.43Z"/><path d="M41,20.41a6.5,6.5,0,0,1-6.5-6.5H49.79a6.5,6.5,0,0,1,6.5,6.5h0"/><g class="cls-8"><path d="M25.18,103.87a2.72,2.72,0,0,1,0,4.76,2.93,2.93,0,0,1-1.44.36H21.54v-5.48h2.2A2.89,2.89,0,0,1,25.18,103.87Zm-.28,4.33a2.25,2.25,0,0,0,0-3.91,2.27,2.27,0,0,0-1.15-.3H22.09v4.5h1.68A2.23,2.23,0,0,0,24.9,108.2Z"/><path d="M35.59,103.51h3.67V104H36.13v2h2.8v.49h-2.8v2.06h3.23V109H35.59Z"/><path d="M50.82,104.08a2.75,2.75,0,0,0-.75-.11,1.63,1.63,0,0,0-.9.22.69.69,0,0,0-.34.61.79.79,0,0,0,.19.55,1.34,1.34,0,0,0,.46.33,7.34,7.34,0,0,0,.75.27,6.47,6.47,0,0,1,.9.32,1.59,1.59,0,0,1,.58.47,1.41,1.41,0,0,1,0,1.58,1.58,1.58,0,0,1-.69.52,2.67,2.67,0,0,1-1,.18,2.87,2.87,0,0,1-1.12-.23,3,3,0,0,1-.94-.6l.25-.45a2.71,2.71,0,0,0,.85.56,2.46,2.46,0,0,0,1,.2,1.72,1.72,0,0,0,1-.25.79.79,0,0,0,.37-.69.84.84,0,0,0-.19-.56,1.24,1.24,0,0,0-.46-.34q-.27-.12-.77-.27a7.9,7.9,0,0,1-.89-.33,1.51,1.51,0,0,1-.57-.45,1.25,1.25,0,0,1-.24-.79,1.18,1.18,0,0,1,.24-.73,1.49,1.49,0,0,1,.66-.48,2.64,2.64,0,0,1,1-.17,3.31,3.31,0,0,1,1.69.49l-.24.46A2.82,2.82,0,0,0,50.82,104.08Z"/><path d="M61.11,103.51h.54V109h-.54Z"/><path d="M75.06,106.31h.48v2a3,3,0,0,1-.93.53,3.12,3.12,0,0,1-1.08.19,2.85,2.85,0,0,1-2.47-1.39,2.68,2.68,0,0,1-.38-1.4,2.64,2.64,0,0,1,.38-1.39,2.8,2.8,0,0,1,1-1,2.9,2.9,0,0,1,1.45-.37,3,3,0,0,1,1.08.2,2.94,2.94,0,0,1,.92.55l-.31.38a2.38,2.38,0,0,0-.78-.48,2.52,2.52,0,0,0-.91-.17,2.28,2.28,0,0,0-1.17.31,2.33,2.33,0,0,0-.85.83,2.2,2.2,0,0,0-.31,1.15,2.24,2.24,0,0,0,.31,1.16,2.34,2.34,0,0,0,2,1.15,2.45,2.45,0,0,0,.78-.13,2.68,2.68,0,0,0,.72-.36Z"/><path d="M88.93,103.51h.53V109h-.57l-3.39-4.64V109H85v-5.48h.57l3.4,4.64Z"/></g></g></g></svg>