<svg xmlns="http://www.w3.org/2000/svg" viewBox="0 0 115.41 128.28"><defs><style>.cls-1{fill:#fff;}</style></defs><title>logo-top_1</title><g id="Camada_2" data-name="Camada 2"><g id="Camada_1-2" data-name="Camada 1"><path class="cls-1" d="M113.64,20.72A31.08,31.08,0,0,0,84.34,0H32.23A35.47,35.47,0,0,0,0,20.64a.05.05,0,0,0,0,.08H83.29c5.54,0,10.61,4.51,10.78,10A10.36,10.36,0,0,1,83.71,41.43H32.6a.06.06,0,0,0-.06.06v3.24A17.42,17.42,0,0,0,47,61.89V95.42A36.38,36.38,0,0,0,67.7,128.28V62.21a.06.06,0,0,1,.06-.06H84.34a31.09,31.09,0,0,0,29.3-41.43Z"/><path class="cls-1" d="M31.39,37A11.78,11.78,0,0,1,19.61,25.22H47.36A11.78,11.78,0,0,1,59.14,37h0"/></g></g></svg>