<svg xmlns="http://www.w3.org/2000/svg" viewBox="0 0 393.21 103.99"><defs><style>.cls-1{fill:#fff;}</style></defs><title>logo-loading</title><g id="Camada_2" data-name="Camada 2"><g id="Camada_1-2" data-name="Camada 1"><path class="cls-1" d="M41.74,6.16q5.88,5.13,5.88,14.53,0,9.87-5.88,15.32T25.11,41.46l-8.69.08V56.39H0V1H25.11Q35.85,1,41.74,6.16ZM30,26.85a7.6,7.6,0,0,0,2-5.69,7.36,7.36,0,0,0-2-5.57,7.93,7.93,0,0,0-5.73-1.94h-7.9V28.83h7.9A7.83,7.83,0,0,0,30,26.85Z"/><path class="cls-1" d="M90.35,56.39,83,41.46H74.31V56.39H57.89V1H83.71Q94.85,1,101,6.16t6.12,14.53a21.87,21.87,0,0,1-2.41,10.54,17.84,17.84,0,0,1-6.91,7.07L109,56.39Zm-16-27.56h9.4a7.83,7.83,0,0,0,5.73-2,7.6,7.6,0,0,0,2-5.69,7.36,7.36,0,0,0-2-5.57,7.93,7.93,0,0,0-5.73-1.94h-9.4Z"/><path class="cls-1" d="M161.54,3.71a27.56,27.56,0,0,1,10.82,10.23,27.91,27.91,0,0,1,3.91,14.65,28.47,28.47,0,0,1-3.91,14.81,27.64,27.64,0,0,1-10.82,10.35,33.73,33.73,0,0,1-30.92,0A27.71,27.71,0,0,1,119.84,43.4a28.48,28.48,0,0,1-3.91-14.81,27.92,27.92,0,0,1,3.91-14.65A27.63,27.63,0,0,1,130.62,3.71a34,34,0,0,1,30.92,0Zm-22,11.93a14.3,14.3,0,0,0-5,5.41,15.77,15.77,0,0,0-1.86,7.62,16,16,0,0,0,1.86,7.66,14.52,14.52,0,0,0,5,5.49,12.21,12.21,0,0,0,6.75,2,11.71,11.71,0,0,0,6.59-2,13.94,13.94,0,0,0,4.78-5.45,16.82,16.82,0,0,0,1.74-7.7A16.65,16.65,0,0,0,157.71,21,13.76,13.76,0,0,0,153,15.64a11.83,11.83,0,0,0-6.63-2A12.4,12.4,0,0,0,139.59,15.64Z"/><path class="cls-1" d="M214.69,52.08q-5.41,5-14.73,5a26.56,26.56,0,0,1-20.45-9.24L187,37a23.43,23.43,0,0,0,6.12,4.66,12.47,12.47,0,0,0,5.49,1.58,4.63,4.63,0,0,0,3.59-1.42,6,6,0,0,0,1.3-4.19V14.14h-18.8V1H220.1v37Q220.1,47.07,214.69,52.08Z"/><path class="cls-1" d="M232.42,1h45.25V13.66H248.84v8.69H275V35H248.84v8.77h29.62V56.39h-46Z"/><path class="cls-1" d="M324.15,15.68a14.27,14.27,0,0,0-7-2,12.31,12.31,0,0,0-6.71,1.9,13.27,13.27,0,0,0-4.74,5.25A16.16,16.16,0,0,0,304,28.35a16.15,16.15,0,0,0,1.74,7.54,13.55,13.55,0,0,0,4.74,5.29,12.11,12.11,0,0,0,6.71,1.93,15.57,15.57,0,0,0,6.75-1.74,22,22,0,0,0,6.44-4.74l9.48,10.11A33.62,33.62,0,0,1,329,54.57a30.23,30.23,0,0,1-27.56-.83,27.16,27.16,0,0,1-10.46-10.38,29.38,29.38,0,0,1-3.79-14.85A28,28,0,0,1,291,13.94,27.47,27.47,0,0,1,301.68,3.71a31.83,31.83,0,0,1,27.72-1,30.44,30.44,0,0,1,10.42,7.19l-9.48,11.29A19.83,19.83,0,0,0,324.15,15.68Z"/><path class="cls-1" d="M344.56,1h48.65V14.14H377.1V56.39H360.59V14.14h-16Z"/><path class="cls-1" d="M116.86,79.22a13,13,0,0,1,0,22.82,14,14,0,0,1-6.92,1.73H99.44V77.49H110A13.85,13.85,0,0,1,116.86,79.22ZM115.52,100a10.81,10.81,0,0,0-.06-18.76A10.91,10.91,0,0,0,110,79.82H102v21.61h8A10.73,10.73,0,0,0,115.52,100Z"/><path class="cls-1" d="M140.52,77.49h17.59v2.33h-15v9.4h13.42v2.33H143.11v9.89H158.6v2.33H140.52Z"/><path class="cls-1" d="M187.28,80.22a13.23,13.23,0,0,0-3.61-.54,7.82,7.82,0,0,0-4.34,1.07,3.32,3.32,0,0,0-1.64,2.91,3.81,3.81,0,0,0,.9,2.63,6.36,6.36,0,0,0,2.22,1.6,34.77,34.77,0,0,0,3.61,1.3,31.13,31.13,0,0,1,4.3,1.56A7.62,7.62,0,0,1,191.51,93a6.76,6.76,0,0,1,0,7.59,7.58,7.58,0,0,1-3.33,2.5,12.83,12.83,0,0,1-4.92.88,13.77,13.77,0,0,1-5.36-1.09,14.42,14.42,0,0,1-4.49-2.89l1.2-2.14a13,13,0,0,0,4.1,2.71,11.79,11.79,0,0,0,4.59,1,8.26,8.26,0,0,0,4.77-1.22A3.81,3.81,0,0,0,189.8,97a4,4,0,0,0-.9-2.71,6,6,0,0,0-2.22-1.62q-1.32-.56-3.68-1.32a37.8,37.8,0,0,1-4.29-1.56A7.23,7.23,0,0,1,176,87.62a6,6,0,0,1-1.13-3.78,5.67,5.67,0,0,1,1.13-3.5A7.13,7.13,0,0,1,179.13,78a12.64,12.64,0,0,1,4.7-.81,15.84,15.84,0,0,1,8.12,2.33l-1.13,2.22A13.61,13.61,0,0,0,187.28,80.22Z"/><path class="cls-1" d="M210.36,77.49H213v26.28h-2.59Z"/><path class="cls-1" d="M251,90.91h2.29v9.62a14.52,14.52,0,0,1-4.45,2.54,15,15,0,0,1-5.17.92,13.72,13.72,0,0,1-11.84-6.69,12.88,12.88,0,0,1-1.84-6.73,12.68,12.68,0,0,1,1.84-6.69,13.46,13.46,0,0,1,5-4.83,13.92,13.92,0,0,1,6.94-1.79,14.59,14.59,0,0,1,5.17.94,14.12,14.12,0,0,1,4.42,2.63l-1.5,1.84a11.43,11.43,0,0,0-3.72-2.31,12.07,12.07,0,0,0-4.36-.81,11,11,0,0,0-5.6,1.48,11.21,11.21,0,0,0-4.06,4,10.58,10.58,0,0,0-1.5,5.53,10.75,10.75,0,0,0,1.5,5.58,11.22,11.22,0,0,0,9.7,5.51,11.76,11.76,0,0,0,3.74-.62A12.92,12.92,0,0,0,251,99.29Z"/><path class="cls-1" d="M291.22,77.49h2.56v26.28H291L274.75,81.51v22.25h-2.59V77.49h2.74l16.31,22.25Z"/></g></g></svg>