<svg xmlns="http://www.w3.org/2000/svg" viewBox="0 0 63.66 70.76"><defs><style>.cls-1{fill:#fff;}</style></defs><title>logo-top_1</title><g id="Camada_2" data-name="Camada 2"><g id="Camada_1-2" data-name="Camada 1"><path class="cls-1" d="M62.69,11.43A17.14,17.14,0,0,0,46.52,0H17.78A19.57,19.57,0,0,0,0,11.38a0,0,0,0,0,0,0H45.94A6,6,0,0,1,51.89,17a5.71,5.71,0,0,1-5.71,5.89H18a0,0,0,0,0,0,0v1.79a9.61,9.61,0,0,0,8,9.47v18.5A20.07,20.07,0,0,0,37.35,70.76V34.31a0,0,0,0,1,0,0h9.15A17.15,17.15,0,0,0,62.69,11.43Z"/><path class="cls-1" d="M17.31,20.41a6.5,6.5,0,0,1-6.5-6.5H26.12a6.5,6.5,0,0,1,6.5,6.5h0"/></g></g></svg>