<?xml version="1.0" encoding="utf-8"?>
<!-- Generator: Adobe Illustrator 21.0.0, SVG Export Plug-In . SVG Version: 6.00 Build 0)  -->
<svg version="1.1" id="Camada_1" xmlns="http://www.w3.org/2000/svg" xmlns:xlink="http://www.w3.org/1999/xlink" x="0px" y="0px"
	 viewBox="0 0 153.6 123.9" style="enable-background:new 0 0 153.6 123.9;" xml:space="preserve">
<style type="text/css">
	.st0{fill:#FF3300;}
	.st1{fill:#FFFFFF;}
</style>
<title>testimg</title>
<g id="Camada_2">
	<g id="Camada_1-2">
		<circle class="st0" cx="76.8" cy="62" r="62"/>
	</g>
</g>
<g>
	<path class="st1" d="M63.5,69.8c0,0,0-16.9,0-16.9c0-3.5,2.6-6.5,6.1-7.1c-1-1-2.4-1.7-4-1.7c-1.7,0-10.5,0-12.3,0
		c-3,0-5.5,2.4-5.5,5.4v16.9c0,1.3,1,2.3,2.3,2.3s2.3-1,2.3-2.3l0-16.8c0,0,0,0,0,0c0-0.3,0.2-0.5,0.5-0.5s0.5,0.2,0.5,0.5l0,16.6h0
		v22c0,1.5,1.2,2.8,2.8,2.8s2.8-1.2,2.8-2.8v-22h1.2v22c0,1.5,1.2,2.8,2.8,2.8c1.5,0,2.8-1.2,2.8-2.8V73.5
		C64.4,72.8,63.5,71.4,63.5,69.8z"/>
	<circle class="st1" cx="59.6" cy="37.9" r="4.8"/>
	<path class="st1" d="M84.9,52.8v15.9c1.4,0.1,2.5-1,2.5-2.3l0-16.1L84.9,52.8z"/>
	<path class="st1" d="M100.6,44.2c-0.8,0-7.7,0-8.7,0c-0.3,1.1-0.4,2.1-1.4,3l-2.2,2.2v38.8c0,1.5,1.2,2.8,2.8,2.8
		c1.5,0,2.8-1.2,2.8-2.8v-22h1.2v22c0,1.5,1.2,2.8,2.8,2.8s2.8-1.2,2.8-2.8c0-35.9,0-16.2,0-38.6c0-0.3,0.2-0.5,0.4-0.5
		c0.3,0,0.5,0.2,0.5,0.5v0v16.9c0,1.3,1,2.3,2.3,2.3s2.3-1,2.3-2.3V49.6C106.1,46.6,103.6,44.2,100.6,44.2z"/>
	<path class="st1" d="M92.4,42.2c0.6,0.3,1.3,0.5,2.1,0.5c2.6,0,4.8-2.1,4.8-4.8c0-2.7-2.3-4.9-5.1-4.7c0.1,0.6,0.1,1.2,0,1.8
		L92.4,42.2z"/>
	<path class="st1" d="M89.9,44.8c0.2-0.6,2.3-9.7,2.5-10.3c0.3-1.2-0.5-2.5-1.7-2.8c-1.2-0.3-2.5,0.5-2.8,1.7l-2.3,9.7l-4.5,4.5
		c-4.2-0.1-1.1-0.1-10.2-0.1l0,0c-3,0-5.5,2.4-5.5,5.4c0,0.2,0,16.6,0,16.9c0,1.3,1,2.3,2.3,2.3c1.3,0,2.3-1,2.3-2.3
		c0-18,0-16.9,0-17c0.1-0.6,1-0.5,1,0.1c0,3.4,0,16,0,16.6c0,0,0,22,0,22c0,1.5,1.2,2.8,2.8,2.8c1.5,0,2.8-1.2,2.8-2.8v-22l0,0h1.2
		l0,0v22c0,1.5,1.2,2.8,2.8,2.8c1.5,0,2.8-1.2,2.8-2.8c0-21.3,0-39.6,0-39.6s0,0.1,6.2-6.1C89.6,45.6,89.8,45.2,89.9,44.8z"/>
	<path class="st1" d="M77,46.1c2.6,0,4.8-2.1,4.8-4.8c0-2.6-2.1-4.8-4.8-4.8c-2.6,0-4.8,2.1-4.8,4.8C72.3,43.9,74.4,46.1,77,46.1z"
		/>
</g>
</svg>
