<?xml version="1.0" encoding="utf-8"?>
<!-- Generator: Adobe Illustrator 21.0.0, SVG Export Plug-In . SVG Version: 6.00 Build 0)  -->
<svg version="1.1" id="Camada_1" xmlns="http://www.w3.org/2000/svg" xmlns:xlink="http://www.w3.org/1999/xlink" x="0px" y="0px"
	 viewBox="0 0 153.6 123.9" style="enable-background:new 0 0 153.6 123.9;" xml:space="preserve">
<style type="text/css">
	.st0{fill:#FF3300;}
	.st1{fill:#FFFFFF;}
</style>
<title>testimg</title>
<g id="Camada_2">
	<g id="Camada_1-2">
		<circle class="st0" cx="84.8" cy="62" r="62"/>
	</g>
</g>
<g>
	<path class="st1" d="M115.9,65.9L115.9,65.9l0-18.2c0-2-1.6-3.5-3.5-3.5h-6.3c-2,0-3.5,1.6-3.5,3.5v8.9l1.7-1.4l4-5.6l-3,7.8
		l-6.5,5.6c-1.1,0.9-1.2,2.5-0.3,3.6c0.9,1.1,2.5,1.2,3.6,0.3l7-6c0.3-0.3,0.6-0.6,0.7-1l3.2-8.4l-1,9.2c-0.1,1-0.7,1.4-1.4,2
		c-0.8,0.7-6.3,5.4-7,6c-0.3,0.3-0.7,0.5-1,0.7l0,19.2c0,1.7,1.4,3,3,3c1.7,0,3-1.4,3-3l0-22.4h1.3c0,0,0,0,0,0l0.1,22.4
		c0,1.7,1.4,3,3,3h0c1.7,0,3-1.4,3-3L115.9,65.9z M115.9,65.9"/>
	<path class="st1" d="M114.4,36.7c0,2.9-2.3,5.2-5.2,5.2c-2.9,0-5.2-2.3-5.2-5.2c0-2.9,2.3-5.2,5.2-5.2
		C112.1,31.5,114.4,33.8,114.4,36.7L114.4,36.7z M114.4,36.7"/>
	<g>
		<path class="st1" d="M65.6,36.7c0,2.9-2.3,5.2-5.2,5.2s-5.2-2.3-5.2-5.2c0-2.9,2.3-5.2,5.2-5.2S65.6,33.8,65.6,36.7L65.6,36.7z
			 M65.6,36.7"/>
		<path class="st1" d="M70.9,62.9l-6.5-5.6l-3-7.8l4,5.6l1.7,1.4v-8.9c0-2-1.6-3.5-3.5-3.5h-6.3c-2,0-3.5,1.6-3.5,3.5v18.2h0
			l-0.1,22.4c0,1.7,1.4,3,3,3h0c1.7,0,3-1.4,3-3l0.1-22.4c0,0,0,0,0,0H61l0,22.4c0,1.7,1.4,3,3,3c1.7,0,3-1.4,3-3l0-19.2
			c-0.4-0.2-0.7-0.4-1-0.7c-0.7-0.6-6.2-5.3-7-6c-0.6-0.5-1.3-0.9-1.4-2l-1-9.2l3.2,8.4c0.2,0.4,0.4,0.7,0.7,1l7,6
			c1.1,0.9,2.7,0.8,3.6-0.3C72.1,65.4,71.9,63.8,70.9,62.9L70.9,62.9z M70.9,62.9"/>
	</g>
	<path class="st1" d="M87.6,31c0-3.4-3.7-6.1-8.3-6.1c-4.6,0-8.3,2.7-8.3,6.1c0,1.4,0.6,2.7,1.7,3.7l-1.3,2.7
		c-0.1,0.1,0,0.3,0.1,0.4c0.1,0.1,0.2,0.1,0.4,0.1l3-1.6c1.3,0.6,2.8,0.9,4.4,0.9C83.9,37.1,87.6,34.3,87.6,31L87.6,31z M87.6,31"/>
	<path class="st1" d="M97.5,42.4l1.3-2.7c0.1-0.1,0-0.3-0.1-0.4c-0.1-0.1-0.2-0.1-0.4-0.1l-3,1.6c-1.3-0.6-2.8-0.9-4.4-0.9
		c-4.6,0-8.3,2.7-8.3,6.1c0,3.4,3.7,6.1,8.3,6.1c4.6,0,8.3-2.7,8.3-6.1C99.2,44.7,98.6,43.5,97.5,42.4L97.5,42.4z M97.5,42.4"/>
</g>
</svg>
