<svg xmlns="http://www.w3.org/2000/svg" xmlns:xlink="http://www.w3.org/1999/xlink" viewBox="0 0 95.82 37.13"><defs><style>.cls-1{fill:#fff;}.cls-2{clip-path:url(#clip-path);}.cls-3{clip-path:url(#clip-path-2);}.cls-4{clip-path:url(#clip-path-3);}.cls-5{clip-path:url(#clip-path-4);}.cls-6{clip-path:url(#clip-path-5);}.cls-7{clip-path:url(#clip-path-6);}.cls-8{clip-path:url(#clip-path-7);}.cls-9{opacity:0.8;}</style><clipPath id="clip-path"><path class="cls-1" d="M43.33,12.11a2.54,2.54,0,0,1,.82,2,2.78,2.78,0,0,1-.82,2.14A3.28,3.28,0,0,1,41,17H39.62V19.2h-2V11.39H41A3.41,3.41,0,0,1,43.33,12.11Zm-1.45,3a1.16,1.16,0,0,0,.34-.9,1.12,1.12,0,0,0-.34-.87,1.39,1.39,0,0,0-1-.31H39.62v2.39h1.29A1.37,1.37,0,0,0,41.87,15.1Z"/></clipPath><clipPath id="clip-path-2"><path class="cls-1" d="M51,19.2,49.82,17H48.3V19.2h-2V11.39h3.51a3.62,3.62,0,0,1,2.4.72,2.5,2.5,0,0,1,.85,2,3.08,3.08,0,0,1-.36,1.52,2.46,2.46,0,0,1-1,1l1.63,2.55ZM48.3,15.41h1.48a1.37,1.37,0,0,0,1-.31,1.16,1.16,0,0,0,.34-.9,1.12,1.12,0,0,0-.34-.87,1.39,1.39,0,0,0-1-.31H48.3Z"/></clipPath><clipPath id="clip-path-3"><path class="cls-1" d="M61.32,11.79a3.88,3.88,0,0,1,2.07,3.49,4,4,0,0,1-2.07,3.53,4.63,4.63,0,0,1-4.31,0,3.93,3.93,0,0,1-1.51-1.46,4,4,0,0,1-.55-2.08A3.88,3.88,0,0,1,57,11.79a4.7,4.7,0,0,1,4.31,0Zm-3.21,1.5a2.16,2.16,0,0,0-.79.83,2.49,2.49,0,0,0,0,2.34,2.27,2.27,0,0,0,.79.83,2,2,0,0,0,1.07.31,2,2,0,0,0,1.06-.31,2.15,2.15,0,0,0,.76-.83,2.6,2.6,0,0,0,0-2.34,2.11,2.11,0,0,0-.76-.83,2,2,0,0,0-1.06-.3A2,2,0,0,0,58.11,13.29Z"/></clipPath><clipPath id="clip-path-4"><path class="cls-1" d="M69.13,18.59a2.77,2.77,0,0,1-2,.69A3.43,3.43,0,0,1,64.43,18l.94-1.39a3.4,3.4,0,0,0,.85.65,1.73,1.73,0,0,0,.79.23.77.77,0,0,0,.6-.23.94.94,0,0,0,.22-.67V13.07H65.14V11.39h4.72v5.27A2.54,2.54,0,0,1,69.13,18.59Z"/></clipPath><clipPath id="clip-path-5"><path class="cls-1" d="M72.36,11.39h6.16V13H74.4v1.46h3.72v1.61H74.4v1.47h4.23V19.2H72.36Z"/></clipPath><clipPath id="clip-path-6"><path class="cls-1" d="M85.73,13.28a2.15,2.15,0,0,0-1-.28,2,2,0,0,0-1.07.3,2.09,2.09,0,0,0-.76.81,2.52,2.52,0,0,0,0,2.3,2.09,2.09,0,0,0,.76.81,2,2,0,0,0,1.07.3,2.37,2.37,0,0,0,1-.25,3.16,3.16,0,0,0,.94-.67l1.19,1.28a4.76,4.76,0,0,1-1.51,1.06,4.19,4.19,0,0,1-3.83-.14A3.9,3.9,0,0,1,81,17.35a4.06,4.06,0,0,1-.53-2.07,3.89,3.89,0,0,1,2-3.49,4.44,4.44,0,0,1,3.85-.16,4.26,4.26,0,0,1,1.44,1L86.63,14A2.91,2.91,0,0,0,85.73,13.28Z"/></clipPath><clipPath id="clip-path-7"><path class="cls-1" d="M89.13,11.39h6.69v1.68H93.48V19.2h-2V13.07H89.13Z"/></clipPath></defs><title>prod</title><g id="Camada_2" data-name="Camada 2"><g id="Camada_1-2" data-name="Camada 1"><path class="cls-1" d="M32.89,6a9,9,0,0,0-8.48-6H9.33A10.27,10.27,0,0,0,0,6,0,0,0,0,0,0,6H24.11A3.13,3.13,0,0,1,27.22,8.9a3,3,0,0,1-3,3.09H9.44l0,0v.94a5,5,0,0,0,4.18,5v9.7a10.53,10.53,0,0,0,6,9.51V18l0,0h4.8A9,9,0,0,0,32.89,6Z"/><path class="cls-1" d="M9.08,10.71A3.41,3.41,0,0,1,5.67,7.3h8a3.41,3.41,0,0,1,3.41,3.41h0"/><path class="cls-1" d="M43.33,12.11a2.54,2.54,0,0,1,.82,2,2.78,2.78,0,0,1-.82,2.14A3.28,3.28,0,0,1,41,17H39.62V19.2h-2V11.39H41A3.41,3.41,0,0,1,43.33,12.11Zm-1.45,3a1.16,1.16,0,0,0,.34-.9,1.12,1.12,0,0,0-.34-.87,1.39,1.39,0,0,0-1-.31H39.62v2.39h1.29A1.37,1.37,0,0,0,41.87,15.1Z"/><g class="cls-2"><rect class="cls-1" x="39.62" y="13.02" width="0.15" height="2.39"/><rect class="cls-1" x="39.77" y="13.02" width="0.27" height="2.39"/><rect class="cls-1" x="40.04" y="13.02" width="0.27" height="2.39"/><rect class="cls-1" x="40.32" y="13.02" width="0.27" height="2.39"/><rect class="cls-1" x="40.59" y="13.02" width="0.27" height="2.39"/><rect class="cls-1" x="40.87" y="13.02" width="0.27" height="2.39"/><rect class="cls-1" x="41.14" y="13.02" width="0.27" height="2.39"/><rect class="cls-1" x="41.41" y="13.02" width="0.27" height="2.39"/><rect class="cls-1" x="41.69" y="13.02" width="0.27" height="2.39"/><rect class="cls-1" x="41.96" y="13.02" width="0.25" height="2.39"/><path class="cls-1" d="M37.58,11.39v0Z"/><rect class="cls-1" x="37.58" y="11.39" width="0.27" height="7.81"/><rect class="cls-1" x="37.85" y="11.39" width="0.27" height="7.81"/><rect class="cls-1" x="38.13" y="11.39" width="0.27" height="7.81"/><rect class="cls-1" x="38.4" y="11.39" width="0.27" height="7.81"/><rect class="cls-1" x="38.68" y="11.39" width="0.27" height="7.81"/><rect class="cls-1" x="38.95" y="11.39" width="0.27" height="7.81"/><rect class="cls-1" x="39.22" y="11.39" width="0.27" height="7.81"/><rect class="cls-1" x="39.5" y="11.39" width="0.27" height="7.81"/><rect class="cls-1" x="39.77" y="11.39" width="0.27" height="7.81"/><rect class="cls-1" x="40.04" y="11.39" width="0.27" height="7.81"/><rect class="cls-1" x="40.32" y="11.39" width="0.27" height="7.81"/><rect class="cls-1" x="40.59" y="11.39" width="0.27" height="7.81"/><rect class="cls-1" x="40.87" y="11.39" width="0.27" height="7.81"/><rect class="cls-1" x="41.14" y="11.39" width="0.27" height="7.81"/><rect class="cls-1" x="41.41" y="11.39" width="0.27" height="7.81"/><rect class="cls-1" x="41.69" y="11.39" width="0.27" height="7.81"/><rect class="cls-1" x="41.96" y="11.39" width="0.27" height="7.81"/><rect class="cls-1" x="42.23" y="11.39" width="0.27" height="7.81"/><rect class="cls-1" x="42.51" y="11.39" width="0.27" height="7.81"/><rect class="cls-1" x="42.78" y="11.39" width="0.27" height="7.81"/><rect class="cls-1" x="43.06" y="11.39" width="0.27" height="7.81"/><rect class="cls-1" x="43.33" y="11.39" width="0.27" height="7.81"/><rect class="cls-1" x="43.6" y="11.39" width="0.27" height="7.81"/><rect class="cls-1" x="43.88" y="11.39" width="0.27" height="7.81"/><path class="cls-1" d="M44.15,19.2v0Z"/></g><path class="cls-1" d="M51,19.2,49.82,17H48.3V19.2h-2V11.39h3.51a3.62,3.62,0,0,1,2.4.72,2.5,2.5,0,0,1,.85,2,3.08,3.08,0,0,1-.36,1.52,2.46,2.46,0,0,1-1,1l1.63,2.55ZM48.3,15.41h1.48a1.37,1.37,0,0,0,1-.31,1.16,1.16,0,0,0,.34-.9,1.12,1.12,0,0,0-.34-.87,1.39,1.39,0,0,0-1-.31H48.3Z"/><g class="cls-3"><rect class="cls-1" x="48.3" y="13.02" height="2.39"/><rect class="cls-1" x="48.31" y="13.02" width="0.29" height="2.39"/><rect class="cls-1" x="48.6" y="13.02" width="0.29" height="2.39"/><rect class="cls-1" x="48.89" y="13.02" width="0.29" height="2.39"/><rect class="cls-1" x="49.18" y="13.02" width="0.29" height="2.39"/><rect class="cls-1" x="49.47" y="13.02" width="0.29" height="2.39"/><rect class="cls-1" x="49.76" y="13.02" width="0.29" height="2.39"/><rect class="cls-1" x="50.06" y="13.02" width="0.29" height="2.39"/><rect class="cls-1" x="50.35" y="13.02" width="0.29" height="2.39"/><rect class="cls-1" x="50.64" y="13.02" width="0.29" height="2.39"/><rect class="cls-1" x="50.93" y="13.02" width="0.16" height="2.39"/><path class="cls-1" d="M46.27,11.39v0Z"/><rect class="cls-1" x="46.27" y="11.39" width="0.29" height="7.81"/><rect class="cls-1" x="46.56" y="11.39" width="0.29" height="7.81"/><rect class="cls-1" x="46.85" y="11.39" width="0.29" height="7.81"/><rect class="cls-1" x="47.14" y="11.39" width="0.29" height="7.81"/><rect class="cls-1" x="47.43" y="11.39" width="0.29" height="7.81"/><rect class="cls-1" x="47.72" y="11.39" width="0.29" height="7.81"/><rect class="cls-1" x="48.02" y="11.39" width="0.29" height="7.81"/><rect class="cls-1" x="48.31" y="11.39" width="0.29" height="7.81"/><rect class="cls-1" x="48.6" y="11.39" width="0.29" height="7.81"/><rect class="cls-1" x="48.89" y="11.39" width="0.29" height="7.81"/><rect class="cls-1" x="49.18" y="11.39" width="0.29" height="7.81"/><rect class="cls-1" x="49.47" y="11.39" width="0.29" height="7.81"/><rect class="cls-1" x="49.76" y="11.39" width="0.29" height="7.81"/><rect class="cls-1" x="50.06" y="11.39" width="0.29" height="7.81"/><rect class="cls-1" x="50.35" y="11.39" width="0.29" height="7.81"/><rect class="cls-1" x="50.64" y="11.39" width="0.29" height="7.81"/><rect class="cls-1" x="50.93" y="11.39" width="0.29" height="7.81"/><rect class="cls-1" x="51.22" y="11.39" width="0.29" height="7.81"/><rect class="cls-1" x="51.51" y="11.39" width="0.29" height="7.81"/><rect class="cls-1" x="51.8" y="11.39" width="0.29" height="7.81"/><rect class="cls-1" x="52.09" y="11.39" width="0.29" height="7.81"/><rect class="cls-1" x="52.39" y="11.39" width="0.29" height="7.81"/><rect class="cls-1" x="52.68" y="11.39" width="0.29" height="7.81"/><rect class="cls-1" x="52.97" y="11.39" width="0.29" height="7.81"/><path class="cls-1" d="M53.26,19.2v0Z"/></g><path class="cls-1" d="M61.32,11.79a3.88,3.88,0,0,1,2.07,3.49,4,4,0,0,1-2.07,3.53,4.63,4.63,0,0,1-4.31,0,3.93,3.93,0,0,1-1.51-1.46,4,4,0,0,1-.55-2.08A3.88,3.88,0,0,1,57,11.79a4.7,4.7,0,0,1,4.31,0Zm-3.21,1.5a2.16,2.16,0,0,0-.79.83,2.49,2.49,0,0,0,0,2.34,2.27,2.27,0,0,0,.79.83,2,2,0,0,0,1.07.31,2,2,0,0,0,1.06-.31,2.15,2.15,0,0,0,.76-.83,2.6,2.6,0,0,0,0-2.34,2.11,2.11,0,0,0-.76-.83,2,2,0,0,0-1.06-.3A2,2,0,0,0,58.11,13.29Z"/><g class="cls-4"><rect class="cls-1" x="57.04" y="12.99" width="0.02" height="4.61"/><rect class="cls-1" x="57.05" y="12.99" width="0.35" height="4.61"/><rect class="cls-1" x="57.4" y="12.99" width="0.35" height="4.61"/><rect class="cls-1" x="57.76" y="12.99" width="0.35" height="4.61"/><rect class="cls-1" x="58.11" y="12.99" width="0.35" height="4.61"/><rect class="cls-1" x="58.46" y="12.99" width="0.35" height="4.61"/><rect class="cls-1" x="58.81" y="12.99" width="0.35" height="4.61"/><rect class="cls-1" x="59.16" y="12.99" width="0.35" height="4.61"/><rect class="cls-1" x="59.51" y="12.99" width="0.35" height="4.61"/><rect class="cls-1" x="59.87" y="12.99" width="0.35" height="4.61"/><rect class="cls-1" x="60.22" y="12.99" width="0.35" height="4.61"/><rect class="cls-1" x="60.57" y="12.99" width="0.35" height="4.61"/><rect class="cls-1" x="60.92" y="12.99" width="0.35" height="4.61"/><rect class="cls-1" x="61.27" y="12.99" width="0.02" height="4.61"/><path class="cls-1" d="M54.94,11.27v0Z"/><rect class="cls-1" x="54.94" y="11.27" width="0.35" height="8.07"/><rect class="cls-1" x="55.29" y="11.27" width="0.35" height="8.07"/><rect class="cls-1" x="55.65" y="11.27" width="0.35" height="8.07"/><rect class="cls-1" x="56" y="11.27" width="0.35" height="8.07"/><rect class="cls-1" x="56.35" y="11.27" width="0.35" height="8.07"/><rect class="cls-1" x="56.7" y="11.27" width="0.35" height="8.07"/><rect class="cls-1" x="57.05" y="11.27" width="0.35" height="8.07"/><rect class="cls-1" x="57.4" y="11.27" width="0.35" height="8.07"/><rect class="cls-1" x="57.76" y="11.27" width="0.35" height="8.07"/><rect class="cls-1" x="58.11" y="11.27" width="0.35" height="8.07"/><rect class="cls-1" x="58.46" y="11.27" width="0.35" height="8.07"/><rect class="cls-1" x="58.81" y="11.27" width="0.35" height="8.07"/><rect class="cls-1" x="59.16" y="11.27" width="0.35" height="8.07"/><rect class="cls-1" x="59.51" y="11.27" width="0.35" height="8.07"/><rect class="cls-1" x="59.87" y="11.27" width="0.35" height="8.07"/><rect class="cls-1" x="60.22" y="11.27" width="0.35" height="8.07"/><rect class="cls-1" x="60.57" y="11.27" width="0.35" height="8.07"/><rect class="cls-1" x="60.92" y="11.27" width="0.35" height="8.07"/><rect class="cls-1" x="61.27" y="11.27" width="0.35" height="8.07"/><rect class="cls-1" x="61.62" y="11.27" width="0.35" height="8.07"/><rect class="cls-1" x="61.98" y="11.27" width="0.35" height="8.07"/><rect class="cls-1" x="62.33" y="11.27" width="0.35" height="8.07"/><rect class="cls-1" x="62.68" y="11.27" width="0.35" height="8.07"/><rect class="cls-1" x="63.03" y="11.27" width="0.35" height="8.07"/><path class="cls-1" d="M63.38,19.34v0Z"/></g><path class="cls-1" d="M69.13,18.59a2.77,2.77,0,0,1-2,.69A3.43,3.43,0,0,1,64.43,18l.94-1.39a3.4,3.4,0,0,0,.85.65,1.73,1.73,0,0,0,.79.23.77.77,0,0,0,.6-.23.94.94,0,0,0,.22-.67V13.07H65.14V11.39h4.72v5.27A2.54,2.54,0,0,1,69.13,18.59Z"/><g class="cls-5"><path class="cls-1" d="M64.43,11.39v0Z"/><rect class="cls-1" x="64.43" y="11.39" width="0.23" height="7.9"/><rect class="cls-1" x="64.66" y="11.39" width="0.23" height="7.9"/><rect class="cls-1" x="64.88" y="11.39" width="0.23" height="7.9"/><rect class="cls-1" x="65.11" y="11.39" width="0.23" height="7.9"/><rect class="cls-1" x="65.34" y="11.39" width="0.23" height="7.9"/><rect class="cls-1" x="65.56" y="11.39" width="0.23" height="7.9"/><rect class="cls-1" x="65.79" y="11.39" width="0.23" height="7.9"/><rect class="cls-1" x="66.01" y="11.39" width="0.23" height="7.9"/><rect class="cls-1" x="66.24" y="11.39" width="0.23" height="7.9"/><rect class="cls-1" x="66.47" y="11.39" width="0.23" height="7.9"/><rect class="cls-1" x="66.69" y="11.39" width="0.23" height="7.9"/><rect class="cls-1" x="66.92" y="11.39" width="0.23" height="7.9"/><rect class="cls-1" x="67.15" y="11.39" width="0.23" height="7.9"/><rect class="cls-1" x="67.37" y="11.39" width="0.23" height="7.9"/><rect class="cls-1" x="67.6" y="11.39" width="0.23" height="7.9"/><rect class="cls-1" x="67.83" y="11.39" width="0.23" height="7.9"/><rect class="cls-1" x="68.05" y="11.39" width="0.23" height="7.9"/><rect class="cls-1" x="68.28" y="11.39" width="0.23" height="7.9"/><rect class="cls-1" x="68.51" y="11.39" width="0.23" height="7.9"/><rect class="cls-1" x="68.73" y="11.39" width="0.23" height="7.9"/><rect class="cls-1" x="68.96" y="11.39" width="0.23" height="7.9"/><rect class="cls-1" x="69.18" y="11.39" width="0.23" height="7.9"/><rect class="cls-1" x="69.41" y="11.39" width="0.23" height="7.9"/><rect class="cls-1" x="69.64" y="11.39" width="0.23" height="7.9"/><path class="cls-1" d="M69.86,19.28v0Z"/></g><path class="cls-1" d="M72.36,11.39h6.16V13H74.4v1.46h3.72v1.61H74.4v1.47h4.23V19.2H72.36Z"/><g class="cls-6"><path class="cls-1" d="M72.36,11.39v0Z"/><rect class="cls-1" x="72.36" y="11.39" width="0.26" height="7.81"/><rect class="cls-1" x="72.62" y="11.39" width="0.26" height="7.81"/><rect class="cls-1" x="72.88" y="11.39" width="0.26" height="7.81"/><rect class="cls-1" x="73.14" y="11.39" width="0.26" height="7.81"/><rect class="cls-1" x="73.4" y="11.39" width="0.26" height="7.81"/><rect class="cls-1" x="73.66" y="11.39" width="0.26" height="7.81"/><rect class="cls-1" x="73.93" y="11.39" width="0.26" height="7.81"/><rect class="cls-1" x="74.19" y="11.39" width="0.26" height="7.81"/><rect class="cls-1" x="74.45" y="11.39" width="0.26" height="7.81"/><rect class="cls-1" x="74.71" y="11.39" width="0.26" height="7.81"/><rect class="cls-1" x="74.97" y="11.39" width="0.26" height="7.81"/><rect class="cls-1" x="75.23" y="11.39" width="0.26" height="7.81"/><rect class="cls-1" x="75.49" y="11.39" width="0.26" height="7.81"/><rect class="cls-1" x="75.75" y="11.39" width="0.26" height="7.81"/><rect class="cls-1" x="76.02" y="11.39" width="0.26" height="7.81"/><rect class="cls-1" x="76.28" y="11.39" width="0.26" height="7.81"/><rect class="cls-1" x="76.54" y="11.39" width="0.26" height="7.81"/><rect class="cls-1" x="76.8" y="11.39" width="0.26" height="7.81"/><rect class="cls-1" x="77.06" y="11.39" width="0.26" height="7.81"/><rect class="cls-1" x="77.32" y="11.39" width="0.26" height="7.81"/><rect class="cls-1" x="77.58" y="11.39" width="0.26" height="7.81"/><rect class="cls-1" x="77.84" y="11.39" width="0.26" height="7.81"/><rect class="cls-1" x="78.11" y="11.39" width="0.26" height="7.81"/><rect class="cls-1" x="78.37" y="11.39" width="0.26" height="7.81"/><path class="cls-1" d="M78.63,19.2v0Z"/></g><path class="cls-1" d="M85.73,13.28a2.15,2.15,0,0,0-1-.28,2,2,0,0,0-1.07.3,2.09,2.09,0,0,0-.76.81,2.52,2.52,0,0,0,0,2.3,2.09,2.09,0,0,0,.76.81,2,2,0,0,0,1.07.3,2.37,2.37,0,0,0,1-.25,3.16,3.16,0,0,0,.94-.67l1.19,1.28a4.76,4.76,0,0,1-1.51,1.06,4.19,4.19,0,0,1-3.83-.14A3.9,3.9,0,0,1,81,17.35a4.06,4.06,0,0,1-.53-2.07,3.89,3.89,0,0,1,2-3.49,4.44,4.44,0,0,1,3.85-.16,4.26,4.26,0,0,1,1.44,1L86.63,14A2.91,2.91,0,0,0,85.73,13.28Z"/><g class="cls-7"><path class="cls-1" d="M80.49,11.27v0Z"/><rect class="cls-1" x="80.49" y="11.27" width="0.31" height="8.07"/><rect class="cls-1" x="80.79" y="11.27" width="0.31" height="8.07"/><rect class="cls-1" x="81.1" y="11.27" width="0.31" height="8.07"/><rect class="cls-1" x="81.41" y="11.27" width="0.31" height="8.07"/><rect class="cls-1" x="81.71" y="11.27" width="0.31" height="8.07"/><rect class="cls-1" x="82.02" y="11.27" width="0.31" height="8.07"/><rect class="cls-1" x="82.32" y="11.27" width="0.31" height="8.07"/><rect class="cls-1" x="82.63" y="11.27" width="0.31" height="8.07"/><rect class="cls-1" x="82.93" y="11.27" width="0.31" height="8.07"/><rect class="cls-1" x="83.24" y="11.27" width="0.31" height="8.07"/><rect class="cls-1" x="83.55" y="11.27" width="0.31" height="8.07"/><rect class="cls-1" x="83.85" y="11.27" width="0.31" height="8.07"/><rect class="cls-1" x="84.16" y="11.27" width="0.31" height="8.07"/><rect class="cls-1" x="84.46" y="11.27" width="0.31" height="8.07"/><rect class="cls-1" x="84.77" y="11.27" width="0.31" height="8.07"/><rect class="cls-1" x="85.07" y="11.27" width="0.31" height="8.07"/><rect class="cls-1" x="85.38" y="11.27" width="0.31" height="8.07"/><rect class="cls-1" x="85.69" y="11.27" width="0.31" height="8.07"/><rect class="cls-1" x="85.99" y="11.27" width="0.31" height="8.07"/><rect class="cls-1" x="86.3" y="11.27" width="0.31" height="8.07"/><rect class="cls-1" x="86.6" y="11.27" width="0.31" height="8.07"/><rect class="cls-1" x="86.91" y="11.27" width="0.31" height="8.07"/><rect class="cls-1" x="87.22" y="11.27" width="0.31" height="8.07"/><rect class="cls-1" x="87.52" y="11.27" width="0.31" height="8.07"/><path class="cls-1" d="M87.83,19.34v0Z"/></g><path class="cls-1" d="M89.13,11.39h6.69v1.68H93.48V19.2h-2V13.07H89.13Z"/><g class="cls-8"><path class="cls-1" d="M89.13,11.39v0Z"/><rect class="cls-1" x="89.13" y="11.39" width="0.28" height="7.81"/><rect class="cls-1" x="89.41" y="11.39" width="0.28" height="7.81"/><rect class="cls-1" x="89.69" y="11.39" width="0.28" height="7.81"/><rect class="cls-1" x="89.97" y="11.39" width="0.28" height="7.81"/><rect class="cls-1" x="90.24" y="11.39" width="0.28" height="7.81"/><rect class="cls-1" x="90.52" y="11.39" width="0.28" height="7.81"/><rect class="cls-1" x="90.8" y="11.39" width="0.28" height="7.81"/><rect class="cls-1" x="91.08" y="11.39" width="0.28" height="7.81"/><rect class="cls-1" x="91.36" y="11.39" width="0.28" height="7.81"/><rect class="cls-1" x="91.64" y="11.39" width="0.28" height="7.81"/><rect class="cls-1" x="91.92" y="11.39" width="0.28" height="7.81"/><rect class="cls-1" x="92.2" y="11.39" width="0.28" height="7.81"/><rect class="cls-1" x="92.48" y="11.39" width="0.28" height="7.81"/><rect class="cls-1" x="92.75" y="11.39" width="0.28" height="7.81"/><rect class="cls-1" x="93.03" y="11.39" width="0.28" height="7.81"/><rect class="cls-1" x="93.31" y="11.39" width="0.28" height="7.81"/><rect class="cls-1" x="93.59" y="11.39" width="0.28" height="7.81"/><rect class="cls-1" x="93.87" y="11.39" width="0.28" height="7.81"/><rect class="cls-1" x="94.15" y="11.39" width="0.28" height="7.81"/><rect class="cls-1" x="94.43" y="11.39" width="0.28" height="7.81"/><rect class="cls-1" x="94.71" y="11.39" width="0.28" height="7.81"/><rect class="cls-1" x="94.99" y="11.39" width="0.28" height="7.81"/><rect class="cls-1" x="95.26" y="11.39" width="0.28" height="7.81"/><rect class="cls-1" x="95.54" y="11.39" width="0.28" height="7.81"/><path class="cls-1" d="M95.82,19.2v0Z"/></g><g class="cls-9"><path class="cls-1" d="M50.79,23.15a1.42,1.42,0,0,1,0,2.49,1.54,1.54,0,0,1-.76.19H48.88V23H50A1.52,1.52,0,0,1,50.79,23.15Zm-.15,2.27a1.18,1.18,0,0,0,0-2.05,1.19,1.19,0,0,0-.6-.16h-.87v2.36H50A1.17,1.17,0,0,0,50.64,25.42Z"/><path class="cls-1" d="M56.25,23h1.92v.25H56.54v1H58v.25H56.54v1.08h1.69v.25h-2Z"/><path class="cls-1" d="M64.24,23.26a1.44,1.44,0,0,0-.39-.06.85.85,0,0,0-.47.12.36.36,0,0,0-.18.32.42.42,0,0,0,.1.29.7.7,0,0,0,.24.17l.39.14a3.4,3.4,0,0,1,.47.17.83.83,0,0,1,.3.24.74.74,0,0,1,0,.83.83.83,0,0,1-.36.27,1.4,1.4,0,0,1-.54.1,1.51,1.51,0,0,1-.59-.12,1.58,1.58,0,0,1-.49-.32l.13-.23a1.42,1.42,0,0,0,.45.3,1.29,1.29,0,0,0,.5.11.9.9,0,0,0,.52-.13.42.42,0,0,0,.19-.36.44.44,0,0,0-.1-.3.65.65,0,0,0-.24-.18l-.4-.14a4.15,4.15,0,0,1-.47-.17.79.79,0,0,1-.3-.24.65.65,0,0,1-.12-.41.62.62,0,0,1,.12-.38.78.78,0,0,1,.35-.25,1.38,1.38,0,0,1,.51-.09,1.74,1.74,0,0,1,.89.25l-.12.24A1.48,1.48,0,0,0,64.24,23.26Z"/><path class="cls-1" d="M69.64,23h.28v2.87h-.28Z"/><path class="cls-1" d="M77,24.43h.25v1.05a1.59,1.59,0,0,1-.49.28,1.64,1.64,0,0,1-.57.1,1.5,1.5,0,0,1-1.29-.73,1.41,1.41,0,0,1-.2-.74,1.39,1.39,0,0,1,.2-.73,1.47,1.47,0,0,1,.55-.53,1.52,1.52,0,0,1,.76-.2,1.6,1.6,0,0,1,.57.1,1.54,1.54,0,0,1,.48.29l-.16.2a1.25,1.25,0,0,0-.41-.25,1.32,1.32,0,0,0-.48-.09,1.2,1.2,0,0,0-.61.16,1.22,1.22,0,0,0-.44.44,1.16,1.16,0,0,0-.16.6,1.17,1.17,0,0,0,.16.61,1.23,1.23,0,0,0,1.06.6,1.29,1.29,0,0,0,.41-.07,1.41,1.41,0,0,0,.38-.19Z"/><path class="cls-1" d="M84.24,23h.28v2.87h-.3L82.44,23.4v2.43h-.28V23h.3l1.78,2.43Z"/></g></g></g></svg>