<svg xmlns="http://www.w3.org/2000/svg" viewBox="0 0 266.84 333.74"><defs><style>.cls-1{fill:#006df0;}.cls-2{isolation:isolate;}.cls-3{fill:#fff;}.cls-4{fill:#673ab7;}.cls-5{fill:#ff9800;}.cls-6{fill:#ffeb3b;}.cls-7{fill:#f44336;}.cls-8{fill:#e91e63;}.cls-9{fill:#4caf50;}.cls-10{opacity:0.6;}</style></defs><title>teste</title><g id="Camada_2" data-name="Camada 2"><g id="OBJECTS"><g id="_Grupo_" data-name="&lt;Grupo&gt;"><g id="_Grupo_2" data-name="&lt;Grupo&gt;"><path id="_Caminho_" data-name="&lt;Caminho&gt;" class="cls-1" d="M252.92,45,164.58,275.4c-4.41,11.5-17.91,22.38-30.14,24.28L18,317.83c-6.15,1-10.82-.54-13.37-3.72l12.52,15.63c2.55,3.19,7.22,4.68,13.37,3.72L147,315.31c12.23-1.91,25.73-12.78,30.14-24.28l88.34-230.4c2.19-5.72,1.73-10.51-.79-13.66L252.13,31.34C254.65,34.49,255.11,39.28,252.92,45Z"/><g id="_Grupo_3" data-name="&lt;Grupo&gt;"><g id="_Grupo_4" data-name="&lt;Grupo&gt;" class="cls-2"><path id="_Caminho_2" data-name="&lt;Caminho&gt;" class="cls-1" d="M250.47,42l-88.34,230.4c-4.41,11.5-17.91,22.38-30.14,24.28L15.57,314.79c-6.15,1-10.82-.54-13.37-3.72L14.71,326.7c2.55,3.19,7.22,4.68,13.37,3.72l116.43-18.15c12.23-1.91,25.73-12.78,30.14-24.28L263,57.59c2.19-5.72,1.73-10.51-.79-13.66L249.68,28.3C252.2,31.45,252.67,36.25,250.47,42Z"/><g id="_Grupo_5" data-name="&lt;Grupo&gt;"><path id="_Caminho_3" data-name="&lt;Caminho&gt;" class="cls-1" d="M236.31,24.58c12.23-1.91,18.58,5.87,14.16,17.38l-88.34,230.4c-4.41,11.5-17.91,22.38-30.14,24.28L15.57,314.79C3.34,316.7-3,308.92,1.4,297.42L89.74,67c4.41-11.51,17.91-22.38,30.14-24.28Z"/></g></g></g><g id="_Grupo_6" data-name="&lt;Grupo&gt;"><path id="_Caminho_4" data-name="&lt;Caminho&gt;" class="cls-3" d="M232.15,28.93c11.67-1.82,17.73,5.6,13.52,16.58L160,268.81c-4.21,11-17.09,21.35-28.76,23.17L20.17,309.3C8.5,311.12,2.45,303.69,6.66,292.72L92.29,69.42c4.21-11,17.09-21.35,28.76-23.17Z"/></g><path id="_Caminho_5" data-name="&lt;Caminho&gt;" class="cls-3" d="M250.47,42l-88.34,230.4c-4.41,11.5-17.91,22.38-30.14,24.28L15.57,314.79c-6.15,1-10.82-.54-13.37-3.72L14.71,326.7c2.55,3.19,7.22,4.68,13.37,3.72l116.43-18.15c12.23-1.91,25.73-12.78,30.14-24.28L263,57.59c2.19-5.72,1.73-10.51-.79-13.66L249.68,28.3C252.2,31.45,252.67,36.25,250.47,42Z"/><g id="_Grupo_7" data-name="&lt;Grupo&gt;"><polygon id="_Caminho_6" data-name="&lt;Caminho&gt;" class="cls-1" points="240.69 50.42 162.5 253.83 15.86 276.69 94.04 73.28 240.69 50.42"/><g id="_Grupo_8" data-name="&lt;Grupo&gt;"><polygon id="_Caminho_7" data-name="&lt;Caminho&gt;" class="cls-1" points="240.69 50.42 236.07 62.45 89.4 85.36 94.04 73.28 240.69 50.42"/></g></g><g id="_Grupo_9" data-name="&lt;Grupo&gt;"><g id="_Grupo_10" data-name="&lt;Grupo&gt;"><path id="_Caminho_8" data-name="&lt;Caminho&gt;" class="cls-1" d="M250,69.93a8.38,8.38,0,0,1,1.17,7.54l-13.84,35.81c-.65,1.68-1.87,2.3-3.09,1.76a3.5,3.5,0,0,1-1.28-1,8.43,8.43,0,0,1-1.18-7.57l13.84-35.82a3.6,3.6,0,0,1,.85-1.33C247.43,68.33,248.82,68.51,250,69.93Z"/></g><g id="_Grupo_11" data-name="&lt;Grupo&gt;"><path id="_Caminho_9" data-name="&lt;Caminho&gt;" class="cls-1" d="M247.74,70.34a8.43,8.43,0,0,1,1.18,7.55L235.07,113.7a3.53,3.53,0,0,1-.87,1.35,3.5,3.5,0,0,1-1.28-1,8.43,8.43,0,0,1-1.18-7.57l13.84-35.82a3.6,3.6,0,0,1,.85-1.33A3.57,3.57,0,0,1,247.74,70.34Z"/></g></g><g id="_Grupo_12" data-name="&lt;Grupo&gt;"><g id="_Grupo_13" data-name="&lt;Grupo&gt;"><path id="_Caminho_10" data-name="&lt;Caminho&gt;" class="cls-1" d="M187.11,47.16a1.87,1.87,0,0,1-.14.89,4.55,4.55,0,0,1-3.23,2.6l-26,4.05a2,2,0,0,1-.91-.05c-.68-.22-1-.92-.61-1.81a4.59,4.59,0,0,1,3.23-2.6l26-4C186.41,46,187,46.45,187.11,47.16Z"/></g><g id="_Grupo_14" data-name="&lt;Grupo&gt;"><path id="_Caminho_11" data-name="&lt;Caminho&gt;" class="cls-1" d="M187.11,47.16a1.87,1.87,0,0,1-.14.89,4.55,4.55,0,0,1-3.23,2.6l-26,4.05a2,2,0,0,1-.91-.05,1.81,1.81,0,0,1,.14-.89,4.56,4.56,0,0,1,3.23-2.6l26-4.05A2,2,0,0,1,187.11,47.16Z"/></g></g><g id="_Grupo_15" data-name="&lt;Grupo&gt;"><g id="_Grupo_16" data-name="&lt;Grupo&gt;"><path id="_Caminho_12" data-name="&lt;Caminho&gt;" class="cls-1" d="M90.63,272.46c2.75-.43,4.17,1.31,3.18,3.89L90,286.17a9.56,9.56,0,0,1-6.76,5.44l-10.44,1.63c-2.74.43-4.17-1.31-3.17-3.9l3.76-9.82a9.56,9.56,0,0,1,6.76-5.44Z"/></g><g id="_Grupo_17" data-name="&lt;Grupo&gt;"><path id="_Caminho_13" data-name="&lt;Caminho&gt;" class="cls-1" d="M134.12,272.28c1.52-.24,2.31.73,1.76,2.16a5.3,5.3,0,0,1-3.75,3l-15.58,2.43c-1.52.24-2.31-.73-1.76-2.16a5.3,5.3,0,0,1,3.75-3Z"/></g><g id="_Grupo_18" data-name="&lt;Grupo&gt;"><path id="_Caminho_14" data-name="&lt;Caminho&gt;" class="cls-1" d="M46.65,285.91c1.52-.24,2.31.73,1.76,2.16a5.3,5.3,0,0,1-3.75,3l-15.58,2.43c-1.52.24-2.31-.73-1.76-2.16a5.3,5.3,0,0,1,3.75-3Z"/></g></g><g id="_Grupo_19" data-name="&lt;Grupo&gt;"><g id="_Grupo_20" data-name="&lt;Grupo&gt;"><path id="_Caminho_15" data-name="&lt;Caminho&gt;" class="cls-1" d="M67.35,315.69a4.65,4.65,0,0,0,3.95,1.52l21-3.28c1-.16,1.47-.74,1.32-1.47a1.94,1.94,0,0,0-.41-.81,4.68,4.68,0,0,0-4-1.53l-21,3.27a2,2,0,0,0-.82.3C66.78,314.12,66.71,314.9,67.35,315.69Z"/></g><g id="_Grupo_21" data-name="&lt;Grupo&gt;"><path id="_Caminho_16" data-name="&lt;Caminho&gt;" class="cls-1" d="M67.83,314.53a4.68,4.68,0,0,0,4,1.53l21-3.28a.61.61,0,1,0,.42-1.13,4.68,4.68,0,0,0-4-1.53l-21,3.27a2,2,0,0,0-.82.3A2,2,0,0,0,67.83,314.53Z"/></g></g><g id="_Grupo_22" data-name="&lt;Grupo&gt;"><g id="_Grupo_23" data-name="&lt;Grupo&gt;"><path id="_Caminho_17" data-name="&lt;Caminho&gt;" class="cls-1" d="M101.95,310.13a2.08,2.08,0,0,1,.49,1.08c.08.74-.46,1.34-1.51,1.5A5.28,5.28,0,0,1,96.46,311c-.64-.8-.65-1.58-.12-2.09a2.12,2.12,0,0,1,1.13-.5A5.29,5.29,0,0,1,101.95,310.13Z"/></g><g id="_Grupo_24" data-name="&lt;Grupo&gt;"><path id="_Caminho_18" data-name="&lt;Caminho&gt;" class="cls-1" d="M101.95,310.13a2.08,2.08,0,0,1,.49,1.08,2.05,2.05,0,0,1-1.14.5A5.28,5.28,0,0,1,96.83,310a2,2,0,0,1-.49-1.09,2.12,2.12,0,0,1,1.13-.5A5.29,5.29,0,0,1,101.95,310.13Z"/></g></g><polygon id="_Caminho_19" data-name="&lt;Caminho&gt;" class="cls-4" points="104.33 230.98 94.56 256.44 56.55 262.3 66.53 236.85 104.33 230.98"/><polygon id="_Caminho_20" data-name="&lt;Caminho&gt;" class="cls-5" points="146.67 82.46 134.22 114.89 80.92 123.12 93.59 90.72 146.67 82.46"/><polygon id="_Caminho_21" data-name="&lt;Caminho&gt;" class="cls-6" points="62.3 237.53 52.53 263 25.21 267.18 35.2 241.74 62.3 237.53"/><polygon id="_Caminho_22" data-name="&lt;Caminho&gt;" class="cls-6" points="168.55 220.97 158.78 246.44 131.47 250.62 141.45 225.18 168.55 220.97"/><polygon id="_Caminho_23" data-name="&lt;Caminho&gt;" class="cls-7" points="226.97 70.47 214.63 102.63 180.14 107.91 192.75 75.78 226.97 70.47"/><polygon id="_Caminho_24" data-name="&lt;Caminho&gt;" class="cls-5" points="187.34 76.64 175.01 108.8 140.52 114.08 153.13 81.96 187.34 76.64"/><polygon id="_Caminho_25" data-name="&lt;Caminho&gt;" class="cls-7" points="140.94 123.59 134.45 140.71 70.31 150.59 77.15 133.51 140.94 123.59"/><polygon id="_Caminho_26" data-name="&lt;Caminho&gt;" class="cls-8" points="200.93 138.17 173.52 209.38 39.55 230.14 67.3 158.98 200.93 138.17"/><polygon id="_Caminho_27" data-name="&lt;Caminho&gt;" class="cls-9" points="210.78 112.7 204.28 129.83 185.63 132.62 192.47 115.54 210.78 112.7"/><polygon id="_Caminho_28" data-name="&lt;Caminho&gt;" class="cls-9" points="187.15 116.38 180.66 133.51 162 136.3 168.84 119.22 187.15 116.38"/><polygon id="_Caminho_29" data-name="&lt;Caminho&gt;" class="cls-9" points="164.34 119.94 157.84 137.06 139.19 139.86 146.02 122.78 164.34 119.94"/><polygon id="_Caminho_30" data-name="&lt;Caminho&gt;" class="cls-4" points="136.71 225.63 127.03 250.93 99.52 255.13 109.48 229.85 136.71 225.63"/></g></g><g class="cls-10"><polygon class="cls-3" points="44.65 0 145.75 147.76 145.75 119.51 225.79 119.51 253.11 74.69 127.08 74.69 127.08 44.81 224.18 44.81 224.18 0 44.65 0"/><polygon class="cls-3" points="100.94 146.67 149.48 213.83 149.48 321.17 100.94 321.17 100.94 146.67"/></g></g></g></svg>