<svg xmlns="http://www.w3.org/2000/svg" viewBox="0 0 521.49 648.42"><defs><style>.cls-1{fill:#fff;}.cls-2{fill:#006df4;}.cls-3{fill:#fcc5a7;}</style></defs><title>toque-celular</title><g id="Camada_2" data-name="Camada 2"><g id="_98" data-name="98"><rect class="cls-1" x="278.51" width="242.98" height="473.41" rx="31.58" ry="31.58"/><rect class="cls-2" x="369.45" y="34.79" width="61.1" height="8.56" rx="4.12" ry="4.12"/><circle class="cls-2" cx="400" cy="21.24" r="6.54"/><rect class="cls-2" x="287.85" y="60.59" width="224.29" height="354.64"/><polygon class="cls-1" points="103.98 496.22 212.97 568.74 178.57 620.33 70.62 546.95 103.98 496.22"/><polygon class="cls-1" points="89.27 501.22 208.97 586.98 171.04 648.42 0 648.38 89.27 501.22"/><path class="cls-3" d="M140.66,460.16s-3.11-25.28,8.29-46.62S184.8,359,201,334.3s26.59-25.5,35.81-21.05S249,324.1,245.9,328.44s-14,18.74-16.5,21.6c-3.43,4-.51,5.41.43,4.23,2-2.5,10.76-12,18.23-21.81s17.8-10.09,25.29-6.62,12,12.37,9.33,16.71-17.36,26.7-19.64,30.06-.13,3.5.86,3.5,13.29-16.87,20.64-27.38,17.46-13.1,25.79-10.32,13.69,9.52,11.51,13.69-22,34.53-23.61,37.31.79,4.36,4,.59,81.35-120.44,86.71-128,17-10.1,28.26-3.12,6,21.86,1.7,28.4S319.93,431.45,297.56,460.53c-1.42,1.85,1.52,2.42,2.51,1.43s20.31-25.91,32.47-40.68c12.93-15.71,23-14.38,26.88-13.21,4.95,1.48,9.13,3.66,11.64,6-3.35,2.82-11.55,10-15.06,15.16-2.49,3.7-4.08,8.74-3.19,12.67-13.57,13.54-32.07,30.86-50,46.83-34.48,30.68-73.71,41.76-73.71,41.76l-22.46,34.16L113.1,502.22Z"/><path class="cls-3" d="M356,429.24C359.5,424,367.7,416.9,371,414.08a6.79,6.79,0,0,1,2.39,4.12c.2,2-8.12,11.24-20.64,23.72C351.91,438,353.5,432.94,356,429.24Z"/></g></g></svg>