<svg xmlns="http://www.w3.org/2000/svg" viewBox="0 0 305 350.77"><defs><style>.cls-1{fill:none;}.cls-1,.cls-2{stroke:#ccc;stroke-linecap:round;stroke-linejoin:round;stroke-width:6px;}.cls-2{fill:#fff;}.cls-3{fill:#ccc;}</style></defs><title>visual-ideia</title><g id="Camada_2" data-name="Camada 2"><g id="Camada_1-2" data-name="Camada 1"><path class="cls-1" d="M85.31,265.92a31.52,31.52,0,0,1-31.48-31.76V3h189.8c17.55,0,31.29,14.26,31.29,31.81V215.07"/><path class="cls-1" d="M114.74,234.15V215.07H302v17.88c0,18.21-15.15,32.89-33.36,32.89H83A31.68,31.68,0,0,0,114.74,234.15Z"/><line class="cls-1" x1="91.05" y1="68.43" x2="237.7" y2="68.43"/><line class="cls-1" x1="91.05" y1="105.65" x2="237.7" y2="105.65"/><line class="cls-1" x1="91.05" y1="141.75" x2="237.7" y2="141.75"/><line class="cls-1" x1="91.05" y1="177.85" x2="237.7" y2="177.85"/><circle class="cls-2" cx="74.18" cy="276.59" r="71.18"/><rect class="cls-3" x="57.01" y="294.61" width="22.16" height="3.38" transform="translate(-178.36 118.26) rotate(-41.21)"/><path class="cls-3" d="M89.81,303.15,65.31,281.21l31.52-29.7L57,277,34.51,260l79.34-22.12Zm-19.5-22L88.36,297.3l18.69-50.78ZM42,261.39l15.15,11.45L100.67,245Z"/><path class="cls-3" d="M58.77,311.33,55.3,274l54.92-35.09,2.07,2.66-43,40.53Zm.08-35.56,1.87,20.1,5.62-15.66.29-.28,30.18-28.43Z"/></g></g></svg>