<svg xmlns="http://www.w3.org/2000/svg" viewBox="0 0 278.99 264.83"><defs><style>.cls-1{fill:none;stroke:#ccc;stroke-linecap:round;stroke-linejoin:round;stroke-width:6px;}</style></defs><title>visual-envio_1</title><g id="Camada_2" data-name="Camada 2"><g id="Camada_1-2" data-name="Camada 1"><polyline class="cls-1" points="99.96 28.99 136.47 3 175.22 29.37"/><path class="cls-1" d="M95.26,32.33"/><polyline class="cls-1" points="222.89 61.82 275.81 97.84 142.55 173.11 3.21 97.84 56.05 60.23"/><polyline class="cls-1" points="58.27 127.59 58.27 30.58 220.71 30.58 220.71 127.59"/><line class="cls-1" x1="89.86" y1="64.42" x2="189.13" y2="64.42"/><line class="cls-1" x1="89.86" y1="91.5" x2="189.13" y2="91.5"/><line class="cls-1" x1="89.86" y1="119.7" x2="189.13" y2="119.7"/><path class="cls-1" d="M276,97.84,142.53,173.11,3,97.84V242.57a19.49,19.49,0,0,0,19.77,19.26H256.25A19.46,19.46,0,0,0,276,242.57Z"/><line class="cls-1" x1="270.5" y1="255.93" x2="173.42" y2="155.67"/><line class="cls-1" x1="9.34" y1="255.93" x2="106.43" y2="155.67"/></g></g></svg>